<svg width="20" height="21" viewBox="0 0 20 21" fill="none" xmlns="http://www.w3.org/2000/svg">
<path d="M5.00004 6.87891C4.88953 6.87891 4.78355 6.9228 4.70541 7.00094C4.62727 7.07908 4.58337 7.18507 4.58337 7.29557V8.20057C4.58337 8.31108 4.62727 8.41706 4.70541 8.4952C4.78355 8.57334 4.88953 8.61724 5.00004 8.61724C5.11055 8.61724 5.21653 8.57334 5.29467 8.4952C5.37281 8.41706 5.41671 8.31108 5.41671 8.20057V7.29557C5.41671 7.18507 5.37281 7.07908 5.29467 7.00094C5.21653 6.9228 5.11055 6.87891 5.00004 6.87891ZM5.00004 9.14224C4.88953 9.14224 4.78355 9.18614 4.70541 9.26428C4.62727 9.34242 4.58337 9.4484 4.58337 9.55891V10.4639C4.58337 10.5744 4.62727 10.6804 4.70541 10.7585C4.78355 10.8367 4.88953 10.8806 5.00004 10.8806C5.11055 10.8806 5.21653 10.8367 5.29467 10.7585C5.37281 10.6804 5.41671 10.5744 5.41671 10.4639V9.55891C5.41671 9.4484 5.37281 9.34242 5.29467 9.26428C5.21653 9.18614 5.11055 9.14224 5.00004 9.14224ZM5.00004 11.4056C4.88953 11.4056 4.78355 11.4495 4.70541 11.5276C4.62727 11.6058 4.58337 11.7117 4.58337 11.8222V12.7272C4.58337 12.8377 4.62727 12.9437 4.70541 13.0219C4.78355 13.1 4.88953 13.1439 5.00004 13.1439C5.11055 13.1439 5.21653 13.1 5.29467 13.0219C5.37281 12.9437 5.41671 12.8377 5.41671 12.7272V11.8222C5.41671 11.7117 5.37281 11.6058 5.29467 11.5276C5.21653 11.4495 5.11055 11.4056 5.00004 11.4056Z" fill="#1B1B1B"/>
<path d="M3.69462 2.09766C3.44976 2.11784 3.21617 2.20929 3.02269 2.36071C2.82921 2.51214 2.68431 2.7169 2.60587 2.94974L2.05087 4.62516C1.37421 4.68182 0.833374 5.25016 0.833374 5.94016V7.59807C0.833437 7.68616 0.861417 7.77197 0.913297 7.84316C0.965177 7.91436 1.03829 7.96728 1.12212 7.99432C1.64212 8.16224 2.08337 8.81516 2.08337 9.61474C2.08337 10.4147 1.64212 11.0681 1.12212 11.2356C1.03822 11.2626 0.965061 11.3156 0.913174 11.3869C0.861288 11.4582 0.833348 11.5441 0.833374 11.6322V14.1222C0.835018 14.4734 0.975231 14.8096 1.22352 15.0579C1.4718 15.3062 1.80808 15.4464 2.15921 15.4481H8.73712L15.8113 17.8635C16.4646 18.0864 17.1792 17.7214 17.3946 17.0706L17.9346 15.4381C18.618 15.3889 19.1667 14.8172 19.1667 14.1222V11.6314C19.1666 11.5433 19.1387 11.4575 19.0868 11.3863C19.0349 11.3151 18.9618 11.2622 18.878 11.2352C18.358 11.0672 17.9167 10.4143 17.9167 9.61432C17.9167 8.81474 18.358 8.16141 18.878 7.99349C18.9618 7.96645 19.0349 7.91353 19.0868 7.84233C19.1387 7.77114 19.1666 7.68533 19.1667 7.59724V5.94016C19.165 5.5891 19.0247 5.25293 18.7764 5.00474C18.5281 4.75654 18.1919 4.61638 17.8409 4.61474H11.2646L4.19171 2.15682C4.02796 2.09974 3.84921 2.10682 3.69504 2.09766H3.69462ZM3.75587 2.92432C3.81004 2.92057 3.86629 2.92766 3.92254 2.94641L8.72421 4.61474H2.93254L3.39671 3.21057C3.4206 3.13214 3.46772 3.06279 3.53185 3.01168C3.59597 2.96058 3.67408 2.93012 3.75587 2.92432ZM2.15921 5.44807H4.58337V5.84432C4.58337 5.95483 4.62727 6.06081 4.70541 6.13895C4.78355 6.21709 4.88953 6.26099 5.00004 6.26099C5.11055 6.26099 5.21653 6.21709 5.29467 6.13895C5.37281 6.06081 5.41671 5.95483 5.41671 5.84432V5.44807H17.8409C18.1209 5.44807 18.3334 5.66057 18.3334 5.94016V7.35891C17.5638 7.76432 17.0834 8.63807 17.0834 9.61474C17.0834 10.591 17.5642 11.4647 18.3334 11.8697V14.1222C18.3334 14.4022 18.1209 14.6147 17.8409 14.6147H5.41587C5.41796 14.471 5.41671 14.3231 5.41671 14.1777C5.41671 14.0672 5.37281 13.9612 5.29467 13.883C5.21653 13.8049 5.11055 13.761 5.00004 13.761C4.88953 13.761 4.78355 13.8049 4.70541 13.883C4.62727 13.9612 4.58337 14.0672 4.58337 14.1777C4.58254 14.3222 4.58337 14.4718 4.58421 14.6147H2.15921C1.87879 14.6147 1.66671 14.4022 1.66671 14.1222V11.8706C2.43629 11.4652 2.91671 10.5914 2.91671 9.61474C2.91671 8.63807 2.43587 7.76474 1.66671 7.35974V5.94016C1.66671 5.66016 1.87921 5.44807 2.15921 5.44807ZM11.3159 15.4481H17.0534L16.6034 16.8085C16.5284 17.0347 16.3013 17.1502 16.0809 17.0752L11.3159 15.4481Z" fill="#1B1B1B"/>
<path d="M13.6509 10.6632C14.3925 10.6632 15.0025 11.2728 15.0025 12.0145C15.0025 12.7561 14.3925 13.367 13.6509 13.367C12.9092 13.367 12.2984 12.7561 12.2984 12.0145C12.2984 11.2728 12.9092 10.6632 13.6509 10.6632ZM13.6509 11.4966C13.3592 11.4966 13.1317 11.7232 13.1317 12.0145C13.1317 12.3057 13.3596 12.5336 13.6509 12.5336C13.9421 12.5336 14.1692 12.3061 14.1692 12.0145C14.1692 11.7228 13.9421 11.4966 13.6509 11.4966ZM9.68336 6.69531C10.0413 6.69707 10.3841 6.84003 10.6372 7.09314C10.8903 7.34625 11.0333 7.68903 11.035 8.04698C11.035 8.78865 10.425 9.39865 9.68294 9.39865C8.94086 9.39865 8.33044 8.78865 8.33044 8.04698C8.3322 7.68889 8.47528 7.34598 8.72857 7.09285C8.98186 6.83972 9.32527 6.69685 9.68336 6.69531ZM9.68336 7.52865C9.39169 7.52865 9.16378 7.75573 9.16378 8.04698C9.16378 8.33865 9.39169 8.56531 9.68294 8.56531C9.97461 8.56531 10.2017 8.33823 10.2017 8.04698C10.2017 7.75531 9.97503 7.52865 9.68336 7.52865ZM13.3563 7.7524L9.38794 11.7207C9.31205 11.7993 9.27005 11.9046 9.271 12.0138C9.27195 12.1231 9.31577 12.2276 9.39302 12.3048C9.47027 12.3821 9.57478 12.4259 9.68403 12.4268C9.79328 12.4278 9.89853 12.3858 9.97711 12.3099L13.9454 8.34156C14.0236 8.26343 14.0674 8.15746 14.0674 8.04698C14.0674 7.93649 14.0236 7.83053 13.9454 7.7524C13.775 7.60115 13.5163 7.58531 13.3563 7.7524Z" fill="#1B1B1B"/>
</svg>
