<svg width="20" height="21" viewBox="0 0 20 21" fill="none" xmlns="http://www.w3.org/2000/svg">
<path fill-rule="evenodd" clip-rule="evenodd" d="M4.8377 17.5653C4.77859 17.7406 4.69617 17.8627 4.59773 17.9527C4.48605 18.0549 4.34793 18.1234 4.16875 18.1602C3.99766 18.1953 3.77277 18.1993 3.47656 18.1993C3.18035 18.1993 2.95547 18.1953 2.78437 18.1602C2.6052 18.1234 2.46707 18.0549 2.35539 17.9527C2.21027 17.8199 2.1 17.6176 2.04773 17.2777C1.99488 16.9338 1.99219 16.3965 1.99219 15.5569C1.99219 14.7173 1.99488 14.18 2.04773 13.8361C2.1 13.4962 2.21027 13.2939 2.35539 13.1611C2.46707 13.0589 2.6052 12.9905 2.78437 12.9537C2.95547 12.9186 3.18035 12.9146 3.47656 12.9146C3.77277 12.9146 3.99766 12.9186 4.16875 12.9537C4.34793 12.9905 4.48605 13.0589 4.59773 13.1611C4.65668 13.215 4.70988 13.2804 4.75574 13.3619C5.06434 13.1255 5.44965 12.7025 5.46867 12.0549L5.46902 12.0432C5.46902 12.0432 5.47145 12.0161 5.47152 12.0157C5.47762 11.2698 6.08195 10.6646 6.83043 10.6602C7.58551 10.6557 8.20129 11.2641 8.20582 12.0203L8.20578 12.4632C8.21242 12.9544 8.10215 13.3068 7.98766 13.5596L8.4377 13.5617L8.63684 13.5626H8.63738C9.03363 13.5656 9.32559 13.5818 9.54109 13.6322C9.7468 13.6804 9.90023 13.7599 10.0199 13.869C10.1443 13.9823 10.2363 14.1299 10.2953 14.3321C10.3562 14.5408 10.3813 14.8276 10.3877 15.2252L10.3904 15.6729V15.6741C10.3904 16.7539 9.74465 17.2987 8.82516 17.5566C8.05133 17.7736 7.06457 17.7695 6.20711 17.7695L5.94848 17.7647C5.44664 17.7659 5.0918 17.6957 4.8377 17.5653ZM4.17547 14.6438C4.17176 14.4343 4.1648 14.259 4.15172 14.1123C4.14207 14.0045 4.12961 13.915 4.11074 13.8409C4.09918 13.7955 4.09398 13.7591 4.07039 13.7375C4.03102 13.7015 3.97008 13.7097 3.89293 13.7039C3.77754 13.6954 3.64012 13.6958 3.47656 13.6958C3.31301 13.6958 3.17559 13.6954 3.0602 13.7039C2.98305 13.7097 2.92211 13.7015 2.88273 13.7375C2.85914 13.7591 2.85395 13.7955 2.84238 13.8409C2.82352 13.915 2.81105 14.0045 2.80141 14.1123C2.77258 14.4355 2.77344 14.8973 2.77344 15.5569C2.77344 16.2166 2.77258 16.6784 2.80141 17.0016C2.81105 17.1094 2.82352 17.1989 2.84238 17.2729C2.85395 17.3183 2.85914 17.3547 2.88273 17.3763C2.92211 17.4123 2.98305 17.4041 3.0602 17.4099C3.17559 17.4185 3.31301 17.418 3.47656 17.418C3.64012 17.418 3.77754 17.4185 3.89293 17.4099C3.97008 17.4041 4.03102 17.4123 4.07039 17.3763C4.09398 17.3547 4.09918 17.3183 4.11074 17.2729C4.12961 17.1989 4.14207 17.1094 4.15172 17.0016C4.16699 16.8302 4.17395 16.6199 4.17707 16.3618C4.14043 15.9439 4.16512 15.3827 4.17547 14.6438ZM4.95801 16.3224C4.98121 16.5623 5.01059 16.7364 5.14391 16.8389C5.30434 16.9622 5.56059 16.9846 5.95367 16.9835L6.21438 16.9883C6.9982 16.9883 7.90422 17.0034 8.61418 16.8043C9.17945 16.6458 9.60871 16.3386 9.60914 15.6751L9.60652 15.2339C9.6023 14.9737 9.59309 14.7727 9.56152 14.6175C9.54625 14.5424 9.53453 14.4836 9.49363 14.4464C9.44699 14.4039 9.3773 14.3926 9.28734 14.3783C9.12008 14.3517 8.90598 14.3459 8.63203 14.3439L8.4341 14.3429L7.92598 14.3406L7.9243 14.3406C7.56652 14.3359 7.3759 14.2966 7.28793 14.2519C7.15828 14.1861 7.09262 14.0941 7.05715 13.9954C7.0273 13.9124 7.0177 13.8141 7.05094 13.6978C7.06676 13.6424 7.09832 13.5724 7.14477 13.4882C7.24102 13.314 7.43219 13.0092 7.42453 12.4695L7.42457 12.022C7.42164 11.6993 7.15812 11.4395 6.83512 11.4414C6.51152 11.4434 6.25078 11.7073 6.25273 12.0309L6.25285 12.0495C6.25285 12.0495 6.24934 12.0887 6.24922 12.0894C6.21055 13.2239 5.40027 13.8843 4.96066 14.1604C4.96033 14.3257 4.95881 14.491 4.95609 14.6563C4.96047 14.9092 4.96094 15.2068 4.96094 15.5569C4.96094 15.8466 4.96063 16.1002 4.95801 16.3224ZM10.0569 11.4371C8.27242 11.4371 6.82582 9.99055 6.82582 8.20605C6.82582 6.4216 8.27242 4.97504 10.0569 4.97504C11.8413 4.97504 13.2879 6.4216 13.2879 8.20605C13.2879 9.99055 11.8413 11.4371 10.0569 11.4371ZM10.0569 10.6559C11.4098 10.6559 12.5067 9.55906 12.5067 8.20605C12.5067 6.85309 11.4098 5.75629 10.0569 5.75629C8.70391 5.75629 7.60707 6.85309 7.60707 8.20605C7.60707 9.55906 8.70391 10.6559 10.0569 10.6559ZM15.6974 14.342C15.8189 14.52 15.7731 14.7633 15.595 14.8848C15.417 15.0064 15.1737 14.9605 15.0521 14.7825C14.3927 13.8166 12.9881 12.8379 10.0569 12.8379C9.63895 12.8379 9.25031 12.8586 8.8891 12.8972C8.67473 12.92 8.48211 12.7646 8.45922 12.5502C8.43637 12.3358 8.59184 12.1432 8.80621 12.1203C9.19305 12.079 9.60926 12.0566 10.0569 12.0566C13.3848 12.0566 14.9487 13.2454 15.6974 14.342ZM11.1146 17.3778C10.899 17.3785 10.7234 17.2041 10.7227 16.9885C10.7219 16.7729 10.8964 16.5973 11.112 16.5965C12.5345 16.5917 13.6016 16.5684 14.4018 16.4332C15.0996 16.3153 15.5741 16.1212 15.8843 15.7346C16.1384 15.4177 16.28 14.9834 16.3715 14.3989C16.5259 13.4122 16.5234 12.0351 16.5234 10.1133C16.5234 8.08309 16.527 6.66176 16.3443 5.66699C16.2379 5.08824 16.0737 4.66914 15.7785 4.37387C15.4832 4.07859 15.0641 3.91441 14.4854 3.80809C13.4906 3.62539 12.0693 3.62891 10.0391 3.62891C8.00887 3.62891 6.58754 3.62539 5.59277 3.80809C5.01402 3.91441 4.59492 4.07859 4.29965 4.37387C4.00437 4.66914 3.8402 5.08824 3.73387 5.66699C3.55117 6.66176 3.55469 8.08309 3.55469 10.1133C3.55469 10.9843 3.55465 11.3555 3.56875 12.019C3.57336 12.2346 3.40207 12.4133 3.18652 12.4179C2.97098 12.4225 2.79227 12.2512 2.7877 12.0357C2.77348 11.3664 2.77344 10.9919 2.77344 10.1133C2.77344 8.01848 2.77695 6.5523 2.96551 5.52582C3.10672 4.75699 3.35496 4.21371 3.74723 3.82145C4.13949 3.42918 4.68277 3.18094 5.4516 3.03973C6.47809 2.85117 7.94426 2.84766 10.0391 2.84766C12.1339 2.84766 13.6 2.85117 14.6265 3.03973C15.3954 3.18094 15.9386 3.42918 16.3309 3.82145C16.7232 4.21371 16.9714 4.75699 17.1126 5.52582C17.3012 6.5523 17.3047 8.01848 17.3047 10.1133C17.3047 12.0894 17.3022 13.5052 17.1434 14.5196C17.026 15.2693 16.8196 15.8171 16.4937 16.2234C16.1552 16.6454 15.6868 16.9256 15.0234 17.0994C14.1487 17.3285 12.8996 17.3717 11.1146 17.3778Z" fill="#1B1B1B"/>
</svg>
