<svg width="26" height="16" viewBox="0 0 26 16" fill="none" xmlns="http://www.w3.org/2000/svg">
<g clip-path="url(#clip0_1145_45452)">
<path d="M23.2557 0H2.73654C2.65107 0 2.56544 0 2.48012 0.00045298C2.40809 0.00105695 2.3362 0.00181192 2.26417 0.00377483C2.10726 0.00800264 1.949 0.0173642 1.79406 0.045147C1.63867 0.0717655 1.48812 0.121383 1.34736 0.192365C1.06438 0.336274 0.834369 0.56625 0.69044 0.849186C0.619321 0.989982 0.56969 1.14063 0.5432 1.29613C0.515112 1.4512 0.5059 1.60929 0.501671 1.76602C0.499831 1.83798 0.498723 1.90995 0.498349 1.98194C0.498047 2.0671 0.498047 2.15256 0.498047 2.23817V13.7617C0.498047 13.8473 0.498047 13.9326 0.498349 14.0182C0.498802 14.0901 0.499708 14.1621 0.501671 14.2341C0.5059 14.3906 0.515263 14.5488 0.5432 14.7037C0.569636 14.8592 0.619216 15.0099 0.690289 15.1507C0.761747 15.2913 0.855021 15.4197 0.966647 15.5312C1.07808 15.6428 1.20653 15.7361 1.3472 15.8075C1.49022 15.8804 1.6367 15.9268 1.79421 15.955C1.949 15.9826 2.10726 15.992 2.26417 15.9962C2.3362 15.9979 2.40809 15.9988 2.48012 15.9992C2.56544 15.9998 2.65107 15.9998 2.73654 15.9998H23.2557C23.341 15.9998 23.4267 15.9998 23.512 15.9992C23.5839 15.9989 23.6558 15.9979 23.7281 15.9962C23.8847 15.992 24.043 15.9826 24.1982 15.955C24.3536 15.9284 24.5042 15.8786 24.6449 15.8075C24.9277 15.6634 25.1577 15.4335 25.3018 15.1507C25.3748 15.0077 25.421 14.8612 25.4489 14.7037C25.477 14.5488 25.4861 14.3906 25.4903 14.2341C25.4922 14.1621 25.4933 14.0901 25.4936 14.0182C25.4942 13.9326 25.4942 13.8473 25.4942 13.7617V2.23832C25.4942 2.15271 25.4942 2.06725 25.4936 1.98179C25.4933 1.90985 25.4922 1.83793 25.4903 1.76602C25.4861 1.60929 25.477 1.4512 25.4489 1.29613C25.4226 1.14061 25.373 0.989935 25.3018 0.849186C25.1578 0.566299 24.9278 0.336342 24.6449 0.192365C24.5041 0.121456 24.3536 0.0718906 24.1982 0.045298C24.043 0.0173642 23.8847 0.00815364 23.7281 0.00392583C23.6561 0.00209689 23.584 0.000989547 23.512 0.000603973C23.4267 0 23.341 0 23.2557 0Z" fill="#E4E4E4"/>
<path d="M23.2531 0.533203L23.5056 0.533656C23.5738 0.534109 23.6423 0.534864 23.711 0.536676C23.8307 0.539998 23.9706 0.546491 24.101 0.569894C24.2143 0.590279 24.3094 0.621232 24.4007 0.667738C24.5832 0.760532 24.7315 0.908965 24.8241 1.09158C24.8703 1.18217 24.9011 1.27669 24.9215 1.391C24.9448 1.51994 24.9513 1.66022 24.9544 1.78056C24.9564 1.84851 24.9573 1.91645 24.9574 1.98591C24.9582 2.07001 24.9582 2.15396 24.9582 2.23822V13.7617C24.9582 13.846 24.9582 13.9299 24.9576 14.0157C24.9573 14.0836 24.9564 14.1516 24.9546 14.2195C24.9513 14.3397 24.9448 14.48 24.9212 14.6105C24.9041 14.7142 24.8712 14.8148 24.8238 14.9087C24.731 15.0913 24.5825 15.2398 24.3997 15.3325C24.3091 15.3787 24.2143 15.4097 24.1021 15.4299C23.9691 15.4536 23.8232 15.4601 23.7134 15.4631C23.6444 15.4646 23.5757 15.4657 23.5051 15.466C23.4213 15.4666 23.3371 15.4666 23.2531 15.4666H2.7306C2.64754 15.4666 2.56448 15.4666 2.47991 15.466C2.41195 15.4657 2.34399 15.4648 2.27604 15.4633C2.16369 15.4602 2.01781 15.4536 1.88582 15.43C1.78146 15.4127 1.68035 15.3796 1.5859 15.3319C1.49531 15.2859 1.41263 15.2257 1.34096 15.1537C1.26906 15.082 1.20901 14.9993 1.16306 14.9087C1.1156 14.8143 1.08271 14.7132 1.06551 14.6089C1.04195 14.4786 1.0353 14.339 1.03228 14.2197C1.03058 14.1515 1.02957 14.0833 1.02926 14.0151L1.02881 13.8147V2.18537L1.02911 1.98531C1.02942 1.917 1.03043 1.84869 1.03213 1.78041C1.03545 1.66082 1.04195 1.52115 1.06566 1.38979C1.0829 1.28573 1.11579 1.18488 1.16321 1.09067C1.20927 1.00007 1.26942 0.917353 1.34141 0.845608C1.41325 0.773661 1.49603 0.713528 1.58666 0.667436C1.68087 0.620111 1.78167 0.587229 1.88567 0.569894C2.0163 0.546491 2.15629 0.539998 2.27619 0.536676C2.34434 0.534993 2.4125 0.533987 2.48067 0.533656L2.73392 0.533203H23.2531Z" fill="white"/>
<path d="M7.06469 5.40049C7.27669 5.1355 7.42043 4.77961 7.38253 4.41602C7.07239 4.43142 6.694 4.62061 6.47476 4.88591C6.27802 5.113 6.10392 5.48369 6.14922 5.83203C6.49741 5.86223 6.8453 5.65809 7.06469 5.40049ZM7.37861 5.90013C6.87278 5.86993 6.44305 6.18702 6.20161 6.18702C5.96003 6.18702 5.59024 5.91523 5.19026 5.92263C4.66979 5.93018 4.18691 6.22461 3.92267 6.69269C3.3794 7.62885 3.77923 9.01799 4.30771 9.7805C4.56424 10.158 4.87348 10.5732 5.28086 10.5583C5.66589 10.5432 5.81673 10.3091 6.28451 10.3091C6.75214 10.3091 6.88803 10.5583 7.29556 10.5507C7.71804 10.5432 7.98228 10.1732 8.23882 9.79575C8.53325 9.36542 8.65359 8.95019 8.66114 8.92754C8.65359 8.91999 7.84638 8.61031 7.83883 7.6817C7.83128 6.90408 8.4727 6.53415 8.5029 6.51135C8.14067 5.97562 7.57475 5.91523 7.37846 5.90013" fill="#24292A"/>
<path d="M12.4263 4.84766C13.5254 4.84766 14.2909 5.60519 14.2909 6.70804C14.2909 7.81482 13.5097 8.57628 12.3988 8.57628H11.1819V10.5114H10.3027V4.84766H12.4263ZM11.1819 7.83838H12.1907C12.9564 7.83838 13.3919 7.42632 13.3919 6.71197C13.3919 5.99777 12.9562 5.58949 12.1947 5.58949H11.1819V7.83838ZM14.509 9.33774C14.509 8.61162 15.0624 8.19563 16.083 8.13282L17.1781 8.06608V7.75201C17.1781 7.29299 16.876 7.04174 16.3382 7.04174C15.8945 7.04174 15.5726 7.26929 15.5061 7.61853H14.713C14.7367 6.88471 15.4274 6.35095 16.3618 6.35095C17.3666 6.35095 18.0222 6.87685 18.0222 7.69327V10.5113H17.2097V9.83225H17.1901C16.9584 10.2757 16.448 10.5543 15.8945 10.5543C15.0781 10.5543 14.509 10.0678 14.509 9.33774ZM17.1781 8.97279V8.6548L16.2008 8.71761C15.6511 8.75295 15.3648 8.95694 15.3648 9.31404C15.3648 9.65951 15.663 9.88328 16.1301 9.88328C16.7266 9.88328 17.1781 9.50248 17.1781 8.97279ZM18.7692 12.0262V11.3473C18.8242 11.355 18.9576 11.3629 19.0282 11.3629C19.4168 11.3629 19.6367 11.1983 19.7702 10.7741L19.8487 10.523L18.3609 6.40198H19.2794L20.3158 9.74588H20.3354L21.3717 6.40198H22.2667L20.724 10.731C20.3706 11.724 19.9663 12.0499 19.1107 12.0499C19.0439 12.0499 18.828 12.042 18.7692 12.0262Z" fill="#24292A"/>
</g>
<defs>
<clipPath id="clip0_1145_45452">
<rect width="25.337" height="16" fill="white" transform="translate(0.327637)"/>
</clipPath>
</defs>
</svg>
