<svg width="136" height="40" viewBox="0 0 136 40" fill="none" xmlns="http://www.w3.org/2000/svg">
<rect x="0.5" y="0.5" width="135" height="39" rx="3.5" stroke="url(#paint0_linear_1145_40932)"/>
<path d="M13.504 26V14.8H18.752C20.096 14.8 21.12 15.0667 21.824 15.6C22.528 16.1227 22.88 16.8267 22.88 17.712C22.88 18.3093 22.7413 18.8213 22.464 19.248C22.1867 19.664 21.8133 19.9893 21.344 20.224C20.8853 20.448 20.384 20.56 19.84 20.56L20.128 19.984C20.7573 19.984 21.3227 20.1013 21.824 20.336C22.3253 20.56 22.72 20.8907 23.008 21.328C23.3067 21.7653 23.456 22.3093 23.456 22.96C23.456 23.92 23.088 24.6667 22.352 25.2C21.616 25.7333 20.5227 26 19.072 26H13.504ZM15.584 24.368H18.944C19.7227 24.368 20.32 24.24 20.736 23.984C21.152 23.728 21.36 23.3173 21.36 22.752C21.36 22.1973 21.152 21.792 20.736 21.536C20.32 21.2693 19.7227 21.136 18.944 21.136H15.424V19.52H18.528C19.2533 19.52 19.808 19.392 20.192 19.136C20.5867 18.88 20.784 18.496 20.784 17.984C20.784 17.4613 20.5867 17.072 20.192 16.816C19.808 16.56 19.2533 16.432 18.528 16.432H15.584V24.368ZM29.0239 26.112C28.1492 26.112 27.3705 25.9253 26.6879 25.552C26.0052 25.168 25.4665 24.6453 25.0719 23.984C24.6772 23.3227 24.4799 22.5707 24.4799 21.728C24.4799 20.8747 24.6772 20.1227 25.0719 19.472C25.4665 18.8107 26.0052 18.2933 26.6879 17.92C27.3705 17.5467 28.1492 17.36 29.0239 17.36C29.9092 17.36 30.6932 17.5467 31.3759 17.92C32.0692 18.2933 32.6079 18.8053 32.9919 19.456C33.3865 20.1067 33.5839 20.864 33.5839 21.728C33.5839 22.5707 33.3865 23.3227 32.9919 23.984C32.6079 24.6453 32.0692 25.168 31.3759 25.552C30.6932 25.9253 29.9092 26.112 29.0239 26.112ZM29.0239 24.4C29.5145 24.4 29.9519 24.2933 30.3359 24.08C30.7199 23.8667 31.0185 23.5573 31.2319 23.152C31.4559 22.7467 31.5679 22.272 31.5679 21.728C31.5679 21.1733 31.4559 20.6987 31.2319 20.304C31.0185 19.8987 30.7199 19.5893 30.3359 19.376C29.9519 19.1627 29.5199 19.056 29.0399 19.056C28.5492 19.056 28.1119 19.1627 27.7279 19.376C27.3545 19.5893 27.0559 19.8987 26.8319 20.304C26.6079 20.6987 26.4959 21.1733 26.4959 21.728C26.4959 22.272 26.6079 22.7467 26.8319 23.152C27.0559 23.5573 27.3545 23.8667 27.7279 24.08C28.1119 24.2933 28.5439 24.4 29.0239 24.4ZM39.0364 26.112C38.1617 26.112 37.383 25.9253 36.7004 25.552C36.0177 25.168 35.479 24.6453 35.0844 23.984C34.6897 23.3227 34.4924 22.5707 34.4924 21.728C34.4924 20.8747 34.6897 20.1227 35.0844 19.472C35.479 18.8107 36.0177 18.2933 36.7004 17.92C37.383 17.5467 38.1617 17.36 39.0364 17.36C39.9217 17.36 40.7057 17.5467 41.3884 17.92C42.0817 18.2933 42.6204 18.8053 43.0044 19.456C43.399 20.1067 43.5964 20.864 43.5964 21.728C43.5964 22.5707 43.399 23.3227 43.0044 23.984C42.6204 24.6453 42.0817 25.168 41.3884 25.552C40.7057 25.9253 39.9217 26.112 39.0364 26.112ZM39.0364 24.4C39.527 24.4 39.9644 24.2933 40.3484 24.08C40.7324 23.8667 41.031 23.5573 41.2444 23.152C41.4684 22.7467 41.5804 22.272 41.5804 21.728C41.5804 21.1733 41.4684 20.6987 41.2444 20.304C41.031 19.8987 40.7324 19.5893 40.3484 19.376C39.9644 19.1627 39.5324 19.056 39.0524 19.056C38.5617 19.056 38.1244 19.1627 37.7404 19.376C37.367 19.5893 37.0684 19.8987 36.8444 20.304C36.6204 20.6987 36.5084 21.1733 36.5084 21.728C36.5084 22.272 36.6204 22.7467 36.8444 23.152C37.0684 23.5573 37.367 23.8667 37.7404 24.08C38.1244 24.2933 38.5564 24.4 39.0364 24.4ZM46.8409 24.096L46.8889 21.584L51.3529 17.456H53.7529L49.9609 21.264L48.9049 22.144L46.8409 24.096ZM45.2089 26V14.128H47.2089V26H45.2089ZM51.6569 26L48.5369 22.144L49.8009 20.544L54.0889 26H51.6569ZM59.3946 26V14.8H61.1066L68.1306 23.424H67.2826V14.8H69.3466V26H67.6346L60.6106 17.376H61.4586V26H59.3946ZM75.6958 26.112C74.8211 26.112 74.0424 25.9253 73.3598 25.552C72.6771 25.168 72.1384 24.6453 71.7438 23.984C71.3491 23.3227 71.1518 22.5707 71.1518 21.728C71.1518 20.8747 71.3491 20.1227 71.7438 19.472C72.1384 18.8107 72.6771 18.2933 73.3598 17.92C74.0424 17.5467 74.8211 17.36 75.6958 17.36C76.5811 17.36 77.3651 17.5467 78.0478 17.92C78.7411 18.2933 79.2798 18.8053 79.6638 19.456C80.0584 20.1067 80.2558 20.864 80.2558 21.728C80.2558 22.5707 80.0584 23.3227 79.6638 23.984C79.2798 24.6453 78.7411 25.168 78.0478 25.552C77.3651 25.9253 76.5811 26.112 75.6958 26.112ZM75.6958 24.4C76.1864 24.4 76.6238 24.2933 77.0078 24.08C77.3918 23.8667 77.6904 23.5573 77.9038 23.152C78.1278 22.7467 78.2398 22.272 78.2398 21.728C78.2398 21.1733 78.1278 20.6987 77.9038 20.304C77.6904 19.8987 77.3918 19.5893 77.0078 19.376C76.6238 19.1627 76.1918 19.056 75.7118 19.056C75.2211 19.056 74.7838 19.1627 74.3998 19.376C74.0264 19.5893 73.7278 19.8987 73.5038 20.304C73.2798 20.6987 73.1678 21.1733 73.1678 21.728C73.1678 22.272 73.2798 22.7467 73.5038 23.152C73.7278 23.5573 74.0264 23.8667 74.3998 24.08C74.7838 24.2933 75.2158 24.4 75.6958 24.4ZM83.5219 26L80.3859 17.456H82.2739L84.9619 24.992H84.0659L86.8819 17.456H88.5619L91.2979 24.992H90.4179L93.1859 17.456H94.9619L91.8099 26H89.8899L87.3939 19.328H87.9859L85.4419 26H83.5219Z" fill="url(#paint1_linear_1145_40932)"/>
<path d="M112.141 14.5899C111.907 14.7161 111.762 14.9562 111.762 15.2173V19.2827H103.734C103.329 19.2827 103 19.604 103 20C103 20.3959 103.329 20.7172 103.734 20.7172H111.762V24.7827C111.762 25.0447 111.907 25.2848 112.141 25.4101C112.375 25.5372 112.661 25.5286 112.888 25.39L120.657 20.6073C120.871 20.4753 121 20.2467 121 20C121 19.7532 120.871 19.5247 120.657 19.3927L112.888 14.61C112.768 14.5373 112.632 14.5 112.496 14.5C112.374 14.5 112.252 14.5306 112.141 14.5899Z" fill="url(#paint2_linear_1145_40932)"/>
<defs>
<linearGradient id="paint0_linear_1145_40932" x1="143.339" y1="-27.2539" x2="29.3867" y2="52.9571" gradientUnits="userSpaceOnUse">
<stop stop-color="#FEC12D"/>
<stop offset="1" stop-color="#FF552C"/>
</linearGradient>
<linearGradient id="paint1_linear_1145_40932" x1="100.533" y1="-8.35233" x2="31.5155" y2="41.6579" gradientUnits="userSpaceOnUse">
<stop stop-color="#FEC12D"/>
<stop offset="1" stop-color="#FF552C"/>
</linearGradient>
<linearGradient id="paint2_linear_1145_40932" x1="121.971" y1="7.00518" x2="101.739" y2="13.8595" gradientUnits="userSpaceOnUse">
<stop stop-color="#FEC12D"/>
<stop offset="1" stop-color="#FF552C"/>
</linearGradient>
</defs>
</svg>
