<svg width="40" height="40" viewBox="0 0 40 40" fill="none" xmlns="http://www.w3.org/2000/svg">
<circle cx="20" cy="20" r="20" fill="#D9D9D9"/>
<g clip-path="url(#clip0_1145_58212)">
<path d="M23.7891 10.5688C23.7502 10.5391 23.3894 10.2707 22.7468 10.0125C21.9189 9.67978 20.969 9.50391 19.9998 9.50391C19.0305 9.50391 18.0807 9.67978 17.2527 10.0125C16.6102 10.2707 16.2494 10.5391 16.2104 10.5689C16.0147 10.7181 15.8999 10.95 15.8999 11.1961V12.4336L16.6887 12.8555L17.4775 12.4336V11.6428C17.9104 11.4218 18.7761 11.0814 19.9997 11.0814C21.2234 11.0814 22.0891 11.4218 22.522 11.6428V12.4336L23.3107 12.8555L24.0996 12.4336V11.1961C24.0997 10.95 23.9848 10.718 23.7891 10.5688Z" fill="#E8834D"/>
<path d="M15.8999 12.4336V13.3045L16.6887 13.7264L17.4775 13.3045V12.4336H15.8999Z" fill="#D66E41"/>
<path d="M24.0996 12.4336H22.522V13.3045L23.3108 13.7264L24.0996 13.3045V12.4336Z" fill="#D66E41"/>
<path d="M8.62109 21.9805V28.9879C8.62109 29.8198 9.29548 30.4942 10.1274 30.4942H29.8729C30.7048 30.4942 31.3792 29.8198 31.3792 28.9879V21.9805H8.62109Z" fill="url(#paint0_linear_1145_58212)"/>
<path d="M8.62109 21.1094V21.9804C9.87247 22.974 13.1798 24.9027 20.0001 24.9027C26.8205 24.9027 30.1278 22.974 31.3792 21.9804V21.1094H8.62109V21.1094Z" fill="#2B4D66"/>
<path d="M8.55556 20.6095C9.75486 21.5859 13.0576 23.5844 20 23.5844C26.9424 23.5844 30.2451 21.5859 31.4444 20.6095C31.796 20.3233 32 19.4725 32 19.0192V14.811C32 13.9791 31.3256 13.3047 30.4937 13.3047H9.50628C8.67439 13.3047 8 13.9791 8 14.811V19.0192C8 19.4725 8.204 20.3233 8.55556 20.6095Z" fill="url(#paint1_linear_1145_58212)"/>
<path d="M31.4444 20.188C30.2451 21.1644 26.9424 23.1629 20 23.1629C13.0576 23.1629 9.75491 21.1643 8.55556 20.188C8.204 19.9018 8 19.4729 8 19.0195V19.8905C8 20.3438 8.204 20.7727 8.55556 21.059C9.75486 22.0354 13.0576 24.0338 20 24.0338C26.9424 24.0338 30.2451 22.0354 31.4444 21.059C31.796 20.7727 32 20.3438 32 19.8905V19.0195C32 19.4729 31.796 19.9018 31.4444 20.188Z" fill="url(#paint2_linear_1145_58212)"/>
<path d="M19.9998 25.4833C20.7791 25.4833 21.4107 24.9047 21.4107 23.6505V22.795C21.4107 22.5177 21.1859 22.293 20.9087 22.293H19.0909C18.8136 22.293 18.5889 22.5178 18.5889 22.795V23.6507C18.5888 24.9047 19.2206 25.4833 19.9998 25.4833Z" fill="#FFE27A"/>
<path d="M19.9998 25.0594C19.2206 25.0594 18.5889 24.4277 18.5889 23.6484V24.5194C18.5889 25.2987 19.2206 25.9304 19.9998 25.9304C20.7791 25.9304 21.4107 25.2987 21.4107 24.5194V23.6484C21.4107 24.4276 20.7791 25.0594 19.9998 25.0594Z" fill="#F9CF58"/>
</g>
<defs>
<linearGradient id="paint0_linear_1145_58212" x1="32.6073" y1="16.1797" x2="10.7766" y2="28.261" gradientUnits="userSpaceOnUse">
<stop stop-color="#FEC12D"/>
<stop offset="1" stop-color="#FF552C"/>
</linearGradient>
<linearGradient id="paint1_linear_1145_58212" x1="33.2951" y1="6.30065" x2="8.91757" y2="18.0836" gradientUnits="userSpaceOnUse">
<stop stop-color="#FEC12D"/>
<stop offset="1" stop-color="#FF552C"/>
</linearGradient>
<linearGradient id="paint2_linear_1145_58212" x1="33.2951" y1="15.603" x2="18.1213" y2="30.6388" gradientUnits="userSpaceOnUse">
<stop stop-color="#FEC12D"/>
<stop offset="1" stop-color="#FF552C"/>
</linearGradient>
<clipPath id="clip0_1145_58212">
<rect width="24" height="24" fill="white" transform="translate(8 8)"/>
</clipPath>
</defs>
</svg>
