<svg width="20" height="22" viewBox="0 0 20 22" fill="none" xmlns="http://www.w3.org/2000/svg">
<path d="M14.0147 2.48077e-06C14.4817 -0.00109448 14.851 0.361724 14.8521 0.845481L14.8532 1.67007C17.8833 1.90755 19.8849 3.97231 19.8881 7.13873L19.9001 16.4071C19.9044 19.8594 17.7356 21.9835 14.2591 21.989L5.76717 22C2.31242 22.0044 0.116403 19.8297 0.112059 16.3675L0.100105 7.20799C0.095768 4.02069 2.02678 1.96142 5.05689 1.68326L5.05581 0.858675C5.05472 0.374917 5.41312 0.0109995 5.89099 0.0109995C6.36885 0.00990001 6.72725 0.372718 6.72834 0.856476L6.72942 1.62609L13.1806 1.61729L13.1795 0.84768C13.1784 0.363923 13.5368 0.00110442 14.0147 2.48077e-06ZM14.4578 15.6111H14.447C13.9474 15.6232 13.5466 16.0421 13.5575 16.5478C13.5586 17.0536 13.9615 17.4702 14.4611 17.4812C14.9704 17.4801 15.3832 17.0613 15.3821 16.5445C15.3821 16.0278 14.9683 15.6111 14.4578 15.6111ZM5.50869 15.6122C5.0091 15.6342 4.61812 16.0531 4.61921 16.5588C4.64202 17.0646 5.05472 17.4604 5.55431 17.4373C6.04412 17.4153 6.43402 16.9964 6.41121 16.4906C6.40035 15.9959 5.99742 15.6111 5.50869 15.6122ZM9.98326 15.6067C9.48367 15.6298 9.09378 16.0476 9.09378 16.5533C9.11658 17.0591 9.52929 17.4538 10.0289 17.4318C10.5176 17.4087 10.9086 16.9909 10.8858 16.484C10.8749 15.9904 10.472 15.6056 9.98326 15.6067ZM5.50326 11.6542C5.00367 11.6762 4.61378 12.095 4.61486 12.6008C4.63659 13.1065 5.05037 13.5023 5.54996 13.4792C6.03869 13.4573 6.42859 13.0384 6.40578 12.5326C6.39492 12.0379 5.99308 11.6531 5.50326 11.6542ZM9.97892 11.6157C9.47933 11.6377 9.08835 12.0566 9.08943 12.5623C9.11115 13.0681 9.52494 13.4628 10.0245 13.4408C10.5133 13.4177 10.9032 12.9999 10.8814 12.4941C10.8695 11.9994 10.4676 11.6146 9.97892 11.6157ZM14.4535 11.6212C13.9539 11.6322 13.5629 12.039 13.564 12.5447V12.5568C13.5749 13.0626 13.9876 13.4463 14.4882 13.4353C14.977 13.4232 15.3669 13.0043 15.356 12.4985C15.3332 12.0148 14.9411 11.6201 14.4535 11.6212ZM13.1828 3.31045L6.7316 3.31924L6.73268 4.2087C6.73268 4.68256 6.37537 5.05637 5.8975 5.05637C5.41964 5.05747 5.06015 4.68476 5.06015 4.21089L5.05906 3.36432C2.94125 3.57651 1.76939 4.82109 1.77264 7.20579L1.77373 7.54772L18.2167 7.52573V7.14093C18.17 4.77711 16.984 3.53693 14.8553 3.35222L14.8564 4.1988C14.8564 4.67156 14.4882 5.04648 14.0212 5.04648C13.5434 5.04757 13.1839 4.67376 13.1839 4.201L13.1828 3.31045Z" fill="url(#paint0_linear_1145_68376)"/>
<defs>
<linearGradient id="paint0_linear_1145_68376" x1="20.9686" y1="-14.9896" x2="-3.00908" y2="-10.522" gradientUnits="userSpaceOnUse">
<stop stop-color="#FEC12D"/>
<stop offset="1" stop-color="#FF552C"/>
</linearGradient>
</defs>
</svg>
