<svg width="20" height="20" viewBox="0 0 20 20" fill="none" xmlns="http://www.w3.org/2000/svg">
<path d="M11.9582 2.5C12.7665 2.50832 13.4248 2.92453 13.8082 3.6737C13.9071 3.87139 14.0451 4.16013 14.1897 4.46473L14.3642 4.83304L14.4498 5.01387L14.5332 5.197C14.5665 5.25527 14.6248 5.29689 14.6998 5.29689C16.6998 5.29689 18.3332 6.92841 18.3332 8.92619V13.8707C18.3332 15.8685 16.6998 17.5 14.6998 17.5H5.29984C3.2915 17.5 1.6665 15.8685 1.6665 13.8707V8.92619C1.6665 6.92841 3.2915 5.29689 5.29984 5.29689C5.3665 5.29689 5.43317 5.2636 5.45817 5.197L5.50817 5.09711C5.7415 4.60599 6.02484 4.00666 6.1915 3.6737C6.57484 2.92453 7.22484 2.50832 8.03317 2.5H11.9582ZM9.99984 7.83574C9.12484 7.83574 8.29984 8.17703 7.67484 8.80133C7.05817 9.42564 6.7165 10.2414 6.72484 11.1071C6.72484 11.9811 7.0665 12.7969 7.68317 13.4212C8.30817 14.0372 9.12484 14.3785 9.99984 14.3785C10.8998 14.3785 11.7165 14.0122 12.3082 13.4212C12.8998 12.8302 13.2665 12.0144 13.2748 11.1071C13.2748 10.2414 12.9332 9.41731 12.3165 8.79301C11.6998 8.17703 10.8748 7.83574 9.99984 7.83574ZM9.99984 9.08435C10.5415 9.08435 11.0498 9.29245 11.4332 9.67536C11.8165 10.0583 12.0248 10.566 12.0248 11.1071C12.0165 12.2225 11.1165 13.1299 9.99984 13.1299C9.45817 13.1299 8.94984 12.9218 8.5665 12.5388C8.18317 12.1559 7.97484 11.6482 7.97484 11.1071V11.0988C7.9665 10.5744 8.17484 10.0666 8.55817 9.68368C8.94984 9.29245 9.45817 9.08435 9.99984 9.08435ZM14.6748 7.63596C14.2582 7.63596 13.9248 7.97725 13.9248 8.39345C13.9248 8.80966 14.2582 9.14262 14.6748 9.14262C15.0915 9.14262 15.4332 8.80966 15.4332 8.39345C15.4332 7.97725 15.0915 7.63596 14.6748 7.63596Z" fill="white"/>
</svg>
