<svg width="294" height="285" viewBox="0 0 294 285" fill="none" xmlns="http://www.w3.org/2000/svg">
<circle cx="153.269" cy="142.385" r="110.385" fill="url(#paint0_linear_2240_5126)"/>
<circle cx="31.8474" cy="16.2302" r="15.7692" fill="url(#paint1_linear_2240_5126)"/>
<circle cx="168.251" cy="7.55559" r="3.94231" fill="url(#paint2_linear_2240_5126)"/>
<circle cx="16.078" cy="210.193" r="7.88462" fill="url(#paint3_linear_2240_5126)"/>
<circle cx="281.79" cy="43.8269" r="11.8269" fill="url(#paint4_linear_2240_5126)"/>
<circle cx="261.29" cy="253.556" r="3.94231" fill="url(#paint5_linear_2240_5126)"/>
<circle cx="269.175" cy="174.712" r="3.94231" fill="url(#paint6_linear_2240_5126)"/>
<circle cx="192.694" cy="270.116" r="1.57692" fill="url(#paint7_linear_2240_5126)"/>
<circle cx="98.8669" cy="278.789" r="5.51923" fill="url(#paint8_linear_2240_5126)"/>
<circle cx="1.88552" cy="118.729" r="1.57692" fill="url(#paint9_linear_2240_5126)"/>
<path d="M173.802 95.0703C189.839 95.0703 200.578 106.33 200.578 123.076V161.732C200.578 178.426 189.839 189.686 173.802 189.686H132.786C116.749 189.686 105.963 178.426 105.963 161.732V123.076C105.963 106.33 116.749 95.0703 132.786 95.0703H173.802ZM173.045 128.186C171.437 126.577 168.788 126.577 167.179 128.186L147.641 147.724L139.362 139.445C137.754 137.836 135.104 137.836 133.496 139.445C131.888 141.053 131.888 143.655 133.496 145.311L144.755 156.523C145.559 157.327 146.6 157.706 147.641 157.706C148.729 157.706 149.77 157.327 150.574 156.523L173.045 134.052C174.654 132.443 174.654 129.841 173.045 128.186Z" fill="white"/>
<defs>
<linearGradient id="paint0_linear_2240_5126" x1="275.567" y1="-118.421" x2="10.3053" y2="-63.5035" gradientUnits="userSpaceOnUse">
<stop stop-color="#FEC12D"/>
<stop offset="1" stop-color="#FF552C"/>
</linearGradient>
<linearGradient id="paint1_linear_2240_5126" x1="49.3185" y1="-21.0277" x2="11.4239" y2="-13.1824" gradientUnits="userSpaceOnUse">
<stop stop-color="#FEC12D"/>
<stop offset="1" stop-color="#FF552C"/>
</linearGradient>
<linearGradient id="paint2_linear_2240_5126" x1="172.619" y1="-1.75888" x2="163.145" y2="0.202443" gradientUnits="userSpaceOnUse">
<stop stop-color="#FEC12D"/>
<stop offset="1" stop-color="#FF552C"/>
</linearGradient>
<linearGradient id="paint3_linear_2240_5126" x1="24.8135" y1="191.564" x2="5.86625" y2="195.487" gradientUnits="userSpaceOnUse">
<stop stop-color="#FEC12D"/>
<stop offset="1" stop-color="#FF552C"/>
</linearGradient>
<linearGradient id="paint4_linear_2240_5126" x1="294.893" y1="15.8835" x2="266.472" y2="21.7675" gradientUnits="userSpaceOnUse">
<stop stop-color="#FEC12D"/>
<stop offset="1" stop-color="#FF552C"/>
</linearGradient>
<linearGradient id="paint5_linear_2240_5126" x1="265.658" y1="244.241" x2="256.184" y2="246.202" gradientUnits="userSpaceOnUse">
<stop stop-color="#FEC12D"/>
<stop offset="1" stop-color="#FF552C"/>
</linearGradient>
<linearGradient id="paint6_linear_2240_5126" x1="273.543" y1="165.397" x2="264.069" y2="167.359" gradientUnits="userSpaceOnUse">
<stop stop-color="#FEC12D"/>
<stop offset="1" stop-color="#FF552C"/>
</linearGradient>
<linearGradient id="paint7_linear_2240_5126" x1="194.441" y1="266.39" x2="190.652" y2="267.175" gradientUnits="userSpaceOnUse">
<stop stop-color="#FEC12D"/>
<stop offset="1" stop-color="#FF552C"/>
</linearGradient>
<linearGradient id="paint8_linear_2240_5126" x1="104.982" y1="265.749" x2="91.7187" y2="268.494" gradientUnits="userSpaceOnUse">
<stop stop-color="#FEC12D"/>
<stop offset="1" stop-color="#FF552C"/>
</linearGradient>
<linearGradient id="paint9_linear_2240_5126" x1="3.63263" y1="115.003" x2="-0.156828" y2="115.788" gradientUnits="userSpaceOnUse">
<stop stop-color="#FEC12D"/>
<stop offset="1" stop-color="#FF552C"/>
</linearGradient>
</defs>
</svg>
