<svg width="28" height="28" viewBox="0 0 28 28" fill="none" xmlns="http://www.w3.org/2000/svg">
<path d="M25.4394 11.7157H24.4997V11.6673H13.9997V16.334H20.5931C19.6312 19.0506 17.0464 21.0007 13.9997 21.0007C10.1339 21.0007 6.99967 17.8664 6.99967 14.0007C6.99967 10.1349 10.1339 7.00065 13.9997 7.00065C15.7841 7.00065 17.4075 7.67382 18.6436 8.7734L21.9435 5.47348C19.8598 3.53157 17.0727 2.33398 13.9997 2.33398C7.55676 2.33398 2.33301 7.55773 2.33301 14.0007C2.33301 20.4436 7.55676 25.6673 13.9997 25.6673C20.4426 25.6673 25.6663 20.4436 25.6663 14.0007C25.6663 13.2184 25.5858 12.4548 25.4394 11.7157Z" fill="#FFC107"/>
<path d="M3.67871 8.5704L7.51179 11.3815C8.54896 8.81365 11.0608 7.00065 14.0002 7.00065C15.7846 7.00065 17.408 7.67382 18.6441 8.7734L21.944 5.47348C19.8604 3.53157 17.0732 2.33398 14.0002 2.33398C9.51904 2.33398 5.63288 4.8639 3.67871 8.5704Z" fill="#FF3D00"/>
<path d="M13.9995 25.6671C17.013 25.6671 19.7512 24.5138 21.8214 22.6384L18.2106 19.5829C17.0393 20.4702 15.5833 21.0004 13.9995 21.0004C10.965 21.0004 8.38845 19.0655 7.41778 16.3652L3.61328 19.2965C5.54411 23.0747 9.46528 25.6671 13.9995 25.6671Z" fill="#4CAF50"/>
<path d="M25.4397 11.7144H24.5V11.666H14V16.3327H20.5934C20.1314 17.6376 19.292 18.7628 18.2093 19.5824L18.2111 19.5813L21.8219 22.6368C21.5664 22.8689 25.6667 19.8327 25.6667 13.9993C25.6667 13.2171 25.5862 12.4535 25.4397 11.7144Z" fill="#1976D2"/>
</svg>
