<svg width="24" height="28" viewBox="0 0 24 28" fill="none" xmlns="http://www.w3.org/2000/svg">
<path d="M21.4543 7.23406C21.5024 6.84403 21.5265 6.45142 21.5265 6.05844C21.5265 2.7125 18.8141 0 15.4681 0H5.34311C4.70622 0 4.16246 0.459922 4.05681 1.08795L0.326025 23.2624C0.19215 24.0581 0.805525 24.7832 1.61233 24.7832H5.31527C5.95217 24.7832 6.50615 24.3236 6.61175 23.6955L6.62909 23.5924H6.62914L6.11311 26.6596C5.9952 27.3609 6.53579 28 7.24689 28H10.4864C11.0478 28 11.5271 27.5946 11.6201 27.0411L12.5405 21.5712C12.6991 20.6283 13.5154 19.9379 14.4715 19.9379H15.3226C19.9453 19.9379 23.6927 16.1904 23.6927 11.5677C23.6927 9.77895 22.8085 8.19777 21.4543 7.23406Z" fill="#002987"/>
<path d="M21.4541 7.23438C20.8747 11.9473 16.8579 15.5966 11.9884 15.5966H9.16298C8.52527 15.5966 7.97451 16.0214 7.80175 16.622L6.1129 26.6598C5.99494 27.3611 6.53552 28.0003 7.24662 28.0003H10.4861C11.0475 28.0003 11.5268 27.5949 11.6199 27.0414L12.5402 21.5715C12.6989 20.6286 13.5152 19.9382 14.4713 19.9382H15.3223C19.9451 19.9382 23.6925 16.1907 23.6925 11.568C23.6925 9.77926 22.8083 8.19808 21.4541 7.23438Z" fill="#0085CC"/>
<path d="M9.16304 15.5954H11.9885C16.858 15.5954 20.8748 11.946 21.4541 7.23317C20.5852 6.61488 19.5234 6.25 18.3757 6.25H11.0011C10.1615 6.25 9.44462 6.85632 9.30528 7.68429L7.80176 16.6207C7.97452 16.0201 8.52533 15.5954 9.16304 15.5954Z" fill="#00186A"/>
</svg>
