<svg width="28" height="28" viewBox="0 0 28 28" fill="none" xmlns="http://www.w3.org/2000/svg">
<g clip-path="url(#clip0_1145_47003)">
<path d="M26.7273 17.8189H1.27274C0.572742 17.8189 0 17.2462 0 16.5462V2.54618C0 1.84618 0.572742 1.27344 1.27274 1.27344H26.7273C27.4273 1.27344 28.0001 1.84618 28.0001 2.54618V16.5462C28 17.2462 27.4273 17.8189 26.7273 17.8189Z" fill="#0E9347"/>
<path d="M23.5459 12.7285C22.0822 12.7285 20.7459 13.4285 19.9822 14.5739C19.3459 14.2558 18.6459 14.0013 17.8186 14.0013C15.5914 14.0013 13.7459 15.6558 13.4277 17.8194H26.7277C27.3641 17.8194 27.8732 17.374 28.0005 16.7376C27.7459 14.5103 25.8368 12.7285 23.5459 12.7285Z" fill="#0D8944"/>
<path d="M24.1815 16.5468H3.81789C3.81789 15.1468 2.67246 14.0014 1.27246 14.0014V5.0923C2.67246 5.0923 3.81789 3.94687 3.81789 2.54688H24.1815C24.1815 3.94687 25.327 5.0923 26.727 5.0923V14.0014C25.327 14.0014 24.1815 15.1468 24.1815 16.5468Z" fill="#3BB54A"/>
<path d="M23.5459 12.7285C22.0823 12.7285 20.7459 13.4285 19.9823 14.5739C19.3459 14.2558 18.6459 14.0013 17.8187 14.0013C16.0368 14.0013 14.5096 15.0194 13.8096 16.5467H24.1823C24.1823 15.1467 25.2641 14.0649 26.6641 14.0013C25.8368 13.2376 24.7551 12.7285 23.5459 12.7285Z" fill="#0E9347"/>
<path d="M14.0001 15.2729C16.8117 15.2729 19.091 12.7087 19.091 9.54562C19.091 6.38254 16.8117 3.81836 14.0001 3.81836C11.1885 3.81836 8.90918 6.38254 8.90918 9.54562C8.90918 12.7087 11.1885 15.2729 14.0001 15.2729Z" fill="#0E9347"/>
<path d="M6.36356 10.8189C7.06648 10.8189 7.6363 10.2491 7.6363 9.54618C7.6363 8.84326 7.06648 8.27344 6.36356 8.27344C5.66065 8.27344 5.09082 8.84326 5.09082 9.54618C5.09082 10.2491 5.66065 10.8189 6.36356 10.8189Z" fill="#0E9347"/>
<path d="M21.636 10.8189C22.3389 10.8189 22.9088 10.2491 22.9088 9.54618C22.9088 8.84326 22.3389 8.27344 21.636 8.27344C20.9331 8.27344 20.3633 8.84326 20.3633 9.54618C20.3633 10.2491 20.9331 10.8189 21.636 10.8189Z" fill="#0E9347"/>
<path d="M14.6359 8.91023H13.3631C12.9813 8.91023 12.7268 8.65566 12.7268 8.27389C12.7268 7.89206 12.9814 7.63755 13.3631 7.63755H15.2722C15.654 7.63755 15.9086 7.38298 15.9086 7.0012C15.9086 6.61938 15.654 6.36486 15.2722 6.36486H14.6359C14.6359 5.98303 14.3813 5.72852 13.9995 5.72852C13.6177 5.72852 13.3632 5.98309 13.3632 6.36486C12.2814 6.36486 11.4541 7.19212 11.4541 8.27395C11.4541 9.35577 12.2814 10.183 13.3632 10.183H14.6359C15.0178 10.183 15.2723 10.4376 15.2723 10.8194C15.2723 11.2012 15.0177 11.4557 14.6359 11.4557H12.7268C12.345 11.4557 12.0905 11.7103 12.0905 12.0921C12.0905 12.4739 12.3451 12.7284 12.7268 12.7284H13.3632C13.3632 13.1102 13.6178 13.3648 13.9995 13.3648C14.3814 13.3648 14.6359 13.1102 14.6359 12.7284C15.7177 12.7284 16.545 11.9011 16.545 10.8193C16.545 9.73749 15.7177 8.91023 14.6359 8.91023Z" fill="#89C763"/>
<path d="M16.5454 22.9091C19.0056 22.9091 21 20.9148 21 18.4546C21 15.9944 19.0056 14 16.5454 14C14.0852 14 12.0908 15.9944 12.0908 18.4546C12.0908 20.9148 14.0852 22.9091 16.5454 22.9091Z" fill="#FFCA5D"/>
<path d="M22.2729 21.6377C24.7331 21.6377 26.7275 19.6433 26.7275 17.1831C26.7275 14.7229 24.7331 12.7285 22.2729 12.7285C19.8127 12.7285 17.8184 14.7229 17.8184 17.1831C17.8184 19.6433 19.8127 21.6377 22.2729 21.6377Z" fill="#F6B545"/>
<path d="M22.2729 12.7285C19.7911 12.7285 17.8184 14.7013 17.8184 17.1831C17.8184 19.6649 19.7911 21.6377 22.2729 21.6377C24.7548 21.6377 26.7275 19.6649 26.7275 17.1831C26.7275 14.7013 24.7548 12.7285 22.2729 12.7285ZM22.2729 20.3649C20.4911 20.3649 19.0911 18.9649 19.0911 17.1831C19.0911 15.4013 20.4911 14.0013 22.2729 14.0013C24.0548 14.0013 25.4548 15.4013 25.4548 17.1831C25.4548 18.9649 24.0548 20.3649 22.2729 20.3649Z" fill="#FFCB5B"/>
<path d="M22.2725 21.5726C24.7543 21.6362 26.727 19.5998 26.727 17.1816H26.6634C26.3452 17.1816 26.0906 17.4362 26.027 17.7544C25.8998 18.6453 25.4543 19.4726 24.8179 20.0453C24.3089 20.5544 23.6089 20.8726 22.8452 20.9998C22.7699 20.9995 22.6953 21.0141 22.6257 21.0428C22.556 21.0714 22.4928 21.1136 22.4395 21.1669C22.3863 21.2201 22.3441 21.2834 22.3154 21.353C22.2868 21.4226 22.2722 21.4973 22.2725 21.5726Z" fill="#F6B545"/>
<path d="M22.2729 12.7925C19.7911 12.7288 17.8184 14.7652 17.8184 17.1834H17.882C18.2002 17.1834 18.4548 16.9288 18.5184 16.6106C18.6456 15.7197 19.0911 14.8925 19.7274 14.3197C20.2365 13.8106 20.9365 13.4925 21.7002 13.3652C21.7755 13.3655 21.8501 13.3509 21.9197 13.3222C21.9894 13.2936 22.0526 13.2514 22.1059 13.1981C22.1591 13.1449 22.2013 13.0816 22.23 13.012C22.2587 12.9424 22.2732 12.8678 22.2729 12.7925Z" fill="#FFE27A"/>
<path d="M19.5362 17.6273C19.5362 15.8454 20.9362 14.4454 22.7181 14.4454C23.4817 14.4454 24.1817 14.7 24.7544 15.2091C24.1181 14.4454 23.2908 14 22.2726 14C20.4908 14 19.0908 15.4 19.0908 17.1818C19.0908 18.2 19.5363 19.0273 20.2363 19.6C19.7908 19.0909 19.5362 18.3909 19.5362 17.6273Z" fill="#F19920"/>
<path d="M24.1819 19.1561C24.1182 19.1561 24.0546 19.1561 23.991 19.0925C23.8637 18.9652 23.8637 18.7743 23.991 18.6471C24.3728 18.2652 24.5637 17.6925 24.5637 17.1834C24.5637 16.9925 24.691 16.8652 24.8819 16.8652C25.0728 16.8652 25.2 16.9925 25.2 17.1834C25.2 17.8834 24.9455 18.5834 24.5 19.0925C24.3728 19.1561 24.2455 19.1561 24.1819 19.1561Z" fill="#FFCB5B"/>
<path d="M22.2731 19.0916C21.8912 19.0916 21.6367 18.837 21.6367 18.4552V15.9098C21.6367 15.528 21.8913 15.2734 22.2731 15.2734C22.6548 15.2734 22.9094 15.528 22.9094 15.9098V18.4552C22.9094 18.837 22.6549 19.0916 22.2731 19.0916Z" fill="#F19920"/>
<path d="M24.6273 20.9363C24.1819 19.3454 23.0364 18.0727 21.5727 17.5C21.3182 16.0363 20.3637 14.7637 19.1546 14C18.3909 14.8273 17.8818 15.9091 17.8818 17.1182C17.8818 19.6 19.8546 21.5727 22.3364 21.5727C23.1637 21.6363 23.9273 21.3818 24.6273 20.9363Z" fill="#F19920"/>
<path d="M20.2363 19.6008C19.7909 19.0281 19.4726 18.3281 19.4726 17.5645C19.4723 17.1326 19.5628 16.7054 19.7382 16.3108C19.9136 15.9161 20.17 15.5627 20.4908 15.2736C20.3636 15.0826 20.2363 14.9554 20.109 14.8281C19.4726 15.4009 19.0908 16.2281 19.0908 17.1827C19.0909 18.2008 19.5363 19.0281 20.2363 19.6008ZM21.6363 17.5645V18.4554C21.6363 18.8372 21.8909 19.0917 22.2726 19.0917C22.6544 19.0917 22.909 18.8372 22.909 18.4554V18.3281C22.5272 18.0099 22.0818 17.7554 21.6363 17.5645Z" fill="#E78825"/>
<path d="M24.6274 20.9372C24.5002 20.4918 24.3729 20.11 24.1184 19.7282C23.6093 20.11 22.9729 20.3645 22.2729 20.3645C20.4911 20.3645 19.0911 18.9645 19.0911 17.1827C19.0911 16.2281 19.4729 15.4009 20.1093 14.8281C19.7911 14.5099 19.4729 14.2554 19.0911 14.0645C18.3274 14.8917 17.8184 15.9735 17.8184 17.1826C17.8184 19.6645 19.7911 21.6372 22.2729 21.6372C23.1638 21.6373 23.9274 21.3827 24.6274 20.9372Z" fill="#F6B545"/>
<path d="M24.4361 20.3652C23.9907 20.6834 23.4179 20.8743 22.8452 21.0016C22.527 21.0652 22.2725 21.3197 22.2725 21.6379C23.1634 21.6379 23.927 21.3834 24.627 20.9379L24.4361 20.3652Z" fill="#F19920"/>
<path d="M19.0911 14.0645C18.3274 14.8917 17.8184 15.9735 17.8184 17.1826H17.882C18.2002 17.1826 18.4548 16.9281 18.5184 16.6099C18.6456 15.719 19.0911 14.9553 19.6638 14.3826C19.4729 14.319 19.282 14.1917 19.0911 14.0645Z" fill="#FFCB5B"/>
<path d="M16.5454 22.9091C19.0056 22.9091 21 20.9148 21 18.4546C21 15.9944 19.0056 14 16.5454 14C14.0852 14 12.0908 15.9944 12.0908 18.4546C12.0908 20.9148 14.0852 22.9091 16.5454 22.9091Z" fill="#F6B545"/>
<path d="M15.9092 21.6362C15.9092 22.0816 15.9728 22.4635 16.1001 22.909H16.5455C19.0274 22.909 21.0001 20.9362 21.0001 18.4544C21.0001 18.009 20.9364 17.6271 20.8092 17.1816H20.3638C17.8819 17.1817 15.9092 19.1544 15.9092 21.6362Z" fill="#F19920"/>
<path d="M16.5454 14C14.0636 14 12.0908 15.9727 12.0908 18.4546C12.0908 20.9364 14.0636 22.9091 16.5454 22.9091C19.0272 22.9091 21 20.9363 21 18.4546C21 15.9728 19.0272 14 16.5454 14ZM16.5454 21.6363C14.7636 21.6363 13.3636 20.2363 13.3636 18.4545C13.3636 16.6727 14.7636 15.2727 16.5454 15.2727C18.3272 15.2727 19.7272 16.6727 19.7272 18.4545C19.7272 20.2363 18.3272 21.6363 16.5454 21.6363Z" fill="#FFCB5B"/>
<path d="M16.5459 22.8459C19.0277 22.9096 21.0005 20.8732 21.0005 18.4551H20.9368C20.6186 18.4551 20.3641 18.7096 20.3005 19.0278C20.1732 19.9187 19.7277 20.746 19.0914 21.3187C18.5823 21.8278 17.8823 22.146 17.1186 22.2733C17.0433 22.273 16.9687 22.2876 16.8991 22.3162C16.8295 22.3449 16.7662 22.3871 16.713 22.4403C16.6597 22.4935 16.6175 22.5568 16.5889 22.6264C16.5602 22.696 16.5456 22.7706 16.5459 22.8459Z" fill="#F6B545"/>
<path d="M16.5454 14.064C14.0636 14.0003 12.0908 16.0367 12.0908 18.4549H12.1545C12.4726 18.4549 12.7272 18.2003 12.7908 17.8821C12.9181 16.9912 13.3636 16.164 13.9999 15.5912C14.509 15.0821 15.209 14.764 15.9726 14.6366C16.0479 14.637 16.1226 14.6224 16.1922 14.5937C16.2618 14.565 16.3251 14.5229 16.3783 14.4696C16.4316 14.4164 16.4738 14.3531 16.5024 14.2835C16.5311 14.2139 16.5457 14.1393 16.5454 14.064Z" fill="#FFE27A"/>
<path d="M13.8088 18.9007C13.8088 17.1189 15.2088 15.7189 16.9906 15.7189C17.7543 15.7189 18.4542 15.9734 19.0269 16.4825C18.3906 15.7189 17.5633 15.2734 16.5451 15.2734C14.7633 15.2734 13.3633 16.6734 13.3633 18.4553C13.3633 19.4734 13.8087 20.3007 14.5087 20.8734C14.0633 20.3644 13.8088 19.6644 13.8088 18.9007Z" fill="#F19920"/>
<path d="M18.4543 20.4276C18.3907 20.4276 18.3271 20.4276 18.2634 20.364C18.1362 20.2367 18.1362 20.0458 18.2634 19.9185C18.6452 19.5367 18.8362 18.964 18.8362 18.4549C18.8362 18.264 18.9634 18.1367 19.1543 18.1367C19.3452 18.1367 19.4725 18.264 19.4725 18.4549C19.4725 19.1549 19.2179 19.8549 18.7725 20.364C18.6452 20.4276 18.5179 20.4276 18.4543 20.4276Z" fill="#FFCB5B"/>
<path d="M16.5455 20.365C16.1637 20.365 15.9092 20.1104 15.9092 19.7286V17.1832C15.9092 16.8014 16.1638 16.5469 16.5455 16.5469C16.9274 16.5469 17.1819 16.8014 17.1819 17.1832V19.7286C17.1819 20.1104 16.9274 20.365 16.5455 20.365Z" fill="#F19920"/>
<path d="M19.4728 17.2453C19.6 17.6271 19.7274 18.009 19.7274 18.4544C19.7274 20.2362 18.3274 21.6362 16.5455 21.6362C16.3546 21.6362 16.1001 21.6362 15.9092 21.5726V21.6362C15.9092 22.0816 15.9728 22.4635 16.1001 22.909H16.5455C19.0274 22.909 21.0001 20.9362 21.0001 18.4544C21.0001 18.009 20.9364 17.6271 20.8092 17.1816H20.3638C20.0455 17.1817 19.791 17.1817 19.4728 17.2453Z" fill="#F6B545"/>
<path d="M19.727 26.7275C22.1872 26.7275 24.1816 24.7331 24.1816 22.2729C24.1816 19.8127 22.1872 17.8184 19.727 17.8184C17.2668 17.8184 15.2725 19.8127 15.2725 22.2729C15.2725 24.7331 17.2668 26.7275 19.727 26.7275Z" fill="#F6B545"/>
<path d="M19.727 17.8184C17.2452 17.8184 15.2725 19.7911 15.2725 22.2729C15.2725 24.7548 17.2452 26.7275 19.727 26.7275C22.2089 26.7275 24.1816 24.7548 24.1816 22.2729C24.1816 19.7911 22.2089 17.8184 19.727 17.8184ZM19.727 25.4548C17.9452 25.4548 16.5452 24.0548 16.5452 22.2729C16.5452 20.4911 17.9452 19.0911 19.727 19.0911C21.5089 19.0911 22.9089 20.4911 22.9089 22.2729C22.9089 24.0548 21.5089 25.4548 19.727 25.4548Z" fill="#FFCB5B"/>
<path d="M19.7275 26.6644C22.2094 26.728 24.1821 24.6916 24.1821 22.2734H24.1185C23.8003 22.2734 23.5457 22.528 23.4821 22.8462C23.3549 23.7371 22.9094 24.5644 22.273 25.1371C21.7639 25.6462 21.0639 25.9644 20.3003 26.0917C20.225 26.0913 20.1504 26.1059 20.0807 26.1346C20.0111 26.1633 19.9478 26.2054 19.8946 26.2587C19.8413 26.3119 19.7992 26.3752 19.7705 26.4448C19.7418 26.5144 19.7272 26.589 19.7275 26.6644Z" fill="#F6B545"/>
<path d="M19.727 17.8823C17.2452 17.8187 15.2725 19.8551 15.2725 22.2732H15.3361C15.6543 22.2732 15.9089 22.0187 15.9725 21.7005C16.0997 20.8096 16.5452 19.9823 17.1815 19.4096C17.6906 18.9005 18.3906 18.5823 19.1543 18.455C19.2296 18.4553 19.3042 18.4407 19.3738 18.4121C19.4435 18.3834 19.5067 18.3412 19.56 18.288C19.6132 18.2347 19.6554 18.1715 19.6841 18.1019C19.7128 18.0322 19.7273 17.9576 19.727 17.8823Z" fill="#FFE27A"/>
<path d="M16.9914 22.7191C16.9914 20.9372 18.3914 19.5372 20.1732 19.5372C20.9369 19.5372 21.6369 19.7918 22.2096 20.3009C21.5732 19.5372 20.7459 19.0918 19.7277 19.0918C17.9459 19.0918 16.5459 20.4918 16.5459 22.2736C16.5459 23.2918 16.9913 24.1191 17.6913 24.6918C17.2459 24.1827 16.9914 23.4827 16.9914 22.7191Z" fill="#F19920"/>
<path d="M21.636 24.246C21.5723 24.246 21.5087 24.246 21.4451 24.1823C21.3178 24.0551 21.3178 23.8642 21.4451 23.7369C21.8269 23.3551 22.0178 22.7823 22.0178 22.2732C22.0178 22.0823 22.1451 21.9551 22.336 21.9551C22.5269 21.9551 22.6541 22.0823 22.6541 22.2732C22.6541 22.9732 22.3996 23.6732 21.9541 24.1823C21.8269 24.246 21.6996 24.246 21.636 24.246Z" fill="#FFCB5B"/>
<path d="M19.7272 24.1834C19.3453 24.1834 19.0908 23.9288 19.0908 23.5471V21.0016C19.0908 20.6197 19.3454 20.3652 19.7272 20.3652C20.109 20.3652 20.3635 20.6198 20.3635 21.0016V23.547C20.3636 23.9288 20.109 24.1834 19.7272 24.1834Z" fill="#F19920"/>
</g>
<defs>
<clipPath id="clip0_1145_47003">
<rect width="28" height="28" fill="white"/>
</clipPath>
</defs>
</svg>
