<svg width="180" height="44" viewBox="0 0 180 44" fill="none" xmlns="http://www.w3.org/2000/svg">
<rect x="0.5" y="0.5" width="179" height="43" rx="9.5" stroke="url(#paint0_linear_1145_54467)"/>
<path d="M28.8833 28.16C28.03 28.16 27.2353 28.0213 26.4993 27.744C25.774 27.456 25.1393 27.056 24.5953 26.544C24.062 26.0213 23.646 25.408 23.3473 24.704C23.0486 24 22.8993 23.232 22.8993 22.4C22.8993 21.568 23.0486 20.8 23.3473 20.096C23.646 19.392 24.0673 18.784 24.6113 18.272C25.1553 17.7493 25.79 17.3493 26.5153 17.072C27.2406 16.784 28.0353 16.64 28.8993 16.64C29.8166 16.64 30.654 16.8 31.4113 17.12C32.1686 17.4293 32.8086 17.8933 33.3313 18.512L31.9873 19.776C31.582 19.3387 31.1286 19.0133 30.6273 18.8C30.126 18.576 29.582 18.464 28.9953 18.464C28.4086 18.464 27.87 18.56 27.3793 18.752C26.8993 18.944 26.478 19.216 26.1153 19.568C25.7633 19.92 25.486 20.336 25.2833 20.816C25.0913 21.296 24.9953 21.824 24.9953 22.4C24.9953 22.976 25.0913 23.504 25.2833 23.984C25.486 24.464 25.7633 24.88 26.1153 25.232C26.478 25.584 26.8993 25.856 27.3793 26.048C27.87 26.24 28.4086 26.336 28.9953 26.336C29.582 26.336 30.126 26.2293 30.6273 26.016C31.1286 25.792 31.582 25.456 31.9873 25.008L33.3313 26.288C32.8086 26.896 32.1686 27.36 31.4113 27.68C30.654 28 29.8113 28.16 28.8833 28.16ZM39.9803 19.36C40.663 19.36 41.271 19.4933 41.8043 19.76C42.3483 20.0267 42.775 20.4373 43.0843 20.992C43.3936 21.536 43.5483 22.24 43.5483 23.104V28H41.5483V23.36C41.5483 22.6027 41.367 22.0373 41.0043 21.664C40.6523 21.2907 40.1563 21.104 39.5163 21.104C39.047 21.104 38.631 21.2 38.2683 21.392C37.9056 21.584 37.623 21.872 37.4203 22.256C37.2283 22.6293 37.1323 23.104 37.1323 23.68V28H35.1323V16.128H37.1323V21.76L36.7003 21.056C36.999 20.512 37.431 20.096 37.9963 19.808C38.5723 19.5093 39.2336 19.36 39.9803 19.36ZM51.3494 28V26.272L51.2374 25.904V22.88C51.2374 22.2933 51.0614 21.84 50.7094 21.52C50.3574 21.1893 49.8241 21.024 49.1094 21.024C48.6294 21.024 48.1548 21.0987 47.6854 21.248C47.2268 21.3973 46.8374 21.6053 46.5174 21.872L45.7334 20.416C46.1921 20.064 46.7361 19.8027 47.3654 19.632C48.0054 19.4507 48.6668 19.36 49.3494 19.36C50.5868 19.36 51.5414 19.6587 52.2134 20.256C52.8961 20.8427 53.2374 21.7547 53.2374 22.992V28H51.3494ZM48.6614 28.112C48.0214 28.112 47.4614 28.0053 46.9814 27.792C46.5014 27.568 46.1281 27.264 45.8614 26.88C45.6054 26.4853 45.4774 26.0427 45.4774 25.552C45.4774 25.072 45.5894 24.64 45.8134 24.256C46.0481 23.872 46.4268 23.568 46.9494 23.344C47.4721 23.12 48.1654 23.008 49.0294 23.008H51.5094V24.336H49.1734C48.4908 24.336 48.0321 24.448 47.7974 24.672C47.5628 24.8853 47.4454 25.152 47.4454 25.472C47.4454 25.8347 47.5894 26.1227 47.8774 26.336C48.1654 26.5493 48.5654 26.656 49.0774 26.656C49.5681 26.656 50.0054 26.544 50.3894 26.32C50.7841 26.096 51.0668 25.7653 51.2374 25.328L51.5734 26.528C51.3814 27.0293 51.0348 27.4187 50.5334 27.696C50.0428 27.9733 49.4188 28.112 48.6614 28.112ZM60.6522 19.36C61.3349 19.36 61.9429 19.4933 62.4762 19.76C63.0202 20.0267 63.4469 20.4373 63.7562 20.992C64.0655 21.536 64.2202 22.24 64.2202 23.104V28H62.2202V23.36C62.2202 22.6027 62.0389 22.0373 61.6762 21.664C61.3242 21.2907 60.8282 21.104 60.1882 21.104C59.7189 21.104 59.3029 21.2 58.9402 21.392C58.5775 21.584 58.2949 21.872 58.0922 22.256C57.9002 22.6293 57.8042 23.104 57.8042 23.68V28H55.8042V19.456H57.7082V21.76L57.3722 21.056C57.6709 20.512 58.1029 20.096 58.6682 19.808C59.2442 19.5093 59.9055 19.36 60.6522 19.36ZM70.6449 31.216C69.8556 31.216 69.0823 31.1093 68.3249 30.896C67.5783 30.6933 66.9649 30.3947 66.4849 30L67.3809 28.496C67.7543 28.8053 68.2236 29.0507 68.7889 29.232C69.3649 29.424 69.9463 29.52 70.5329 29.52C71.4716 29.52 72.1596 29.3013 72.5969 28.864C73.0343 28.4373 73.2529 27.792 73.2529 26.928V25.408L73.4129 23.472L73.3489 21.536V19.456H75.2529V26.704C75.2529 28.2507 74.8583 29.3867 74.0689 30.112C73.2796 30.848 72.1383 31.216 70.6449 31.216ZM70.3889 27.616C69.5783 27.616 68.8423 27.4453 68.1809 27.104C67.5303 26.752 67.0129 26.2667 66.6289 25.648C66.2556 25.0293 66.0689 24.304 66.0689 23.472C66.0689 22.6507 66.2556 21.9307 66.6289 21.312C67.0129 20.6933 67.5303 20.2133 68.1809 19.872C68.8423 19.5307 69.5783 19.36 70.3889 19.36C71.1143 19.36 71.7649 19.504 72.3409 19.792C72.9169 20.08 73.3756 20.528 73.7169 21.136C74.0689 21.744 74.2449 22.5227 74.2449 23.472C74.2449 24.4213 74.0689 25.2053 73.7169 25.824C73.3756 26.432 72.9169 26.8853 72.3409 27.184C71.7649 27.472 71.1143 27.616 70.3889 27.616ZM70.6929 25.92C71.1943 25.92 71.6423 25.8187 72.0369 25.616C72.4316 25.4027 72.7356 25.1147 72.9489 24.752C73.1729 24.3787 73.2849 23.952 73.2849 23.472C73.2849 22.992 73.1729 22.5707 72.9489 22.208C72.7356 21.8347 72.4316 21.552 72.0369 21.36C71.6423 21.1573 71.1943 21.056 70.6929 21.056C70.1916 21.056 69.7383 21.1573 69.3329 21.36C68.9383 21.552 68.6289 21.8347 68.4049 22.208C68.1916 22.5707 68.0849 22.992 68.0849 23.472C68.0849 23.952 68.1916 24.3787 68.4049 24.752C68.6289 25.1147 68.9383 25.4027 69.3329 25.616C69.7383 25.8187 70.1916 25.92 70.6929 25.92ZM81.8983 28.112C80.949 28.112 80.117 27.9253 79.4023 27.552C78.6983 27.168 78.149 26.6453 77.7543 25.984C77.3703 25.3227 77.1783 24.5707 77.1783 23.728C77.1783 22.8747 77.365 22.1227 77.7383 21.472C78.1223 20.8107 78.645 20.2933 79.3063 19.92C79.9783 19.5467 80.741 19.36 81.5943 19.36C82.4263 19.36 83.1676 19.5413 83.8183 19.904C84.469 20.2667 84.981 20.7787 85.3543 21.44C85.7276 22.1013 85.9143 22.88 85.9143 23.776C85.9143 23.8613 85.909 23.9573 85.8983 24.064C85.8983 24.1707 85.893 24.272 85.8823 24.368H78.7623V23.04H84.8263L84.0423 23.456C84.053 22.9653 83.9516 22.5333 83.7383 22.16C83.525 21.7867 83.2316 21.4933 82.8583 21.28C82.4956 21.0667 82.0743 20.96 81.5943 20.96C81.1036 20.96 80.6716 21.0667 80.2983 21.28C79.9356 21.4933 79.6476 21.792 79.4343 22.176C79.2316 22.5493 79.1303 22.992 79.1303 23.504V23.824C79.1303 24.336 79.2476 24.7893 79.4823 25.184C79.717 25.5787 80.0476 25.8827 80.4743 26.096C80.901 26.3093 81.3916 26.416 81.9463 26.416C82.4263 26.416 82.8583 26.3413 83.2423 26.192C83.6263 26.0427 83.9676 25.808 84.2663 25.488L85.3383 26.72C84.9543 27.168 84.469 27.5147 83.8823 27.76C83.3063 27.9947 82.645 28.112 81.8983 28.112ZM90.8653 28L95.9053 16.8H97.9533L103.009 28H100.833L96.4973 17.904H97.3293L93.0093 28H90.8653ZM93.1853 25.408L93.7453 23.776H99.7933L100.353 25.408H93.1853ZM107.78 28.112C106.958 28.112 106.217 27.9307 105.556 27.568C104.905 27.1947 104.393 26.6827 104.02 26.032C103.646 25.3813 103.46 24.6133 103.46 23.728C103.46 22.8427 103.646 22.0747 104.02 21.424C104.393 20.7733 104.905 20.2667 105.556 19.904C106.217 19.5413 106.958 19.36 107.78 19.36C108.494 19.36 109.134 19.52 109.7 19.84C110.265 20.1493 110.713 20.624 111.044 21.264C111.374 21.904 111.54 22.7253 111.54 23.728C111.54 24.72 111.38 25.5413 111.06 26.192C110.74 26.832 110.297 27.312 109.732 27.632C109.166 27.952 108.516 28.112 107.78 28.112ZM108.02 26.4C108.5 26.4 108.926 26.2933 109.3 26.08C109.684 25.8667 109.988 25.5573 110.212 25.152C110.446 24.7467 110.564 24.272 110.564 23.728C110.564 23.1733 110.446 22.6987 110.212 22.304C109.988 21.8987 109.684 21.5893 109.3 21.376C108.926 21.1627 108.5 21.056 108.02 21.056C107.54 21.056 107.108 21.1627 106.724 21.376C106.35 21.5893 106.046 21.8987 105.812 22.304C105.588 22.6987 105.476 23.1733 105.476 23.728C105.476 24.272 105.588 24.7467 105.812 25.152C106.046 25.5573 106.35 25.8667 106.724 26.08C107.108 26.2933 107.54 26.4 108.02 26.4ZM110.612 28V25.984L110.692 23.712L110.532 21.44V16.128H112.516V28H110.612ZM118.764 28.112C117.943 28.112 117.201 27.9307 116.54 27.568C115.889 27.1947 115.377 26.6827 115.004 26.032C114.631 25.3813 114.444 24.6133 114.444 23.728C114.444 22.8427 114.631 22.0747 115.004 21.424C115.377 20.7733 115.889 20.2667 116.54 19.904C117.201 19.5413 117.943 19.36 118.764 19.36C119.479 19.36 120.119 19.52 120.684 19.84C121.249 20.1493 121.697 20.624 122.028 21.264C122.359 21.904 122.524 22.7253 122.524 23.728C122.524 24.72 122.364 25.5413 122.044 26.192C121.724 26.832 121.281 27.312 120.716 27.632C120.151 27.952 119.5 28.112 118.764 28.112ZM119.004 26.4C119.484 26.4 119.911 26.2933 120.284 26.08C120.668 25.8667 120.972 25.5573 121.196 25.152C121.431 24.7467 121.548 24.272 121.548 23.728C121.548 23.1733 121.431 22.6987 121.196 22.304C120.972 21.8987 120.668 21.5893 120.284 21.376C119.911 21.1627 119.484 21.056 119.004 21.056C118.524 21.056 118.092 21.1627 117.708 21.376C117.335 21.5893 117.031 21.8987 116.796 22.304C116.572 22.6987 116.46 23.1733 116.46 23.728C116.46 24.272 116.572 24.7467 116.796 25.152C117.031 25.5573 117.335 25.8667 117.708 26.08C118.092 26.2933 118.524 26.4 119.004 26.4ZM121.596 28V25.984L121.676 23.712L121.516 21.44V16.128H123.5V28H121.596ZM126.132 28V19.456H128.036V21.808L127.812 21.12C128.068 20.544 128.468 20.1067 129.012 19.808C129.567 19.5093 130.255 19.36 131.076 19.36V21.264C130.991 21.2427 130.911 21.232 130.836 21.232C130.762 21.2213 130.687 21.216 130.612 21.216C129.855 21.216 129.252 21.44 128.804 21.888C128.356 22.3253 128.132 22.9813 128.132 23.856V28H126.132ZM136.711 28.112C135.761 28.112 134.929 27.9253 134.215 27.552C133.511 27.168 132.961 26.6453 132.567 25.984C132.183 25.3227 131.991 24.5707 131.991 23.728C131.991 22.8747 132.177 22.1227 132.551 21.472C132.935 20.8107 133.457 20.2933 134.119 19.92C134.791 19.5467 135.553 19.36 136.407 19.36C137.239 19.36 137.98 19.5413 138.631 19.904C139.281 20.2667 139.793 20.7787 140.167 21.44C140.54 22.1013 140.727 22.88 140.727 23.776C140.727 23.8613 140.721 23.9573 140.711 24.064C140.711 24.1707 140.705 24.272 140.695 24.368H133.575V23.04H139.639L138.855 23.456C138.865 22.9653 138.764 22.5333 138.551 22.16C138.337 21.7867 138.044 21.4933 137.671 21.28C137.308 21.0667 136.887 20.96 136.407 20.96C135.916 20.96 135.484 21.0667 135.111 21.28C134.748 21.4933 134.46 21.792 134.247 22.176C134.044 22.5493 133.943 22.992 133.943 23.504V23.824C133.943 24.336 134.06 24.7893 134.295 25.184C134.529 25.5787 134.86 25.8827 135.287 26.096C135.713 26.3093 136.204 26.416 136.759 26.416C137.239 26.416 137.671 26.3413 138.055 26.192C138.439 26.0427 138.78 25.808 139.079 25.488L140.151 26.72C139.767 27.168 139.281 27.5147 138.695 27.76C138.119 27.9947 137.457 28.112 136.711 28.112ZM145.288 28.112C144.573 28.112 143.885 28.0213 143.224 27.84C142.573 27.648 142.056 27.4187 141.672 27.152L142.44 25.632C142.824 25.8773 143.283 26.08 143.816 26.24C144.349 26.4 144.883 26.48 145.416 26.48C146.045 26.48 146.499 26.3947 146.776 26.224C147.064 26.0533 147.208 25.824 147.208 25.536C147.208 25.3013 147.112 25.1253 146.92 25.008C146.728 24.88 146.477 24.784 146.168 24.72C145.859 24.656 145.512 24.5973 145.128 24.544C144.755 24.4907 144.376 24.4213 143.992 24.336C143.619 24.24 143.277 24.1067 142.968 23.936C142.659 23.7547 142.408 23.5147 142.216 23.216C142.024 22.9173 141.928 22.5227 141.928 22.032C141.928 21.488 142.083 21.0187 142.392 20.624C142.701 20.2187 143.133 19.9093 143.688 19.696C144.253 19.472 144.92 19.36 145.688 19.36C146.264 19.36 146.845 19.424 147.432 19.552C148.019 19.68 148.504 19.8613 148.888 20.096L148.12 21.616C147.715 21.3707 147.304 21.2053 146.888 21.12C146.483 21.024 146.077 20.976 145.672 20.976C145.064 20.976 144.611 21.0667 144.312 21.248C144.024 21.4293 143.88 21.6587 143.88 21.936C143.88 22.192 143.976 22.384 144.168 22.512C144.36 22.64 144.611 22.7413 144.92 22.816C145.229 22.8907 145.571 22.9547 145.944 23.008C146.328 23.0507 146.707 23.12 147.08 23.216C147.453 23.312 147.795 23.4453 148.104 23.616C148.424 23.776 148.68 24.0053 148.872 24.304C149.064 24.6027 149.16 24.992 149.16 25.472C149.16 26.0053 149 26.4693 148.68 26.864C148.371 27.2587 147.928 27.568 147.352 27.792C146.776 28.0053 146.088 28.112 145.288 28.112ZM153.522 28.112C152.808 28.112 152.12 28.0213 151.458 27.84C150.808 27.648 150.29 27.4187 149.906 27.152L150.674 25.632C151.058 25.8773 151.517 26.08 152.05 26.24C152.584 26.4 153.117 26.48 153.65 26.48C154.28 26.48 154.733 26.3947 155.01 26.224C155.298 26.0533 155.442 25.824 155.442 25.536C155.442 25.3013 155.346 25.1253 155.154 25.008C154.962 24.88 154.712 24.784 154.402 24.72C154.093 24.656 153.746 24.5973 153.362 24.544C152.989 24.4907 152.61 24.4213 152.226 24.336C151.853 24.24 151.512 24.1067 151.202 23.936C150.893 23.7547 150.642 23.5147 150.45 23.216C150.258 22.9173 150.162 22.5227 150.162 22.032C150.162 21.488 150.317 21.0187 150.626 20.624C150.936 20.2187 151.368 19.9093 151.922 19.696C152.488 19.472 153.154 19.36 153.922 19.36C154.498 19.36 155.08 19.424 155.666 19.552C156.253 19.68 156.738 19.8613 157.122 20.096L156.354 21.616C155.949 21.3707 155.538 21.2053 155.122 21.12C154.717 21.024 154.312 20.976 153.906 20.976C153.298 20.976 152.845 21.0667 152.546 21.248C152.258 21.4293 152.114 21.6587 152.114 21.936C152.114 22.192 152.21 22.384 152.402 22.512C152.594 22.64 152.845 22.7413 153.154 22.816C153.464 22.8907 153.805 22.9547 154.178 23.008C154.562 23.0507 154.941 23.12 155.314 23.216C155.688 23.312 156.029 23.4453 156.338 23.616C156.658 23.776 156.914 24.0053 157.106 24.304C157.298 24.6027 157.394 24.992 157.394 25.472C157.394 26.0053 157.234 26.4693 156.914 26.864C156.605 27.2587 156.162 27.568 155.586 27.792C155.01 28.0053 154.322 28.112 153.522 28.112Z" fill="url(#paint1_linear_1145_54467)"/>
<defs>
<linearGradient id="paint0_linear_1145_54467" x1="189.713" y1="-29.9793" x2="58.376" y2="81.2554" gradientUnits="userSpaceOnUse">
<stop stop-color="#FEC12D"/>
<stop offset="1" stop-color="#FF552C"/>
</linearGradient>
<linearGradient id="paint1_linear_1145_54467" x1="165.339" y1="-6.35233" x2="93.6261" y2="77.7788" gradientUnits="userSpaceOnUse">
<stop stop-color="#FEC12D"/>
<stop offset="1" stop-color="#FF552C"/>
</linearGradient>
</defs>
</svg>
