<svg width="14" height="14" viewBox="0 0 14 14" fill="none" xmlns="http://www.w3.org/2000/svg">
<g clip-path="url(#clip0_1145_58698)">
<path d="M6.99932 13.9955C3.13341 13.9954 -0.000515624 10.8615 -0.000488281 6.99556C-0.000488281 5.1391 0.736983 3.35868 2.0497 2.04597C4.78371 -0.687552 9.21603 -0.687142 11.9495 2.04687C14.3332 4.431 14.6789 8.17552 12.772 10.9558C12.8603 11.32 13.368 12.3496 13.8353 13.1718C13.9674 13.4041 13.8861 13.6994 13.6538 13.8315C13.5081 13.9143 13.3299 13.9158 13.1829 13.8355C13.178 13.8328 12.6882 13.5659 12.1375 13.3016C11.3657 12.9311 11.032 12.8316 10.9057 12.8049C9.75201 13.5836 8.39122 13.9983 6.99932 13.9955ZM6.99932 0.963425C3.67317 0.963425 0.967157 3.66944 0.967157 6.99559C0.967157 10.3217 3.67317 13.0278 6.99932 13.0278C8.23608 13.0304 9.44341 12.6505 10.4557 11.94C10.7267 11.7501 11.0889 11.8345 11.4398 11.9538C11.6671 12.0312 11.9509 12.1479 12.2848 12.3015C12.1292 11.9798 12.0099 11.7066 11.9299 11.4881C11.782 11.0844 11.721 10.7631 11.9042 10.5078C12.6401 9.48482 13.0346 8.25578 13.0315 6.99562C13.0315 3.66944 10.3255 0.963425 6.99932 0.963425Z" fill="url(#paint0_linear_1145_58698)"/>
</g>
<defs>
<linearGradient id="paint0_linear_1145_58698" x1="14.755" y1="-9.54234" x2="-2.06644" y2="-6.05966" gradientUnits="userSpaceOnUse">
<stop stop-color="#FEC12D"/>
<stop offset="1" stop-color="#FF552C"/>
</linearGradient>
<clipPath id="clip0_1145_58698">
<rect width="14" height="14" fill="white"/>
</clipPath>
</defs>
</svg>
