<svg width="46" height="46" viewBox="0 0 46 46" fill="none" xmlns="http://www.w3.org/2000/svg">
<path d="M22.9996 0.0820312C18.4671 0.0820312 14.0364 1.42607 10.2677 3.94418C6.49912 6.4623 3.56183 10.0414 1.82732 14.2289C0.0928153 18.4163 -0.361011 23.0241 0.523233 27.4695C1.40748 31.9149 3.59008 35.9983 6.79503 39.2032C9.99999 42.4082 14.0833 44.5908 18.5287 45.475C22.9741 46.3593 27.5819 45.9054 31.7694 44.1709C35.9569 42.4364 39.536 39.4991 42.0541 35.7305C44.5722 31.9619 45.9162 27.5312 45.9162 22.9987C45.9091 16.923 43.4923 11.0982 39.1962 6.80208C34.9 2.50593 29.0752 0.0891989 22.9996 0.0820312ZM31.8371 28.8924C32.036 29.0846 32.1948 29.3145 32.3039 29.5687C32.4131 29.8229 32.4706 30.0962 32.473 30.3729C32.4754 30.6495 32.4227 30.9238 32.3179 31.1798C32.2132 31.4359 32.0585 31.6685 31.8629 31.8641C31.6673 32.0597 31.4347 32.2144 31.1786 32.3192C30.9226 32.4239 30.6483 32.4766 30.3716 32.4742C30.095 32.4718 29.8216 32.4143 29.5675 32.3052C29.3133 32.196 29.0834 32.0373 28.8912 31.8383L22.9996 25.9445L17.1079 31.8383C16.715 32.2178 16.1887 32.4278 15.6425 32.423C15.0962 32.4183 14.5737 32.1992 14.1874 31.8129C13.8012 31.4266 13.5821 30.9041 13.5773 30.3579C13.5726 29.8116 13.7826 29.2854 14.1621 28.8924L20.0537 22.9987L14.1621 17.1049C13.9631 16.9128 13.8044 16.6829 13.6952 16.4287C13.586 16.1745 13.5285 15.9012 13.5261 15.6245C13.5237 15.3479 13.5764 15.0736 13.6812 14.8175C13.7859 14.5615 13.9406 14.3289 14.1362 14.1333C14.3319 13.9377 14.5645 13.783 14.8205 13.6782C15.0765 13.5735 15.3509 13.5208 15.6275 13.5232C15.9041 13.5256 16.1775 13.583 16.4317 13.6922C16.6858 13.8014 16.9157 13.9601 17.1079 14.1591L22.9996 20.0529L28.8912 14.1591C29.0834 13.9601 29.3133 13.8014 29.5675 13.6922C29.8216 13.583 30.095 13.5256 30.3716 13.5232C30.6483 13.5208 30.9226 13.5735 31.1786 13.6782C31.4347 13.783 31.6673 13.9377 31.8629 14.1333C32.0585 14.3289 32.2132 14.5615 32.3179 14.8175C32.4227 15.0736 32.4754 15.3479 32.473 15.6245C32.4706 15.9012 32.4131 16.1745 32.3039 16.4287C32.1948 16.6829 32.036 16.9128 31.8371 17.1049L25.9454 22.9987L31.8371 28.8924Z" fill="url(#paint0_linear_1145_42351)"/>
<defs>
<linearGradient id="paint0_linear_1145_42351" x1="48.3895" y1="-31.1464" x2="-6.68086" y2="-19.7452" gradientUnits="userSpaceOnUse">
<stop stop-color="#FEC12D"/>
<stop offset="1" stop-color="#FF552C"/>
</linearGradient>
</defs>
</svg>
