<svg width="6" height="20" viewBox="0 0 6 20" fill="none" xmlns="http://www.w3.org/2000/svg">
<path d="M0.75 10C0.75 11.2405 1.7595 12.25 3 12.25C4.2405 12.25 5.25 11.2405 5.25 10C5.25 8.7595 4.2405 7.75 3 7.75C1.7595 7.75 0.75 8.7595 0.75 10ZM0.75 17.5C0.75 18.7405 1.7595 19.75 3 19.75C4.2405 19.75 5.25 18.7405 5.25 17.5C5.25 16.2595 4.2405 15.25 3 15.25C1.7595 15.25 0.75 16.2595 0.75 17.5ZM0.75 2.5C0.75 3.7405 1.7595 4.75 3 4.75C4.2405 4.75 5.25 3.7405 5.25 2.5C5.25 1.2595 4.2405 0.25 3 0.25C1.7595 0.25 0.75 1.2595 0.75 2.5Z" fill="#1B1B1B"/>
</svg>
