<svg width="16" height="16" viewBox="0 0 16 16" fill="none" xmlns="http://www.w3.org/2000/svg">
<path d="M2.7763 10.8974C2.6483 10.8974 2.52055 10.8487 2.4228 10.7509C2.22755 10.5557 2.22755 10.2392 2.4228 10.0439L10.2363 2.23042C10.4313 2.03517 10.7481 2.03517 10.9433 2.23042C11.1386 2.42567 11.1386 2.74217 10.9433 2.93742L3.1298 10.7509C3.0323 10.8484 2.9043 10.8974 2.7763 10.8974Z" fill="#1B1B1B"/>
<path d="M2.00392 14.5012C1.96917 14.5012 1.93392 14.4975 1.89867 14.49C1.62867 14.432 1.45667 14.1662 1.51467 13.8962L2.28717 10.2955C2.34517 10.0255 2.61217 9.85399 2.88092 9.91149C3.15092 9.96949 3.32292 10.2352 3.26492 10.5052L2.49242 14.106C2.44217 14.3407 2.23467 14.5012 2.00392 14.5012Z" fill="#1B1B1B"/>
<path d="M5.60492 13.7292C5.47692 13.7292 5.34917 13.6805 5.25142 13.5827C5.05617 13.3875 5.05617 13.071 5.25142 12.8757L13.0649 5.06245C13.2599 4.8672 13.5767 4.8672 13.7719 5.06245C13.9672 5.2577 13.9672 5.5742 13.7719 5.76945L5.95867 13.5827C5.86092 13.6805 5.73292 13.7292 5.60492 13.7292Z" fill="#1B1B1B"/>
<path d="M2.00309 14.501C1.77234 14.501 1.56509 14.3405 1.51459 14.1058C1.45684 13.8358 1.62859 13.57 1.89859 13.512L5.49934 12.7395C5.76959 12.6823 6.03534 12.8538 6.09309 13.1235C6.15084 13.3935 5.97909 13.6593 5.70909 13.7173L2.10834 14.4898C2.07309 14.4975 2.03784 14.501 2.00309 14.501Z" fill="#1B1B1B"/>
<path d="M12.004 7.32819C11.876 7.32819 11.748 7.27944 11.6505 7.18169L8.82222 4.35344C8.62697 4.15819 8.62697 3.84169 8.82222 3.64644C9.01722 3.45119 9.33422 3.45119 9.52922 3.64644L12.3575 6.47469C12.5527 6.66994 12.5527 6.98644 12.3575 7.18169C12.26 7.27944 12.132 7.32819 12.004 7.32819Z" fill="#1B1B1B"/>
<path d="M13.418 5.91627C13.29 5.91627 13.162 5.86752 13.0643 5.76977C12.869 5.57452 12.869 5.25802 13.0643 5.06252C13.3425 4.78427 13.4958 4.40752 13.4958 4.00202C13.4958 3.59652 13.3425 3.21977 13.0643 2.94152C12.7858 2.66302 12.409 2.50977 12.0035 2.50977C11.598 2.50977 11.2213 2.66302 10.943 2.94152C10.748 3.13677 10.4315 3.13702 10.2358 2.94152C10.0405 2.74627 10.0405 2.42977 10.2358 2.23427C10.7028 1.76702 11.3305 1.50977 12.0035 1.50977C12.6763 1.50977 13.3043 1.76702 13.7713 2.23427C14.2385 2.70127 14.4958 3.32902 14.4958 4.00202C14.4958 4.67502 14.2385 5.30277 13.7713 5.76977C13.674 5.86727 13.546 5.91627 13.418 5.91627Z" fill="#1B1B1B"/>
</svg>
