<svg width="24" height="24" viewBox="0 0 24 24" fill="none" xmlns="http://www.w3.org/2000/svg">
<g clip-path="url(#clip0_1145_50142)">
<path d="M7.35113 7.53078C7.43447 7.91417 7.56227 8.16235 7.71137 8.31701C8.06605 10.7859 10.2821 12.8899 12.062 12.802C14.3263 12.6908 15.9312 10.2506 16.2914 8.31701C16.4405 8.16328 16.584 7.83453 16.6702 7.44836C16.7665 7.00477 16.8702 6.33615 16.6035 5.98239C16.5596 5.9386 16.5145 5.89599 16.4683 5.85459C16.7229 4.93593 17.2823 3.29679 15.8895 1.82341C15.1347 1.02514 14.0864 0.624153 13.1391 0.307437C10.3423 -0.626966 8.36795 0.683421 7.4567 2.86246C7.39095 3.01711 6.96588 3.99597 7.48077 5.85459C7.42916 5.88902 7.38402 5.93228 7.34742 5.98239C7.07979 6.33522 7.25389 7.08719 7.35113 7.53078Z" fill="#1B1B1B"/>
<path d="M21.8154 21.1094C21.7376 19.41 21.6413 16.717 20.1568 14.5139C20.1568 14.5139 19.7336 13.937 18.7297 13.5536C18.7297 13.5536 16.5497 12.8896 15.5459 12.1719L15.0875 12.4858L15.1384 15.4659L12.3861 22.8133C12.3568 22.8919 12.3042 22.9596 12.2354 23.0074C12.1665 23.0552 12.0847 23.0808 12.0009 23.0808C11.9171 23.0808 11.8353 23.0552 11.7664 23.0074C11.6975 22.9596 11.6449 22.8919 11.6157 22.8133L8.8643 15.4659C8.8643 15.4659 8.91523 12.4951 8.91431 12.4858C8.92079 12.5108 8.45498 12.1719 8.45498 12.1719C7.45297 12.8896 5.27208 13.5536 5.27208 13.5536C4.26822 13.937 3.84501 14.5139 3.84501 14.5139C2.36144 16.717 2.26328 19.41 2.18549 21.1094C2.13178 22.2836 2.37811 22.7217 2.68742 22.8467C6.5269 24.3876 17.4721 24.3876 21.3125 22.8467C21.6237 22.7226 21.8682 22.2836 21.8154 21.1094Z" fill="#1B1B1B"/>
<path d="M12.0991 13.7511L11.975 13.7539C11.5749 13.7539 11.1711 13.6761 10.7748 13.5391L11.8657 15.2088L10.8868 16.1534L11.8944 22.2719C11.8991 22.297 11.9124 22.3196 11.932 22.3359C11.9516 22.3522 11.9763 22.3611 12.0018 22.3611C12.0273 22.3611 12.052 22.3522 12.0716 22.3359C12.0913 22.3196 12.1046 22.297 12.1092 22.2719L13.1168 16.1534L12.137 15.2088L13.2122 13.5641C12.8612 13.6669 12.4899 13.7354 12.0991 13.7511Z" fill="#1B1B1B"/>
</g>
<defs>
<clipPath id="clip0_1145_50142">
<rect width="24" height="24" fill="white" transform="translate(0 0.00195312)"/>
</clipPath>
</defs>
</svg>
