<svg width="24" height="24" viewBox="0 0 24 24" fill="none" xmlns="http://www.w3.org/2000/svg">
<g clip-path="url(#clip0_1145_50160)">
<path fill-rule="evenodd" clip-rule="evenodd" d="M13.4214 1.36711L14.8505 2.43679C15.2413 2.72934 15.6527 2.87906 16.1401 2.9062L17.9224 3.00534C18.9896 3.06468 19.8563 3.79195 20.1001 4.83267L20.5072 6.57065C20.6186 7.04596 20.8375 7.42509 21.1935 7.75917L22.495 8.98078C23.2744 9.71221 23.4708 10.8265 22.9887 11.7804L22.1834 13.3734C21.9632 13.8091 21.8872 14.2402 21.9451 14.725L22.157 16.4974C22.2838 17.5587 21.7181 18.5385 20.7356 18.9593L19.0947 19.6621C18.6459 19.8543 18.3105 20.1357 18.0434 20.5442L17.0663 22.0381C16.4813 22.9327 15.4181 23.3196 14.395 23.0104L12.6863 22.494C12.219 22.3528 11.7813 22.3528 11.3139 22.494L9.60525 23.0104C8.58216 23.3196 7.51894 22.9327 6.93394 22.0381L5.95692 20.5442C5.68969 20.1357 5.35434 19.8543 4.90561 19.6621L3.26461 18.9592C2.28211 18.5384 1.71637 17.5586 1.84322 16.4973L2.05509 14.7249C2.11303 14.2402 2.037 13.809 1.81678 13.3733L1.01151 11.7803C0.529358 10.8264 0.725812 9.71217 1.50516 8.98068L2.80673 7.75907C3.1627 7.425 3.38156 7.04587 3.49289 6.57056L3.90005 4.83257C4.1438 3.7919 5.01056 3.06464 6.07776 3.00525L7.86 2.90611C8.34745 2.87901 8.75883 2.72925 9.14967 2.4367L10.5787 1.36701C11.4343 0.726605 12.5658 0.726605 13.4214 1.36711ZM11.0885 12.6133L9.53765 11.0625C9.1357 10.6605 8.48372 10.6605 8.08181 11.0625C7.67986 11.4644 7.67986 12.1164 8.08181 12.5183L10.3628 14.7993C10.7647 15.2012 11.4167 15.2012 11.8186 14.7993C13.1935 13.4244 14.5528 12.0341 15.9213 10.6529C16.3203 10.2502 16.3191 9.60028 15.9168 9.20029C15.5145 8.80021 14.8628 8.80134 14.4633 9.20479L11.0885 12.6133ZM12 4.3349C9.88312 4.3349 7.96655 5.193 6.57923 6.58031C5.19192 7.96767 4.33383 9.8842 4.33383 12.0011C4.33383 14.118 5.19192 16.0346 6.57923 17.4219C7.96655 18.8092 9.88312 19.6673 12 19.6673C14.117 19.6673 16.0335 18.8092 17.4209 17.4219C18.8082 16.0346 19.6663 14.118 19.6663 12.0011C19.6663 9.8842 18.8082 7.96762 17.4209 6.58031C16.0335 5.193 14.117 4.3349 12 4.3349ZM16.8906 7.11061C15.639 5.85904 13.9099 5.0849 12 5.0849C10.0902 5.0849 8.36109 5.85904 7.10953 7.11061C5.85797 8.36217 5.08383 10.0912 5.08383 12.0011C5.08383 13.911 5.85797 15.6401 7.10953 16.8916C8.36109 18.1432 10.0902 18.9173 12 18.9173C13.9099 18.9173 15.639 18.1432 16.8906 16.8917C18.1421 15.6401 18.9162 13.911 18.9162 12.0012C18.9163 10.0912 18.1421 8.36217 16.8906 7.11061Z" fill="#1B1B1B"/>
</g>
<defs>
<clipPath id="clip0_1145_50160">
<rect width="24" height="24" fill="white" transform="translate(0 0.00195312)"/>
</clipPath>
</defs>
</svg>
