<svg width="123" height="122" viewBox="0 0 123 122" fill="none" xmlns="http://www.w3.org/2000/svg">
<circle cx="61.394" cy="61.3657" r="59.4221" fill="#FEFEFF" stroke="url(#paint0_linear_1145_57028)" stroke-width="2.42539" stroke-linejoin="round" stroke-dasharray="3.23 3.23"/>
<circle cx="61.3936" cy="61.3678" r="49.7206" fill="white" stroke="url(#paint1_linear_1145_57028)" stroke-width="8.89311"/>
<path d="M72.3832 61.7141V46.2809C72.3831 45.907 72.2346 45.5483 71.9704 45.2837C71.7062 45.0191 71.3478 44.8701 70.9739 44.8693H63.9262V44.3575C63.9262 44.2747 63.8932 44.1952 63.8346 44.1366C63.776 44.078 63.6965 44.045 63.6137 44.045H59.9262C59.8511 43.4833 59.5746 42.9679 59.1481 42.5946C58.7216 42.2214 58.1742 42.0156 57.6074 42.0156C57.0407 42.0156 56.4932 42.2214 56.0667 42.5946C55.6402 42.9679 55.3638 43.4833 55.2887 44.045H51.6012C51.5183 44.045 51.4388 44.078 51.3802 44.1366C51.3216 44.1952 51.2887 44.2747 51.2887 44.3575V44.8693H44.2422C43.868 44.8699 43.5093 45.0187 43.2447 45.2834C42.9802 45.548 42.8314 45.9067 42.8309 46.2809V78.5753C42.8317 78.9492 42.9806 79.3075 43.2452 79.5717C43.5098 79.8359 43.8683 79.9844 44.2422 79.9846H69.8613C72.1095 79.9841 74.2817 79.1701 75.9764 77.6929C77.6712 76.2157 78.7742 74.1751 79.0816 71.948C79.389 69.7209 78.8801 67.4578 77.6489 65.5767C76.4176 63.6956 74.5472 62.3236 72.3832 61.7141Z" fill="#BEC7CF"/>
<path d="M60.5512 70.6733C60.5543 68.2052 61.5362 65.8392 63.2816 64.0942C65.027 62.3493 67.3932 61.3679 69.8613 61.3654C69.9003 61.3654 69.9389 61.3664 69.9778 61.3669V47.5859C69.9778 47.5031 69.9448 47.4236 69.8862 47.365C69.8276 47.3064 69.7481 47.2734 69.6653 47.2734H63.9261V48.4125C63.9261 48.4954 63.8932 48.5749 63.8346 48.6335C63.776 48.6921 63.6965 48.725 63.6136 48.725H51.6003C51.5175 48.725 51.438 48.6921 51.3794 48.6335C51.3208 48.5749 51.2878 48.4954 51.2878 48.4125V47.2734H45.5487C45.4658 47.2734 45.3863 47.3064 45.3277 47.365C45.2691 47.4236 45.2362 47.5031 45.2362 47.5859V77.2677C45.2362 77.3505 45.2691 77.43 45.3277 77.4886C45.3863 77.5472 45.4658 77.5802 45.5487 77.5802H63.6253C62.6573 76.7088 61.8834 75.6436 61.3538 74.4536C60.8241 73.2637 60.5507 71.9757 60.5512 70.6733Z" fill="#F3F5F9"/>
<path d="M60.5513 70.6733C60.5544 68.2052 61.5363 65.8392 63.2817 64.0942C65.027 62.3493 67.3933 61.3679 69.8614 61.3654C69.9004 61.3654 69.939 61.3664 69.9778 61.3669V47.5859C69.9778 47.5031 69.9449 47.4236 69.8863 47.365C69.8277 47.3064 69.7482 47.2734 69.6653 47.2734H63.9262V48.4125C63.9262 48.4954 63.8933 48.5749 63.8347 48.6335C63.7761 48.6921 63.6966 48.725 63.6137 48.725H57.6071V77.5802H63.6254C62.6574 76.7088 61.8834 75.6436 61.3538 74.4536C60.8242 73.2637 60.5508 71.9757 60.5513 70.6733Z" fill="#E1E6F0"/>
<path d="M63.6137 44.045H59.9262C59.8511 43.4833 59.5746 42.9679 59.1482 42.5946C58.7217 42.2214 58.1742 42.0156 57.6074 42.0156C57.0407 42.0156 56.4932 42.2214 56.0667 42.5946C55.6403 42.9679 55.3638 43.4833 55.2887 44.045H51.6012C51.5183 44.045 51.4388 44.078 51.3802 44.1366C51.3216 44.1952 51.2887 44.2747 51.2887 44.3575V48.4138C51.2887 48.4967 51.3216 48.5762 51.3802 48.6348C51.4388 48.6934 51.5183 48.7263 51.6012 48.7263H63.6145C63.6974 48.7263 63.7768 48.6934 63.8354 48.6348C63.8941 48.5762 63.927 48.4967 63.927 48.4138V44.3575C63.927 44.3164 63.9189 44.2757 63.9031 44.2378C63.8874 44.1998 63.8643 44.1653 63.8352 44.1363C63.8061 44.1073 63.7715 44.0843 63.7335 44.0686C63.6955 44.0529 63.6548 44.0449 63.6137 44.045Z" fill="#59ABFF"/>
<path d="M50.19 77.5813L45.2365 72.625H49.8565C49.945 72.625 50.0298 72.6601 50.0924 72.7227C50.1549 72.7852 50.19 72.8701 50.19 72.9585V77.5813Z" fill="#E1E6F0"/>
<path d="M52.2131 66.3672H49.1185C48.7734 66.3672 48.4935 66.647 48.4935 66.9922V70.0867C48.4935 70.4319 48.7734 70.7117 49.1185 70.7117H52.2131C52.5582 70.7117 52.8381 70.4319 52.8381 70.0867V66.9922C52.8381 66.647 52.5582 66.3672 52.2131 66.3672Z" fill="url(#paint2_linear_1145_57028)"/>
<path d="M52.2131 54.1406H49.1185C48.7734 54.1406 48.4935 54.4204 48.4935 54.7656V57.8579C48.4935 58.2031 48.7734 58.4829 49.1185 58.4829H52.2131C52.5582 58.4829 52.8381 58.2031 52.8381 57.8579V54.7656C52.8381 54.4204 52.5582 54.1406 52.2131 54.1406Z" fill="url(#paint3_linear_1145_57028)"/>
<path d="M52.2131 60.2539H49.1185C48.7734 60.2539 48.4935 60.5337 48.4935 60.8789V63.9734C48.4935 64.3186 48.7734 64.5984 49.1185 64.5984H52.2131C52.5582 64.5984 52.8381 64.3186 52.8381 63.9734V60.8789C52.8381 60.5337 52.5582 60.2539 52.2131 60.2539Z" fill="url(#paint4_linear_1145_57028)"/>
<path d="M66.0957 58.2221H55.0464C54.8806 58.2221 54.7217 58.1563 54.6044 58.0391C54.4872 57.9218 54.4214 57.7629 54.4214 57.5971C54.4214 57.4313 54.4872 57.2724 54.6044 57.1552C54.7217 57.038 54.8806 56.9721 55.0464 56.9721H66.0957C66.2614 56.9721 66.4204 57.038 66.5376 57.1552C66.6548 57.2724 66.7207 57.4313 66.7207 57.5971C66.7207 57.7629 66.6548 57.9218 66.5376 58.0391C66.4204 58.1563 66.2614 58.2221 66.0957 58.2221ZM60.9629 55.6523H55.0464C54.8806 55.6523 54.7217 55.5865 54.6044 55.4693C54.4872 55.3521 54.4214 55.1931 54.4214 55.0273C54.4214 54.8616 54.4872 54.7026 54.6044 54.5854C54.7217 54.4682 54.8806 54.4023 55.0464 54.4023H60.9629C61.1286 54.4023 61.2876 54.4682 61.4048 54.5854C61.522 54.7026 61.5879 54.8616 61.5879 55.0273C61.5879 55.1931 61.522 55.3521 61.4048 55.4693C61.2876 55.5865 61.1286 55.6523 60.9629 55.6523Z" fill="#4D5E80"/>
<path d="M63.6137 44.0448H59.9262C59.8502 43.4834 59.5734 42.9686 59.147 42.5955C58.7206 42.2224 58.1736 42.0164 57.6071 42.0156V48.7261H63.6137C63.6966 48.7261 63.7761 48.6932 63.8347 48.6346C63.8933 48.576 63.9262 48.4965 63.9262 48.4136V44.3573C63.9262 44.2745 63.8933 44.195 63.8347 44.1364C63.7761 44.0778 63.6966 44.0448 63.6137 44.0448Z" fill="#4A9BE5"/>
<path d="M57.6161 44.9805H57.598C57.4323 44.9805 57.2733 44.9146 57.1561 44.7974C57.0389 44.6802 56.973 44.5212 56.973 44.3555C56.973 44.1897 57.0389 44.0307 57.1561 43.9135C57.2733 43.7963 57.4323 43.7305 57.598 43.7305H57.6161C57.7818 43.7305 57.9408 43.7963 58.058 43.9135C58.1752 44.0307 58.2411 44.1897 58.2411 44.3555C58.2411 44.5212 58.1752 44.6802 58.058 44.7974C57.9408 44.9146 57.7818 44.9805 57.6161 44.9805Z" fill="#445775"/>
<path d="M57.6071 44.9805H57.6161C57.7819 44.9805 57.9408 44.9146 58.0581 44.7974C58.1753 44.6802 58.2411 44.5212 58.2411 44.3555C58.2411 44.1897 58.1753 44.0307 58.0581 43.9135C57.9408 43.7963 57.7819 43.7305 57.6161 43.7305H57.6071V44.9805Z" fill="#394B63"/>
<path d="M69.8614 61.3672C68.0201 61.3669 66.2202 61.9127 64.6891 62.9355C63.1581 63.9583 61.9647 65.4121 61.26 67.1132C60.5553 68.8142 60.3708 70.686 60.7299 72.4919C61.0891 74.2978 61.9757 75.9566 63.2776 77.2586C64.5796 78.5605 66.2384 79.4472 68.0443 79.8063C69.8501 80.1655 71.7219 79.9811 73.423 79.2764C75.124 78.5717 76.5779 77.3783 77.6007 75.8473C78.6235 74.3163 79.1693 72.5163 79.1691 70.6751C79.166 68.2074 78.1844 65.8418 76.4396 64.0969C74.6947 62.352 72.329 61.3703 69.8614 61.3672Z" fill="url(#paint5_linear_1145_57028)"/>
<path d="M69.9778 47.5851V61.3663C70.7913 61.3757 71.6 61.492 72.3832 61.7123V46.2787C72.3831 45.9048 72.2346 45.5462 71.9704 45.2816C71.7062 45.0169 71.3478 44.8679 70.9739 44.8672H63.9261V47.2726H69.6653C69.7482 47.2726 69.8277 47.3055 69.8863 47.3641C69.9449 47.4227 69.9778 47.5022 69.9778 47.5851Z" fill="#ABB3BA"/>
<path d="M57.6071 77.582V79.9852H69.8614C67.5563 79.987 65.3331 79.1303 63.6254 77.582H57.6071Z" fill="#ABB3BA"/>
<path d="M55.0464 67.8789H60.9629C60.9687 67.8789 60.9745 67.8782 60.9803 67.878C61.096 67.5114 61.2345 67.1524 61.395 66.803C61.2789 66.6912 61.124 66.6288 60.9629 66.6289H55.0464C54.8806 66.6289 54.7217 66.6948 54.6044 66.812C54.4872 66.9292 54.4214 67.0881 54.4214 67.2539C54.4214 67.4197 54.4872 67.5786 54.6044 67.6958C54.7217 67.8131 54.8806 67.8789 55.0464 67.8789Z" fill="#4D5E80"/>
<path d="M60.6681 69.2031H55.0464C54.8806 69.2031 54.7217 69.269 54.6044 69.3862C54.4872 69.5034 54.4214 69.6624 54.4214 69.8281C54.4214 69.9939 54.4872 70.1529 54.6044 70.2701C54.7217 70.3873 54.8806 70.4531 55.0464 70.4531H60.5542C60.5641 70.0344 60.6021 69.6168 60.6681 69.2031Z" fill="#4D5E80"/>
<path d="M55.0464 61.7656H60.9629C61.1286 61.7656 61.2876 61.6998 61.4048 61.5826C61.522 61.4654 61.5879 61.3064 61.5879 61.1406C61.5879 60.9749 61.522 60.8159 61.4048 60.6987C61.2876 60.5815 61.1286 60.5156 60.9629 60.5156H55.0464C54.8806 60.5156 54.7217 60.5815 54.6044 60.6987C54.4872 60.8159 54.4214 60.9749 54.4214 61.1406C54.4214 61.3064 54.4872 61.4654 54.6044 61.5826C54.7217 61.6998 54.8806 61.7656 55.0464 61.7656Z" fill="#4D5E80"/>
<path d="M64.4731 63.0859H55.0464C54.8806 63.0859 54.7217 63.1518 54.6044 63.269C54.4872 63.3862 54.4214 63.5452 54.4214 63.7109C54.4214 63.8767 54.4872 64.0357 54.6044 64.1529C54.7217 64.2701 54.8806 64.3359 55.0464 64.3359H63.0487C63.48 63.8722 63.9573 63.4534 64.4731 63.0859Z" fill="#4D5E80"/>
<path d="M69.8613 61.3672H69.8601V79.9851H69.8613C72.3255 79.9779 74.6863 78.994 76.4263 77.249C78.1662 75.504 79.1433 73.1404 79.1433 70.6761C79.1433 68.2119 78.1662 65.8482 76.4263 64.1032C74.6863 62.3582 72.3255 61.3743 69.8613 61.3672Z" fill="url(#paint6_linear_1145_57028)"/>
<path d="M75.3129 66.7784C75.176 66.64 75.013 66.53 74.8334 66.4547C74.6538 66.3795 74.4611 66.3404 74.2664 66.3399C74.0717 66.3393 73.8787 66.3772 73.6987 66.4514C73.5187 66.5256 73.3551 66.6347 73.2173 66.7723L68.5156 71.4506L66.4921 69.4615C66.2091 69.1938 65.8321 69.0483 65.4426 69.0564C65.0532 69.0645 64.6825 69.2256 64.4109 69.5048C64.1393 69.7841 63.9885 70.159 63.9911 70.5485C63.9938 70.9381 64.1496 71.3109 64.425 71.5865L67.4909 74.5892C67.7707 74.8585 68.1446 75.008 68.5329 75.0058C68.9213 75.0037 69.2934 74.8501 69.5703 74.5777L75.3067 68.8728C75.585 68.5957 75.7419 68.2195 75.7431 67.8268C75.7443 67.4341 75.5895 67.057 75.3129 66.7783L75.3129 66.7784Z" fill="#F3F5F9"/>
<path d="M74.2656 66.3399C74.0709 66.3387 73.8779 66.3763 73.6979 66.4505C73.5179 66.5248 73.3546 66.6342 73.2174 66.7724L69.8601 70.1126V74.2897L75.3067 68.873C75.5143 68.6662 75.6559 68.4025 75.7137 68.1152C75.7715 67.8279 75.7429 67.53 75.6315 67.259C75.5201 66.9879 75.3309 66.756 75.0878 66.5924C74.8447 66.4288 74.5586 66.341 74.2656 66.3399Z" fill="#E1E6F0"/>
<defs>
<linearGradient id="paint0_linear_1145_57028" x1="125.886" y1="-76.1654" x2="-13.9957" y2="-47.2059" gradientUnits="userSpaceOnUse">
<stop stop-color="#FEC12D"/>
<stop offset="1" stop-color="#FF552C"/>
</linearGradient>
<linearGradient id="paint1_linear_1145_57028" x1="111.554" y1="-45.6009" x2="2.75722" y2="-23.0768" gradientUnits="userSpaceOnUse">
<stop stop-color="#FEC12D"/>
<stop offset="1" stop-color="#FF552C"/>
</linearGradient>
<linearGradient id="paint2_linear_1145_57028" x1="53.0725" y1="63.4071" x2="47.8524" y2="64.4878" gradientUnits="userSpaceOnUse">
<stop stop-color="#FEC12D"/>
<stop offset="1" stop-color="#FF552C"/>
</linearGradient>
<linearGradient id="paint3_linear_1145_57028" x1="53.0725" y1="51.182" x2="47.8526" y2="52.2633" gradientUnits="userSpaceOnUse">
<stop stop-color="#FEC12D"/>
<stop offset="1" stop-color="#FF552C"/>
</linearGradient>
<linearGradient id="paint4_linear_1145_57028" x1="53.0725" y1="57.2938" x2="47.8524" y2="58.3745" gradientUnits="userSpaceOnUse">
<stop stop-color="#FEC12D"/>
<stop offset="1" stop-color="#FF552C"/>
</linearGradient>
<linearGradient id="paint5_linear_1145_57028" x1="80.1738" y1="48.6819" x2="57.8036" y2="53.3132" gradientUnits="userSpaceOnUse">
<stop stop-color="#FEC12D"/>
<stop offset="1" stop-color="#FF552C"/>
</linearGradient>
<linearGradient id="paint6_linear_1145_57028" x1="79.6442" y1="48.6819" x2="68.1347" y2="49.87" gradientUnits="userSpaceOnUse">
<stop stop-color="#FEC12D"/>
<stop offset="1" stop-color="#FF552C"/>
</linearGradient>
</defs>
</svg>
