<svg width="122" height="122" viewBox="0 0 122 122" fill="none" xmlns="http://www.w3.org/2000/svg">
<circle cx="61.2863" cy="61.2094" r="59.4221" fill="#FEFEFF" stroke="url(#paint0_linear_1145_57111)" stroke-width="2.42539" stroke-linejoin="round" stroke-dasharray="3.23 3.23"/>
<circle cx="61.286" cy="61.2115" r="49.7206" fill="white" stroke="url(#paint1_linear_1145_57111)" stroke-width="8.89311"/>
<g clip-path="url(#clip0_1145_57111)">
<path d="M70.5431 41.7344H69.9336L68.241 42.4221L66.0721 43.8283L64.7777 46.3281L64.335 48.3332L65.9039 52.3107L67.8373 54.459L69.0286 55.3378V56.3982H71.4177L71.9429 56.0523C71.9429 55.1666 72.3809 54.3464 73.0978 53.8263C74.7956 52.5947 75.9051 50.5956 75.9051 48.3499C75.9051 45.1102 73.5964 42.384 70.5431 41.7344Z" fill="#FFE02F"/>
<path d="M80.2424 65.2573C79.4767 63.6582 77.7142 64.4141 77.5662 64.4695L70.3952 66.5909C70.2616 66.6305 70.1295 66.5204 70.1475 66.3822C70.2087 65.9105 70.1619 65.005 69.0446 64.5591C64.7455 62.8429 64.2328 62.5526 63.1449 62.5353L63.1447 62.5352C61.2484 62.5415 60.2276 62.553 59.3983 62.6959L58.4632 63.1493L57.8578 65.7468L58.0726 67.8951L59.5373 70.2386L61.1814 70.8118C61.9089 70.8126 62.6062 70.9296 63.2292 71.1782L66.0036 72.2857C66.61 72.4948 68.0031 72.8202 69.4488 72.0793C69.4495 72.0789 69.45 72.0787 69.45 72.0787C69.5947 72.0147 78.7055 67.9846 79.1355 67.7944C79.4286 67.6441 80.9032 66.7594 80.2424 65.2573Z" fill="#FFCEBE"/>
<path d="M58.2753 66.0015C58.2753 64.7571 58.6945 63.6113 59.3981 62.6953C58.7565 62.8059 58.2294 62.9951 57.5004 63.3214C56.6259 63.7127 55.7954 64.1868 55.0173 64.7337C54.6142 65.0171 54.1757 65.245 53.7128 65.4099L53.5546 66.026L56.0544 71.7287L56.7253 71.9777L58.7355 71.2145C59.5494 70.9492 60.3835 70.8101 61.1813 70.8109C59.4538 69.9014 58.2753 68.0895 58.2753 66.0015Z" fill="#FFB1A0"/>
<path d="M55.3188 70.6462L55.6641 70.1189V69.6623L53.5181 64.9833C53.2918 64.4901 52.7087 64.2736 52.2155 64.4999L49.48 65.7544L49.206 66.5855L51.7974 72.1536L55.3188 70.6462Z" fill="#DBEDFF"/>
<path d="M57.1403 72.8826L55.6641 69.6641C55.591 69.9957 55.3699 70.2907 55.0375 70.4431L51.9149 71.8752L51.5887 71.707L53.138 75.0357L53.9214 75.4397L56.6569 74.1851C57.15 73.959 57.3665 73.3757 57.1403 72.8826Z" fill="#B5DCFF"/>
<path d="M69.1431 56.0511C69.1431 55.1654 68.7051 54.3452 67.9882 53.8251C66.2904 52.5935 65.1809 50.5945 65.1809 48.3487C65.1809 45.109 67.4896 42.3828 70.5429 41.7332C70.0906 41.6369 69.6222 41.5859 69.1423 41.5859C65.4227 41.5859 62.3795 44.6291 62.3795 48.3487C62.3795 50.5945 63.489 52.5935 65.1869 53.8251C65.9038 54.3452 66.3418 55.1654 66.3418 56.0511L66.5874 56.397H69.3887L69.1431 56.0511Z" fill="#FBC700"/>
<path d="M45.313 75.4391L46.0161 75.3002L51.982 72.5513L52.2575 72.244L52.2373 71.7674L48.9763 64.6572C48.7709 64.2093 48.2413 64.0128 47.7934 64.2181L42.1068 66.8263C41.659 67.0317 41.4624 67.5613 41.6678 68.0092L44.9481 75.1613L45.313 75.4391Z" fill="#BF7FE3"/>
<path d="M54.4253 76.5398L52.2374 71.7695C52.2021 72.0809 52.0104 72.3668 51.7048 72.507L45.8092 75.211C45.5213 75.3431 45.2009 75.3146 44.9482 75.1634L47.1168 79.8918C47.3222 80.3396 47.8519 80.5362 48.2997 80.3307L53.9863 77.7226C54.4341 77.5173 54.6306 76.9877 54.4253 76.5398Z" fill="#B166DB"/>
<path d="M69.5827 56.0235L69.4387 56.3699V59.5663L70.3501 60.8876H70.7633C71.4769 60.38 71.9428 59.547 71.9428 58.6046V56.0493C71.9428 56.0406 71.9435 56.0321 71.9436 56.0234H69.5827V56.0235Z" fill="#DBEDFF"/>
<path d="M69.5838 58.6046V56.0493C69.5838 56.0406 69.5831 56.0321 69.583 56.0234H66.3411C66.3411 56.0321 66.3418 56.0406 66.3418 56.0493V58.6046C66.3418 60.1512 67.5957 61.405 69.1423 61.405C69.7467 61.405 70.3058 61.213 70.7633 60.8875C70.0498 60.38 69.5838 59.547 69.5838 58.6046Z" fill="#B5DCFF"/>
<path d="M80.7708 65.0043C80.1703 63.7501 78.87 63.3329 77.377 63.9145L70.7441 65.8769C70.6763 65.1963 70.3074 64.4323 69.2617 64.015C68.5503 63.7309 67.9426 63.486 67.4189 63.2749C64.7423 62.1961 64.1757 61.9678 63.1678 61.9498C63.1595 61.9494 63.1514 61.949 63.1426 61.9493C59.743 61.9607 59.0464 61.9882 57.261 62.7873C56.362 63.1896 55.4938 63.6835 54.6804 64.2552C54.4652 64.4065 54.239 64.5393 54.0045 64.6533C53.6163 63.931 52.7268 63.6236 51.9711 63.97L49.7683 64.9803L49.5088 64.4145C49.1682 63.6719 48.2917 63.3464 47.5491 63.6871L41.8624 66.2952C41.1198 66.6358 40.7945 67.5123 41.135 68.2549L46.5841 80.1354C46.9239 80.8764 47.8032 81.2021 48.5438 80.8627L50.106 80.1462C50.4001 80.0113 50.5291 79.6635 50.3942 79.3694C50.2593 79.0753 49.9118 78.9461 49.6174 79.0811L48.0553 79.7976C47.9014 79.8679 47.7194 79.8004 47.6491 79.6469L42.2002 67.7664C42.1298 67.6129 42.1974 67.4307 42.351 67.3603L48.0375 64.7521C48.1914 64.6817 48.373 64.7488 48.4435 64.9029C48.6295 65.3085 53.6958 76.3545 53.8925 76.7833C53.9629 76.9368 53.8953 77.119 53.7418 77.1894L52.1036 77.9407C51.8095 78.0756 51.6805 78.4234 51.8154 78.7175C51.9504 79.0116 52.2979 79.1407 52.5922 79.0057L54.2303 78.2545C54.973 77.9138 55.2982 77.0374 54.9576 76.2947L54.698 75.7288L56.9009 74.7184C57.6869 74.3579 58.0331 73.4251 57.6727 72.639L57.5189 72.3038L58.9301 71.768C60.402 71.291 61.8891 71.2743 63.0118 71.7223L65.7862 72.8299C65.7948 72.8333 65.8036 72.8366 65.8124 72.8397C67.0422 73.2635 68.4685 73.2342 69.7004 72.6085C69.7234 72.5983 79.3801 68.3273 79.4025 68.3158C80.2587 67.8768 81.5121 66.6889 80.7787 65.0214C80.7762 65.0157 80.7735 65.01 80.7708 65.0043ZM56.4124 73.6534L54.2096 74.6638C53.673 73.494 50.7919 67.2122 50.2567 66.0455L52.4596 65.0351C52.6573 64.9441 52.8934 65.0298 52.9854 65.2302L56.6075 73.1278C56.6989 73.3266 56.6121 73.5618 56.4124 73.6534ZM78.8817 67.266C78.2769 67.5335 69.3559 71.4796 69.219 71.5403C69.2166 71.5413 69.213 71.5429 69.2107 71.544C69.2007 71.5484 69.191 71.553 69.1814 71.558C67.9254 72.2019 66.6923 71.9014 66.2071 71.7363L63.4463 70.6342C62.0493 70.0768 60.3119 70.0855 58.5539 70.6584C58.5451 70.6613 58.5363 70.6644 58.5275 70.6677L57.0294 71.2364C56.0504 69.1019 55.4711 67.8389 54.4979 65.7169C54.7955 65.5735 55.082 65.4054 55.3542 65.2139C56.1064 64.6853 56.909 64.2288 57.7398 63.857C59.2931 63.1617 59.7835 63.1327 63.1333 63.1213H63.1354C63.9344 63.134 64.3995 63.3215 66.9809 64.3619C67.5056 64.5733 68.1145 64.8188 68.8274 65.1034C69.2565 65.2746 69.4964 65.537 69.5608 65.9053C69.6152 66.2163 69.5288 66.4947 69.5288 66.4947C69.5284 66.4963 69.5281 66.498 69.5276 66.4996C69.5263 66.5037 69.5246 66.5074 69.5234 66.5115C69.4526 66.7333 69.2176 67.2315 68.5577 67.0703C67.2821 66.7578 64.2432 66.026 64.2127 66.0186C63.898 65.9428 63.5816 66.1366 63.5059 66.4511C63.4301 66.7657 63.6238 67.0821 63.9383 67.1579C63.9689 67.1653 67.0055 67.8964 68.2789 68.2084C68.4657 68.2542 68.642 68.275 68.808 68.275C69.6682 68.275 70.2457 67.7148 70.5197 67.1653C78.005 64.9507 77.7305 65.0342 77.8002 65.0073C78.4409 64.7569 79.2914 64.6404 79.7099 65.502C80.1526 66.5251 79.1293 67.1362 78.8817 67.266Z" fill="black"/>
<path d="M78.6497 47.0948L80.599 46.4337C80.9054 46.3298 81.0696 45.9971 80.9657 45.6908C80.8617 45.3843 80.529 45.2204 80.2227 45.3241L78.2734 45.9851C77.9669 46.089 77.8028 46.4217 77.9067 46.7281C78.0107 47.0345 78.3432 47.1987 78.6497 47.0948Z" fill="black"/>
<path d="M78.2734 50.0236L80.2227 50.6847C80.5299 50.7887 80.862 50.624 80.9658 50.3181C81.0697 50.0116 80.9055 49.6789 80.5991 49.575L78.6498 48.9139C78.3433 48.8102 78.0108 48.9741 77.9068 49.2805C77.8028 49.587 77.9669 49.9197 78.2734 50.0236Z" fill="black"/>
<path d="M60.0112 45.9851L58.0618 45.3241C57.7559 45.2204 57.4228 45.3843 57.3188 45.6908C57.2149 45.9972 57.379 46.3298 57.6855 46.4337L59.6349 47.0948C59.9414 47.1987 60.2739 47.0345 60.3778 46.7281C60.4817 46.4216 60.3175 46.089 60.0112 45.9851Z" fill="black"/>
<path d="M59.6348 48.9139L57.6854 49.575C57.379 49.6789 57.2149 50.0116 57.3188 50.3181C57.4225 50.6239 57.7546 50.7888 58.0619 50.6847L60.0112 50.0236C60.3176 49.9197 60.4817 49.587 60.3778 49.2805C60.2739 48.9741 59.9413 48.8103 59.6348 48.9139Z" fill="black"/>
<path d="M73.4417 54.2994C74.9857 53.1794 76.0253 51.539 76.3691 49.6804C76.4279 49.3622 76.2177 49.0566 75.8995 48.9977C75.581 48.9392 75.2757 49.1491 75.2168 49.4673C74.928 51.029 74.0532 52.4082 72.7537 53.3509C72.0501 53.8613 71.5752 54.6145 71.4162 55.4394H69.7282V51.1101L72.0558 48.6056C72.2761 48.3686 72.2625 47.9979 72.0255 47.7776C71.7885 47.5572 71.4177 47.5709 71.1975 47.8079L69.1423 50.0193L67.0871 47.808C66.8669 47.571 66.4962 47.5574 66.2591 47.7776C66.0221 47.9979 66.0085 48.3686 66.2287 48.6057L68.5563 51.1101V55.4395H66.8684C66.7094 54.6146 66.2345 53.8614 65.5309 53.351C63.9245 52.1857 62.9654 50.3158 62.9654 48.3488C62.9654 44.9428 65.7364 42.1719 69.1422 42.1719C71.9908 42.1719 74.523 44.1904 75.1631 46.9713C75.2356 47.2866 75.5498 47.4839 75.8654 47.4108C76.1807 47.3383 76.3776 47.0238 76.3049 46.7085C75.9385 45.1163 75.0304 43.6688 73.7479 42.6325C72.4452 41.5797 70.8096 41 69.1422 41C65.0902 41 61.7936 44.2966 61.7936 48.3486C61.7936 50.6898 62.9336 52.9143 64.8428 54.2994C65.408 54.7094 65.7474 55.354 65.7551 56.0277C65.7551 56.0286 65.7551 56.0295 65.7551 56.0304C65.7551 56.04 65.7554 56.0495 65.7559 56.06V58.6064C65.7559 60.4737 67.275 61.9929 69.1423 61.9929C71.0096 61.9929 72.5287 60.4738 72.5287 58.6064V56.0582L72.5295 56.0356C72.5295 56.0341 72.5294 56.0327 72.5294 56.0312C72.5358 55.3563 72.8755 54.7101 73.4417 54.2994ZM71.3569 58.6064C71.3569 59.8276 70.3634 60.8211 69.1422 60.8211C67.9211 60.8211 66.9276 59.8276 66.9276 58.6064V56.6112H71.3568V58.6064H71.3569Z" fill="black"/>
</g>
<defs>
<linearGradient id="paint0_linear_1145_57111" x1="125.778" y1="-76.3217" x2="-14.1033" y2="-47.3621" gradientUnits="userSpaceOnUse">
<stop stop-color="#FEC12D"/>
<stop offset="1" stop-color="#FF552C"/>
</linearGradient>
<linearGradient id="paint1_linear_1145_57111" x1="111.446" y1="-45.7571" x2="2.64955" y2="-23.233" gradientUnits="userSpaceOnUse">
<stop stop-color="#FEC12D"/>
<stop offset="1" stop-color="#FF552C"/>
</linearGradient>
<clipPath id="clip0_1145_57111">
<rect width="40" height="40" fill="white" transform="translate(41 41)"/>
</clipPath>
</defs>
</svg>
