<svg width="122" height="122" viewBox="0 0 122 122" fill="none" xmlns="http://www.w3.org/2000/svg">
<circle cx="61.0249" cy="61.2094" r="59.4221" fill="#FEFEFF" stroke="url(#paint0_linear_1145_57059)" stroke-width="2.42539" stroke-linejoin="round" stroke-dasharray="3.23 3.23"/>
<circle cx="61.0245" cy="61.2115" r="49.7206" fill="white" stroke="url(#paint1_linear_1145_57059)" stroke-width="8.89311"/>
<g clip-path="url(#clip0_1145_57059)">
<path d="M57.8086 41.5742C53.5033 41.5742 50.0133 45.0642 50.0133 49.3696V52.4544C50.5343 51.9715 51.2755 51.7091 51.999 51.8056V51.4172C51.999 51.1084 52.2627 50.8645 52.5684 50.8876C55.5823 51.1041 58.6495 50.1464 60.9687 48.6314C61.1852 48.4899 61.4719 48.525 61.6479 48.7142C63.6306 50.8454 63.6187 50.7629 63.6187 51.0412V51.804C64.4117 51.6851 65.1152 51.9302 65.6039 52.3846V49.3696C65.6039 45.0642 62.114 41.5742 57.8086 41.5742Z" fill="#576574"/>
<path d="M51.5759 49.3695C51.5759 45.3279 54.6515 42.0049 58.5899 41.613C58.333 41.5875 58.0723 41.5742 57.8086 41.5742C53.5033 41.5742 50.0133 45.0642 50.0133 49.3696V52.4544C50.4328 52.0656 50.9951 51.8201 51.5759 51.7894V49.3695Z" fill="#3E4B5A"/>
<path d="M63.5154 51.4947V55.765C63.5154 55.8112 63.5129 55.857 63.5118 55.9031C65.0229 56.1319 66.2065 55.0401 66.2065 53.6991C66.2065 52.3554 65.0219 51.2688 63.5154 51.4947Z" fill="#F2BB88"/>
<path d="M52.1023 55.7651V51.4964C50.7867 51.3207 49.4111 52.3304 49.4111 53.6992C49.4111 55.0384 50.5921 56.1322 52.1057 55.9031C52.1046 55.857 52.1023 55.8112 52.1023 55.7651Z" fill="#F2BB88"/>
<path d="M65.078 51.7664C64.6398 51.5185 64.1023 51.4066 63.5154 51.4946V55.7649C63.5154 55.8112 63.5129 55.8569 63.5118 55.903C64.1006 55.9921 64.6393 55.8802 65.078 55.6317V51.7664Z" fill="#E3A76F"/>
<path d="M52.1023 55.6321C51.4146 55.2427 50.9737 54.517 50.9737 53.6992C50.9737 52.8971 51.4464 52.2188 52.1023 51.8295V51.4964C50.7867 51.3207 49.4111 52.3305 49.4111 53.6992C49.4111 55.0384 50.5921 56.1322 52.1057 55.9031C52.1047 55.857 52.1024 55.8112 52.1024 55.7651V55.6321H52.1023Z" fill="#E3A76F"/>
<path d="M57.8917 61.3894C56.6324 61.3894 55.5256 61.0436 54.6204 60.4652V63.5246L57.8777 67.5452L61.135 63.5246V60.3789C60.2123 61.0154 59.095 61.3894 57.8917 61.3894Z" fill="#F2BB88"/>
<path d="M56.183 61.16C55.6127 61.001 55.0893 60.7645 54.6204 60.4648V63.5242L56.183 65.453V61.16Z" fill="#E3A76F"/>
<path d="M69.7521 66.6536L61.1351 63.3164L57.8777 67.337L54.6204 63.3164L46.0123 66.6536C46.0123 66.6536 42.8252 67.9638 42.8252 71.5971V79.6605C42.8252 80.07 43.1572 80.4019 43.5666 80.4019H72.2042C72.6101 80.4019 72.9392 80.0728 72.9392 79.6669V71.5971C72.9393 67.9638 69.7521 66.6536 69.7521 66.6536Z" fill="#E4EAF8"/>
<path d="M44.3877 79.661V70.8162C44.3877 68.4507 45.7385 67.0702 46.6813 66.3945L46.0122 66.6539C46.0122 66.6539 42.8251 67.9642 42.8251 71.5974V79.6609C42.8251 80.0704 43.157 80.4023 43.5664 80.4023H45.129C44.7197 80.4024 44.3877 80.0704 44.3877 79.661Z" fill="#D8DCE5"/>
<path d="M61.6478 48.5092C61.4719 48.3201 61.1852 48.2848 60.9687 48.4263C58.6495 49.9413 55.5822 50.8991 52.5683 50.6826C52.2626 50.6594 51.9989 50.9033 51.9989 51.2121V55.8691C51.9989 58.8622 54.3441 61.596 57.8916 61.596C61.0494 61.596 63.6185 59.0269 63.6185 55.8691V50.8362C63.6186 50.5579 63.6305 50.6404 61.6478 48.5092Z" fill="#F2D1A5"/>
<path d="M53.5616 55.8677V50.71C53.2306 50.7137 52.8992 50.705 52.5684 50.6812C52.2627 50.658 51.999 50.9019 51.999 51.2108V55.8678C51.999 58.8609 54.3442 61.5946 57.8917 61.5946C58.1283 61.5946 58.361 61.5785 58.5901 61.5505C55.7607 61.2047 53.5616 58.7889 53.5616 55.8677Z" fill="#F2BB88"/>
<path d="M61.8107 69.403L64.2464 64.5214L61.135 63.3164L57.8777 67.337L61.0534 69.5925C61.3105 69.7752 61.6698 69.6852 61.8107 69.403Z" fill="#D8DCE5"/>
<path d="M53.9493 69.403L51.5135 64.5214L54.625 63.3164L57.8823 67.337L54.7066 69.5925C54.4494 69.7752 54.0901 69.6852 53.9493 69.403Z" fill="#D8DCE5"/>
<path d="M57.882 67.3387V67.3359L57.88 67.3373L57.8781 67.3359V67.3387L55.5682 68.9792L56.66 70.6225C57.5409 70.6225 58.2193 70.6225 59.0999 70.6225L60.1917 68.9792L57.882 67.3387Z" fill="#EE5253"/>
<path d="M55.005 80.4034H60.755L59.0999 70.625C58.2191 70.625 57.5407 70.625 56.66 70.625L55.005 80.4034Z" fill="#FF6B6B"/>
<path d="M58.6613 67.8922L57.882 67.3388V67.3359L57.88 67.3373L57.8781 67.3359V67.3388L55.5682 68.9792L56.66 70.6225C57.0718 70.6225 57.3283 70.6225 58.2226 70.6225L57.3726 69.3431C57.2379 69.1403 57.2885 68.8672 57.4869 68.7262L58.6613 67.8922Z" fill="#D83941"/>
<path d="M56.66 70.625L55.005 80.4034H56.5676L58.2226 70.625C57.3281 70.625 57.0726 70.625 56.66 70.625Z" fill="#EE5253"/>
<path d="M71.5048 77.2511C67.3346 77.2511 63.9418 73.8583 63.9418 69.688C63.9418 65.5178 67.3346 62.125 71.5048 62.125C75.6751 62.125 79.0678 65.5178 79.0678 69.688C79.0678 73.8583 75.6751 77.2511 71.5048 77.2511Z" fill="url(#paint2_linear_1145_57059)"/>
<path d="M65.5044 69.6887C65.5044 65.7822 68.4816 62.558 72.2861 62.1658C67.8011 61.7032 63.9418 65.2363 63.9418 69.6887C63.9418 73.8589 67.3346 77.2518 71.5048 77.2518C71.7686 77.2518 72.0292 77.2381 72.2861 77.2116C68.4816 76.8193 65.5044 73.5951 65.5044 69.6887Z" fill="url(#paint3_linear_1145_57059)"/>
<path d="M71.5048 64.1875C68.471 64.1875 66.0029 66.6556 66.0029 69.6894C66.0029 72.7232 68.471 75.1913 71.5048 75.1913C74.5386 75.1913 77.0067 72.7232 77.0067 69.6894C77.0067 66.6556 74.5385 64.1875 71.5048 64.1875Z" fill="url(#paint4_linear_1145_57059)"/>
<path d="M67.5655 69.6895C67.5655 66.921 69.6212 64.6247 72.2861 64.244C68.9494 63.7672 66.0029 66.3685 66.0029 69.6895C66.0029 72.7232 68.471 75.1913 71.5048 75.1913C71.7702 75.1913 72.0307 75.1713 72.2861 75.1349C69.6212 74.7542 67.5655 72.4579 67.5655 69.6895Z" fill="url(#paint5_linear_1145_57059)"/>
<path d="M43.6223 81C43.9856 81 71.8738 81 72.2599 81C72.9883 81 73.5809 80.4075 73.5809 79.6791V77.5939C77.0979 76.6913 79.705 73.4942 79.705 69.6996C79.705 65.7645 76.8973 62.3936 73.029 61.6844C72.7107 61.6259 72.4053 61.8367 72.347 62.155C72.2886 62.4733 72.4993 62.7787 72.8176 62.837C76.1294 63.4443 78.5331 66.3304 78.5331 69.6996C78.5331 73.0861 76.1076 75.9164 72.9027 76.5457C72.8964 76.5467 72.89 76.5471 72.8836 76.5482C72.4433 76.6334 71.9966 76.6766 71.556 76.6766C67.7088 76.6766 64.5788 73.5467 64.5788 69.6996C64.5788 66.2865 67.037 63.4342 70.2944 62.837C70.6127 62.7787 70.8234 62.4733 70.765 62.155C70.7066 61.8367 70.4008 61.6258 70.083 61.6844C68.2154 62.0268 66.5964 62.9908 65.4198 64.338L61.7766 62.927V60.8936C63.0969 59.8829 64.0073 58.3639 64.2139 56.6313C65.7831 56.5617 66.9514 55.3063 66.9514 53.8136C66.9514 53.122 66.6973 52.4623 66.2456 51.953V49.3814C66.2457 44.7598 62.4858 41 57.8644 41C53.2429 41 49.4831 44.7598 49.4831 49.3813V52.0195C49.0262 52.5244 48.7776 53.15 48.7776 53.8135C48.7776 55.3045 49.9435 56.5615 51.5147 56.6312C51.7206 58.3747 52.6408 59.9568 54.0901 60.9918V62.927L45.8562 66.1193C45.8525 66.1207 45.8488 66.1221 45.8451 66.1236C45.7002 66.1832 42.2949 67.629 42.2949 71.6091V79.6727C42.2949 80.4045 42.8903 81 43.6223 81ZM68.1566 77.1048C69.1919 77.5819 70.3433 77.8486 71.5561 77.8486C71.8441 77.8486 72.1286 77.8334 72.409 77.8041V79.6791C72.409 79.7613 72.3422 79.8281 72.26 79.8281H68.1566V77.1048ZM64.6882 65.3113C63.8737 66.5857 63.407 68.1026 63.407 69.6996C63.407 72.5 64.8271 74.9749 66.9847 76.4423V79.8281H61.3058L60.7798 76.7204C60.7259 76.4014 60.4244 76.1868 60.1043 76.2404C59.7852 76.2944 59.5703 76.5969 59.6243 76.9159L60.1173 79.828H55.7541L57.2108 71.2215H58.6606L59.1616 74.1814C59.2155 74.5005 59.5175 74.7154 59.8371 74.6614C60.1562 74.6074 60.371 74.3049 60.317 73.9859L59.7722 70.7666L60.401 69.8203L60.7699 70.0823C61.3204 70.4733 62.0896 70.2801 62.3907 69.6768H62.3907L64.5882 65.2726L64.6882 65.3113ZM57.9356 68.0695L59.4449 69.1413L58.8414 70.0496H57.0299L56.4264 69.1413L57.9356 68.0695ZM57.9356 66.4154L55.262 63.1152V61.6527C56.0538 61.9934 56.9931 62.1922 57.9474 62.1922C58.867 62.1922 59.7777 61.9908 60.6048 61.6048V63.1208L57.9356 66.4154ZM63.4905 64.8475L61.3797 69.0779C61.3511 69.0576 60.8214 68.6813 58.7818 67.2327C60.2795 65.384 59.7779 66.0032 61.3772 64.029L63.4905 64.8475ZM65.2127 55.0515C64.9463 55.2806 64.6185 55.4171 64.2603 55.4527V52.1749C65.761 52.3201 66.285 54.1293 65.2127 55.0515ZM51.4688 55.4527C50.5678 55.3634 49.9495 54.642 49.9495 53.8136C49.9495 52.9831 50.6706 52.3323 51.4688 52.2015V55.4527ZM51.4879 51.0173C51.2148 51.0422 50.8902 51.1229 50.655 51.2145V49.3813C50.655 45.406 53.8891 42.1719 57.8643 42.1719C61.8395 42.1719 65.0736 45.406 65.0736 49.3813V51.1631C64.8151 51.0712 64.5423 51.0155 64.2602 50.9987C64.2602 50.2945 64.3459 50.4949 62.3042 48.3046C62.141 48.1294 61.9495 47.8724 61.5445 47.7874C61.2629 47.7281 60.9605 47.7784 60.7039 47.9461C58.4014 49.4503 55.5118 50.2946 52.7363 50.1127C52.0581 50.068 51.5924 50.4538 51.4879 51.0173ZM52.6407 55.8794C52.6407 55.3886 52.6407 51.7903 52.6407 51.2813C55.6224 51.481 58.7683 50.5984 61.3061 48.9524C62.365 50.0902 62.9346 50.6807 63.0884 50.8787C63.0884 56.7238 63.0897 55.6837 63.0851 56.008C63.0167 58.7704 60.7522 61.0203 57.9474 61.0203C54.8272 61.0203 52.6407 58.6145 52.6407 55.8794ZM54.4907 64.0304L57.0867 67.2347C56.241 67.8354 54.9317 68.7654 54.4916 69.078L52.3808 64.8475L54.4907 64.0304ZM43.4669 71.6091C43.4669 68.4566 46.1295 67.2761 46.2872 67.2091L51.283 65.2723L53.4806 69.6767L53.4807 69.6768C53.6244 69.9647 53.8858 70.1746 54.1978 70.2526C54.769 70.3955 55.109 70.077 55.4704 69.8203L56.0993 70.7667L54.5656 79.8281H48.8913V72.8581C48.8913 72.5345 48.6291 72.2721 48.3054 72.2721C47.9817 72.2721 47.7194 72.5345 47.7194 72.8581V79.8281H43.6223C43.5366 79.8281 43.4669 79.7584 43.4669 79.6727V71.6091Z" fill="black"/>
<path d="M70.7858 71.4425C70.8997 71.5542 71.0478 71.61 71.1959 71.61C71.3435 71.61 71.4911 71.5546 71.6049 71.4437L74.3188 68.7985C74.5505 68.5727 74.5552 68.2017 74.3294 67.97C74.1035 67.7382 73.7327 67.7334 73.5008 67.9593L71.1971 70.2048L70.232 69.2589C70.0009 69.0324 69.6298 69.036 69.4033 69.2672C69.1768 69.4983 69.1805 69.8694 69.4116 70.0959L70.7858 71.4425Z" fill="black"/>
<path d="M65.4681 69.7012C65.4681 73.058 68.1992 75.789 71.556 75.789C74.9129 75.789 77.6439 73.058 77.6439 69.7012C77.6439 66.3443 74.9129 63.6133 71.556 63.6133C68.1992 63.6133 65.4681 66.3443 65.4681 69.7012ZM71.556 64.7852C74.2666 64.7852 76.4719 66.9905 76.4719 69.7012C76.4719 72.4118 74.2666 74.6171 71.556 74.6171C68.8454 74.6171 66.6401 72.4118 66.6401 69.7012C66.6401 66.9905 68.8453 64.7852 71.556 64.7852Z" fill="black"/>
</g>
<defs>
<linearGradient id="paint0_linear_1145_57059" x1="125.517" y1="-76.3217" x2="-14.3648" y2="-47.3621" gradientUnits="userSpaceOnUse">
<stop stop-color="#FEC12D"/>
<stop offset="1" stop-color="#FF552C"/>
</linearGradient>
<linearGradient id="paint1_linear_1145_57059" x1="111.185" y1="-45.7571" x2="2.38808" y2="-23.233" gradientUnits="userSpaceOnUse">
<stop stop-color="#FEC12D"/>
<stop offset="1" stop-color="#FF552C"/>
</linearGradient>
<linearGradient id="paint2_linear_1145_57059" x1="79.8841" y1="51.8189" x2="61.7096" y2="55.5816" gradientUnits="userSpaceOnUse">
<stop stop-color="#FEC12D"/>
<stop offset="1" stop-color="#FF552C"/>
</linearGradient>
<linearGradient id="paint3_linear_1145_57059" x1="72.7364" y1="51.8184" x2="62.4153" y2="52.9971" gradientUnits="userSpaceOnUse">
<stop stop-color="#FEC12D"/>
<stop offset="1" stop-color="#FF552C"/>
</linearGradient>
<linearGradient id="paint4_linear_1145_57059" x1="77.6005" y1="56.6901" x2="64.3791" y2="59.4273" gradientUnits="userSpaceOnUse">
<stop stop-color="#FEC12D"/>
<stop offset="1" stop-color="#FF552C"/>
</linearGradient>
<linearGradient id="paint5_linear_1145_57059" x1="72.6252" y1="56.6901" x2="64.8606" y2="57.6079" gradientUnits="userSpaceOnUse">
<stop stop-color="#FEC12D"/>
<stop offset="1" stop-color="#FF552C"/>
</linearGradient>
<clipPath id="clip0_1145_57059">
<rect width="40" height="40" fill="white" transform="translate(41 41)"/>
</clipPath>
</defs>
</svg>
