<svg width="122" height="122" viewBox="0 0 122 122" fill="none" xmlns="http://www.w3.org/2000/svg">
<circle cx="60.6557" cy="61.3657" r="59.4221" fill="#FEFEFF" stroke="url(#paint0_linear_1145_57097)" stroke-width="2.42539" stroke-linejoin="round" stroke-dasharray="3.23 3.23"/>
<circle cx="60.6554" cy="61.3678" r="49.7206" fill="white" stroke="url(#paint1_linear_1145_57097)" stroke-width="8.89311"/>
<path d="M71.3397 78.1943L67.5232 77.1167C67.2339 77.0353 66.9266 77.1631 66.7816 77.4265L64.8706 80.9015C64.794 81.041 64.5911 81.0294 64.5291 80.8835L62.8119 76.7801L58.6774 66.901L61.7395 59.5859L64.3417 60.6748L66.947 66.9004L71.5665 77.9383C71.6275 78.0851 71.492 78.2374 71.3397 78.1943Z" fill="#FF4A4A"/>
<path d="M66.947 66.9004L62.8119 76.7801L58.6774 66.901L61.7395 59.5859L64.3414 60.6748L66.947 66.9004Z" fill="#EF3535"/>
<path d="M57.076 80.8999L55.1647 77.4252C55.0201 77.1618 54.7128 77.0333 54.4238 77.1151L50.6069 78.1927C50.4543 78.2357 50.3191 78.0831 50.3805 77.9366L58.4249 58.7148L65.4616 61.6598L57.4172 80.8816C57.3559 81.0281 57.1526 81.039 57.076 80.8999Z" fill="#FF4A4A"/>
<path d="M62.6898 41.6164L65.0378 43.5518C65.4529 43.8939 65.9607 44.1042 66.4956 44.1557L69.5245 44.4472C70.8105 44.5711 71.8283 45.5888 71.9522 46.8749L72.2439 49.9037C72.2955 50.439 72.5058 50.9468 72.8479 51.3616L74.7833 53.7096C75.6051 54.7066 75.6051 56.1458 74.7833 57.1428L72.8479 59.4908C72.5058 59.9056 72.2955 60.4134 72.2439 60.9486L71.9522 63.9775C71.8283 65.2635 70.8105 66.2813 69.5245 66.4052L66.4956 66.6969C65.9604 66.7485 65.4529 66.9588 65.0378 67.3006L62.6898 69.2363C61.6931 70.0578 60.2536 70.0578 59.2566 69.2363L56.9089 67.3006C56.4938 66.9588 55.986 66.7485 55.4507 66.6969L52.4222 66.4052C51.1362 66.2813 50.1181 65.2635 49.9945 63.9775L49.7027 60.9486C49.6512 60.4134 49.4409 59.9056 49.0988 59.4908L47.1634 57.1428C46.3415 56.1461 46.3415 54.7066 47.1634 53.7096L49.0988 51.3619C49.4409 50.9468 49.6512 50.439 49.7027 49.9037L49.9942 46.8749C50.1181 45.5892 51.1358 44.5711 52.4219 44.4475L55.4507 44.1557C55.986 44.1042 56.4938 43.8939 56.9085 43.5518L59.2566 41.6164C60.2536 40.7945 61.6931 40.7945 62.6898 41.6164Z" fill="#FFD782"/>
<path d="M69.9108 55.4257C69.9108 60.3619 65.9094 64.3633 60.9731 64.3633C56.0372 64.3633 52.0358 60.3619 52.0358 55.4257C52.0358 50.4897 56.0372 46.4883 60.9731 46.4883C65.9094 46.4883 69.9108 50.4897 69.9108 55.4257Z" fill="#FF8000"/>
<path d="M60.9731 46.4883C60.1983 46.4883 59.446 46.5869 58.7289 46.7724C62.5787 47.7679 65.4223 51.2646 65.4223 55.4257C65.4223 59.5867 62.579 63.0834 58.7289 64.0789C59.446 64.2645 60.1983 64.363 60.9731 64.363C65.9094 64.363 69.9108 60.3616 69.9108 55.4257C69.9108 50.4894 65.9094 46.4883 60.9731 46.4883Z" fill="#FF5F06"/>
<path d="M58.894 59.9687C58.5605 59.9687 58.2406 59.8363 58.0047 59.6004L55.3351 56.9304C54.8437 56.4394 54.8437 55.6429 55.3351 55.1515C55.8261 54.6602 56.6226 54.6602 57.1139 55.1515L58.8943 56.9319L63.8327 51.9933C64.324 51.5022 65.1205 51.5022 65.6115 51.9933C66.1029 52.4846 66.1029 53.2811 65.6115 53.7724L59.7836 59.6004C59.5477 59.8363 59.2279 59.9687 58.894 59.9687Z" fill="white"/>
<defs>
<linearGradient id="paint0_linear_1145_57097" x1="125.147" y1="-76.1654" x2="-14.734" y2="-47.2059" gradientUnits="userSpaceOnUse">
<stop stop-color="#FEC12D"/>
<stop offset="1" stop-color="#FF552C"/>
</linearGradient>
<linearGradient id="paint1_linear_1145_57097" x1="110.816" y1="-45.6009" x2="2.01894" y2="-23.0768" gradientUnits="userSpaceOnUse">
<stop stop-color="#FEC12D"/>
<stop offset="1" stop-color="#FF552C"/>
</linearGradient>
</defs>
</svg>
