<svg width="60" height="60" viewBox="0 0 60 60" fill="none" xmlns="http://www.w3.org/2000/svg">
<g clip-path="url(#clip0_1145_40816)">
<path d="M14.7153 10.7337C17.6017 10.7337 19.9416 8.39382 19.9416 5.50746C19.9416 2.6211 17.6017 0.28125 14.7153 0.28125C11.829 0.28125 9.48914 2.6211 9.48914 5.50746C9.48914 8.39382 11.829 10.7337 14.7153 10.7337Z" fill="#0099F0"/>
<path d="M57.7453 49.3231H55.5597C55.7088 49.2406 55.8375 49.1259 55.9367 48.9874C56.0359 48.8489 56.1029 48.69 56.133 48.5223L58.2648 36.62C58.2944 36.4547 58.2874 36.285 58.2443 36.1227C58.2012 35.9605 58.123 35.8097 58.0152 35.681C57.9075 35.5522 57.7728 35.4486 57.6207 35.3776C57.4686 35.3065 57.3027 35.2697 57.1349 35.2697H45.6693C45.5014 35.2698 45.3356 35.3067 45.1835 35.3777C45.0315 35.4488 44.8968 35.5523 44.7891 35.6811C44.6814 35.8098 44.6032 35.9606 44.56 36.1228C44.5169 36.285 44.5098 36.4547 44.5394 36.62L46.6711 48.5223C46.7012 48.69 46.7682 48.8489 46.8674 48.9874C46.9665 49.1259 47.0953 49.2406 47.2444 49.3231H43.5251V29.5939C43.5251 28.6313 42.7447 27.8509 41.7822 27.8509H37.6622L36.2244 7.0595C36.1714 6.29391 35.5095 5.71582 34.7423 5.76902C33.9766 5.82199 33.3987 6.48563 33.4517 7.2511L34.8764 27.8507H31.5945L27.6715 11.8137C27.4892 11.0683 26.7372 10.6117 25.9914 10.7942C25.2458 10.9765 24.7894 11.7287 24.9717 12.4741L26.6726 19.4272C26.5136 19.4037 26.3527 19.3964 26.1923 19.4054L16.7945 19.9197L17.5065 17.2896C18.0159 15.4075 16.9032 13.4686 15.0212 12.9592L8.9438 11.3145C7.06176 10.8051 5.12288 11.9178 4.61346 13.7999L0.133942 30.3482C-0.032305 30.9613 -0.0439814 31.6061 0.0999576 32.2248C0.532148 34.0722 1.57793 38.5225 3.01829 44.5145L1.46813 56.5337C1.27325 58.0444 2.34001 59.427 3.8508 59.622C5.36593 59.8168 6.74476 58.7463 6.93894 57.2394L8.5545 44.7138C8.59762 44.3791 8.57911 44.0394 8.49965 43.7115L5.92468 32.9206C5.92468 32.9206 9.34962 38.9636 12.4119 44.3388L11.08 56.5883C10.9154 58.1026 12.0094 59.4637 13.5239 59.6284C15.0352 59.7932 16.3991 58.7012 16.564 57.1845L17.9924 44.0469C18.0552 43.4696 17.9341 42.8873 17.6465 42.3828L12.9459 34.1368L13.9044 30.5958L12.9478 30.4501C10.7907 30.1214 9.49716 28.3963 9.27415 27.3227L7.30621 17.8437L11.4998 26.8607C11.6644 27.2147 11.9141 27.5225 12.2264 27.7567C12.5388 27.9909 12.9042 28.1442 13.2902 28.2031L22.6424 29.6278C23.9289 29.8241 25.142 28.942 25.3398 27.6437C25.5365 26.3525 24.6504 25.1436 23.3557 24.9463L15.2585 23.7126L11.4608 15.5471L16.4584 21.5961L23.698 22.6991C24.7779 22.8636 25.7138 23.3908 26.4027 24.137L26.4504 24.1344C26.9061 24.1097 27.3449 23.9531 27.7132 23.6837L28.7327 27.851L27.6041 27.8552C27.4895 28.9283 27.0228 29.8184 26.2895 30.5566V37.7335H21.1577C20.4176 37.7335 19.7714 38.2921 19.7236 39.0307C19.6712 39.84 20.3122 40.5127 21.1103 40.5127H26.2896V54.7876C26.2896 55.5551 26.9119 56.1772 27.6793 56.1772H29.5068C29.5139 55.7071 29.5822 55.24 29.71 54.7876C30.3555 52.5031 32.4574 50.8234 34.9456 50.8234C37.4339 50.8234 39.5359 52.503 40.1812 54.7876C40.309 55.24 40.3773 55.7071 40.3844 56.1772H46.1822C46.1893 55.7071 46.2577 55.24 46.3854 54.7876C47.0309 52.5031 49.1329 50.8234 51.621 50.8234C54.1092 50.8234 56.2114 52.503 56.8567 54.7876C56.9844 55.24 57.0527 55.7071 57.0599 56.1772H58.6103C59.3776 56.1772 59.9999 55.555 59.9999 54.7876V51.5784C60.0005 50.3326 58.9908 49.3231 57.7453 49.3231Z" fill="#0099F0"/>
<path d="M34.9461 52.8105C33.0386 52.8105 31.4924 54.3568 31.4924 56.2642C31.4924 58.1716 33.0386 59.7179 34.9461 59.7179C36.8534 59.7179 38.3997 58.1716 38.3997 56.2642C38.3997 54.3567 36.8534 52.8105 34.9461 52.8105ZM34.9461 57.4944C34.2666 57.4944 33.7157 56.9435 33.7157 56.2642C33.7157 55.5849 34.2666 55.034 34.9461 55.034C35.6255 55.034 36.1763 55.5849 36.1763 56.2642C36.1763 56.9437 35.6255 57.4944 34.9461 57.4944ZM51.6215 52.8105C49.7141 52.8105 48.1678 54.3568 48.1678 56.2642C48.1678 58.1716 49.714 59.7179 51.6215 59.7179C53.529 59.7179 55.0751 58.1716 55.0751 56.2642C55.0753 54.3567 53.529 52.8105 51.6215 52.8105ZM51.6215 57.4944C50.942 57.4944 50.3913 56.9435 50.3913 56.2642C50.3913 55.5849 50.9422 55.034 51.6215 55.034C52.301 55.034 52.8519 55.5849 52.8519 56.2642C52.8519 56.9437 52.3011 57.4944 51.6215 57.4944Z" fill="#0099F0"/>
</g>
<defs>
<clipPath id="clip0_1145_40816">
<rect width="60" height="60" fill="white"/>
</clipPath>
</defs>
</svg>
