<svg width="44" height="44" viewBox="0 0 44 44" fill="none" xmlns="http://www.w3.org/2000/svg">
<path d="M44 22C44 9.84974 34.1503 0 22 0C9.84974 0 0 9.84974 0 22C0 34.1503 9.84974 44 22 44C34.1503 44 44 34.1503 44 22Z" fill="url(#paint0_linear_1153_14684)"/>
<path d="M38.5579 7.52643C35.3505 13.4143 30.8145 19.4875 25.1466 25.1554C19.4787 30.8233 13.4055 35.3506 7.52631 38.558C7.15772 38.2377 6.79974 37.9038 6.45237 37.5564C4.35269 35.5269 2.67809 33.0996 1.52621 30.4161C0.374329 27.7326 -0.231775 24.8467 -0.256763 21.9265C-0.281751 19.0064 0.274878 16.1105 1.38067 13.4077C2.48645 10.7049 4.11927 8.24932 6.18391 6.1841C8.24855 4.11889 10.7037 2.48539 13.4062 1.37884C16.1087 0.2723 19.0044 -0.285138 21.9245 -0.260965C24.8447 -0.236792 27.7308 0.368506 30.4146 1.51964C33.0984 2.67077 35.5261 4.34469 37.5563 6.4438C37.9037 6.79117 38.2375 7.15205 38.5579 7.52643Z" fill="white" fill-opacity="0.0627451"/>
<path d="M27.2105 10.4219H16.7894C15.1004 10.4219 13.4806 11.0928 12.2863 12.2871C11.092 13.4815 10.421 15.1013 10.421 16.7903V27.2113C10.421 28.9004 11.092 30.5202 12.2863 31.7145C13.4806 32.9088 15.1004 33.5798 16.7894 33.5798H27.2105C28.8995 33.5798 30.5193 32.9088 31.7136 31.7145C32.908 30.5202 33.5789 28.9004 33.5789 27.2113V16.7903C33.5789 15.1013 32.908 13.4815 31.7136 12.2871C30.5193 11.0928 28.8995 10.4219 27.2105 10.4219ZM31.5526 26.2966C31.5526 27.6908 30.9988 29.0279 30.0129 30.0138C29.0271 30.9996 27.69 31.5535 26.2958 31.5535H17.7042C16.31 31.5535 14.9729 30.9996 13.987 30.0138C13.0012 29.0279 12.4473 27.6908 12.4473 26.2966V17.705C12.4473 16.3108 13.0012 14.9737 13.987 13.9879C14.9729 13.002 16.31 12.4482 17.7042 12.4482H26.2958C27.69 12.4482 29.0271 13.002 30.0129 13.9879C30.9988 14.9737 31.5526 16.3108 31.5526 17.705V26.2966Z" fill="white"/>
<path d="M26.2234 17.8211L26.1684 17.7661L26.1221 17.7197C25.0276 16.629 23.5452 16.0169 22 16.0176C21.2197 16.0229 20.4481 16.1819 19.7292 16.4855C19.0104 16.7891 18.3584 17.2314 17.8106 17.7871C17.2627 18.3427 16.8297 19.0009 16.5363 19.7239C16.2429 20.447 16.0948 21.2208 16.1005 22.0011C16.0993 23.5846 16.7235 25.1046 17.8373 26.2303C18.3829 26.7825 19.033 27.2205 19.7497 27.5187C20.4664 27.8169 21.2353 27.9693 22.0116 27.9671C23.1759 27.9427 24.308 27.58 25.2698 26.9232C26.2316 26.2664 26.9814 25.344 27.428 24.2683C27.8745 23.1927 27.9983 22.0104 27.7845 20.8656C27.5706 19.7208 27.0282 18.6629 26.2234 17.8211ZM22 25.9263C21.2214 25.9372 20.4571 25.7163 19.8044 25.2917C19.1517 24.8671 18.6401 24.2579 18.3345 23.5417C18.029 22.8255 17.9434 22.0346 18.0885 21.2696C18.2337 20.5045 18.6032 19.8 19.1499 19.2455C19.6966 18.691 20.3958 18.3117 21.1587 18.1557C21.9216 17.9998 22.7137 18.0742 23.4341 18.3696C24.1546 18.665 24.7709 19.1681 25.2047 19.8147C25.6385 20.4613 25.8702 21.2224 25.8702 22.0011C25.8741 22.513 25.7769 23.0206 25.5845 23.495C25.392 23.9694 25.1079 24.4012 24.7485 24.7657C24.3891 25.1302 23.9613 25.4204 23.4897 25.6195C23.0181 25.8187 22.5119 25.9229 22 25.9263ZM29.6508 15.7426C29.6523 15.9284 29.6172 16.1126 29.5474 16.2848C29.4776 16.4569 29.3746 16.6137 29.2442 16.7459C29.1138 16.8782 28.9586 16.9835 28.7874 17.0557C28.6163 17.128 28.4326 17.1657 28.2468 17.1669C28.0626 17.1668 27.8803 17.1301 27.7103 17.0591C27.5404 16.988 27.3863 16.884 27.2568 16.7529C27.0607 16.5539 26.9273 16.3018 26.8732 16.0277C26.819 15.7536 26.8465 15.4697 26.9522 15.2111C27.058 14.9525 27.2373 14.7306 27.4679 14.573C27.6985 14.4153 27.9704 14.3288 28.2497 14.3242C28.5766 14.3242 28.8932 14.4389 29.1442 14.6484L29.1731 14.6774C29.2198 14.7154 29.2625 14.7581 29.3005 14.8047L29.3323 14.8395C29.5396 15.0948 29.6521 15.4139 29.6508 15.7426Z" fill="white"/>
<defs>
<linearGradient id="paint0_linear_1153_14684" x1="6.44368" y1="6.44368" x2="37.5563" y2="37.5563" gradientUnits="userSpaceOnUse">
<stop stop-color="#FAE100"/>
<stop offset="0.15" stop-color="#FCB720"/>
<stop offset="0.3" stop-color="#FF7950"/>
<stop offset="0.5" stop-color="#FF1C74"/>
<stop offset="1" stop-color="#6C1CD1"/>
</linearGradient>
</defs>
</svg>
