<svg width="25" height="25" viewBox="0 0 25 25" fill="none" xmlns="http://www.w3.org/2000/svg">
<path d="M12.7249 2.84375C17.3876 2.84375 21.2314 6.56164 21.2314 11.1615C21.2314 13.4794 20.3885 15.6314 19.0009 17.4553C17.4702 19.4673 15.5836 21.2202 13.46 22.5962C12.974 22.9142 12.5353 22.9382 12.0019 22.5962C9.86618 21.2202 7.97953 19.4673 6.46195 17.4553C5.07343 15.6314 4.23145 13.4794 4.23145 11.1615C4.23145 6.56164 8.07533 2.84375 12.7249 2.84375ZM12.7249 8.62058C11.1831 8.62058 9.92567 9.89155 9.92567 11.4205C9.92567 12.9615 11.1831 14.1734 12.7249 14.1734C14.2677 14.1734 15.5372 12.9615 15.5372 11.4205C15.5372 9.89155 14.2677 8.62058 12.7249 8.62058Z" fill="url(#paint0_linear_1778_7757)"/>
<defs>
<linearGradient id="paint0_linear_1778_7757" x1="22.1488" y1="-10.7832" x2="1.48706" y2="-7.14724" gradientUnits="userSpaceOnUse">
<stop stop-color="#FEC12D"/>
<stop offset="1" stop-color="#FF552C"/>
</linearGradient>
</defs>
</svg>
