<svg width="27" height="16" viewBox="0 0 27 16" fill="none" xmlns="http://www.w3.org/2000/svg">
<g clip-path="url(#clip0_1145_45435)">
<path opacity="0.07" d="M24.013 0H2.67656C1.54306 0 0.67627 0.866667 0.67627 2V14C0.67627 15.1333 1.60974 16 2.67656 16H24.013C25.1465 16 26.0133 15.1333 26.0133 14V2C26.0133 0.866667 25.0798 0 24.013 0Z" fill="#24292A"/>
<path d="M24.0147 0.666016C24.7481 0.666016 25.3482 1.26602 25.3482 1.99935V13.9993C25.3482 14.7327 24.7481 15.3327 24.0147 15.3327H2.67825C1.94481 15.3327 1.34473 14.7327 1.34473 13.9993V1.99935C1.34473 1.26602 1.94481 0.666016 2.67825 0.666016H24.0147Z" fill="white"/>
<path d="M10.6786 12.6673C13.2563 12.6673 15.3459 10.578 15.3459 8.00065C15.3459 5.42332 13.2563 3.33398 10.6786 3.33398C8.10087 3.33398 6.01123 5.42332 6.01123 8.00065C6.01123 10.578 8.10087 12.6673 10.6786 12.6673Z" fill="#EB001B"/>
<path d="M16.0135 12.6673C18.5912 12.6673 20.6809 10.578 20.6809 8.00065C20.6809 5.42332 18.5912 3.33398 16.0135 3.33398C13.4358 3.33398 11.3462 5.42332 11.3462 8.00065C11.3462 10.578 13.4358 12.6673 16.0135 12.6673Z" fill="#F79E1B"/>
<path d="M15.3462 8.00117C15.3462 6.40117 14.5462 5.00117 13.3462 4.20117C12.1462 5.06784 11.3462 6.46784 11.3462 8.00117C11.3462 9.53451 12.1462 11.0012 13.3462 11.8012C14.5462 11.0012 15.3462 9.60117 15.3462 8.00117Z" fill="#FF5F00"/>
</g>
<defs>
<clipPath id="clip0_1145_45435">
<rect width="25.337" height="16" fill="white" transform="translate(0.67627)"/>
</clipPath>
</defs>
</svg>
