<svg width="66" height="78" viewBox="0 0 66 78" fill="none" xmlns="http://www.w3.org/2000/svg">
<path fill-rule="evenodd" clip-rule="evenodd" d="M17.3724 51.3086L29.7197 56.3172L19.9938 77.2078C19.9586 77.2862 19.902 77.3531 19.8307 77.4009C19.7593 77.4487 19.6759 77.4755 19.59 77.4783C19.5043 77.4833 19.4188 77.4642 19.3434 77.4231C19.268 77.3819 19.2056 77.3204 19.1635 77.2456L15.5397 71.0097L8.43487 72.2511C8.25846 72.2819 8.09112 72.2167 7.98221 72.0745C7.8733 71.9323 7.85362 71.7539 7.92924 71.5916L17.3724 51.3086Z" fill="#FE646F"/>
<path fill-rule="evenodd" clip-rule="evenodd" d="M27.317 55.3418L29.7197 56.3165L24.8437 66.7895L24.6502 67.2052L24.4566 67.621L24.263 68.0368L24.0694 68.4526L23.8758 68.8684L23.6822 69.2841L23.4886 69.6999L23.295 70.1157L23.1014 70.5315L22.9078 70.9473L22.7142 71.363L22.5206 71.7788L22.327 72.1946L22.1334 72.6104L21.9398 73.0262L21.7462 73.442L21.5527 73.8577L21.3591 74.2735L21.1655 74.6893L20.9719 75.1051L20.7783 75.5209L20.5847 75.9366L20.3911 76.3524L20.1975 76.7682L20.0039 77.184L19.9937 77.2059L19.9902 77.2135C19.9542 77.29 19.8978 77.355 19.8271 77.4014C19.7565 77.4477 19.6744 77.4737 19.59 77.4763C19.5042 77.4814 19.4188 77.4622 19.3434 77.4211C19.268 77.38 19.2056 77.3185 19.1634 77.2437L18.0287 75.291L25.5548 59.1255L27.317 55.3418Z" fill="#FD4755"/>
<path fill-rule="evenodd" clip-rule="evenodd" d="M48.8092 51.3086L36.4619 56.3172L46.1878 77.2078C46.2634 77.3702 46.4126 77.4702 46.5915 77.4783C46.7704 77.4864 46.9281 77.4005 47.0181 77.2455L50.6417 71.0095L57.7465 72.2509C57.9229 72.2817 58.0903 72.2166 58.1992 72.0744C58.3081 71.9322 58.3278 71.7537 58.2522 71.5914L48.8092 51.3086Z" fill="#FE646F"/>
<path fill-rule="evenodd" clip-rule="evenodd" d="M48.8092 51.3086L46.4066 52.2833L55.5219 71.8623L57.7466 72.2511C57.923 72.2819 58.0903 72.2167 58.1992 72.0745C58.3081 71.9323 58.3278 71.7539 58.2522 71.5916L48.8092 51.3086Z" fill="#FD4755"/>
<path fill-rule="evenodd" clip-rule="evenodd" d="M37.0777 1.89963L41.1772 4.96822C42.2985 5.80744 43.4786 6.23697 44.8769 6.31479L49.9897 6.59916C53.0513 6.76947 55.5377 8.85588 56.2371 11.8413L57.405 16.8271C57.7244 18.1907 58.3524 19.2784 59.3735 20.2367L63.1074 23.7412C65.3432 25.8395 65.9067 29.036 64.5235 31.7726L62.2133 36.3428C61.5816 37.5926 61.3635 38.8295 61.5297 40.2199L62.1375 45.3046C62.5014 48.3492 60.8785 51.1601 58.0599 52.3673L53.3525 54.3832C52.065 54.9346 51.103 55.7418 50.3364 56.914L47.5336 61.1996C45.8555 63.7657 42.8053 64.8759 39.8702 63.9888L34.9683 62.5074C33.6277 62.1023 32.3719 62.1023 31.0313 62.5074L26.1294 63.9888C23.1942 64.8759 20.1442 63.7657 18.466 61.1996L15.6632 56.914C14.8966 55.7418 13.9346 54.9346 12.6471 54.3834L7.94018 52.3671C5.12159 51.1601 3.49862 48.349 3.86253 45.3045L4.47034 40.2198C4.63644 38.8292 4.41847 37.5924 3.78659 36.3426L1.47644 31.7724C0.093154 29.036 0.656748 25.8395 2.89253 23.741L6.62644 20.2365C7.64753 19.2781 8.2755 18.1906 8.59487 16.827L9.76284 11.8412C10.4622 8.85572 12.9486 6.76932 16.0102 6.599L21.123 6.31463C22.5214 6.23682 23.7016 5.80728 24.8227 4.96807L28.9222 1.89947C31.3771 0.0621288 34.623 0.062129 37.0777 1.89963Z" fill="#FFE177"/>
<path fill-rule="evenodd" clip-rule="evenodd" d="M37.0777 1.89949L41.1772 4.96808C42.2984 5.8073 43.4786 6.23683 44.8769 6.31464L49.9897 6.59902C53.0513 6.76933 55.5377 8.85558 56.237 11.8411L57.405 16.8268C57.7244 18.1904 58.3524 19.2781 59.3734 20.2365L63.1074 23.7411C65.3431 25.8393 65.9067 29.0359 64.5234 31.7723L62.2133 36.3425C61.5814 37.5925 61.3634 38.8292 61.5295 40.2196L62.1374 45.3043C62.5013 48.3489 60.8784 51.1598 58.0597 52.367L53.3524 54.3829C52.065 54.9343 51.103 55.7415 50.3364 56.9137L47.5336 61.1993C45.9822 63.5715 43.2586 64.6992 40.5372 64.1556C42.2611 63.8046 43.812 62.7775 44.8441 61.1993L47.6469 56.9137C48.4134 55.7415 49.3755 54.9343 50.6628 54.3829L55.3702 52.367C58.1888 51.16 59.8117 48.3489 59.4478 45.3043L58.84 40.2196C58.6738 38.829 58.8919 37.5923 59.5238 36.3425L61.8339 31.7723C63.2172 29.0359 62.6536 25.8393 60.4178 23.7411L56.6839 20.2365C55.6628 19.2781 55.0349 18.1904 54.7155 16.8268L53.5475 11.8411C52.8481 8.85558 50.3617 6.76918 47.3002 6.59902L42.1874 6.31464C40.7889 6.23683 39.6088 5.8073 38.4877 4.96808L34.3881 1.89949C33.5486 1.27105 32.6166 0.857769 31.6553 0.659175C33.5047 0.276988 35.4623 0.690426 37.0777 1.89949ZM31.6552 62.3468C31.4489 62.3904 31.2413 62.4439 31.0314 62.5073L26.1295 63.9887C24.9994 64.3303 23.8524 64.3754 22.7731 64.1557C22.998 64.1108 23.2205 64.0551 23.44 63.9887L28.3419 62.5073C29.4728 62.1654 30.5433 62.112 31.6552 62.3468Z" fill="#FFD064"/>
<path d="M47.7825 47.1966C55.951 39.0281 55.951 25.7844 47.7825 17.6159C39.614 9.44741 26.3703 9.44741 18.2018 17.6159C10.0333 25.7844 10.0333 39.0281 18.2018 47.1966C26.3703 55.3651 39.614 55.3651 47.7825 47.1966Z" fill="#FFD064"/>
<path fill-rule="evenodd" clip-rule="evenodd" d="M33 11.4902C33.4519 11.4902 33.9 11.5062 34.3447 11.5345C23.4196 12.2279 14.7728 21.3068 14.7728 32.407C14.7728 43.507 23.4197 52.586 34.3447 53.2794C33.9 53.3077 33.4519 53.3237 33 53.3237C21.448 53.3237 12.0833 43.959 12.0833 32.4071C12.0833 20.8549 21.448 11.4902 33 11.4902Z" fill="#FFC338"/>
<path fill-rule="evenodd" clip-rule="evenodd" d="M30.3851 34.1628L40.0666 24.3847C41.2127 23.2272 43.0824 23.2239 44.2365 24.3717C45.3904 25.5192 45.394 27.3836 44.2493 28.5389C40.3234 32.5012 36.424 36.4897 32.4799 40.4339C31.327 41.5868 29.4565 41.5868 28.3035 40.4339L21.7599 33.8904C20.607 32.7375 20.607 30.867 21.7599 29.714C22.9129 28.5611 24.7834 28.5611 25.9365 29.714L30.3851 34.1628Z" fill="#ECEFF1"/>
</svg>
