<svg width="40" height="26" viewBox="0 0 40 26" fill="none" xmlns="http://www.w3.org/2000/svg">
<path d="M12.5 25.5C19.4036 25.5 25 19.9036 25 13C25 6.09644 19.4036 0.5 12.5 0.5C5.59644 0.5 0 6.09644 0 13C0 19.9036 5.59644 25.5 12.5 25.5Z" fill="#F93232"/>
<path d="M27.5 0.5C24.6925 0.5 22.11 1.4375 20.025 3H20V3.0175C19.505 3.39 19.05 3.81 18.6162 4.25H21.3838C21.7688 4.64125 22.1237 5.06 22.4525 5.5H17.5375C17.2346 5.89945 16.9562 6.31688 16.7037 6.75H23.2838C23.5188 7.155 23.74 7.5675 23.9313 8H16.0675C15.8879 8.40782 15.7306 8.8251 15.5963 9.25H24.4012C24.5312 9.6575 24.6337 10.0763 24.7237 10.5H15.27C15.1862 10.91 15.1163 11.325 15.0738 11.75H24.925C24.9738 12.16 25 12.5763 25 13H15C15 13.4237 15.0338 13.8375 15.075 14.25H24.9275C24.88 14.6737 24.8113 15.09 24.725 15.5H15.2713C15.3575 15.9263 15.4687 16.3413 15.5975 16.75H24.4025C24.2682 17.1749 24.1109 17.5922 23.9313 18H16.0675C16.2563 18.43 16.4687 18.8475 16.7037 19.25H23.2838C23.0309 19.6834 22.7516 20.1009 22.4475 20.5H17.5375C17.87 20.94 18.2288 21.3587 18.615 21.75H21.3838C20.9535 22.1943 20.491 22.6063 20 22.9825C22.1588 24.6167 24.7924 25.5007 27.5 25.5C34.4037 25.5 40 19.9025 40 13C40 6.0975 34.4037 0.5 27.5 0.5Z" fill="#FED049"/>
</svg>
