<svg width="24" height="24" viewBox="0 0 24 24" fill="none" xmlns="http://www.w3.org/2000/svg">
<circle cx="12" cy="12" r="12" fill="url(#paint0_linear_1145_43713)"/>
<path d="M8.704 16L14.44 7.6H15.616L9.88 16H8.704ZM9.4 12.124C9.008 12.124 8.66 12.028 8.356 11.836C8.052 11.644 7.816 11.376 7.648 11.032C7.48 10.688 7.396 10.284 7.396 9.82C7.396 9.356 7.48 8.952 7.648 8.608C7.816 8.264 8.052 7.996 8.356 7.804C8.66 7.612 9.008 7.516 9.4 7.516C9.808 7.516 10.16 7.612 10.456 7.804C10.76 7.996 10.996 8.264 11.164 8.608C11.332 8.952 11.416 9.356 11.416 9.82C11.416 10.284 11.332 10.688 11.164 11.032C10.996 11.376 10.76 11.644 10.456 11.836C10.16 12.028 9.808 12.124 9.4 12.124ZM9.412 11.284C9.732 11.284 9.98 11.16 10.156 10.912C10.34 10.656 10.432 10.292 10.432 9.82C10.432 9.348 10.34 8.988 10.156 8.74C9.98 8.484 9.732 8.356 9.412 8.356C9.092 8.356 8.836 8.484 8.644 8.74C8.46 8.996 8.368 9.356 8.368 9.82C8.368 10.284 8.46 10.644 8.644 10.9C8.836 11.156 9.092 11.284 9.412 11.284ZM14.908 16.084C14.516 16.084 14.168 15.988 13.864 15.796C13.56 15.604 13.324 15.336 13.156 14.992C12.988 14.648 12.904 14.244 12.904 13.78C12.904 13.316 12.988 12.912 13.156 12.568C13.324 12.224 13.56 11.956 13.864 11.764C14.168 11.572 14.516 11.476 14.908 11.476C15.316 11.476 15.668 11.572 15.964 11.764C16.268 11.956 16.504 12.224 16.672 12.568C16.84 12.912 16.924 13.316 16.924 13.78C16.924 14.244 16.84 14.648 16.672 14.992C16.504 15.336 16.268 15.604 15.964 15.796C15.668 15.988 15.316 16.084 14.908 16.084ZM14.908 15.244C15.228 15.244 15.48 15.116 15.664 14.86C15.848 14.604 15.94 14.244 15.94 13.78C15.94 13.316 15.848 12.956 15.664 12.7C15.48 12.444 15.228 12.316 14.908 12.316C14.596 12.316 14.344 12.444 14.152 12.7C13.968 12.948 13.876 13.308 13.876 13.78C13.876 14.252 13.968 14.616 14.152 14.872C14.344 15.12 14.596 15.244 14.908 15.244Z" fill="white"/>
<defs>
<linearGradient id="paint0_linear_1145_43713" x1="25.2951" y1="-16.3523" x2="-3.54174" y2="-10.3823" gradientUnits="userSpaceOnUse">
<stop stop-color="#FEC12D"/>
<stop offset="1" stop-color="#FF552C"/>
</linearGradient>
</defs>
</svg>
