<svg width="22" height="22" viewBox="0 0 22 22" fill="none" xmlns="http://www.w3.org/2000/svg">
<path d="M11.0002 3.66797C12.8961 3.66797 14.6937 4.32575 16.2587 5.54352C17.8237 6.75241 19.1563 8.5213 20.1132 10.7346C20.1847 10.9035 20.1847 11.0991 20.1132 11.2591C18.1993 15.6857 14.792 18.3346 11.0002 18.3346H10.9912C7.20829 18.3346 3.80098 15.6857 1.88715 11.2591C1.81561 11.0991 1.81561 10.9035 1.88715 10.7346C3.80098 6.30797 7.20829 3.66797 10.9912 3.66797H11.0002ZM11.0002 7.44575C9.02374 7.44575 7.42293 9.03686 7.42293 11.0013C7.42293 12.9569 9.02374 14.548 11.0002 14.548C12.9676 14.548 14.5685 12.9569 14.5685 11.0013C14.5685 9.03686 12.9676 7.44575 11.0002 7.44575ZM11.0012 8.77712C12.2264 8.77712 13.2281 9.77268 13.2281 10.9993C13.2281 12.2171 12.2264 13.2127 11.0012 13.2127C9.76709 13.2127 8.76546 12.2171 8.76546 10.9993C8.76546 10.8482 8.78335 10.706 8.81018 10.5638H8.85489C9.84758 10.5638 10.6525 9.78157 10.6882 8.80379C10.7866 8.78601 10.8939 8.77712 11.0012 8.77712Z" fill="#1B1B1B"/>
</svg>
