<svg width="32" height="32" viewBox="0 0 32 32" fill="none" xmlns="http://www.w3.org/2000/svg">
<circle opacity="0.5" cx="16" cy="16" r="16" fill="url(#paint0_linear_1145_47850)"/>
<path fill-rule="evenodd" clip-rule="evenodd" d="M9.66602 8.92254C9.66602 8.13066 10.3095 7.48633 11.1015 7.48633H18.0622C18.4202 7.48633 18.7196 7.61016 18.9727 7.86332L21.9618 10.8527C22.215 11.1058 22.3392 11.4046 22.3392 11.7628V23.0779C22.3392 23.87 21.6937 24.5143 20.9019 24.5143H11.1015C10.3095 24.5143 9.66602 23.8698 9.66602 23.0779V8.92254ZM13.1046 11.6078C12.208 11.6078 11.478 12.3382 11.478 13.2347V21.2429C11.478 22.1393 12.2081 22.8698 13.1046 22.8698H18.8988C19.7962 22.8698 20.5254 22.1402 20.5254 21.2429V13.2347C20.5254 12.3373 19.7964 11.6078 18.8988 11.6078H13.1046Z" fill="#FD4755"/>
<path fill-rule="evenodd" clip-rule="evenodd" d="M12.0273 13.2332C12.0273 12.6399 12.5104 12.1562 13.1037 12.1562H13.6024V15.5777C13.6024 15.7289 13.7252 15.8528 13.8766 15.8528H18.5899C19.3539 15.8528 19.9743 16.4735 19.9743 17.2374C19.9743 18.0012 19.3538 18.6218 18.5899 18.6218H13.4118C12.6487 18.6218 12.0273 18.0001 12.0273 17.237V13.2332ZM18.4012 19.1718V22.3183H18.898C19.4914 22.3183 19.9744 21.8347 19.9744 21.2414V18.5889L19.9112 18.6483C19.5523 18.9857 19.0826 19.1718 18.59 19.1718H18.4012ZM16.276 19.1718H17.851V22.3183H16.276V19.1718ZM14.1526 19.1718H15.7258V22.3183H14.1526V19.1718ZM13.6024 22.3183V19.1718H13.4118C12.9191 19.1718 12.45 18.9844 12.0905 18.6482L12.0274 18.5892V21.2414C12.0274 21.8347 12.5104 22.3183 13.1038 22.3183H13.6024ZM18.4012 12.1562V15.3026H18.59C19.0826 15.3026 19.5523 15.4889 19.9112 15.8261L19.9744 15.8854V13.2332C19.9744 12.6399 19.4914 12.1562 18.898 12.1562H18.4012ZM16.276 12.1562V15.3026H17.851V12.1562H16.276ZM14.1526 12.1562V15.3026H15.7258V12.1562H14.1526Z" fill="#FFB229"/>
<path fill-rule="evenodd" clip-rule="evenodd" d="M18.8986 22.2821H18.4393V19.2106H18.5905C19.1118 19.2106 19.5857 19.0075 19.9375 18.6769V21.2427C19.9375 21.8157 19.4709 22.2821 18.8986 22.2821ZM12.0654 21.2427V18.6769C12.419 19.0075 12.8929 19.2106 13.4124 19.2106H13.5655V22.2821H13.1043C12.532 22.2821 12.0654 21.8157 12.0654 21.2427ZM16.314 19.2106H17.8141V22.2821H16.314V19.2106ZM15.6889 19.2106V22.2821H14.1907V19.2106H15.6889ZM12.0654 13.2345C12.0654 12.6614 12.532 12.195 13.1043 12.195H13.5655V15.579C13.5655 15.7516 13.7058 15.8916 13.8771 15.8916H18.5905C19.3341 15.8916 19.9374 16.4958 19.9374 17.2387C19.9374 17.9814 19.3341 18.5856 18.5905 18.5856H13.4124C12.6705 18.5856 12.0654 17.9814 12.0654 17.2383V13.2345ZM14.1906 15.2664H15.6888V12.195H14.1906V15.2664ZM16.314 15.2664H17.8141V12.195H16.314V15.2664ZM19.9375 13.2345C19.9375 12.6614 19.4709 12.195 18.8986 12.195H18.4393V15.2664H18.5905C19.1118 15.2664 19.5857 15.4696 19.9375 15.8V13.2345ZM18.8986 11.57H13.1043C12.1875 11.57 11.4403 12.3168 11.4403 13.2345V21.2427C11.4403 22.1602 12.1875 22.9071 13.1043 22.9071H18.8986C19.8172 22.9071 20.5626 22.1602 20.5626 21.2427V13.2345C20.5626 12.3168 19.8171 11.57 18.8986 11.57ZM22.3014 23.0777V11.7625C22.3014 11.4141 22.1812 11.125 21.9351 10.8789L18.946 7.88957C18.6999 7.64332 18.4101 7.52359 18.062 7.52359H11.1012C10.3303 7.52359 9.70328 8.15078 9.70328 8.9223V23.0777C9.70328 23.8492 10.3303 24.4766 11.1012 24.4766H20.9016C21.6726 24.4766 22.3014 23.8493 22.3014 23.0777ZM22.3762 10.4367L19.387 7.44773C19.0225 7.08324 18.5759 6.89844 18.062 6.89844H11.1012C9.98578 6.89844 9.07812 7.80629 9.07812 8.9223V23.0777C9.07812 24.1937 9.98582 25.1016 11.1012 25.1016H20.9016C22.0171 25.1016 22.9248 24.1937 22.9248 23.0777V11.7625C22.9248 11.2475 22.7407 10.8012 22.3762 10.4367Z" fill="black"/>
<defs>
<linearGradient id="paint0_linear_1145_47850" x1="33.7268" y1="-21.8031" x2="-4.72232" y2="-13.843" gradientUnits="userSpaceOnUse">
<stop stop-color="#FEC12D"/>
<stop offset="1" stop-color="#FF552C"/>
</linearGradient>
</defs>
</svg>
