<svg width="44" height="44" viewBox="0 0 44 44" fill="none" xmlns="http://www.w3.org/2000/svg">
<g clip-path="url(#clip0_1153_14696)">
<rect x="7" y="10" width="29" height="24" fill="white"/>
<path d="M19.0162 26.4818L26.4852 22.0007L19.0162 17.5195V26.4818Z" fill="#BF0004"/>
<path d="M22 0C9.8505 0 0 9.84912 0 22C0 34.1509 9.8505 44 22 44C34.1495 44 44 34.1495 44 22C44 9.8505 34.1495 0 22 0ZM33.946 22.9639C33.946 25.0264 33.7067 27.0889 33.7067 27.0889C33.7067 27.0889 33.473 28.8461 32.758 29.6175C31.8491 30.6323 30.8316 30.6378 30.3641 30.6982C27.0201 30.954 22 30.9622 22 30.9622C22 30.9622 15.7878 30.9018 13.8765 30.7065C13.3444 30.6006 12.1522 30.6309 11.242 29.6175C10.5256 28.8448 10.2933 27.0889 10.2933 27.0889C10.2933 27.0889 10.054 25.0278 10.054 22.9639V21.0306C10.054 18.9681 10.2933 16.907 10.2933 16.907C10.2933 16.907 10.527 15.1497 11.242 14.3756C12.1509 13.3595 13.1684 13.354 13.6359 13.2963C16.9785 13.0378 21.9945 13.0378 21.9945 13.0378H22.0055C22.0055 13.0378 27.0215 13.0378 30.3641 13.2963C30.8302 13.354 31.8491 13.3595 32.758 14.3743C33.4744 15.1484 33.7067 16.9056 33.7067 16.9056C33.7067 16.9056 33.946 18.9681 33.946 21.0306V22.9639Z" fill="#BF0004"/>
</g>
<defs>
<clipPath id="clip0_1153_14696">
<rect width="44" height="44" fill="white"/>
</clipPath>
</defs>
</svg>
