<svg width="40" height="40" viewBox="0 0 40 40" fill="none" xmlns="http://www.w3.org/2000/svg">
<circle cx="20" cy="20" r="20" fill="url(#paint0_linear_1145_61467)"/>
<g clip-path="url(#clip0_1145_61467)">
<path d="M27.5 12.5H12.5C11.837 12.5 11.2011 12.7634 10.7322 13.2322C10.2634 13.7011 10 14.337 10 15V16.6667H30V15C30 14.337 29.7366 13.7011 29.2678 13.2322C28.7989 12.7634 28.163 12.5 27.5 12.5Z" fill="white"/>
<path d="M10 25.4987C10 26.6033 10.8954 27.4987 12 27.4987H28C29.1046 27.4987 30 26.6033 30 25.4987V20.332C30 19.2275 29.1046 18.332 28 18.332H12C10.8954 18.332 10 19.2275 10 20.332V25.4987ZM15.8333 22.9154C15.8333 23.1626 15.76 23.4043 15.6227 23.6098C15.4853 23.8154 15.2901 23.9756 15.0617 24.0702C14.8333 24.1648 14.5819 24.1896 14.3395 24.1413C14.097 24.0931 13.8743 23.9741 13.6994 23.7992C13.5246 23.6244 13.4056 23.4017 13.3574 23.1592C13.3091 22.9168 13.3339 22.6654 13.4285 22.437C13.5231 22.2086 13.6833 22.0134 13.8889 21.876C14.0944 21.7387 14.3361 21.6654 14.5833 21.6654C14.9149 21.6654 15.2328 21.7971 15.4672 22.0315C15.7016 22.2659 15.8333 22.5838 15.8333 22.9154Z" fill="white"/>
</g>
<defs>
<linearGradient id="paint0_linear_1145_61467" x1="42.1585" y1="-27.2539" x2="-5.90291" y2="-17.3038" gradientUnits="userSpaceOnUse">
<stop stop-color="#FEC12D"/>
<stop offset="1" stop-color="#FF552C"/>
</linearGradient>
<clipPath id="clip0_1145_61467">
<rect width="20" height="20" fill="white" transform="translate(10 10)"/>
</clipPath>
</defs>
</svg>
