<svg width="20" height="21" viewBox="0 0 20 21" fill="none" xmlns="http://www.w3.org/2000/svg">
<g clip-path="url(#clip0_1145_59800)">
<path d="M7.47142 3.22656L8.0857 1.64085C8.1893 1.37237 8.37157 1.14143 8.60863 0.978294C8.8457 0.815154 9.1265 0.727413 9.41428 0.726562H10.5857C10.8735 0.727413 11.1543 0.815154 11.3913 0.978294C11.6284 1.14143 11.8107 1.37237 11.9143 1.64085L12.5286 3.22656L14.6143 4.42656L16.3 4.16942C16.5807 4.13132 16.8664 4.17753 17.1207 4.30217C17.3751 4.42681 17.5867 4.62426 17.7286 4.86942L18.3 5.86942C18.4464 6.11849 18.5139 6.4061 18.4935 6.69431C18.4731 6.98251 18.3658 7.25775 18.1857 7.48371L17.1428 8.81228V11.2123L18.2143 12.5408C18.3943 12.7668 18.5016 13.042 18.522 13.3302C18.5425 13.6184 18.475 13.9061 18.3286 14.1551L17.7571 15.1551C17.6152 15.4003 17.4037 15.5977 17.1493 15.7224C16.8949 15.847 16.6093 15.8932 16.3286 15.8551L14.6428 15.598L12.5571 16.798L11.9428 18.3837C11.8393 18.6522 11.657 18.8831 11.4199 19.0463C11.1829 19.2094 10.902 19.2971 10.6143 19.298H9.41428C9.1265 19.2971 8.8457 19.2094 8.60863 19.0463C8.37157 18.8831 8.1893 18.6522 8.0857 18.3837L7.47142 16.798L5.3857 15.598L3.69999 15.8551C3.4193 15.8932 3.13362 15.847 2.87925 15.7224C2.62488 15.5977 2.41331 15.4003 2.27142 15.1551L1.69999 14.1551C1.55356 13.9061 1.4861 13.6184 1.5065 13.3302C1.52691 13.042 1.63422 12.7668 1.81428 12.5408L2.85713 11.2123V8.81228L1.7857 7.48371C1.60565 7.25775 1.49834 6.98251 1.47793 6.69431C1.45753 6.4061 1.52499 6.11849 1.67142 5.86942L2.24285 4.86942C2.38474 4.62426 2.59631 4.42681 2.85068 4.30217C3.10505 4.17753 3.39073 4.13132 3.67142 4.16942L5.35713 4.42656L7.47142 3.22656ZM7.14285 10.0123C7.14285 10.5774 7.31042 11.1298 7.62436 11.5996C7.93831 12.0695 8.38453 12.4357 8.90661 12.6519C9.42868 12.8682 10.0032 12.9248 10.5574 12.8145C11.1116 12.7043 11.6207 12.4322 12.0203 12.0326C12.4199 11.633 12.692 11.1239 12.8022 10.5697C12.9125 10.0154 12.8559 9.44097 12.6396 8.9189C12.4234 8.39682 12.0572 7.9506 11.5873 7.63665C11.1175 7.3227 10.5651 7.15513 9.99999 7.15513C9.24223 7.15513 8.5155 7.45615 7.97969 7.99197C7.44387 8.52779 7.14285 9.25452 7.14285 10.0123Z" stroke="#0A0F0D" stroke-linecap="round" stroke-linejoin="round"/>
</g>
<defs>
<clipPath id="clip0_1145_59800">
<rect width="20" height="20" fill="white" transform="translate(0 0.0117188)"/>
</clipPath>
</defs>
</svg>
