<svg width="20" height="20" viewBox="0 0 20 20" fill="none" xmlns="http://www.w3.org/2000/svg">
<path d="M17.2638 18.7453H1.86107C1.51095 18.745 1.17527 18.6057 0.9277 18.3581C0.680128 18.1106 0.540885 17.7749 0.540527 17.4248V5.17261C0.540527 5.10093 0.569002 5.03219 0.619688 4.9815C0.670373 4.93082 0.739117 4.90234 0.810798 4.90234H17.2638C17.6139 4.90277 17.9495 5.04204 18.1971 5.28959C18.4446 5.53715 18.5839 5.87279 18.5843 6.22288V9.8391C18.5843 9.91078 18.5558 9.97952 18.5052 10.0302C18.4545 10.0809 18.3857 10.1094 18.314 10.1094C18.2424 10.1094 18.1736 10.0809 18.1229 10.0302C18.0722 9.97952 18.0438 9.91078 18.0438 9.8391V6.22288C18.0436 6.01608 17.9613 5.81781 17.8151 5.67158C17.6688 5.52535 17.4706 5.4431 17.2638 5.44288H1.08107V17.4248C1.08135 17.6316 1.16362 17.8298 1.30984 17.976C1.45606 18.1222 1.65429 18.2045 1.86107 18.2048H17.2638C17.4706 18.2045 17.6688 18.1222 17.815 17.976C17.9612 17.8298 18.0435 17.6316 18.0438 17.4248V13.8088C18.0438 13.7372 18.0722 13.6684 18.1229 13.6177C18.1736 13.567 18.2424 13.5386 18.314 13.5386C18.3857 13.5386 18.4545 13.567 18.5052 13.6177C18.5558 13.6684 18.5843 13.7372 18.5843 13.8088V17.4248C18.5839 17.7749 18.4446 18.1105 18.1971 18.3581C17.9495 18.6056 17.6139 18.7449 17.2638 18.7453Z" fill="#1B1B1B"/>
<path d="M18.737 14.0771H15.5718C14.974 14.0771 14.4007 13.8396 13.978 13.4169C13.5553 12.9942 13.3178 12.4209 13.3178 11.823C13.3178 11.2252 13.5553 10.6519 13.978 10.2292C14.4007 9.80647 14.974 9.56899 15.5718 9.56899H18.737C18.9285 9.56928 19.1122 9.64552 19.2476 9.781C19.383 9.91648 19.4592 10.1001 19.4594 10.2917V13.3539C19.4594 13.5455 19.3833 13.7294 19.2479 13.865C19.1124 14.0006 18.9286 14.0769 18.737 14.0771ZM15.5718 10.1106C15.3468 10.1106 15.124 10.1549 14.9161 10.241C14.7082 10.3272 14.5193 10.4534 14.3602 10.6125C14.2011 10.7716 14.0749 10.9605 13.9888 11.1684C13.9026 11.3763 13.8583 11.5991 13.8583 11.8241C13.8583 12.0492 13.9026 12.272 13.9888 12.4799C14.0749 12.6878 14.2011 12.8767 14.3602 13.0358C14.5193 13.1949 14.7082 13.3211 14.9161 13.4072C15.124 13.4933 15.3468 13.5376 15.5718 13.5376H18.737C18.761 13.5376 18.7848 13.5328 18.807 13.5235C18.8291 13.5143 18.8493 13.5007 18.8662 13.4836C18.8831 13.4665 18.8964 13.4463 18.9055 13.424C18.9145 13.4017 18.9191 13.3779 18.9189 13.3539V10.2917C18.9188 10.2435 18.8996 10.1972 18.8655 10.1631C18.8314 10.1289 18.7852 10.1097 18.737 10.1095L15.5718 10.1106ZM0.810753 5.44224C0.746776 5.44223 0.684877 5.41952 0.636068 5.37816C0.587259 5.3368 0.554705 5.27946 0.544198 5.21635C0.533691 5.15325 0.545911 5.08846 0.578686 5.03351C0.61146 4.97857 0.662663 4.93703 0.723186 4.91629L11.081 1.36791C11.377 1.26647 11.6929 1.23714 12.0024 1.28236C12.312 1.32758 12.6063 1.44605 12.8608 1.62792C13.1154 1.80979 13.3229 2.04979 13.466 2.32799C13.6091 2.60618 13.6838 2.91452 13.6837 3.22737V5.17197C13.6837 5.24365 13.6553 5.31239 13.6046 5.36308C13.5539 5.41376 13.4851 5.44224 13.4135 5.44224C13.3418 5.44224 13.273 5.41376 13.2223 5.36308C13.1717 5.31239 13.1432 5.24365 13.1432 5.17197V3.22737C13.1432 3.00056 13.089 2.77703 12.9852 2.57536C12.8815 2.37369 12.731 2.1997 12.5465 2.06786C12.3619 1.93601 12.1486 1.85012 11.9242 1.81732C11.6997 1.78452 11.4707 1.80575 11.2562 1.87926L0.898321 5.42764C0.870145 5.43734 0.840551 5.44227 0.810753 5.44224Z" fill="#1B1B1B"/>
<path d="M15.6778 12.7926C15.4858 12.7926 15.2982 12.7356 15.1387 12.6289C14.9791 12.5223 14.8547 12.3707 14.7813 12.1933C14.7079 12.016 14.6887 11.8208 14.7262 11.6326C14.7637 11.4443 14.8561 11.2714 14.9919 11.1357C15.1276 11 15.3006 10.9076 15.4888 10.8702C15.6771 10.8328 15.8722 10.852 16.0495 10.9255C16.2269 10.9989 16.3784 11.1233 16.4851 11.2829C16.5917 11.4425 16.6486 11.6302 16.6486 11.8221C16.6484 12.0795 16.546 12.3263 16.364 12.5082C16.182 12.6902 15.9352 12.7925 15.6778 12.7926ZM15.6778 11.3924C15.5927 11.3924 15.5096 11.4176 15.4389 11.4649C15.3681 11.5121 15.313 11.5793 15.2805 11.6579C15.248 11.7365 15.2395 11.8229 15.2561 11.9064C15.2727 11.9898 15.3137 12.0664 15.3738 12.1265C15.434 12.1867 15.5106 12.2276 15.5941 12.2441C15.6775 12.2607 15.764 12.2522 15.8425 12.2196C15.9211 12.187 15.9882 12.1318 16.0355 12.0611C16.0827 11.9903 16.1078 11.9072 16.1078 11.8221C16.1077 11.7081 16.0624 11.5988 15.9818 11.5182C15.9011 11.4376 15.7918 11.3924 15.6778 11.3924Z" fill="#1B1B1B"/>
</svg>
