<svg width="20" height="21" viewBox="0 0 20 21" fill="none" xmlns="http://www.w3.org/2000/svg">
<g clip-path="url(#clip0_1145_59807)">
<path d="M11.5879 0.765625C11.505 0.765625 11.4255 0.798549 11.3669 0.857154C11.3083 0.915759 11.2754 0.995245 11.2754 1.07813V18.9425C11.2754 19.0254 11.3083 19.1049 11.3669 19.1635C11.4255 19.2221 11.505 19.255 11.5879 19.255C11.6708 19.255 11.7503 19.2221 11.8089 19.1635C11.8675 19.1049 11.9004 19.0254 11.9004 18.9425V1.07813C11.9004 0.995245 11.8675 0.915759 11.8089 0.857154C11.7503 0.798549 11.6708 0.765625 11.5879 0.765625ZM14.2316 5.2025C13.8963 5.20333 13.562 5.23851 13.2338 5.3075C13.1743 5.32007 13.1196 5.34977 13.0767 5.39296C13.0338 5.43614 13.0044 5.49092 12.9922 5.55057C12.98 5.61023 12.9855 5.67215 13.008 5.72873C13.0305 5.78531 13.069 5.83408 13.1188 5.86906C13.7332 6.29766 14.2401 6.86247 14.6 7.51938C14.96 8.17628 15.1632 8.90751 15.1938 9.65594C15.233 10.5348 15.0345 11.408 14.6194 12.1837C14.2043 12.9594 13.5878 13.6088 12.8348 14.0638C12.7829 14.0951 12.7413 14.1409 12.715 14.1956C12.6887 14.2502 12.6789 14.3113 12.6867 14.3714C12.6945 14.4315 12.7196 14.4881 12.759 14.5341C12.7984 14.5802 12.8503 14.6139 12.9085 14.6309C13.4062 14.7762 13.9247 14.8376 14.4426 14.8125C15.0737 14.7862 15.6933 14.6349 16.2656 14.3676C16.8378 14.1003 17.3514 13.7221 17.7766 13.255C18.2044 12.7905 18.5356 12.2458 18.7513 11.6523C18.9669 11.0589 19.0626 10.4285 19.0329 9.79781C18.9803 8.56029 18.4513 7.39102 17.5564 6.53457C16.6616 5.67812 15.4703 5.20082 14.2316 5.2025ZM17.3154 12.8331C16.9455 13.2396 16.4986 13.5687 16.0007 13.8013C15.5027 14.034 14.9636 14.1656 14.4145 14.1884C14.3501 14.1913 14.2863 14.1928 14.2229 14.1928C14.0713 14.1928 13.9204 14.1847 13.7716 14.1684C14.4447 13.625 14.9805 12.931 15.336 12.1424C15.6914 11.3537 15.8565 10.4926 15.8179 9.62844C15.7529 8.15906 15.1229 6.81063 14.0641 5.83125C15.1699 5.7852 16.2486 6.18013 17.0632 6.92922C17.8778 7.67832 18.3616 8.72025 18.4082 9.82594C18.4339 10.3745 18.3506 10.9228 18.163 11.439C17.9754 11.9552 17.6873 12.429 17.3154 12.8331ZM5.94945 6.94938C4.26164 6.94938 2.88852 8.3225 2.88852 10.0103C2.88852 11.6984 4.26164 13.0719 5.94945 13.0719C7.63727 13.0719 9.01039 11.6984 9.01039 10.0103C9.01039 8.3225 7.63727 6.94938 5.94945 6.94938ZM5.94945 12.4469C4.60633 12.4469 3.51352 11.3538 3.51352 10.0103C3.51352 8.66719 4.60633 7.57438 5.94945 7.57438C7.29258 7.57438 8.38539 8.66719 8.38539 10.0103C8.38539 11.3538 7.29258 12.4469 5.94945 12.4469ZM5.94945 6.88344C6.03233 6.88344 6.11182 6.85051 6.17042 6.79191C6.22903 6.7333 6.26195 6.65382 6.26195 6.57094V5.33625C6.26195 5.25337 6.22903 5.17388 6.17042 5.11528C6.11182 5.05667 6.03233 5.02375 5.94945 5.02375C5.86657 5.02375 5.78709 5.05667 5.72848 5.11528C5.66988 5.17388 5.63695 5.25337 5.63695 5.33625V6.57094C5.63695 6.65382 5.66988 6.7333 5.72848 6.79191C5.78709 6.85051 5.86657 6.88344 5.94945 6.88344ZM5.94945 13.1372C5.86657 13.1372 5.78709 13.1701 5.72848 13.2287C5.66988 13.2873 5.63695 13.3668 5.63695 13.4497V14.6844C5.63695 14.7673 5.66988 14.8467 5.72848 14.9053C5.78709 14.964 5.86657 14.9969 5.94945 14.9969C6.03233 14.9969 6.11182 14.964 6.17042 14.9053C6.22903 14.8467 6.26195 14.7673 6.26195 14.6844V13.4497C6.26195 13.3668 6.22903 13.2873 6.17042 13.2287C6.11182 13.1701 6.03233 13.1372 5.94945 13.1372ZM10.6232 9.69781H9.38852C9.30564 9.69781 9.22615 9.73074 9.16755 9.78934C9.10894 9.84795 9.07602 9.92743 9.07602 10.0103C9.07602 10.0932 9.10894 10.1727 9.16755 10.2313C9.22615 10.2899 9.30564 10.3228 9.38852 10.3228H10.6232C10.7061 10.3228 10.7856 10.2899 10.8442 10.2313C10.9028 10.1727 10.9357 10.0932 10.9357 10.0103C10.9357 9.92743 10.9028 9.84795 10.8442 9.78934C10.7856 9.73074 10.7061 9.69781 10.6232 9.69781ZM2.82258 10.0103C2.82258 9.92743 2.78965 9.84795 2.73105 9.78934C2.67244 9.73074 2.59296 9.69781 2.51008 9.69781H1.27539C1.19251 9.69781 1.11302 9.73074 1.05442 9.78934C0.995815 9.84795 0.962891 9.92743 0.962891 10.0103C0.962891 10.0932 0.995815 10.1727 1.05442 10.2313C1.11302 10.2899 1.19251 10.3228 1.27539 10.3228H2.51008C2.59296 10.3228 2.67244 10.2899 2.73105 10.2313C2.78965 10.1727 2.82258 10.0932 2.82258 10.0103Z" fill="#1B1B1B"/>
<path d="M3.35232 7.73501C3.38055 7.76484 3.41439 7.7888 3.4519 7.80552C3.48942 7.82224 3.52986 7.83138 3.57092 7.83243C3.61198 7.83347 3.65284 7.8264 3.69115 7.81161C3.72947 7.79682 3.76449 7.77461 3.7942 7.74626C3.82395 7.71798 3.84785 7.68413 3.86452 7.64662C3.88119 7.60911 3.89031 7.56868 3.89136 7.52765C3.8924 7.48662 3.88535 7.44578 3.87061 7.40747C3.85587 7.36916 3.83373 7.33413 3.80545 7.30438L2.95451 6.40969C2.89736 6.34961 2.81869 6.31468 2.73579 6.3126C2.65289 6.31052 2.57256 6.34145 2.51248 6.3986C2.45239 6.45574 2.41746 6.53442 2.41538 6.61732C2.4133 6.70021 2.44424 6.78054 2.50138 6.84063L3.35232 7.73501ZM8.54638 12.2881C8.48924 12.228 8.41056 12.1931 8.32767 12.191C8.24477 12.189 8.16444 12.2199 8.10435 12.277C8.04426 12.3342 8.00934 12.4129 8.00726 12.4958C8.00518 12.5787 8.03611 12.659 8.09326 12.7191L8.9442 13.6138C8.97242 13.6436 9.00627 13.6676 9.04378 13.6843C9.08129 13.701 9.12174 13.7101 9.1628 13.7112C9.20385 13.7122 9.24471 13.7051 9.28303 13.6904C9.32134 13.6756 9.35636 13.6534 9.38607 13.625C9.41583 13.5967 9.43973 13.5629 9.4564 13.5254C9.47307 13.4879 9.48219 13.4474 9.48323 13.4064C9.48428 13.3654 9.47723 13.3245 9.46249 13.2862C9.44775 13.2479 9.4256 13.2129 9.39732 13.1831L8.54638 12.2881ZM3.35232 12.2888L2.50138 13.1828C2.44893 13.2437 2.42189 13.3223 2.42586 13.4026C2.42984 13.4828 2.46452 13.5584 2.52273 13.6138C2.58093 13.6691 2.6582 13.7 2.73852 13.6999C2.81885 13.6998 2.89607 13.6689 2.9542 13.6134L3.80513 12.7194C3.92388 12.5944 3.9192 12.3966 3.7942 12.2775C3.73392 12.2208 3.65369 12.1901 3.57094 12.1922C3.4882 12.1943 3.40963 12.229 3.35232 12.2888ZM8.32013 7.83188C8.36252 7.83193 8.40447 7.82333 8.44343 7.80662C8.48238 7.78991 8.51752 7.76544 8.5467 7.73469L9.39763 6.84001C9.45179 6.7794 9.48023 6.70009 9.47693 6.61887C9.47363 6.53766 9.43885 6.46092 9.37995 6.4049C9.32105 6.34889 9.24266 6.318 9.16139 6.31878C9.08011 6.31955 9.00232 6.35194 8.94451 6.40907L8.09357 7.30376C8.05134 7.34805 8.02305 7.40378 8.01221 7.46401C8.00136 7.52425 8.00844 7.58634 8.03257 7.64258C8.0567 7.69883 8.09681 7.74675 8.14793 7.7804C8.19905 7.81405 8.25893 7.83195 8.32013 7.83188Z" fill="#1B1B1B"/>
</g>
<defs>
<clipPath id="clip0_1145_59807">
<rect width="20" height="20" fill="white" transform="translate(0 0.0117188)"/>
</clipPath>
</defs>
</svg>
