<svg width="20" height="21" viewBox="0 0 20 21" fill="none" xmlns="http://www.w3.org/2000/svg">
<g clip-path="url(#clip0_1145_59817)">
<path d="M16.1735 5.85729L12.8716 5.37748L11.3949 2.38545C10.8246 1.22971 9.17534 1.23006 8.60518 2.38541L7.1285 5.37744L3.82659 5.85729C2.55108 6.0426 2.04194 7.61116 2.96452 8.51053L5.35382 10.8395L4.78979 14.128C4.57194 15.3983 5.90628 16.3672 7.04678 15.7678L10.0001 14.2151L12.9535 15.7678C14.0924 16.3665 15.4283 15.3981 15.2105 14.128L14.6464 10.8395L17.0358 8.51049C17.9585 7.6108 17.4485 6.04256 16.1735 5.85729ZM16.1049 7.55576L13.4647 10.1294C13.3873 10.2048 13.3294 10.2979 13.296 10.4007C13.2626 10.5035 13.2547 10.6129 13.273 10.7194L13.8962 14.3535C13.9275 14.536 13.7376 14.6738 13.5738 14.5877L10.3103 12.872C10.2146 12.8217 10.1081 12.7954 10 12.7954C9.89196 12.7954 9.7855 12.8217 9.68983 12.872L6.42628 14.5877C6.26237 14.6739 6.07257 14.5359 6.10385 14.3535L6.72714 10.7194C6.7454 10.6129 6.73749 10.5035 6.70409 10.4007C6.6707 10.2979 6.61281 10.2048 6.53542 10.1294L3.89514 7.55576C3.76253 7.42651 3.83507 7.20338 4.01831 7.1767L7.66706 6.64651C7.77402 6.63097 7.87559 6.58965 7.96304 6.52613C8.05048 6.46261 8.12117 6.37877 8.16901 6.28186L9.80081 2.97549C9.88272 2.80955 10.1174 2.80944 10.1993 2.97553L11.8311 6.28186C11.879 6.37878 11.9496 6.46261 12.0371 6.52614C12.1245 6.58966 12.2261 6.63097 12.3331 6.64651L15.9818 7.1767C16.165 7.20338 16.2375 7.42655 16.1049 7.55576ZM5.26296 1.85268L4.46565 0.755295C4.24917 0.457483 3.83229 0.391389 3.53448 0.607873C3.23663 0.82428 3.17057 1.24119 3.38702 1.53905L4.18432 2.63639C4.40089 2.93436 4.81776 3.00018 5.1155 2.78381C5.41335 2.56744 5.4794 2.15053 5.26296 1.85268ZM2.6171 11.6869C2.50339 11.3367 2.12729 11.1449 1.77706 11.2589L0.460807 11.6865C0.110651 11.8003 -0.0809506 12.1764 0.0327994 12.5266C0.146745 12.8773 0.523464 13.0683 0.872839 12.9546L2.18909 12.5269C2.53928 12.4131 2.73089 12.037 2.6171 11.6869ZM16.4656 0.607913C16.1678 0.391506 15.7509 0.457483 15.5344 0.755334L14.7371 1.85268C14.5207 2.15053 14.5867 2.56748 14.8846 2.78385C15.1826 3.00033 15.5994 2.93416 15.8158 2.63643L16.6131 1.53908C16.8295 1.24123 16.7635 0.82428 16.4656 0.607913ZM19.5392 11.6865L18.223 11.2589C17.8728 11.1449 17.4967 11.3367 17.3829 11.6869C17.2691 12.037 17.4607 12.4131 17.8109 12.5269L19.1272 12.9546C19.4766 13.0682 19.8533 12.8773 19.9672 12.5266C20.081 12.1764 19.8894 11.8003 19.5392 11.6865ZM10 16.8547C9.63186 16.8547 9.33339 17.1532 9.33339 17.5214V18.8744C9.33339 19.2426 9.63186 19.5411 10 19.5411C10.3682 19.5411 10.6667 19.2426 10.6667 18.8744V17.5214C10.6667 17.1532 10.3682 16.8547 10 16.8547Z" fill="#1B1B1B"/>
</g>
<defs>
<clipPath id="clip0_1145_59817">
<rect width="20" height="20" fill="white" transform="translate(0 0.0117188)"/>
</clipPath>
</defs>
</svg>
