<svg width="20" height="20" viewBox="0 0 20 20" fill="none" xmlns="http://www.w3.org/2000/svg">
<path d="M17.5 9.99826C17.5025 11.4872 17.0596 12.9429 16.2283 14.1783C15.5428 15.2007 14.6159 16.0385 13.5296 16.6176C12.4433 17.1966 11.231 17.4991 10 17.4983C8.76899 17.4991 7.55674 17.1966 6.47042 16.6176C5.38411 16.0385 4.4572 15.2007 3.77167 14.1783C3.11894 13.2053 2.70325 12.0929 2.55792 10.9303C2.41259 9.7677 2.54166 8.58722 2.93479 7.4835C3.32792 6.37977 3.97416 5.38351 4.82172 4.57456C5.66928 3.76561 6.69458 3.16648 7.81542 2.82521C8.93627 2.48394 10.1215 2.41001 11.276 2.60935C12.4306 2.80869 13.5224 3.27576 14.4639 3.97311C15.4054 4.67046 16.1705 5.5787 16.6977 6.62501C17.225 7.67133 17.4997 8.82662 17.5 9.99826Z" stroke="#0A0F0D"/>
<path d="M11.25 7.4974C11.25 7.82892 11.1183 8.14686 10.8839 8.38128C10.6495 8.6157 10.3315 8.7474 9.99999 8.7474V9.58073C10.2736 9.58073 10.5445 9.52684 10.7972 9.42215C11.05 9.31745 11.2797 9.16399 11.4731 8.97054C11.6666 8.77708 11.82 8.54742 11.9247 8.29465C12.0294 8.04189 12.0833 7.77098 12.0833 7.4974H11.25ZM9.99999 8.7474C9.66847 8.7474 9.35052 8.6157 9.1161 8.38128C8.88168 8.14686 8.74999 7.82892 8.74999 7.4974H7.91665C7.91665 7.77098 7.97054 8.04189 8.07524 8.29465C8.17993 8.54742 8.33339 8.77708 8.52685 8.97054C8.91755 9.36124 9.44745 9.58073 9.99999 9.58073V8.7474ZM8.74999 7.4974C8.74999 7.16588 8.88168 6.84793 9.1161 6.61351C9.35052 6.37909 9.66847 6.2474 9.99999 6.2474V5.41406C9.44745 5.41406 8.91755 5.63356 8.52685 6.02426C8.13615 6.41496 7.91665 6.94486 7.91665 7.4974H8.74999ZM9.99999 6.2474C10.3315 6.2474 10.6495 6.37909 10.8839 6.61351C11.1183 6.84793 11.25 7.16588 11.25 7.4974H12.0833C12.0833 6.94486 11.8638 6.41496 11.4731 6.02426C11.0824 5.63356 10.5525 5.41406 9.99999 5.41406V6.2474ZM4.30499 14.8774L3.90499 14.7591L3.84082 14.9766L3.98832 15.1491L4.30499 14.8774ZM15.695 14.8774L16.0117 15.1491L16.1592 14.9766L16.0942 14.7591L15.695 14.8774ZM7.49999 12.9141H12.5V12.0807H7.49999V12.9141ZM7.49999 12.0807C6.69243 12.0809 5.90648 12.3416 5.25895 12.8241C4.61141 13.3067 4.13602 13.9853 3.90499 14.7591L4.70415 14.9966C4.88404 14.3948 5.25325 13.8671 5.75694 13.492C6.26063 13.1168 6.87192 12.9141 7.49999 12.9141V12.0807ZM9.99999 17.0807C8.97771 17.0818 7.96737 16.8611 7.03868 16.4338C6.10999 16.0065 5.28506 15.3828 4.62082 14.6057L3.98832 15.1491C4.73086 16.0172 5.65285 16.714 6.69071 17.1913C7.72857 17.6687 8.85761 17.9152 9.99999 17.9141V17.0807ZM12.5 12.9141C13.1282 12.9142 13.7395 13.117 14.2432 13.4923C14.7469 13.8676 15.1161 14.3955 15.2958 14.9974L16.0942 14.7591C15.8631 13.9853 15.3886 13.3067 14.741 12.8241C14.0935 12.3416 13.3075 12.0809 12.5 12.0807V12.9141ZM15.3792 14.6057C14.7149 15.3828 13.89 16.0065 12.9613 16.4338C12.0326 16.8611 11.0223 17.0818 9.99999 17.0807V17.9141C11.1424 17.9152 12.2714 17.6687 13.3093 17.1913C14.3471 16.714 15.2691 16.0172 16.0117 15.1491L15.3783 14.6066L15.3792 14.6057Z" fill="#0A0F0D"/>
</svg>
