<svg width="16" height="18" viewBox="0 0 16 18" fill="none" xmlns="http://www.w3.org/2000/svg">
<path d="M2.16668 17.1264C1.94154 17.1255 1.71944 17.0743 1.51668 16.9764C1.26815 16.8596 1.05788 16.6746 0.910356 16.443C0.76283 16.2114 0.684108 15.9427 0.68335 15.6681V1.5014C0.684435 1.30808 0.723727 1.11689 0.798965 0.938817C0.874202 0.760742 0.983902 0.599298 1.12175 0.463769C1.25961 0.328241 1.42289 0.221301 1.60222 0.149101C1.78155 0.0769004 1.97338 0.0408639 2.16668 0.0430637H13.8334C14.2194 0.0452513 14.5891 0.199599 14.8621 0.472617C15.1351 0.745635 15.2895 1.1153 15.2917 1.5014V15.6681C15.2863 15.932 15.2093 16.1894 15.0691 16.4131C14.9288 16.6367 14.7305 16.818 14.4953 16.9378C14.26 17.0575 13.9967 17.1112 13.7334 17.093C13.4701 17.0749 13.2166 16.9856 13 16.8347L8.16668 13.2097C8.13121 13.1813 8.08712 13.1659 8.04168 13.1659C7.99624 13.1659 7.95216 13.1813 7.91668 13.2097L3.04168 16.8347C2.78869 17.023 2.48203 17.1252 2.16668 17.1264ZM2.16668 1.29306C2.11143 1.29306 2.05844 1.31501 2.01937 1.35408C1.9803 1.39315 1.95835 1.44614 1.95835 1.5014V15.6681C1.95806 15.7066 1.96891 15.7444 1.98961 15.777C2.01031 15.8095 2.03997 15.8353 2.07502 15.8514C2.10692 15.8733 2.14468 15.8849 2.18335 15.8849C2.22202 15.8849 2.25978 15.8733 2.29168 15.8514L7.16668 12.2097C7.42018 12.0229 7.7268 11.9222 8.04168 11.9222C8.35657 11.9222 8.66319 12.0229 8.91668 12.2097L13.75 15.8347C13.7819 15.8566 13.8197 15.8683 13.8584 15.8683C13.897 15.8683 13.9348 15.8566 13.9667 15.8347C14.0017 15.8187 14.0314 15.7928 14.0521 15.7603C14.0728 15.7278 14.0836 15.6899 14.0834 15.6514V1.5014C14.084 1.47015 14.0776 1.43916 14.0646 1.41073C14.0516 1.38229 14.0324 1.35714 14.0084 1.33713C13.9844 1.31713 13.9562 1.30278 13.9259 1.29515C13.8956 1.28752 13.864 1.28681 13.8334 1.29306H2.16668Z" fill="#1B1B1B"/>
</svg>
