<svg width="20" height="20" viewBox="0 0 20 20" fill="none" xmlns="http://www.w3.org/2000/svg">
<path d="M10.4297 3.42578C10.214 3.42578 10.0391 3.60066 10.0391 3.81641C10.0391 4.03215 10.214 4.20703 10.4297 4.20703H11.7139C11.7166 5.13699 12.0184 6.00563 12.5325 6.71465C11.9998 7.23379 11.3021 7.58816 10.5178 7.68664C10.3038 7.71352 10.152 7.90883 10.1789 8.12285C10.2037 8.32039 10.3719 8.46484 10.5659 8.46484C10.5821 8.46484 10.5986 8.46383 10.6151 8.46176C11.5586 8.34332 12.4 7.92238 13.0469 7.30414C13.6938 7.92238 14.5352 8.34332 15.4788 8.46176C15.4953 8.46383 15.5116 8.46484 15.5279 8.46484C15.7219 8.46484 15.8902 8.32035 15.915 8.12285C15.9418 7.90879 15.7901 7.71348 15.576 7.68664C14.7917 7.58816 14.0939 7.23383 13.5614 6.71465C14.0754 6.00559 14.3772 5.13699 14.3799 4.20703H15.6641C15.8798 4.20703 16.0547 4.03215 16.0547 3.81641C16.0547 3.60066 15.8798 3.42578 15.6641 3.42578H13.4375V2.41016C13.4375 2.19441 13.2626 2.01953 13.0469 2.01953C12.8312 2.01953 12.6562 2.19441 12.6562 2.41016V3.42578H10.4297ZM13.0469 6.08215C12.6992 5.53699 12.4977 4.89262 12.4953 4.20703H13.5984C13.5961 4.89262 13.3946 5.53699 13.0469 6.08215Z" fill="#1B1B1B"/>
<path d="M17.9282 0.0078125H14.8047C14.589 0.0078125 14.4141 0.182695 14.4141 0.398438C14.4141 0.61418 14.589 0.789062 14.8047 0.789062H17.9282C18.6398 0.789062 19.2188 1.36801 19.2188 2.07965V8.40477C19.2188 9.11637 18.6398 9.69531 17.9282 9.69531C17.7125 9.69531 17.5375 9.8702 17.5375 10.0859V11.7388L15.2536 9.78887C15.1829 9.72848 15.093 9.69531 15 9.69531H8.16555C7.45391 9.69531 6.875 9.11637 6.875 8.40473V2.07965C6.875 1.36801 7.45391 0.789062 8.16555 0.789062H11.2891C11.5048 0.789062 11.6797 0.61418 11.6797 0.398438C11.6797 0.182695 11.5048 0.0078125 11.2891 0.0078125H8.16555C7.02316 0.0078125 6.09375 0.937227 6.09375 2.07965V7.03906H2.0718C0.929414 7.03906 0 7.96848 0 9.1109V15.436C0 16.4449 0.724922 17.2877 1.68117 17.4709V19.6172C1.68117 19.7696 1.76984 19.9081 1.90824 19.9719C1.96055 19.996 2.01633 20.0078 2.07176 20.0078C2.16305 20.0078 2.25332 19.9759 2.32547 19.9143L5.14406 17.5078H11.8344C12.9768 17.5078 13.9062 16.5784 13.9062 15.436V10.4766H14.8559L17.6745 12.883C17.7467 12.9446 17.837 12.9766 17.9282 12.9766C17.9837 12.9766 18.0395 12.9648 18.0918 12.9407C18.2302 12.8768 18.3188 12.7384 18.3188 12.5859L18.3189 10.4396C19.2751 10.2564 20 9.41363 20 8.40477V2.07965C20 0.937227 19.0706 0.0078125 17.9282 0.0078125ZM6.95949 10.926L7.7334 12.9766H6.17852L6.95949 10.926ZM13.125 15.436C13.125 16.1476 12.5461 16.7266 11.8345 16.7266H5C4.90699 16.7266 4.81707 16.7597 4.74637 16.8201L2.46242 18.7701V17.1172C2.46242 16.9014 2.2875 16.7266 2.0718 16.7266C1.36016 16.7266 0.78125 16.1476 0.78125 15.436V9.1109C0.78125 8.39926 1.36016 7.82031 2.0718 7.82031H6.09375V8.40473C6.09375 8.92613 6.28777 9.40277 6.60684 9.76734C6.56453 9.81133 6.52992 9.86359 6.50578 9.92258C6.50457 9.92555 6.50336 9.92852 6.50227 9.93152L4.83023 14.3217C4.75344 14.5233 4.85461 14.7489 5.05621 14.8257C5.25781 14.9025 5.48348 14.8013 5.56027 14.5997L5.8809 13.7579H8.02816L8.34543 14.5986C8.40445 14.755 8.55305 14.8514 8.71094 14.8514C8.75676 14.8514 8.80336 14.8433 8.84879 14.8261C9.05062 14.75 9.15246 14.5246 9.07629 14.3227L7.59434 10.3959C7.7759 10.448 7.96734 10.4766 8.16543 10.4766H13.125V15.436Z" fill="#1B1B1B"/>
<path d="M13.0469 0.789062C13.1496 0.789062 13.2504 0.747266 13.323 0.674609C13.3957 0.601953 13.4375 0.501172 13.4375 0.398438C13.4375 0.295703 13.3957 0.194922 13.323 0.122266C13.2504 0.0496094 13.1496 0.0078125 13.0469 0.0078125C12.9441 0.0078125 12.8434 0.0496094 12.7707 0.122266C12.698 0.194922 12.6562 0.295703 12.6562 0.398438C12.6562 0.501172 12.698 0.601953 12.7707 0.674609C12.8434 0.747266 12.9441 0.789062 13.0469 0.789062Z" fill="#1B1B1B"/>
</svg>
