<svg width="211" height="103" viewBox="0 0 211 103" fill="none" xmlns="http://www.w3.org/2000/svg">
<g filter="url(#filter0_d_1145_52050)">
<rect x="14.5391" y="8.04883" width="181.311" height="73.0097" rx="21.7573" fill="white" shape-rendering="crispEdges"/>
<rect x="15.4456" y="8.95538" width="179.498" height="71.1966" rx="20.8507" stroke="url(#paint0_linear_1145_52050)" stroke-width="1.81311" shape-rendering="crispEdges"/>
<path d="M74.0493 54.5527L83.1873 34.2459H86.9006L96.0677 54.5527H92.1223L84.2607 36.2476H85.7692L77.9366 54.5527H74.0493ZM78.2557 49.8532L79.271 46.8942H90.2367L91.252 49.8532H78.2557ZM104.717 54.7558C103.227 54.7558 101.883 54.427 100.684 53.7695C99.5046 53.0926 98.5762 52.1643 97.8993 50.9845C97.2225 49.8048 96.884 48.4123 96.884 46.8071C96.884 45.2019 97.2225 43.8095 97.8993 42.6297C98.5762 41.45 99.5046 40.5314 100.684 39.8738C101.883 39.2163 103.227 38.8875 104.717 38.8875C106.012 38.8875 107.173 39.1776 108.198 39.7578C109.223 40.3186 110.035 41.1793 110.635 42.3396C111.234 43.5 111.534 44.9892 111.534 46.8071C111.534 48.6057 111.244 50.0949 110.664 51.2746C110.083 52.435 109.281 53.3053 108.256 53.8855C107.231 54.4657 106.051 54.7558 104.717 54.7558ZM105.152 51.6518C106.022 51.6518 106.796 51.4584 107.473 51.0716C108.169 50.6848 108.72 50.1239 109.126 49.389C109.552 48.6541 109.764 47.7935 109.764 46.8071C109.764 45.8015 109.552 44.9409 109.126 44.2253C108.72 43.4904 108.169 42.9295 107.473 42.5427C106.796 42.1559 106.022 41.9625 105.152 41.9625C104.281 41.9625 103.498 42.1559 102.802 42.5427C102.125 42.9295 101.574 43.4904 101.148 44.2253C100.742 44.9409 100.539 45.8015 100.539 46.8071C100.539 47.7935 100.742 48.6541 101.148 49.389C101.574 50.1239 102.125 50.6848 102.802 51.0716C103.498 51.4584 104.281 51.6518 105.152 51.6518ZM109.851 54.5527V50.8975L109.996 46.7781L109.706 42.6588V33.0275H113.304V54.5527H109.851ZM124.632 54.7558C123.143 54.7558 121.799 54.427 120.6 53.7695C119.42 53.0926 118.492 52.1643 117.815 50.9845C117.138 49.8048 116.8 48.4123 116.8 46.8071C116.8 45.2019 117.138 43.8095 117.815 42.6297C118.492 41.45 119.42 40.5314 120.6 39.8738C121.799 39.2163 123.143 38.8875 124.632 38.8875C125.928 38.8875 127.089 39.1776 128.114 39.7578C129.139 40.3186 129.951 41.1793 130.55 42.3396C131.15 43.5 131.45 44.9892 131.45 46.8071C131.45 48.6057 131.16 50.0949 130.579 51.2746C129.999 52.435 129.197 53.3053 128.172 53.8855C127.147 54.4657 125.967 54.7558 124.632 54.7558ZM125.068 51.6518C125.938 51.6518 126.712 51.4584 127.388 51.0716C128.085 50.6848 128.636 50.1239 129.042 49.389C129.467 48.6541 129.68 47.7935 129.68 46.8071C129.68 45.8015 129.467 44.9409 129.042 44.2253C128.636 43.4904 128.085 42.9295 127.388 42.5427C126.712 42.1559 125.938 41.9625 125.068 41.9625C124.197 41.9625 123.414 42.1559 122.718 42.5427C122.041 42.9295 121.49 43.4904 121.064 44.2253C120.658 44.9409 120.455 45.8015 120.455 46.8071C120.455 47.7935 120.658 48.6541 121.064 49.389C121.49 50.1239 122.041 50.6848 122.718 51.0716C123.414 51.4584 124.197 51.6518 125.068 51.6518ZM129.767 54.5527V50.8975L129.912 46.7781L129.622 42.6588V33.0275H133.219V54.5527H129.767Z" fill="url(#paint1_linear_1145_52050)"/>
</g>
<defs>
<filter id="filter0_d_1145_52050" x="0.0342083" y="0.796401" width="210.32" height="102.019" filterUnits="userSpaceOnUse" color-interpolation-filters="sRGB">
<feFlood flood-opacity="0" result="BackgroundImageFix"/>
<feColorMatrix in="SourceAlpha" type="matrix" values="0 0 0 0 0 0 0 0 0 0 0 0 0 0 0 0 0 0 127 0" result="hardAlpha"/>
<feOffset dy="7.25243"/>
<feGaussianBlur stdDeviation="7.25243"/>
<feComposite in2="hardAlpha" operator="out"/>
<feColorMatrix type="matrix" values="0 0 0 0 0 0 0 0 0 0 0 0 0 0 0 0 0 0 0.1 0"/>
<feBlend mode="normal" in2="BackgroundImageFix" result="effect1_dropShadow_1145_52050"/>
<feBlend mode="normal" in="SourceGraphic" in2="effect1_dropShadow_1145_52050" result="shape"/>
</filter>
<linearGradient id="paint0_linear_1145_52050" x1="205.634" y1="-41.6961" x2="25.9432" y2="50.6886" gradientUnits="userSpaceOnUse">
<stop stop-color="#FEC12D"/>
<stop offset="1" stop-color="#FF552C"/>
</linearGradient>
<linearGradient id="paint1_linear_1145_52050" x1="139.54" y1="-7.42654" x2="67.9448" y2="13.4594" gradientUnits="userSpaceOnUse">
<stop stop-color="#FEC12D"/>
<stop offset="1" stop-color="#FF552C"/>
</linearGradient>
</defs>
</svg>
