<svg width="26" height="16" viewBox="0 0 26 16" fill="none" xmlns="http://www.w3.org/2000/svg">
<g clip-path="url(#clip0_1145_45458)">
<path opacity="0.07" d="M23.9998 0H2.66337C1.52988 0 0.663086 0.866667 0.663086 2V14C0.663086 15.1333 1.59655 16 2.66337 16H23.9998C25.1333 16 26.0001 15.1333 26.0001 14V2C26.0001 0.866667 25.0666 0 23.9998 0Z" fill="#24292A"/>
<path d="M24.0015 0.666016C24.7349 0.666016 25.335 1.26602 25.335 1.99935V13.9993C25.335 14.7327 24.7349 15.3327 24.0015 15.3327H2.66507C1.93163 15.3327 1.33154 14.7327 1.33154 13.9993V1.99935C1.33154 1.26602 1.93163 0.666016 2.66507 0.666016H24.0015Z" fill="#006FCF"/>
<path d="M6.64504 6.84598L7.16112 8.09665H6.13297L6.64504 6.84598ZM17.3633 6.89798H15.3783V7.44932H17.3313V8.27532H15.3823V8.88998H17.3673V9.38265L18.7521 7.88598L17.3673 6.32598L17.3633 6.89798ZM7.98657 5.33798H10.6503L11.2417 6.62798L11.7898 5.33398H18.7041L19.4229 6.12732L20.1663 5.33398H23.3421L20.9958 7.90198L23.3181 10.454H20.095L19.3762 9.66065L18.6261 10.454H7.35115L7.02177 9.66065H6.26832L5.93828 10.454H3.33057L5.52155 5.33398H7.80855L7.98657 5.33798ZM13.7627 6.05665H12.2699L11.2697 8.41398L10.1862 6.05665H8.70468V9.26332L7.33114 6.05665H6.00229L4.41406 9.73132H5.45087L5.78025 8.93798H7.51117L7.84055 9.73132H9.65415V7.10798L10.8216 9.73532H11.6151L12.7753 7.11598V9.73598H13.7474L13.7634 6.05598L13.7627 6.05665ZM19.9903 7.90198L21.6779 6.05665H20.463L19.3956 7.20732L18.3634 6.05665H14.4335V9.73532H18.3074L19.3836 8.57665L20.4157 9.73532H21.6659L19.991 7.90198H19.9903Z" fill="white"/>
</g>
<defs>
<clipPath id="clip0_1145_45458">
<rect width="25.337" height="16" fill="white" transform="translate(0.663086)"/>
</clipPath>
</defs>
</svg>
