<svg width="93" height="15" viewBox="0 0 93 15" fill="none" xmlns="http://www.w3.org/2000/svg">
<path d="M0.359187 14V1.4H6.26319C7.77519 1.4 8.92719 1.7 9.71919 2.3C10.5112 2.888 10.9072 3.68 10.9072 4.676C10.9072 5.348 10.7512 5.924 10.4392 6.404C10.1272 6.872 9.70719 7.238 9.17919 7.502C8.66319 7.754 8.09919 7.88 7.48719 7.88L7.81119 7.232C8.51919 7.232 9.15519 7.364 9.71919 7.628C10.2832 7.88 10.7272 8.252 11.0512 8.744C11.3872 9.236 11.5552 9.848 11.5552 10.58C11.5552 11.66 11.1412 12.5 10.3132 13.1C9.48519 13.7 8.25519 14 6.62319 14H0.359187ZM2.69919 12.164H6.47919C7.35519 12.164 8.02719 12.02 8.49519 11.732C8.96319 11.444 9.19719 10.982 9.19719 10.346C9.19719 9.722 8.96319 9.266 8.49519 8.978C8.02719 8.678 7.35519 8.528 6.47919 8.528H2.51919V6.71H6.01119C6.82719 6.71 7.45119 6.566 7.88319 6.278C8.32719 5.99 8.54919 5.558 8.54919 4.982C8.54919 4.394 8.32719 3.956 7.88319 3.668C7.45119 3.38 6.82719 3.236 6.01119 3.236H2.69919V12.164ZM17.8565 14.126C16.8725 14.126 15.9965 13.916 15.2285 13.496C14.4605 13.064 13.8545 12.476 13.4105 11.732C12.9665 10.988 12.7445 10.142 12.7445 9.194C12.7445 8.234 12.9665 7.388 13.4105 6.656C13.8545 5.912 14.4605 5.33 15.2285 4.91C15.9965 4.49 16.8725 4.28 17.8565 4.28C18.8525 4.28 19.7345 4.49 20.5025 4.91C21.2825 5.33 21.8885 5.906 22.3205 6.638C22.7645 7.37 22.9865 8.222 22.9865 9.194C22.9865 10.142 22.7645 10.988 22.3205 11.732C21.8885 12.476 21.2825 13.064 20.5025 13.496C19.7345 13.916 18.8525 14.126 17.8565 14.126ZM17.8565 12.2C18.4085 12.2 18.9005 12.08 19.3325 11.84C19.7645 11.6 20.1005 11.252 20.3405 10.796C20.5925 10.34 20.7185 9.806 20.7185 9.194C20.7185 8.57 20.5925 8.036 20.3405 7.592C20.1005 7.136 19.7645 6.788 19.3325 6.548C18.9005 6.308 18.4145 6.188 17.8745 6.188C17.3225 6.188 16.8305 6.308 16.3985 6.548C15.9785 6.788 15.6425 7.136 15.3905 7.592C15.1385 8.036 15.0125 8.57 15.0125 9.194C15.0125 9.806 15.1385 10.34 15.3905 10.796C15.6425 11.252 15.9785 11.6 16.3985 11.84C16.8305 12.08 17.3165 12.2 17.8565 12.2ZM29.1581 14.126C28.1741 14.126 27.2981 13.916 26.5301 13.496C25.7621 13.064 25.1561 12.476 24.7121 11.732C24.2681 10.988 24.0461 10.142 24.0461 9.194C24.0461 8.234 24.2681 7.388 24.7121 6.656C25.1561 5.912 25.7621 5.33 26.5301 4.91C27.2981 4.49 28.1741 4.28 29.1581 4.28C30.1541 4.28 31.0361 4.49 31.8041 4.91C32.5841 5.33 33.1901 5.906 33.6221 6.638C34.0661 7.37 34.2881 8.222 34.2881 9.194C34.2881 10.142 34.0661 10.988 33.6221 11.732C33.1901 12.476 32.5841 13.064 31.8041 13.496C31.0361 13.916 30.1541 14.126 29.1581 14.126ZM29.1581 12.2C29.7101 12.2 30.2021 12.08 30.6341 11.84C31.0661 11.6 31.4021 11.252 31.6421 10.796C31.8941 10.34 32.0201 9.806 32.0201 9.194C32.0201 8.57 31.8941 8.036 31.6421 7.592C31.4021 7.136 31.0661 6.788 30.6341 6.548C30.2021 6.308 29.7161 6.188 29.1761 6.188C28.6241 6.188 28.1321 6.308 27.7001 6.548C27.2801 6.788 26.9441 7.136 26.6921 7.592C26.4401 8.036 26.3141 8.57 26.3141 9.194C26.3141 9.806 26.4401 10.34 26.6921 10.796C26.9441 11.252 27.2801 11.6 27.7001 11.84C28.1321 12.08 28.6181 12.2 29.1581 12.2ZM37.9757 11.858L38.0297 9.032L43.0517 4.388H45.7517L41.4857 8.672L40.2977 9.662L37.9757 11.858ZM36.1397 14V0.643999H38.3897V14H36.1397ZM43.3937 14L39.8837 9.662L41.3057 7.862L46.1297 14H43.3937ZM52.1736 14V1.4H54.0996L62.0016 11.102H61.0476V1.4H63.3696V14H61.4436L53.5416 4.298H54.4956V14H52.1736ZM70.5499 14.126C69.5659 14.126 68.6899 13.916 67.9219 13.496C67.1539 13.064 66.5479 12.476 66.1039 11.732C65.6599 10.988 65.4379 10.142 65.4379 9.194C65.4379 8.234 65.6599 7.388 66.1039 6.656C66.5479 5.912 67.1539 5.33 67.9219 4.91C68.6899 4.49 69.5659 4.28 70.5499 4.28C71.5459 4.28 72.4279 4.49 73.1959 4.91C73.9759 5.33 74.5819 5.906 75.0139 6.638C75.4579 7.37 75.6799 8.222 75.6799 9.194C75.6799 10.142 75.4579 10.988 75.0139 11.732C74.5819 12.476 73.9759 13.064 73.1959 13.496C72.4279 13.916 71.5459 14.126 70.5499 14.126ZM70.5499 12.2C71.1019 12.2 71.5939 12.08 72.0259 11.84C72.4579 11.6 72.7939 11.252 73.0339 10.796C73.2859 10.34 73.4119 9.806 73.4119 9.194C73.4119 8.57 73.2859 8.036 73.0339 7.592C72.7939 7.136 72.4579 6.788 72.0259 6.548C71.5939 6.308 71.1079 6.188 70.5679 6.188C70.0159 6.188 69.5239 6.308 69.0919 6.548C68.6719 6.788 68.3359 7.136 68.0839 7.592C67.8319 8.036 67.7059 8.57 67.7059 9.194C67.7059 9.806 67.8319 10.34 68.0839 10.796C68.3359 11.252 68.6719 11.6 69.0919 11.84C69.5239 12.08 70.0099 12.2 70.5499 12.2ZM79.3918 14L75.8638 4.388H77.9878L81.0118 12.866H80.0038L83.1718 4.388H85.0618L88.1398 12.866H87.1498L90.2638 4.388H92.2618L88.7158 14H86.5558L83.7478 6.494H84.4138L81.5518 14H79.3918Z" fill="url(#paint0_linear_2663_7844)"/>
<defs>
<linearGradient id="paint0_linear_2663_7844" x1="162.386" y1="-22.715" x2="93.225" y2="93.4843" gradientUnits="userSpaceOnUse">
<stop stop-color="#FEC12D"/>
<stop offset="1" stop-color="#FF552C"/>
</linearGradient>
</defs>
</svg>
