<svg width="28" height="28" viewBox="0 0 28 28" fill="none" xmlns="http://www.w3.org/2000/svg">
<path d="M24.935 19.4605C24.3312 20.8015 24.0403 21.4009 23.2637 22.5843C22.1765 24.238 20.6431 26.303 18.7487 26.3162C17.0622 26.3315 16.6268 25.2159 14.3365 25.2355C12.0484 25.2465 11.5715 26.338 9.88278 26.3205C7.98622 26.303 6.53591 24.4437 5.44872 22.7921C2.40809 18.1612 2.08653 12.7318 3.96559 9.8443C5.29559 7.7968 7.39778 6.59367 9.3731 6.59367C11.3856 6.59367 12.65 7.69836 14.3125 7.69836C15.9268 7.69836 16.909 6.59148 19.2365 6.59148C20.9953 6.59148 22.8547 7.54961 24.1847 9.20336C19.8359 11.5877 20.5425 17.798 24.935 19.4605ZM17.469 4.74305C18.3156 3.65586 18.9587 2.12242 18.7247 0.560547C17.3443 0.65461 15.73 1.53617 14.7872 2.67805C13.9318 3.7193 13.2231 5.26367 13.4987 6.75773C15.0059 6.80586 16.5656 5.9068 17.469 4.74305Z" fill="black"/>
</svg>
