<svg width="28" height="28" viewBox="0 0 28 28" fill="none" xmlns="http://www.w3.org/2000/svg">
<g clip-path="url(#clip0_1145_46960)">
<path d="M26.1844 23.516H1.81561C0.814826 23.516 0 22.7012 0 21.6949V6.30585C0 5.30506 0.814826 4.49023 1.81561 4.49023H26.1789C27.1851 4.49023 28 5.30506 28 6.30585V21.6949C28 22.7012 27.1852 23.516 26.1844 23.516Z" fill="#505278"/>
<path d="M26.1844 4.49023H14V23.516H26.1844C27.1906 23.516 28 22.7012 28 21.7004V6.30585C28 5.30506 27.1852 4.49023 26.1844 4.49023Z" fill="#424566"/>
<path d="M14.607 4.48984C14.4211 10.1062 9.79453 14.6125 4.13437 14.6125C2.66873 14.6125 1.26875 14.3117 0 13.7594V11.3148C1.21953 12.0203 2.63048 12.4195 4.13437 12.4195C8.58593 12.4195 12.2281 8.89218 12.414 4.48438H14.607V4.48984H14.607Z" fill="#575982"/>
<path d="M14.0004 4.49023V7.66758C14.3559 6.66679 14.5692 5.60039 14.6074 4.49023H14.0004ZM28.0005 15.6137V17.834C26.6879 17.5824 25.4083 17.473 24.1395 17.5988C21.8481 17.8285 19.7207 18.9004 17.4403 20.9731C17.0732 21.3076 16.7086 21.6448 16.3465 21.9848C15.7996 22.4934 15.2527 23.0074 14.6785 23.5106H11.1348C12.4473 22.6356 13.623 21.5364 14.8535 20.3879C15.2199 20.0489 15.5918 19.6934 15.9691 19.3543C18.616 16.9535 21.1426 15.7012 23.9207 15.4223C25.2934 15.2856 26.6825 15.3949 28.0005 15.6137Z" fill="#505278"/>
<path d="M11.1348 23.5148H14.0004V21.1797C13.0653 22.0383 12.141 22.8422 11.1348 23.5148Z" fill="#575982"/>
<path d="M5.86251 13.7488H3.17734C2.76717 13.7488 2.43359 13.4153 2.43359 13.0051V11.2223C2.43359 10.8121 2.76717 10.4785 3.17734 10.4785H5.86251C6.27268 10.4785 6.60626 10.8121 6.60626 11.2223V13.0051C6.60079 13.4207 6.27263 13.7488 5.86251 13.7488Z" fill="#424566"/>
<path d="M5.8627 13.7047H3.17206C2.78926 13.7047 2.47754 13.393 2.47754 13.0102V11.2219C2.47754 10.8391 2.78926 10.5273 3.17206 10.5273H5.8627C6.2455 10.5273 6.55722 10.8391 6.55722 11.2219V13.0102C6.55722 13.393 6.2455 13.7047 5.8627 13.7047Z" fill="#FEBD55"/>
<path d="M6.55722 12.1738V12.0645H5.13534V11.5832L5.50175 11.2168H6.55722C6.55722 11.1785 6.55176 11.1403 6.5463 11.1074H5.47443C5.45804 11.1074 5.44707 11.1129 5.43614 11.1238L5.05334 11.5066H4.57204V10.5332H4.46267V11.5066H3.98689L3.60409 11.1238C3.59373 11.1139 3.58012 11.1081 3.56579 11.1074H2.48847C2.483 11.1403 2.47754 11.1785 2.47754 11.2168H3.54394L3.90488 11.5777V12.0645H2.47754V12.1738H3.90488V12.6605L3.54394 13.0215H2.47754C2.47754 13.0598 2.483 13.098 2.48847 13.1309H3.56579C3.58219 13.1309 3.59316 13.1254 3.60409 13.1145L3.98689 12.7317H4.46267V13.7051H4.57204V12.7317H5.05329L5.43609 13.1145C5.44702 13.1254 5.45795 13.1309 5.47439 13.1309H6.54625C6.55171 13.098 6.55718 13.0598 6.55718 13.0215H5.50171L5.1353 12.6551V12.1738H6.55722ZM5.02597 12.6222H4.01426V11.6105H5.02597V12.6222Z" fill="#B5613C"/>
<path d="M25.069 13.6727C25.0443 13.6731 25.0199 13.6675 24.9979 13.6563C24.9159 13.618 24.8831 13.5195 24.9269 13.4375C25.348 12.6008 25.348 11.6438 24.9269 10.8071C24.8886 10.725 24.9214 10.6266 24.9979 10.5883C25.08 10.55 25.1784 10.5828 25.2167 10.6594C25.687 11.5891 25.687 12.6555 25.2167 13.5852C25.1839 13.6399 25.1292 13.6727 25.069 13.6727ZM24.5057 13.3609C24.9487 12.5734 24.9487 11.6656 24.5057 10.8781C24.462 10.8016 24.3635 10.7688 24.2815 10.818C24.205 10.8617 24.1721 10.9602 24.2214 11.0422C24.6096 11.7313 24.6096 12.5188 24.2214 13.2024C24.1776 13.2789 24.205 13.3828 24.2815 13.4266C24.3063 13.4414 24.3347 13.4489 24.3636 13.4484C24.4182 13.443 24.4729 13.4102 24.5057 13.3609ZM23.8057 13.1367C24.2378 12.5078 24.2378 11.7258 23.8057 11.0914C23.7565 11.0149 23.6526 10.9984 23.5761 11.0477C23.4995 11.0969 23.4831 11.2008 23.5323 11.2773C23.8823 11.7914 23.8823 12.4367 23.5323 12.9508C23.4831 13.0273 23.4995 13.1258 23.5761 13.1805C23.6034 13.2023 23.6362 13.2078 23.669 13.2078C23.7237 13.2133 23.7729 13.186 23.8057 13.1367ZM23.0674 12.9289C23.3081 12.7102 23.4393 12.4203 23.4393 12.1196C23.4393 11.8188 23.3081 11.5289 23.0674 11.3102C23.0018 11.2501 22.8979 11.2501 22.8378 11.3211C22.7776 11.3867 22.7776 11.4907 22.8487 11.5508C23.0182 11.7094 23.1112 11.9117 23.1112 12.1196C23.1112 12.3274 23.0182 12.5297 22.8487 12.6883C22.7831 12.7485 22.7776 12.8524 22.8378 12.918C22.8706 12.9508 22.9143 12.9727 22.9581 12.9727C22.9963 12.9727 23.0346 12.9563 23.0674 12.9289Z" fill="#CAD4FF"/>
<path d="M13.776 20.7598H2.6416C2.54862 20.7598 2.47754 20.6887 2.47754 20.5957C2.47754 20.5027 2.54862 20.4316 2.6416 20.4316H13.776C13.8689 20.4316 13.94 20.5027 13.94 20.5957C13.94 20.6887 13.8635 20.7598 13.776 20.7598Z" fill="#E6EAFF"/>
<path d="M25.402 20.7598H23.291C23.198 20.7598 23.127 20.6887 23.127 20.5957C23.127 20.5027 23.198 20.4316 23.291 20.4316H25.402C25.4949 20.4316 25.566 20.5027 25.566 20.5957C25.566 20.6887 25.4895 20.7598 25.402 20.7598ZM22.3941 20.5957C22.3941 20.5027 22.3231 20.4316 22.2301 20.4316H20.1191C20.0262 20.4316 19.9551 20.5027 19.9551 20.5957C19.9551 20.6887 20.0262 20.7598 20.1191 20.7598H22.2301C22.3231 20.7598 22.3941 20.6832 22.3941 20.5957Z" fill="#CAD4FF"/>
<path d="M2.64104 8.21951C2.54806 8.21951 2.47698 8.14844 2.47698 8.05546V7.41015C2.47698 7.31717 2.54806 7.24609 2.64104 7.24609C2.73402 7.24609 2.8051 7.31717 2.8051 7.41015V8.04999C2.8051 8.14297 2.73402 8.21951 2.64104 8.21951ZM3.69651 8.05546V7.41015C3.69651 7.31717 3.62543 7.24609 3.53245 7.24609C3.43947 7.24609 3.36839 7.31717 3.36839 7.41015V8.04999C3.36839 8.14297 3.43947 8.21405 3.53245 8.21405C3.62539 8.21951 3.69651 8.14297 3.69651 8.05546ZM4.59339 8.05546V7.41015C4.59339 7.31717 4.52231 7.24609 4.42933 7.24609C4.33635 7.24609 4.26527 7.31717 4.26527 7.41015V8.04999C4.26527 8.14297 4.33635 8.21405 4.42933 8.21405C4.5168 8.21951 4.59339 8.14297 4.59339 8.05546ZM5.4848 8.05546V7.41015C5.4848 7.31717 5.41372 7.24609 5.32074 7.24609C5.22776 7.24609 5.15668 7.31717 5.15668 7.41015V8.04999C5.15668 8.14297 5.22776 8.21405 5.32074 8.21405C5.41368 8.21951 5.4848 8.14297 5.4848 8.05546ZM2.98008 17.9758H2.95272C2.67929 17.9758 2.45508 17.7516 2.45508 17.4782V16.7016C2.45508 16.4281 2.67929 16.2039 2.95272 16.2039H2.98008C3.25351 16.2039 3.47772 16.4281 3.47772 16.7016V17.4782C3.47795 17.5436 3.46524 17.6084 3.44031 17.6689C3.41538 17.7293 3.37874 17.7843 3.33248 17.8306C3.28622 17.8768 3.23127 17.9135 3.17079 17.9384C3.11031 17.9633 3.0455 17.976 2.98008 17.9758ZM2.95276 16.532C2.90787 16.5322 2.86488 16.5502 2.83313 16.5819C2.80139 16.6136 2.78346 16.6566 2.78324 16.7015V17.4781C2.78346 17.523 2.80139 17.566 2.83313 17.5977C2.86488 17.6295 2.90787 17.6474 2.95276 17.6476H2.98013C3.02502 17.6474 3.06801 17.6295 3.09976 17.5977C3.1315 17.566 3.14943 17.523 3.14965 17.4781V16.7015C3.14943 16.6566 3.1315 16.6136 3.09976 16.5819C3.06801 16.5502 3.02502 16.5322 2.98013 16.532H2.95276ZM4.30898 17.9758H4.28162C4.00819 17.9758 3.78398 17.7516 3.78398 17.4782V16.7016C3.78398 16.4281 4.00819 16.2039 4.28162 16.2039H4.30898C4.58241 16.2039 4.80662 16.4281 4.80662 16.7016V17.4782C4.80685 17.5436 4.79414 17.6084 4.76921 17.6689C4.74428 17.7293 4.70764 17.7843 4.66138 17.8306C4.61512 17.8768 4.56017 17.9135 4.49969 17.9384C4.43921 17.9633 4.3744 17.976 4.30898 17.9758ZM4.28166 16.532C4.23677 16.5322 4.19378 16.5502 4.16203 16.5819C4.13029 16.6136 4.11236 16.6566 4.11214 16.7015V17.4781C4.11236 17.523 4.13029 17.566 4.16203 17.5977C4.19378 17.6295 4.23677 17.6474 4.28166 17.6476H4.30903C4.35392 17.6474 4.39691 17.6295 4.42866 17.5977C4.4604 17.566 4.47833 17.523 4.47855 17.4781V16.7015C4.47833 16.6566 4.4604 16.6136 4.42866 16.5819C4.39691 16.5502 4.35392 16.5322 4.30903 16.532H4.28166ZM5.63793 17.9758H5.61056C5.33713 17.9758 5.11293 17.7516 5.11293 17.4782V16.7016C5.11293 16.4281 5.33713 16.2039 5.61056 16.2039H5.63793C5.91136 16.2039 6.13557 16.4281 6.13557 16.7016V17.4782C6.13557 17.7515 5.91136 17.9758 5.63793 17.9758ZM5.61056 16.532C5.56567 16.5322 5.52268 16.5502 5.49093 16.5819C5.45919 16.6136 5.44126 16.6566 5.44104 16.7015V17.4781C5.44126 17.523 5.45919 17.566 5.49093 17.5977C5.52268 17.6295 5.56567 17.6474 5.61056 17.6476H5.63793C5.68282 17.6474 5.72582 17.6295 5.75756 17.5977C5.7893 17.566 5.80724 17.523 5.80745 17.4781V16.7015C5.80724 16.6566 5.7893 16.6136 5.75756 16.5819C5.72582 16.5502 5.68282 16.5322 5.63793 16.532H5.61056ZM6.96683 17.9758H6.93947C6.66604 17.9758 6.44183 17.7516 6.44183 17.4782V16.7016C6.44183 16.4281 6.66604 16.2039 6.93947 16.2039H6.96683C7.24026 16.2039 7.46447 16.4281 7.46447 16.7016V17.4782C7.46447 17.7515 7.24026 17.9758 6.96683 17.9758ZM6.93947 16.532C6.89457 16.5322 6.85158 16.5502 6.81984 16.5819C6.78809 16.6136 6.77016 16.6566 6.76994 16.7015V17.4781C6.77016 17.523 6.78809 17.566 6.81984 17.5977C6.85158 17.6295 6.89457 17.6474 6.93947 17.6476H6.96683C7.01172 17.6474 7.05472 17.6295 7.08646 17.5977C7.11821 17.566 7.13614 17.523 7.13635 17.4781V16.7015C7.13614 16.6566 7.11821 16.6136 7.08646 16.5819C7.05472 16.5502 7.01172 16.5322 6.96683 16.532H6.93947ZM9.00665 17.9758H8.97928C8.70585 17.9758 8.48165 17.7516 8.48165 17.4782V16.7016C8.48165 16.4281 8.70585 16.2039 8.97928 16.2039H9.00665C9.28008 16.2039 9.50429 16.4281 9.50429 16.7016V17.4782C9.50433 17.7515 9.28008 17.9758 9.00665 17.9758ZM8.97933 16.532C8.93444 16.5322 8.89145 16.5502 8.8597 16.5819C8.82796 16.6136 8.81003 16.6566 8.80981 16.7015V17.4781C8.81003 17.523 8.82796 17.566 8.8597 17.5977C8.89145 17.6295 8.93444 17.6474 8.97933 17.6476H9.0067C9.05159 17.6474 9.09458 17.6295 9.12633 17.5977C9.15807 17.566 9.176 17.523 9.17622 17.4781V16.7015C9.176 16.6566 9.15807 16.6136 9.12633 16.5819C9.09458 16.5502 9.05159 16.5322 9.0067 16.532H8.97933ZM10.3356 17.9758H10.3082C10.0348 17.9758 9.81055 17.7516 9.81055 17.4782V16.7016C9.81055 16.4281 10.0348 16.2039 10.3082 16.2039H10.3356C10.609 16.2039 10.8332 16.4281 10.8332 16.7016V17.4782C10.8332 17.7515 10.609 17.9758 10.3356 17.9758ZM10.3082 16.532C10.2633 16.5322 10.2203 16.5502 10.1886 16.5819C10.1569 16.6136 10.1389 16.6566 10.1387 16.7015V17.4781C10.1389 17.523 10.1569 17.566 10.1886 17.5977C10.2203 17.6295 10.2633 17.6474 10.3082 17.6476H10.3356C10.3805 17.6474 10.4235 17.6295 10.4552 17.5977C10.487 17.566 10.5049 17.523 10.5051 17.4781V16.7015C10.5049 16.6566 10.487 16.6136 10.4552 16.5819C10.4235 16.5502 10.3805 16.5322 10.3356 16.532H10.3082ZM11.6645 17.9758H11.6371C11.3637 17.9758 11.1395 17.7516 11.1395 17.4782V16.7016C11.1395 16.4281 11.3637 16.2039 11.6371 16.2039H11.6645C11.9379 16.2039 12.1621 16.4281 12.1621 16.7016V17.4782C12.1621 17.7515 11.9379 17.9758 11.6645 17.9758ZM11.6371 16.532C11.5922 16.5322 11.5492 16.5502 11.5175 16.5819C11.4858 16.6136 11.4678 16.6566 11.4676 16.7015V17.4781C11.4678 17.523 11.4858 17.566 11.5175 17.5977C11.5492 17.6295 11.5922 17.6474 11.6371 17.6476H11.6645C11.7094 17.6474 11.7524 17.6295 11.7841 17.5977C11.8159 17.566 11.8338 17.523 11.834 17.4781V16.7015C11.8338 16.6566 11.8159 16.6136 11.7841 16.5819C11.7524 16.5502 11.7094 16.5322 11.6645 16.532H11.6371ZM12.9934 17.9758H12.966C12.6926 17.9758 12.4684 17.7516 12.4684 17.4782V16.7016C12.4684 16.4281 12.6926 16.2039 12.966 16.2039H12.9934C13.2668 16.2039 13.491 16.4281 13.491 16.7016V17.4782C13.491 17.7515 13.2668 17.9758 12.9934 17.9758ZM12.966 16.532C12.9211 16.5322 12.8781 16.5502 12.8464 16.5819C12.8147 16.6136 12.7967 16.6566 12.7965 16.7015V17.4781C12.7967 17.523 12.8147 17.566 12.8464 17.5977C12.8781 17.6295 12.9211 17.6474 12.966 17.6476H12.9934C13.0383 17.6474 13.0813 17.6295 13.113 17.5977C13.1448 17.566 13.1627 17.523 13.1629 17.4781V16.7015C13.1627 16.6566 13.1448 16.6136 13.113 16.5819C13.0813 16.5502 13.0383 16.5322 12.9934 16.532H12.966Z" fill="#E6EAFF"/>
<path d="M15.0338 17.975H15.0064C14.733 17.975 14.5088 17.7508 14.5088 17.4773V16.7008C14.5088 16.4273 14.733 16.2031 15.0064 16.2031H15.0338C15.3072 16.2031 15.5314 16.4273 15.5314 16.7008V17.4773C15.5314 17.7507 15.3072 17.975 15.0338 17.975ZM15.0064 16.5312C14.9615 16.5314 14.9185 16.5493 14.8868 16.5811C14.8551 16.6128 14.8371 16.6558 14.8369 16.7007V17.4773C14.8371 17.5222 14.8551 17.5652 14.8868 17.5969C14.9185 17.6287 14.9615 17.6466 15.0064 17.6468H15.0338C15.0787 17.6466 15.1217 17.6287 15.1534 17.5969C15.1852 17.5652 15.2031 17.5222 15.2033 17.4773V16.7007C15.2031 16.6558 15.1852 16.6128 15.1534 16.5811C15.1217 16.5493 15.0787 16.5314 15.0338 16.5312H15.0064ZM16.3627 17.975H16.3354C16.0619 17.975 15.8377 17.7508 15.8377 17.4773V16.7008C15.8377 16.4273 16.0619 16.2031 16.3354 16.2031H16.3627C16.6361 16.2031 16.8603 16.4273 16.8603 16.7008V17.4773C16.8603 17.7507 16.6361 17.975 16.3627 17.975ZM16.3354 16.5312C16.2905 16.5314 16.2475 16.5493 16.2157 16.5811C16.184 16.6128 16.1661 16.6558 16.1659 16.7007V17.4773C16.1661 17.5222 16.184 17.5652 16.2157 17.5969C16.2475 17.6287 16.2905 17.6466 16.3354 17.6468H16.3627C16.4076 17.6466 16.4506 17.6287 16.4823 17.5969C16.5141 17.5652 16.532 17.5222 16.5322 17.4773V16.7007C16.532 16.6558 16.5141 16.6128 16.4823 16.5811C16.4506 16.5493 16.4076 16.5314 16.3627 16.5312H16.3354ZM17.6916 17.975H17.6642C17.3908 17.975 17.1666 17.7508 17.1666 17.4773V16.7008C17.1666 16.4273 17.3908 16.2031 17.6642 16.2031H17.6916C17.965 16.2031 18.1892 16.4273 18.1892 16.7008V17.4773C18.1893 17.7507 17.965 17.975 17.6916 17.975ZM17.6643 16.5312C17.6194 16.5314 17.5764 16.5493 17.5446 16.5811C17.5129 16.6128 17.495 16.6558 17.4948 16.7007V17.4773C17.495 17.5222 17.5129 17.5652 17.5446 17.5969C17.5764 17.6287 17.6194 17.6466 17.6643 17.6468H17.6916C17.7365 17.6466 17.7795 17.6287 17.8113 17.5969C17.843 17.5652 17.8609 17.5222 17.8612 17.4773V16.7007C17.8609 16.6558 17.843 16.6128 17.8113 16.5811C17.7795 16.5493 17.7365 16.5314 17.6916 16.5312H17.6643ZM19.0205 17.975H18.9931C18.7197 17.975 18.4955 17.7508 18.4955 17.4773V16.7008C18.4955 16.4273 18.7197 16.2031 18.9931 16.2031H19.0205C19.2939 16.2031 19.5181 16.4273 19.5181 16.7008V17.4773C19.5182 17.7507 19.2939 17.975 19.0205 17.975ZM18.9932 16.5312C18.9483 16.5314 18.9053 16.5493 18.8735 16.5811C18.8418 16.6128 18.8239 16.6558 18.8237 16.7007V17.4773C18.8239 17.5222 18.8418 17.5652 18.8735 17.5969C18.9053 17.6287 18.9483 17.6466 18.9932 17.6468H19.0205C19.0654 17.6466 19.1084 17.6287 19.1402 17.5969C19.1719 17.5652 19.1898 17.5222 19.1901 17.4773V16.7007C19.1898 16.6558 19.1719 16.6128 19.1402 16.5811C19.1084 16.5493 19.0654 16.5314 19.0205 16.5312H18.9932ZM21.0604 17.975H21.033C20.7596 17.975 20.5354 17.7508 20.5354 17.4773V16.7008C20.5354 16.4273 20.7596 16.2031 21.033 16.2031H21.0604C21.3338 16.2031 21.558 16.4273 21.558 16.7008V17.4773C21.558 17.7507 21.3338 17.975 21.0604 17.975ZM21.033 16.5312C20.9881 16.5314 20.9451 16.5493 20.9134 16.5811C20.8816 16.6128 20.8637 16.6558 20.8635 16.7007V17.4773C20.8637 17.5222 20.8816 17.5652 20.9134 17.5969C20.9451 17.6287 20.9881 17.6466 21.033 17.6468H21.0604C21.1053 17.6466 21.1482 17.6287 21.18 17.5969C21.2117 17.5652 21.2297 17.5222 21.2299 17.4773V16.7007C21.2297 16.6558 21.2117 16.6128 21.18 16.5811C21.1482 16.5493 21.1053 16.5314 21.0604 16.5312H21.033ZM22.3893 17.975H22.3619C22.0885 17.975 21.8643 17.7508 21.8643 17.4773V16.7008C21.8643 16.4273 22.0885 16.2031 22.3619 16.2031H22.3893C22.6627 16.2031 22.8869 16.4273 22.8869 16.7008V17.4773C22.8869 17.7507 22.6627 17.975 22.3893 17.975ZM22.3619 16.5312C22.317 16.5314 22.274 16.5493 22.2423 16.5811C22.2105 16.6128 22.1926 16.6558 22.1924 16.7007V17.4773C22.1926 17.5222 22.2105 17.5652 22.2423 17.5969C22.274 17.6287 22.317 17.6466 22.3619 17.6468H22.3892C22.4341 17.6466 22.4771 17.6287 22.5088 17.5969C22.5406 17.5652 22.5585 17.5222 22.5587 17.4773V16.7007C22.5585 16.6558 22.5406 16.6128 22.5088 16.5811C22.4771 16.5493 22.4341 16.5314 22.3892 16.5312H22.3619ZM23.7182 17.975H23.6908C23.4174 17.975 23.1932 17.7508 23.1932 17.4773V16.7008C23.1932 16.4273 23.4174 16.2031 23.6908 16.2031H23.7182C23.9916 16.2031 24.2158 16.4273 24.2158 16.7008V17.4773C24.2158 17.7507 23.9916 17.975 23.7182 17.975ZM23.6908 16.5312C23.646 16.5314 23.603 16.5493 23.5712 16.5811C23.5395 16.6128 23.5215 16.6558 23.5213 16.7007V17.4773C23.5215 17.5222 23.5395 17.5652 23.5712 17.5969C23.603 17.6287 23.646 17.6466 23.6908 17.6468H23.7182C23.7631 17.6466 23.8061 17.6287 23.8378 17.5969C23.8696 17.5652 23.8875 17.5222 23.8877 17.4773V16.7007C23.8875 16.6558 23.8696 16.6128 23.8378 16.5811C23.8061 16.5493 23.7631 16.5314 23.7182 16.5312H23.6908ZM25.0471 17.975H25.0197C24.7463 17.975 24.5221 17.7508 24.5221 17.4773V16.7008C24.5221 16.4273 24.7463 16.2031 25.0197 16.2031H25.0471C25.3205 16.2031 25.5447 16.4273 25.5447 16.7008V17.4773C25.5448 17.7507 25.3205 17.975 25.0471 17.975ZM25.0197 16.5312C24.9749 16.5314 24.9319 16.5493 24.9001 16.5811C24.8684 16.6128 24.8504 16.6558 24.8502 16.7007V17.4773C24.8504 17.5222 24.8684 17.5652 24.9001 17.5969C24.9319 17.6287 24.9749 17.6466 25.0197 17.6468H25.0471C25.092 17.6466 25.135 17.6287 25.1667 17.5969C25.1985 17.5652 25.2164 17.5222 25.2166 17.4773V16.7007C25.2164 16.6558 25.1985 16.6128 25.1667 16.5811C25.135 16.5493 25.092 16.5314 25.0471 16.5312H25.0197Z" fill="#CAD4FF"/>
</g>
<defs>
<clipPath id="clip0_1145_46960">
<rect width="28" height="28" fill="white"/>
</clipPath>
</defs>
</svg>
