<svg width="26" height="26" viewBox="0 0 26 26" fill="none" xmlns="http://www.w3.org/2000/svg">
<path fill-rule="evenodd" clip-rule="evenodd" d="M3.7142 11.3658L7.48395 9.18928C7.50842 9.17467 7.53562 9.16522 7.56388 9.1615C7.59213 9.15778 7.62085 9.15987 7.64827 9.16765L8.3425 9.35366C8.39797 9.3684 8.45702 9.36057 8.50672 9.33188C8.55642 9.30318 8.59272 9.25596 8.60768 9.20055L8.7937 8.50632C8.80067 8.47869 8.81322 8.45278 8.83057 8.43017C8.84793 8.40756 8.86971 8.38874 8.8946 8.37485L18.8165 2.64642C18.8628 2.61953 18.9174 2.61078 18.9698 2.62188C19.0221 2.63298 19.0685 2.66314 19.0999 2.70649C19.6017 3.3959 20.5221 3.64249 21.3014 3.29637C21.3503 3.2745 21.4055 3.27156 21.4564 3.28811C21.5073 3.30467 21.5502 3.33953 21.5768 3.38595L22.3572 4.73764C22.3841 4.78392 22.3928 4.83853 22.3817 4.89088C22.3706 4.94323 22.3405 4.98959 22.2971 5.02095C21.5559 5.5605 21.3266 6.58364 21.7952 7.39533C22.2638 8.20702 23.2646 8.51993 24.1024 8.14786C24.1513 8.12599 24.2065 8.12305 24.2574 8.1396C24.3083 8.15616 24.3512 8.19102 24.3778 8.23744L25.1582 9.58913C25.1851 9.6354 25.1938 9.69001 25.1827 9.74236C25.1716 9.79471 25.1415 9.84107 25.0981 9.87244C24.4087 10.3743 24.1621 11.2946 24.5082 12.074C24.5301 12.1228 24.533 12.178 24.5165 12.2289C24.4999 12.2798 24.465 12.3227 24.4186 12.3493L14.4966 18.0779C14.4722 18.0925 14.445 18.102 14.4167 18.1057C14.3885 18.1094 14.3598 18.1073 14.3324 18.0996L13.6382 17.9136C13.5827 17.8988 13.5237 17.9066 13.474 17.9353C13.4243 17.964 13.388 18.0112 13.373 18.0667L13.187 18.7609C13.18 18.7885 13.1675 18.8144 13.1501 18.837C13.1328 18.8596 13.111 18.8785 13.0861 18.8924L9.31639 21.0688C9.27012 21.0957 9.21551 21.1044 9.16316 21.0933C9.11081 21.0822 9.06445 21.0521 9.03308 21.0087C8.53121 20.3193 7.61085 20.0728 6.83156 20.4188C6.78272 20.4407 6.7275 20.4437 6.67661 20.4271C6.62573 20.4105 6.5828 20.3757 6.55617 20.3293L5.77577 18.9776C5.74888 18.9313 5.74014 18.8767 5.75125 18.8243C5.76236 18.772 5.79253 18.7256 5.83589 18.6943C6.57704 18.1547 6.80642 17.1316 6.33781 16.3198C5.86915 15.5081 4.86841 15.1952 4.03057 15.5673C3.98173 15.5892 3.92651 15.5921 3.87562 15.5756C3.82473 15.559 3.78181 15.5241 3.75518 15.4777L2.97477 14.126C2.94789 14.0798 2.93915 14.0251 2.95026 13.9728C2.96137 13.9204 2.99153 13.8741 3.0349 13.8427C3.72431 13.3409 3.9709 12.4205 3.62482 11.6412C3.60287 11.5923 3.59986 11.5371 3.61638 11.4862C3.6329 11.4353 3.66777 11.3924 3.7142 11.3658Z" fill="#8AC9FE"/>
<path fill-rule="evenodd" clip-rule="evenodd" d="M23.6437 12.0465L14.1507 17.5273C14.1262 17.5419 14.099 17.5514 14.0707 17.5551C14.0425 17.5588 14.0137 17.5567 13.9863 17.5489L13.2921 17.3629C13.2367 17.3482 13.1776 17.356 13.1279 17.3847C13.0782 17.4134 13.0419 17.4606 13.027 17.516L12.841 18.2103C12.834 18.2379 12.8214 18.2638 12.8041 18.2864C12.7868 18.309 12.765 18.3278 12.7401 18.3417L8.71021 20.6684C8.83211 20.7673 8.94061 20.8816 9.03297 21.0085C9.06433 21.0519 9.11069 21.082 9.16305 21.0931C9.2154 21.1042 9.27002 21.0955 9.31628 21.0686L13.086 18.8921C13.1109 18.8783 13.1327 18.8594 13.15 18.8368C13.1674 18.8142 13.1799 18.7883 13.1869 18.7607L13.3729 18.0664C13.3878 18.011 13.4242 17.9638 13.4739 17.9351C13.5236 17.9064 13.5826 17.8986 13.6381 17.9133L14.3322 18.0993C14.3597 18.1071 14.3884 18.1092 14.4166 18.1055C14.4449 18.1018 14.4721 18.0923 14.4965 18.0777L24.4185 12.3492C24.4649 12.3226 24.4998 12.2797 24.5164 12.2288C24.5329 12.1779 24.53 12.1227 24.5081 12.0738C24.162 11.2945 24.4086 10.3742 25.098 9.87233C25.1414 9.84096 25.1715 9.7946 25.1826 9.74225C25.1937 9.6899 25.185 9.63529 25.1581 9.58902L24.3777 8.23732C24.3511 8.19091 24.3081 8.15604 24.2573 8.13949C24.2064 8.12294 24.1511 8.12588 24.1023 8.14775C24.0008 8.19284 23.8954 8.22848 23.7874 8.25423L24.3832 9.28631C24.4101 9.33258 24.4189 9.38719 24.4078 9.43954C24.3967 9.49189 24.3665 9.53825 24.3232 9.56962C23.6337 10.0715 23.3872 10.9918 23.7332 11.7711C23.7785 11.8727 23.74 11.9909 23.6437 12.0465Z" fill="#60B7FF"/>
<path fill-rule="evenodd" clip-rule="evenodd" d="M18.465 10.6715C18.4252 10.6944 18.3904 10.7249 18.3624 10.7613C18.3344 10.7977 18.3139 10.8393 18.3021 10.8837C18.2902 10.928 18.2871 10.9743 18.2931 11.0198C18.2991 11.0653 18.3141 11.1092 18.3371 11.149C18.3854 11.2326 18.463 11.2888 18.5493 11.3119C18.6356 11.3351 18.7309 11.3252 18.8146 11.2769C18.8982 11.2286 18.9544 11.151 18.9775 11.0647C19.0007 10.9784 18.9908 10.8831 18.9425 10.7994C18.9196 10.7596 18.8891 10.7247 18.8527 10.6968C18.8163 10.6688 18.7747 10.6483 18.7303 10.6365C18.686 10.6245 18.6397 10.6215 18.5942 10.6275C18.5487 10.6335 18.5048 10.6484 18.465 10.6715ZM16.6373 7.53608C16.648 7.42928 16.7008 7.33112 16.7839 7.2632C16.867 7.19528 16.9737 7.16316 17.0805 7.17391C17.1873 7.18466 17.2854 7.23739 17.3534 7.32051C17.4213 7.40363 17.4534 7.51033 17.4427 7.61713L16.9037 13.0172C16.8929 13.124 16.8402 13.2222 16.7571 13.2901C16.6739 13.358 16.5673 13.3901 16.4605 13.3794C16.3536 13.3686 16.2555 13.3159 16.1876 13.2328C16.1197 13.1497 16.0875 13.043 16.0983 12.9362L16.6373 7.53608ZM14.7031 9.29169C14.6633 9.31459 14.6284 9.34512 14.6005 9.38154C14.5725 9.41796 14.552 9.45954 14.5402 9.50391C14.5171 9.59028 14.5269 9.68555 14.5752 9.76919C14.6235 9.85282 14.7011 9.90899 14.7874 9.93214C14.8737 9.95525 14.969 9.94545 15.0527 9.89716C15.0925 9.87426 15.1274 9.84373 15.1553 9.80731C15.1833 9.77089 15.2038 9.7293 15.2156 9.68494C15.2275 9.6406 15.2306 9.59433 15.2246 9.54881C15.2186 9.50328 15.2036 9.45939 15.1806 9.41966C15.1577 9.37986 15.1272 9.34497 15.0908 9.317C15.0543 9.28904 15.0128 9.26855 14.9684 9.2567C14.9241 9.24477 14.8778 9.24171 14.8323 9.24772C14.7867 9.25372 14.7428 9.26867 14.7031 9.29169ZM13.7554 9.29367C13.7157 9.44106 13.7056 9.59483 13.7255 9.74616C13.7454 9.89749 13.795 10.0434 13.8715 10.1755C14.0319 10.4534 14.2899 10.6399 14.5771 10.7169C14.8644 10.7939 15.181 10.7613 15.4589 10.6008C15.7368 10.4404 15.9233 10.1825 16.0003 9.89523C16.0773 9.60796 16.0447 9.29134 15.8842 9.01346C15.8081 8.88117 15.7066 8.76523 15.5855 8.67232C15.4644 8.5794 15.3261 8.51133 15.1786 8.47203C15.0312 8.43233 14.8775 8.42214 14.7261 8.44206C14.5748 8.46198 14.4289 8.51162 14.2968 8.58812C14.1645 8.66426 14.0486 8.76578 13.9557 8.88687C13.8628 9.00795 13.7947 9.1462 13.7554 9.29367ZM17.5174 10.6734C17.5567 10.5259 17.6247 10.3877 17.7177 10.2666C17.8106 10.1455 17.9265 10.0439 18.0588 9.96779C18.3367 9.80732 18.6533 9.77472 18.9406 9.85171C19.2279 9.92869 19.4857 10.1153 19.6462 10.3931C19.7227 10.5252 19.7723 10.6711 19.7922 10.8224C19.8122 10.9738 19.802 11.1275 19.7623 11.2749C19.723 11.4224 19.6549 11.5606 19.562 11.6817C19.4691 11.8028 19.3531 11.9044 19.2209 11.9805C19.0888 12.057 18.9429 12.1066 18.7915 12.1266C18.6402 12.1465 18.4864 12.1363 18.3391 12.0966C18.1916 12.0573 18.0533 11.9892 17.9322 11.8963C17.8111 11.8034 17.7096 11.6874 17.6334 11.5552C17.557 11.4231 17.5073 11.2772 17.4874 11.1259C17.4675 10.9745 17.4777 10.8208 17.5174 10.6734Z" fill="#ECEFF1"/>
<path fill-rule="evenodd" clip-rule="evenodd" d="M3.71425 11.3662L7.484 9.18973C7.50847 9.17512 7.53567 9.16567 7.56393 9.16195C7.59219 9.15823 7.6209 9.16032 7.64832 9.1681L8.21702 9.32049C8.20519 9.36443 8.20216 9.41028 8.2081 9.45539C8.21404 9.50051 8.22885 9.54401 8.25166 9.58338L8.76049 10.4647C8.80643 10.5443 8.88211 10.6023 8.97087 10.6261C9.05962 10.6499 9.15419 10.6374 9.23377 10.5915L9.47061 11.0017C9.39104 11.0477 9.33298 11.1233 9.3092 11.2121C9.28542 11.3008 9.29787 11.3954 9.34381 11.475L9.85264 12.3563C9.89859 12.4359 9.97426 12.4939 10.063 12.5177C10.1518 12.5415 10.2463 12.529 10.3259 12.4831L10.5628 12.8933C10.4832 12.9393 10.4251 13.0149 10.4013 13.1037C10.3776 13.1924 10.39 13.287 10.436 13.3666L10.9448 14.2479C10.9907 14.3275 11.0664 14.3855 11.1551 14.4093C11.2439 14.4331 11.3385 14.4206 11.418 14.3747L11.6549 14.7849C11.5753 14.8308 11.5172 14.9065 11.4935 14.9953C11.4697 15.084 11.4821 15.1786 11.5281 15.2581L12.0369 16.1394C12.0828 16.219 12.1585 16.2771 12.2472 16.3009C12.336 16.3246 12.4306 16.3122 12.5101 16.2662L12.747 16.6765C12.6674 16.7224 12.6093 16.7981 12.5856 16.8868C12.5618 16.9756 12.5742 17.0701 12.6202 17.1497L13.129 18.031C13.1517 18.0704 13.182 18.105 13.2181 18.1327C13.2542 18.1604 13.2954 18.1807 13.3394 18.1924L13.187 18.7611C13.18 18.7887 13.1675 18.8146 13.1501 18.8372C13.1328 18.8598 13.111 18.8787 13.0861 18.8926L9.31639 21.069C9.27012 21.0959 9.21551 21.1046 9.16316 21.0935C9.11081 21.0824 9.06445 21.0523 9.03308 21.0089C8.53121 20.3195 7.61085 20.073 6.83156 20.419C6.78272 20.4409 6.7275 20.4438 6.67661 20.4273C6.62572 20.4107 6.5828 20.3759 6.55617 20.3295L5.77577 18.9778C5.74888 18.9315 5.74014 18.8769 5.75125 18.8245C5.76236 18.7722 5.79253 18.7258 5.83589 18.6945C6.57704 18.1549 6.80642 17.1318 6.33781 16.32C5.86915 15.5083 4.86841 15.1954 4.03057 15.5675C3.98173 15.5894 3.92651 15.5923 3.87562 15.5758C3.82473 15.5592 3.78181 15.5243 3.75518 15.4779L2.97477 14.1262C2.94789 14.08 2.93915 14.0253 2.95026 13.973C2.96137 13.9206 2.99153 13.8743 3.0349 13.8429C3.72431 13.341 3.9709 12.4207 3.62482 11.6413C3.6029 11.5926 3.59992 11.5374 3.61645 11.4865C3.63298 11.4357 3.66784 11.3928 3.71425 11.3662Z" fill="#D8ECFE"/>
<path fill-rule="evenodd" clip-rule="evenodd" d="M6.60802 13.687C6.51476 13.7401 6.40432 13.754 6.30079 13.7259C6.19726 13.6978 6.10905 13.6299 6.05541 13.537C6.00177 13.4441 5.98705 13.3337 6.01447 13.23C6.04189 13.1263 6.10922 13.0377 6.20177 12.9834L8.07702 11.9007C8.17028 11.8477 8.28072 11.8337 8.38425 11.8618C8.48778 11.89 8.57599 11.9579 8.62963 12.0508C8.68327 12.1437 8.69799 12.254 8.67057 12.3577C8.64314 12.4615 8.57582 12.5501 8.48327 12.6044L6.60802 13.687ZM9.15231 18.0938C9.05905 18.1468 8.94861 18.1608 8.84508 18.1327C8.74155 18.1046 8.65334 18.0367 8.5997 17.9438C8.54606 17.8509 8.53134 17.7405 8.55877 17.6368C8.58619 17.5331 8.65352 17.4445 8.74606 17.3902L10.6213 16.3075C10.7146 16.2545 10.825 16.2405 10.9285 16.2686C11.0321 16.2968 11.1203 16.3647 11.1739 16.4576C11.2276 16.5505 11.2423 16.6608 11.2149 16.7645C11.1874 16.8683 11.1201 16.9569 11.0276 17.0112L9.15231 18.0938ZM8.30421 16.6249L10.1795 15.5422C10.272 15.488 10.3393 15.3993 10.3668 15.2956C10.3942 15.1919 10.3795 15.0815 10.3258 14.9886C10.2722 14.8957 10.184 14.8278 10.0804 14.7997C9.97692 14.7716 9.86647 14.7856 9.77321 14.8386L7.89796 15.9213C7.80542 15.9755 7.73809 16.0642 7.71067 16.1679C7.68325 16.2716 7.69796 16.3819 7.7516 16.4748C7.80524 16.5677 7.89345 16.6357 7.99698 16.6638C8.10051 16.6919 8.21096 16.6779 8.30421 16.6249ZM7.45612 15.1559L9.33137 14.0733C9.42391 14.019 9.49124 13.9304 9.51866 13.8266C9.54608 13.7229 9.53137 13.6126 9.47773 13.5197C9.42409 13.4268 9.33588 13.3589 9.23235 13.3307C9.12882 13.3026 9.01837 13.3166 8.92512 13.3696L7.04987 14.4523C6.95732 14.5066 6.88999 14.5952 6.86257 14.6989C6.83515 14.8026 6.84987 14.913 6.90351 15.0059C6.95715 15.0988 7.04535 15.1667 7.14888 15.1948C7.25241 15.2229 7.36286 15.2089 7.45612 15.1559Z" fill="#ADD5FA"/>
<path fill-rule="evenodd" clip-rule="evenodd" d="M2.83319 12.1817H7.18611C7.24572 12.1817 7.29706 12.2029 7.33921 12.2451L7.84738 12.7533C7.88803 12.7938 7.94309 12.8165 8.00049 12.8165C8.05788 12.8165 8.11294 12.7938 8.15359 12.7533L8.66176 12.2451C8.68161 12.2246 8.70544 12.2085 8.73176 12.1976C8.75809 12.1867 8.78637 12.1813 8.81486 12.1817H20.2719C20.3254 12.1815 20.3771 12.2012 20.4168 12.237C20.4566 12.2728 20.4817 12.3221 20.4872 12.3753C20.5771 13.2233 21.2508 13.8971 22.0988 13.987C22.1521 13.9925 22.2014 14.0175 22.2372 14.0573C22.2729 14.0971 22.2927 14.1488 22.2925 14.2023V15.7631C22.2927 15.8166 22.273 15.8683 22.2372 15.9081C22.2014 15.9478 22.1521 15.9729 22.0988 15.9784C21.1872 16.0751 20.477 16.8465 20.477 17.7837C20.477 18.721 21.1872 19.4924 22.0988 19.5891C22.1521 19.5946 22.2014 19.6196 22.2372 19.6594C22.2729 19.6992 22.2927 19.7509 22.2925 19.8044V21.3652C22.2927 21.4187 22.273 21.4704 22.2372 21.5102C22.2014 21.55 22.1521 21.575 22.0988 21.5805C21.2508 21.6704 20.5771 22.3442 20.4872 23.1921C20.4817 23.2453 20.4566 23.2946 20.4169 23.3304C20.3771 23.3662 20.3254 23.3859 20.2719 23.3858H8.81491C8.78642 23.3862 8.75814 23.3808 8.73181 23.3699C8.70549 23.359 8.68166 23.3428 8.66181 23.3224L8.15364 22.8142C8.11299 22.7737 8.05793 22.7509 8.00054 22.7509C7.94314 22.7509 7.88808 22.7737 7.84743 22.8142L7.33926 23.3224C7.31941 23.3428 7.29559 23.359 7.26926 23.3699C7.24293 23.3808 7.21465 23.3862 7.18616 23.3858H2.83319C2.77967 23.3859 2.72801 23.3662 2.68822 23.3304C2.64844 23.2946 2.62337 23.2453 2.61788 23.1921C2.52794 22.3442 1.85418 21.6704 1.00623 21.5805C0.95299 21.575 0.903683 21.55 0.867884 21.5102C0.832084 21.4704 0.812346 21.4187 0.812501 21.3652V19.8044C0.812346 19.7509 0.832084 19.6992 0.867884 19.6594C0.903683 19.6196 0.95299 19.5946 1.00623 19.5891C1.91786 19.4924 2.62808 18.721 2.62808 17.7837C2.62808 16.8465 1.91786 16.0751 1.00623 15.9784C0.952999 15.9729 0.903699 15.9478 0.867901 15.9081C0.832102 15.8683 0.812358 15.8166 0.812501 15.7631V14.2023C0.812346 14.1488 0.832084 14.0971 0.867884 14.0573C0.903683 14.0175 0.95299 13.9925 1.00623 13.987C1.85423 13.8971 2.52794 13.2233 2.61788 12.3753C2.62337 12.3221 2.64844 12.2728 2.68822 12.237C2.72801 12.2012 2.77967 12.1815 2.83319 12.1817Z" fill="#FE646F"/>
<path fill-rule="evenodd" clip-rule="evenodd" d="M19.7522 22.7358H8.79057C8.73095 22.7358 8.67961 22.7146 8.63747 22.6724L8.1293 22.1642C8.08863 22.1237 8.03358 22.101 7.97619 22.101C7.9188 22.101 7.86375 22.1237 7.82309 22.1642L7.31492 22.6724C7.29506 22.6928 7.27124 22.709 7.24491 22.7199C7.21859 22.7308 7.19031 22.7362 7.16181 22.7358H2.50842C2.56458 22.8824 2.60139 23.0356 2.61791 23.1917C2.6234 23.245 2.64847 23.2942 2.68825 23.33C2.72804 23.3658 2.77971 23.3856 2.83322 23.3854H7.18614C7.21463 23.3858 7.24291 23.3804 7.26924 23.3695C7.29557 23.3586 7.31939 23.3424 7.33924 23.322L7.84741 22.8138C7.88806 22.7733 7.94312 22.7505 8.00052 22.7505C8.05791 22.7505 8.11297 22.7733 8.15362 22.8138L8.66179 23.322C8.68164 23.3424 8.70547 23.3586 8.73179 23.3695C8.75812 23.3804 8.7864 23.3858 8.81489 23.3854H20.2719C20.3254 23.3855 20.377 23.3658 20.4168 23.33C20.4566 23.2942 20.4816 23.2449 20.4871 23.1917C20.577 22.3437 21.2508 21.67 22.0988 21.5801C22.152 21.5746 22.2013 21.5496 22.2371 21.5098C22.2729 21.47 22.2926 21.4183 22.2924 21.3648V19.804C22.2926 19.7505 22.2729 19.6988 22.2371 19.659C22.2013 19.6192 22.152 19.5942 22.0987 19.5887C21.9883 19.577 21.8792 19.5552 21.7727 19.5234V20.7152C21.7729 20.7687 21.7532 20.8204 21.7174 20.8601C21.6816 20.8999 21.6323 20.925 21.5791 20.9305C20.7311 21.0204 20.0574 21.6941 19.9674 22.5421C19.962 22.5953 19.9369 22.6446 19.8972 22.6804C19.8574 22.7162 19.8057 22.736 19.7522 22.7358Z" fill="#FD4755"/>
<path fill-rule="evenodd" clip-rule="evenodd" d="M15.9551 18.9547C15.9091 18.9547 15.8637 18.9637 15.8212 18.9812C15.7788 18.9988 15.7403 19.0245 15.7079 19.0571C15.6446 19.1203 15.6055 19.2077 15.6055 19.3043C15.6055 19.4008 15.6446 19.4883 15.7079 19.5515C15.7711 19.6147 15.8585 19.6538 15.9551 19.6538C16.0516 19.6538 16.1391 19.6147 16.2023 19.5515C16.2654 19.4882 16.3046 19.4008 16.3046 19.3043C16.3046 19.2076 16.2655 19.1202 16.2023 19.057C16.1698 19.0245 16.1313 18.9988 16.0889 18.9812C16.0464 18.9637 16.001 18.9547 15.9551 18.9547ZM15.9398 15.3255C15.9709 15.2824 16.0101 15.2458 16.0553 15.2178C16.1005 15.1899 16.1508 15.1711 16.2032 15.1625C16.2557 15.154 16.3093 15.1559 16.3611 15.168C16.4128 15.1802 16.4616 15.2025 16.5048 15.2335C16.5479 15.2646 16.5845 15.3038 16.6125 15.349C16.6404 15.3942 16.6592 15.4445 16.6678 15.4969C16.6763 15.5494 16.6745 15.603 16.6623 15.6548C16.6501 15.7065 16.6278 15.7553 16.5968 15.7985L13.43 20.2056C13.3989 20.2487 13.3597 20.2853 13.3145 20.3133C13.2693 20.3412 13.219 20.36 13.1666 20.3686C13.1141 20.3771 13.0605 20.3753 13.0087 20.3631C12.957 20.3509 12.9082 20.3286 12.865 20.2976C12.8219 20.2665 12.7853 20.2273 12.7573 20.1821C12.7293 20.1369 12.7106 20.0866 12.702 20.0342C12.6935 19.9817 12.6953 19.9281 12.7075 19.8763C12.7197 19.8246 12.742 19.7758 12.773 19.7326L15.9398 15.3255ZM13.387 15.8789C13.3411 15.8788 13.2956 15.8878 13.2532 15.9053C13.2108 15.9229 13.1722 15.9487 13.1398 15.9812C13.0766 16.0444 13.0375 16.1318 13.0375 16.2284C13.0375 16.325 13.0766 16.4124 13.1398 16.4756C13.1722 16.5081 13.2108 16.5339 13.2532 16.5514C13.2956 16.569 13.3411 16.578 13.387 16.5779C13.4329 16.578 13.4784 16.569 13.5208 16.5514C13.5632 16.5339 13.6018 16.5081 13.6342 16.4756C13.6667 16.4432 13.6925 16.4046 13.71 16.3622C13.7276 16.3198 13.7366 16.2743 13.7365 16.2284C13.7365 16.1317 13.6974 16.0444 13.6342 15.9811C13.6018 15.9486 13.5632 15.9229 13.5208 15.9053C13.4784 15.8878 13.4329 15.8788 13.387 15.8789ZM12.5653 15.4067C12.355 15.617 12.225 15.9075 12.225 16.2284C12.225 16.5493 12.3551 16.8398 12.5653 17.0501C12.7756 17.2604 13.0661 17.3905 13.387 17.3905C13.7079 17.3905 13.9984 17.2605 14.2087 17.0501C14.419 16.8398 14.5491 16.5493 14.5491 16.2284C14.5491 15.9075 14.419 15.617 14.2087 15.4067C13.9985 15.1965 13.7079 15.0664 13.3871 15.0664C13.2344 15.0662 13.0832 15.0962 12.9422 15.1546C12.8012 15.213 12.6731 15.2987 12.5653 15.4067ZM15.1334 18.4826C15.3437 18.2723 15.6342 18.1422 15.9551 18.1422C16.2759 18.1422 16.5665 18.2723 16.7768 18.4826C16.987 18.6928 17.1171 18.9834 17.1171 19.3043C17.1171 19.6251 16.987 19.9157 16.7767 20.1259C16.5664 20.3362 16.2759 20.4663 15.955 20.4663C15.6341 20.4663 15.3436 20.3363 15.1333 20.1259C15.0252 20.0182 14.9395 19.8901 14.8811 19.7491C14.8227 19.6081 14.7927 19.4569 14.7929 19.3043C14.7928 19.1516 14.8228 19.0005 14.8812 18.8595C14.9396 18.7185 15.0253 18.5904 15.1334 18.4826Z" fill="#ECEFF1"/>
<path fill-rule="evenodd" clip-rule="evenodd" d="M2.83319 12.1816H7.18611C7.24572 12.1816 7.29706 12.2029 7.33921 12.2451L7.75552 12.6614C7.72331 12.6935 7.69776 12.7317 7.68035 12.7737C7.66294 12.8158 7.654 12.8608 7.65406 12.9063V13.924C7.65406 14.0159 7.69055 14.104 7.75552 14.169C7.82049 14.2339 7.90861 14.2704 8.00049 14.2704V14.7441C7.90861 14.7441 7.82049 14.7806 7.75552 14.8456C7.69055 14.9105 7.65406 14.9987 7.65406 15.0905V16.1082C7.65406 16.2001 7.69055 16.2882 7.75552 16.3532C7.82049 16.4181 7.90861 16.4546 8.00049 16.4546V16.9283C7.90861 16.9283 7.82049 16.9648 7.75552 17.0298C7.69055 17.0948 7.65406 17.1829 7.65406 17.2747V18.2924C7.65406 18.3843 7.69055 18.4724 7.75552 18.5374C7.82049 18.6023 7.90861 18.6388 8.00049 18.6388V19.1125C7.90861 19.1125 7.82049 19.149 7.75552 19.214C7.69055 19.279 7.65406 19.3671 7.65406 19.4589V20.4766C7.65407 20.5685 7.69057 20.6566 7.75554 20.7216C7.8205 20.7865 7.90861 20.823 8.00049 20.823V21.2967C7.90861 21.2967 7.82049 21.3332 7.75552 21.3982C7.69055 21.4632 7.65406 21.5513 7.65406 21.6432V22.6608C7.65406 22.7565 7.69285 22.8431 7.75552 22.9058L7.33921 23.3221C7.31936 23.3425 7.29553 23.3587 7.26921 23.3696C7.24288 23.3805 7.2146 23.3859 7.18611 23.3855H2.83319C2.77967 23.3857 2.72801 23.3659 2.68822 23.3301C2.64844 23.2944 2.62337 23.2451 2.61788 23.1918C2.52794 22.3439 1.85418 21.6701 1.00623 21.5802C0.95299 21.5748 0.903683 21.5497 0.867884 21.5099C0.832084 21.4701 0.812346 21.4184 0.812501 21.3649V19.8041C0.812346 19.7506 0.832084 19.6989 0.867884 19.6591C0.903683 19.6193 0.95299 19.5943 1.00623 19.5888C1.91786 19.4921 2.62808 18.7207 2.62808 17.7835C2.62808 16.8462 1.91786 16.0748 1.00623 15.9781C0.952999 15.9726 0.903699 15.9476 0.867901 15.9078C0.832102 15.868 0.812358 15.8164 0.812501 15.7628V14.202C0.812346 14.1485 0.832084 14.0968 0.867884 14.057C0.903683 14.0173 0.95299 13.9922 1.00623 13.9867C1.85423 13.8968 2.52794 13.2231 2.61788 12.3751C2.62342 12.3219 2.64852 12.2726 2.6883 12.2369C2.72808 12.2012 2.77971 12.1815 2.83319 12.1816Z" fill="#FFE177"/>
<path fill-rule="evenodd" clip-rule="evenodd" d="M7.33919 23.3208L7.7555 22.9045C7.72328 22.8724 7.69774 22.8342 7.68032 22.7921C7.66291 22.7501 7.65398 22.705 7.65404 22.6595V22.332L7.31482 22.6712C7.29496 22.6917 7.27114 22.7079 7.24481 22.7188C7.21848 22.7297 7.19021 22.7351 7.16171 22.7347H2.50842C2.56457 22.8812 2.60137 23.0345 2.61791 23.1906C2.6234 23.2438 2.64847 23.2931 2.68825 23.3289C2.72804 23.3647 2.77971 23.3844 2.83322 23.3843H7.18614C7.21463 23.3847 7.2429 23.3792 7.26921 23.3683C7.29553 23.3574 7.31934 23.3412 7.33919 23.3208Z" fill="#FFD064"/>
<path fill-rule="evenodd" clip-rule="evenodd" d="M4.17859 15.6387C4.07084 15.6387 3.96751 15.5959 3.89133 15.5197C3.81514 15.4435 3.77234 15.3402 3.77234 15.2324C3.77234 15.1247 3.81514 15.0213 3.89133 14.9452C3.96751 14.869 4.07084 14.8262 4.17859 14.8262H6.3439C6.45165 14.8262 6.55498 14.869 6.63116 14.9452C6.70735 15.0213 6.75015 15.1247 6.75015 15.2324C6.75015 15.3402 6.70735 15.4435 6.63116 15.5197C6.55498 15.5959 6.45165 15.6387 6.3439 15.6387H4.17859ZM4.17859 20.7272C4.07084 20.7272 3.96751 20.6844 3.89133 20.6082C3.81514 20.532 3.77234 20.4287 3.77234 20.321C3.77234 20.2132 3.81514 20.1099 3.89133 20.0337C3.96751 19.9575 4.07084 19.9147 4.17859 19.9147H6.3439C6.45165 19.9147 6.55498 19.9575 6.63116 20.0337C6.70735 20.1099 6.75015 20.2132 6.75015 20.321C6.75015 20.4287 6.70735 20.532 6.63116 20.6082C6.55498 20.6844 6.45165 20.7272 6.3439 20.7272H4.17859ZM4.17859 19.0311C4.07084 19.0311 3.96751 18.9883 3.89133 18.9121C3.81514 18.8359 3.77234 18.7326 3.77234 18.6248C3.77234 18.5171 3.81514 18.4137 3.89133 18.3375C3.96751 18.2614 4.07084 18.2186 4.17859 18.2186H6.3439C6.45165 18.2186 6.55498 18.2614 6.63116 18.3375C6.70735 18.4137 6.75015 18.5171 6.75015 18.6248C6.75015 18.7326 6.70735 18.8359 6.63116 18.9121C6.55498 18.9883 6.45165 19.0311 6.3439 19.0311H4.17859ZM4.17859 17.3349C4.07084 17.3349 3.96751 17.2921 3.89133 17.2159C3.81514 17.1397 3.77234 17.0364 3.77234 16.9286C3.77234 16.8209 3.81514 16.7175 3.89133 16.6414C3.96751 16.5652 4.07084 16.5224 4.17859 16.5224H6.3439C6.45165 16.5224 6.55498 16.5652 6.63116 16.6414C6.70735 16.7175 6.75015 16.8209 6.75015 16.9286C6.75015 17.0364 6.70735 17.1397 6.63116 17.2159C6.55498 17.2921 6.45165 17.3349 6.3439 17.3349H4.17859Z" fill="#FFC338"/>
</svg>
