<svg width="22" height="22" viewBox="0 0 22 22" fill="none" xmlns="http://www.w3.org/2000/svg">
<path d="M18.4242 3.575C16.9557 2.10666 15.0848 1.10674 13.0481 0.701681C11.0113 0.296623 8.90014 0.504621 6.98158 1.29937C5.06301 2.09412 3.4232 3.43994 2.26949 5.16663C1.11579 6.89332 0.5 8.92335 0.5 11C0.5 13.0767 1.11579 15.1067 2.26949 16.8334C3.4232 18.5601 5.06301 19.9059 6.98158 20.7006C8.90014 21.4954 11.0113 21.7034 13.0481 21.2983C15.0848 20.8933 16.9557 19.8933 18.4242 18.425C19.3994 17.45 20.1729 16.2924 20.7006 15.0184C21.2284 13.7444 21.5 12.379 21.5 11C21.5 9.62104 21.2284 8.25557 20.7006 6.98158C20.1729 5.70759 19.3994 4.55003 18.4242 3.575ZM14.7492 13.655C14.8242 13.7252 14.8839 13.8099 14.9247 13.9041C14.9656 13.9983 14.9867 14.0999 14.9867 14.2025C14.9867 14.3052 14.9656 14.4067 14.9247 14.5009C14.8839 14.5951 14.8242 14.6798 14.7492 14.75C14.6792 14.8195 14.596 14.8745 14.5047 14.9118C14.4133 14.9492 14.3154 14.9681 14.2167 14.9675C14.02 14.9667 13.8314 14.8886 13.6917 14.75L10.9992 12.0575L8.34424 14.75C8.20455 14.8886 8.016 14.9667 7.81924 14.9675C7.72054 14.9681 7.62269 14.9492 7.53131 14.9118C7.43993 14.8745 7.35682 14.8195 7.28674 14.75C7.14705 14.6095 7.06865 14.4194 7.06865 14.2213C7.06865 14.0231 7.14705 13.833 7.28674 13.6925L9.94174 11L7.28674 8.34501C7.16387 8.20153 7.09967 8.01697 7.10696 7.82821C7.11425 7.63946 7.1925 7.4604 7.32607 7.32683C7.45964 7.19326 7.6387 7.11501 7.82745 7.10772C8.01621 7.10043 8.20077 7.16464 8.34424 7.28751L10.9992 9.9425L13.6542 7.28751C13.7237 7.21561 13.8066 7.15809 13.8983 7.11823C13.9899 7.07838 14.0885 7.05697 14.1885 7.05523C14.2884 7.05349 14.3877 7.07145 14.4807 7.10809C14.5737 7.14472 14.6586 7.19932 14.7305 7.26875C14.8024 7.33819 14.8599 7.42111 14.8998 7.51277C14.9396 7.60444 14.961 7.70306 14.9628 7.803C14.9645 7.90294 14.9465 8.00224 14.9099 8.09524C14.8733 8.18823 14.8187 8.27311 14.7492 8.34501L12.0567 11L14.7492 13.655Z" fill="#EF0303"/>
</svg>
