<svg width="30" height="30" viewBox="0 0 30 30" fill="none" xmlns="http://www.w3.org/2000/svg">
<g clip-path="url(#clip0_1145_60390)">
<path d="M15 0C23.2843 0 30 6.71573 30 15C30 23.2843 23.2843 30 15 30C6.71573 30 0 23.2843 0 15C0 6.71573 6.71573 0 15 0Z" fill="#FF9800"/>
<path d="M11.2501 6.81641L10.5682 8.18004H12.6137C13.8086 8.1405 14.9685 8.72679 15.5701 9.68352C15.8107 10.0662 15.952 10.483 16.0028 10.9073H11.2501L10.5682 12.271H15.8338C15.769 12.4434 15.693 12.6129 15.594 12.7756C15.0073 13.7401 13.9024 14.3397 12.707 14.3164H10.5682V15.68C12.2317 18.1231 13.8851 20.6834 15.5261 23.18H17.0721L12.1423 15.6814C14.6591 15.6814 15.9752 14.773 16.7592 13.4841C16.992 13.1013 17.1541 12.6916 17.2573 12.271H18.7501L19.4319 10.9073H17.3638C17.3092 10.2283 17.1024 9.55848 16.7246 8.95773C16.5442 8.67082 16.3276 8.41507 16.092 8.18004H18.7501L19.4319 6.81641H11.2501Z" fill="white"/>
</g>
<defs>
<clipPath id="clip0_1145_60390">
<rect width="30" height="30" fill="white"/>
</clipPath>
</defs>
</svg>
