<svg width="26" height="16" viewBox="0 0 26 16" fill="none" xmlns="http://www.w3.org/2000/svg">
<g clip-path="url(#clip0_1145_45442)">
<path opacity="0.07" d="M23.3289 0H1.99248C0.858979 0 -0.0078125 0.866667 -0.0078125 2V14C-0.0078125 15.1333 0.925656 16 1.99248 16H23.3289C24.4624 16 25.3292 15.1333 25.3292 14V2C25.3292 0.866667 24.3957 0 23.3289 0Z" fill="#24292A"/>
<path d="M23.3306 0.666016C24.064 0.666016 24.6641 1.26602 24.6641 1.99935V13.9993C24.6641 14.7327 24.064 15.3327 23.3306 15.3327H1.99417C1.26073 15.3327 0.660645 14.7327 0.660645 13.9993V1.99935C0.660645 1.26602 1.26073 0.666016 1.99417 0.666016H23.3306Z" fill="white"/>
<path d="M2.36908 4.77336H1.32227V8.44003H2.36908C2.9225 8.44003 3.32255 8.30669 3.67594 8.02003C4.096 7.67336 4.3427 7.15336 4.3427 6.61336C4.33603 5.52669 3.52925 4.77336 2.36908 4.77336ZM3.2092 7.53336C2.98251 7.73336 2.6958 7.82669 2.22906 7.82669H2.0357V5.40003H2.22906C2.68913 5.40003 2.96917 5.48003 3.2092 5.69336C3.45591 5.91336 3.60259 6.25336 3.60259 6.60669C3.60259 6.96003 3.45591 7.31336 3.2092 7.53336ZM4.66942 4.77336H5.38285V8.44003H4.66942V4.77336ZM7.12977 6.18003C6.70304 6.02003 6.57636 5.91336 6.57636 5.72003C6.57636 5.48669 6.80306 5.31336 7.10977 5.31336C7.32313 5.31336 7.50316 5.40003 7.68318 5.61336L8.05657 5.12669C7.74986 4.86003 7.38314 4.72003 6.97642 4.72003C6.32966 4.72003 5.82958 5.17336 5.82958 5.77336C5.82958 6.28003 6.06295 6.54003 6.72971 6.78003C7.00975 6.88003 7.14977 6.94669 7.22312 6.98669C7.36314 7.08003 7.43648 7.21336 7.43648 7.36669C7.43648 7.66669 7.20311 7.88669 6.88307 7.88669C6.54302 7.88669 6.26965 7.71336 6.10296 7.40003L5.64289 7.84669C5.9696 8.33336 6.36966 8.54669 6.90974 8.54669C7.64985 8.54669 8.17659 8.05336 8.17659 7.34003C8.18992 6.74669 7.94322 6.48003 7.12977 6.18003ZM8.40996 6.61336C8.40996 7.69336 9.25674 8.52669 10.3436 8.52669C10.6503 8.52669 10.917 8.46669 11.237 8.31336V7.47336C10.9503 7.76003 10.697 7.87336 10.3769 7.87336C9.6568 7.87336 9.14339 7.35336 9.14339 6.60669C9.14339 5.90003 9.67014 5.34669 10.3436 5.34669C10.6836 5.34669 10.9437 5.46669 11.237 5.76003V4.92003C10.9237 4.76003 10.6636 4.69336 10.3569 4.69336C9.28342 4.69336 8.40996 5.54669 8.40996 6.61336ZM16.9179 7.24003L15.9377 4.77336H15.1576L16.7112 8.53336H17.0979L18.6781 4.77336H17.9047L16.9179 7.24003ZM19.0048 8.44003H21.0318V7.82003H19.7183V6.83336H20.9851V6.21336H19.7183V5.40003H21.0318V4.77336H19.0048V8.44003ZM23.8655 5.86003C23.8655 5.17336 23.3921 4.78003 22.5653 4.78003H21.5052V8.44669H22.2186V6.97336H22.312L23.2988 8.44669H24.1789L23.0254 6.90003C23.5655 6.78669 23.8655 6.42003 23.8655 5.86003ZM22.4253 6.46669H22.2186V5.35336H22.4386C22.8854 5.35336 23.1254 5.54003 23.1254 5.90003C23.1254 6.26669 22.8854 6.46669 22.4253 6.46669Z" fill="#231F20"/>
<path d="M13.4354 8.57402C13.9537 8.57402 14.4507 8.36815 14.8171 8.0017C15.1836 7.63526 15.3894 7.13825 15.3894 6.62002C15.3894 6.10178 15.1836 5.60477 14.8171 5.23833C14.4507 4.87188 13.9537 4.66602 13.4354 4.66602C12.9172 4.66602 12.4202 4.87188 12.0538 5.23833C11.6873 5.60477 11.4814 6.10178 11.4814 6.62002C11.4814 7.13825 11.6873 7.63526 12.0538 8.0017C12.4202 8.36815 12.9172 8.57402 13.4354 8.57402Z" fill="url(#paint0_linear_1145_45442)"/>
<path opacity="0.65" d="M13.4354 8.57402C13.9537 8.57402 14.4507 8.36815 14.8171 8.0017C15.1836 7.63526 15.3894 7.13825 15.3894 6.62002C15.3894 6.10178 15.1836 5.60477 14.8171 5.23833C14.4507 4.87188 13.9537 4.66602 13.4354 4.66602C12.9172 4.66602 12.4202 4.87188 12.0538 5.23833C11.6873 5.60477 11.4814 6.10178 11.4814 6.62002C11.4814 7.13825 11.6873 7.63526 12.0538 8.0017C12.4202 8.36815 12.9172 8.57402 13.4354 8.57402Z" fill="url(#paint1_linear_1145_45442)"/>
<path d="M24.3766 5.0043C24.3766 4.93763 24.3299 4.9043 24.2566 4.9043H24.1499V5.2243H24.2299V5.09763L24.3232 5.2243H24.4166L24.3099 5.09096C24.3499 5.0843 24.3766 5.05096 24.3766 5.0043ZM24.2432 5.05096H24.2299V4.9643H24.2432C24.2832 4.9643 24.3032 4.97763 24.3032 5.0043C24.3032 5.03763 24.2832 5.05096 24.2432 5.05096Z" fill="#231F20"/>
<path d="M24.2663 4.7832C24.113 4.7832 23.9863 4.90987 23.9863 5.0632C23.9863 5.21654 24.113 5.3432 24.2663 5.3432C24.4197 5.3432 24.5463 5.21654 24.5463 5.0632C24.5463 4.90987 24.4197 4.7832 24.2663 4.7832ZM24.2663 5.29654C24.1463 5.29654 24.0397 5.19654 24.0397 5.0632C24.0397 4.93654 24.1397 4.82987 24.2663 4.82987C24.3863 4.82987 24.4863 4.93654 24.4863 5.0632C24.4863 5.18987 24.3863 5.29654 24.2663 5.29654Z" fill="#231F20"/>
<path d="M24.6614 8.65625C24.6614 8.65625 18.0538 13.2489 5.97607 15.3336H23.3272C23.6791 15.3336 24.0167 15.1946 24.2664 14.9468C24.5162 14.6991 24.658 14.3627 24.6608 14.0109L24.6768 11.9976L24.6614 8.65692V8.65625Z" fill="#F48120"/>
</g>
<defs>
<linearGradient id="paint0_linear_1145_45442" x1="14.4334" y1="8.18402" x2="13.0834" y2="6.07002" gradientUnits="userSpaceOnUse">
<stop stop-color="#F89F20"/>
<stop offset="0.25" stop-color="#F79A20"/>
<stop offset="0.533" stop-color="#F68D20"/>
<stop offset="0.62" stop-color="#F58720"/>
<stop offset="0.723" stop-color="#F48120"/>
<stop offset="1" stop-color="#F37521"/>
</linearGradient>
<linearGradient id="paint1_linear_1145_45442" x1="14.2208" y1="8.15535" x2="12.2474" y2="4.29802" gradientUnits="userSpaceOnUse">
<stop stop-color="#F58720"/>
<stop offset="0.359" stop-color="#E16F27"/>
<stop offset="0.703" stop-color="#D4602C"/>
<stop offset="0.982" stop-color="#D05B2E"/>
</linearGradient>
<clipPath id="clip0_1145_45442">
<rect width="25.337" height="16" fill="white" transform="translate(-0.0078125)"/>
</clipPath>
</defs>
</svg>
