<svg width="14" height="12" viewBox="0 0 14 12" fill="none" xmlns="http://www.w3.org/2000/svg">
<path d="M11.9855 3.16322H11.7815C11.6066 3.16322 11.4648 3.30499 11.4648 3.47989C11.4648 3.65479 11.6066 3.79656 11.7815 3.79656H11.9855C12.2946 3.79656 12.546 4.04725 12.546 4.35546V4.44803C12.546 4.63866 12.4504 4.81397 12.2901 4.91698C12.1431 5.01154 12.1004 5.20747 12.195 5.3546C12.2896 5.50166 12.4857 5.5442 12.6326 5.44971C12.975 5.22967 13.1794 4.8552 13.1794 4.44803V4.35546C13.1794 3.69808 12.6438 3.16322 11.9855 3.16322Z" fill="url(#paint0_linear_1145_58689)"/>
<path d="M11.463 1.64456H11.3108C11.1359 1.64456 10.9941 1.78633 10.9941 1.96123C10.9941 2.13612 11.1359 2.27789 11.3108 2.27789H11.463C11.6132 2.27789 11.7525 2.33555 11.8551 2.44028C11.9639 2.54797 12.0219 2.68816 12.0219 2.83838C12.0219 2.99163 11.9589 3.13828 11.849 3.24067C11.721 3.35991 11.7139 3.5603 11.8331 3.68826C11.9524 3.81621 12.1527 3.82329 12.2807 3.70413C12.5187 3.4823 12.6553 3.1668 12.6553 2.83838C12.6553 2.51773 12.5305 2.21769 12.304 1.99353C12.0847 1.7697 11.7848 1.64456 11.463 1.64456Z" fill="url(#paint1_linear_1145_58689)"/>
<path d="M3.22168 0.127141H1.27687C0.76586 0.127141 0.350098 0.542904 0.350098 1.05398V6.54198C0.350098 7.05299 0.76586 7.46875 1.27687 7.46875H3.22168C3.73269 7.46875 4.14845 7.05299 4.14845 6.54198V1.05398C4.14845 0.542904 3.73269 0.127141 3.22168 0.127141ZM1.27687 6.83542C1.1151 6.83542 0.983431 6.70375 0.983431 6.54198V1.05398C0.983431 0.892143 1.1151 0.760475 1.27687 0.760475H3.22168C3.38345 0.760475 3.51512 0.892143 3.51512 1.05398V6.54198C3.51512 6.70375 3.38345 6.83542 3.22168 6.83542H1.27687Z" fill="url(#paint2_linear_1145_58689)"/>
<path d="M12.4568 4.87484H12.1824C12.0075 4.87484 11.8657 5.01661 11.8657 5.19151C11.8657 5.36641 12.0075 5.50818 12.1824 5.50818H12.4568C12.7657 5.50818 13.017 5.75887 13.017 6.06695V6.27668C13.017 6.58476 12.7657 6.83539 12.4568 6.83539L9.3956 6.83683C9.29046 6.8369 9.19225 6.88906 9.13336 6.9762C9.07453 7.06327 9.06271 7.17391 9.10188 7.27142C9.31925 7.81308 9.52727 8.51122 9.68746 9.23712C9.71989 9.38356 9.73632 9.5353 9.73632 9.6882C9.73632 10.0302 9.65268 10.3688 9.49456 10.6673C9.25211 11.1279 8.71883 11.3425 8.22638 11.178L8.11732 11.1431C7.99781 11.1032 7.91514 10.9886 7.91514 10.8591V9.94859C7.91514 9.63714 7.80807 9.33154 7.61373 9.08813L5.93597 6.95757C5.91261 6.92789 5.88416 6.90266 5.85186 6.88301L5.14678 6.45371C5.09716 6.42354 5.04019 6.40753 4.98213 6.40753H3.9153C3.7404 6.40753 3.59863 6.5493 3.59863 6.7242C3.59863 6.89909 3.7404 7.04086 3.9153 7.04086H4.89334L5.47376 7.39429L7.1175 9.48163C7.22394 9.61495 7.28181 9.78015 7.28181 9.94859V10.8591C7.28181 11.2616 7.53848 11.6177 7.9205 11.745L8.02963 11.78C8.81463 12.0416 9.66773 11.6986 10.0546 10.963C10.2605 10.5744 10.3697 10.1332 10.3697 9.6882C10.3697 9.48932 10.3482 9.29155 10.3059 9.10043C10.1783 8.52235 10.0208 7.95891 9.85136 7.46996L12.457 7.46872C13.1149 7.46872 13.6503 6.934 13.6503 6.27668V6.06695C13.6503 5.40963 13.1149 4.87484 12.4568 4.87484Z" fill="url(#paint3_linear_1145_58689)"/>
<path d="M11.0832 0.129346H5.71256C5.65628 0.129346 5.60103 0.144326 5.55251 0.172777L4.89622 0.557203H3.9153C3.7404 0.557203 3.59863 0.698974 3.59863 0.873869C3.59863 1.04876 3.7404 1.19054 3.9153 1.19054H4.98213C5.03841 1.19054 5.09366 1.17555 5.14218 1.1471L5.79846 0.762678H11.0832C11.2243 0.762678 11.364 0.820404 11.4666 0.921149C11.5646 1.02107 11.6209 1.15673 11.6209 1.29891C11.6209 1.46487 11.5486 1.61667 11.4227 1.71543C11.285 1.82332 11.2609 2.02234 11.3689 2.15998C11.4769 2.29756 11.676 2.32168 11.8134 2.21379C12.0935 1.99423 12.2542 1.66072 12.2542 1.29891C12.2542 0.989733 12.1335 0.696569 11.9144 0.473294C11.6902 0.253181 11.3887 0.129346 11.0832 0.129346Z" fill="url(#paint4_linear_1145_58689)"/>
<path d="M11.6194 1.64437C11.5364 1.64437 11.4547 1.67811 11.3956 1.73721C11.3365 1.79638 11.3027 1.87657 11.3027 1.96103C11.3027 2.04405 11.3365 2.12569 11.3956 2.18479C11.5138 2.30299 11.7263 2.30299 11.8432 2.18479C11.9023 2.12569 11.9361 2.04405 11.9361 1.96103C11.9361 1.87657 11.9023 1.79493 11.8432 1.73721C11.7855 1.67811 11.7039 1.64437 11.6194 1.64437Z" fill="url(#paint5_linear_1145_58689)"/>
<defs>
<linearGradient id="paint0_linear_1145_58689" x1="13.2719" y1="7.09216" x2="11.172" y2="6.77318" gradientUnits="userSpaceOnUse">
<stop stop-color="#FEC12D"/>
<stop offset="1" stop-color="#FF552C"/>
</linearGradient>
<linearGradient id="paint1_linear_1145_58689" x1="12.7449" y1="5.25021" x2="10.7156" y2="4.92479" gradientUnits="userSpaceOnUse">
<stop stop-color="#FEC12D"/>
<stop offset="1" stop-color="#FF552C"/>
</linearGradient>
<linearGradient id="paint2_linear_1145_58689" x1="4.35342" y1="12.4709" x2="-0.352062" y2="11.9669" gradientUnits="userSpaceOnUse">
<stop stop-color="#FEC12D"/>
<stop offset="1" stop-color="#FF552C"/>
</linearGradient>
<linearGradient id="paint3_linear_1145_58689" x1="14.1927" y1="16.6314" x2="2.62243" y2="13.188" gradientUnits="userSpaceOnUse">
<stop stop-color="#FEC12D"/>
<stop offset="1" stop-color="#FF552C"/>
</linearGradient>
<linearGradient id="paint4_linear_1145_58689" x1="12.7213" y1="3.74744" x2="6.31672" y2="-1.58581" gradientUnits="userSpaceOnUse">
<stop stop-color="#FEC12D"/>
<stop offset="1" stop-color="#FF552C"/>
</linearGradient>
<linearGradient id="paint5_linear_1145_58689" x1="11.9702" y1="2.70205" x2="11.2097" y2="2.54353" gradientUnits="userSpaceOnUse">
<stop stop-color="#FEC12D"/>
<stop offset="1" stop-color="#FF552C"/>
</linearGradient>
</defs>
</svg>
