<svg width="20" height="20" viewBox="0 0 20 20" fill="none" xmlns="http://www.w3.org/2000/svg">
<g clip-path="url(#clip0_1145_68657)">
<path d="M14.298 0H0.585938C0.262344 0 0 0.262344 0 0.585938V19.4141C0 19.7377 0.262344 20 0.585938 20H14.298C14.6216 20 14.884 19.7377 14.884 19.4141V0.585938C14.884 0.262344 14.6217 0 14.298 0ZM6.15145 11.4705L4.37164 13.2502C4.31723 13.3046 4.25264 13.3478 4.18155 13.3772C4.11047 13.4067 4.03428 13.4218 3.95734 13.4218C3.88039 13.4218 3.80421 13.4067 3.73312 13.3772C3.66204 13.3478 3.59745 13.3046 3.54305 13.2502L2.70426 12.4114C2.47543 12.1826 2.47543 11.8116 2.70426 11.5828C2.93309 11.3539 3.3041 11.3539 3.53289 11.5828L3.95734 12.0072L5.32281 10.6418C5.5516 10.413 5.92262 10.4129 6.15145 10.6418C6.38027 10.8706 6.38027 11.2416 6.15145 11.4705ZM6.15145 7.91559L4.37164 9.69539C4.31723 9.74979 4.25264 9.79295 4.18155 9.82239C4.11047 9.85183 4.03428 9.86698 3.95734 9.86698C3.88039 9.86698 3.80421 9.85182 3.73312 9.82237C3.66204 9.79292 3.59745 9.74976 3.54305 9.69535L2.70426 8.85656C2.47543 8.62773 2.47543 8.25676 2.70426 8.02793C2.93309 7.7991 3.3041 7.79914 3.53289 8.02793L3.95734 8.45238L5.32281 7.08691C5.5516 6.85809 5.92262 6.85809 6.15145 7.08691C6.38027 7.31574 6.38027 7.68676 6.15145 7.91559ZM6.15145 4.3607L4.37164 6.14051C4.31723 6.19491 4.25264 6.23807 4.18155 6.26751C4.11047 6.29695 4.03428 6.3121 3.95734 6.3121C3.88039 6.31209 3.80421 6.29694 3.73312 6.26749C3.66204 6.23804 3.59745 6.19488 3.54305 6.14047L2.70426 5.30168C2.47543 5.07285 2.47543 4.70188 2.70426 4.47305C2.93309 4.24422 3.3041 4.24426 3.53289 4.47305L3.95734 4.8975L5.32281 3.53203C5.5516 3.3032 5.92262 3.3032 6.15145 3.53203C6.38027 3.7609 6.38027 4.13188 6.15145 4.3607ZM11.7359 16.4132H8.01488C7.69129 16.4132 7.42895 16.1509 7.42895 15.8273C7.42895 15.5037 7.69129 15.2413 8.01488 15.2413H11.7359C12.0595 15.2413 12.3219 15.5037 12.3219 15.8273C12.3219 16.1509 12.0596 16.4132 11.7359 16.4132ZM11.7359 12.7222H8.01488C7.69129 12.7222 7.42895 12.4598 7.42895 12.1362C7.42895 11.8127 7.69129 11.5503 8.01488 11.5503H11.7359C12.0595 11.5503 12.3219 11.8127 12.3219 12.1362C12.3219 12.4598 12.0596 12.7222 11.7359 12.7222ZM11.7359 9.16734H8.01488C7.69129 9.16734 7.42895 8.905 7.42895 8.58141C7.42895 8.25781 7.69129 7.99547 8.01488 7.99547H11.7359C12.0595 7.99547 12.3219 8.25781 12.3219 8.58141C12.3219 8.905 12.0596 9.16734 11.7359 9.16734ZM11.7359 5.61246H8.01488C7.69129 5.61246 7.42895 5.35012 7.42895 5.02652C7.42895 4.70293 7.69129 4.44059 8.01488 4.44059H11.7359C12.0595 4.44059 12.3219 4.70293 12.3219 5.02652C12.3219 5.35012 12.0596 5.61246 11.7359 5.61246ZM20 1.98871C20 0.892148 19.1079 0 18.0113 0C16.9147 0 16.0225 0.892148 16.0225 1.98871V3.70727H20V1.98871ZM16.0575 16.1583C16.0051 16.3029 16.0118 16.4624 16.0759 16.6021L17.4788 19.6585C17.5255 19.7604 17.6006 19.8468 17.695 19.9073C17.7894 19.9678 17.8991 20 18.0113 20C18.1234 20 18.2332 19.9678 18.3276 19.9073C18.422 19.8468 18.4971 19.7604 18.5438 19.6585L19.9466 16.6021C20.0108 16.4624 20.0174 16.3029 19.965 16.1583L19.605 15.1636H16.4175L16.0575 16.1583ZM20 13.4058V4.87914H16.0225V13.4058C16.0225 13.7294 16.2849 13.9918 16.6085 13.9918H19.4141C19.7377 13.9918 20 13.7294 20 13.4058Z" fill="#1B1B1B"/>
</g>
<defs>
<clipPath id="clip0_1145_68657">
<rect width="20" height="20" fill="white"/>
</clipPath>
</defs>
</svg>
