<svg width="100" height="20" viewBox="0 0 100 20" fill="none" xmlns="http://www.w3.org/2000/svg">
<path d="M14.9317 11.932C14.7159 12.1412 14.6167 12.4437 14.6659 12.7404L15.4067 16.8404C15.4692 17.1879 15.3226 17.5395 15.0317 17.7404C14.7467 17.9487 14.3676 17.9737 14.0567 17.807L10.3659 15.882C10.2376 15.8137 10.0951 15.777 9.94924 15.7729H9.72341C9.64508 15.7845 9.56841 15.8095 9.49841 15.8479L5.80675 17.782C5.62425 17.8737 5.41758 17.9062 5.21508 17.8737C4.72175 17.7804 4.39258 17.3104 4.47341 16.8145L5.21508 12.7145C5.26425 12.4154 5.16508 12.1112 4.94925 11.8987L1.94008 8.98203C1.68841 8.73786 1.60091 8.3712 1.71591 8.04036C1.82758 7.71036 2.11258 7.46953 2.45675 7.41536L6.59841 6.81453C6.91341 6.78203 7.19008 6.59036 7.33175 6.30703L9.15674 2.56536C9.20008 2.48203 9.25591 2.40536 9.32341 2.34036L9.39841 2.28203C9.43758 2.2387 9.48258 2.20286 9.53258 2.1737L9.62341 2.14036L9.76508 2.08203H10.1159C10.4292 2.11453 10.7051 2.30203 10.8492 2.58203L12.6984 6.30703C12.8317 6.57953 13.0909 6.7687 13.3901 6.81453L17.5317 7.41536C17.8817 7.46536 18.1742 7.70703 18.2901 8.04036C18.3992 8.37453 18.3051 8.7412 18.0484 8.98203L14.9317 11.932Z" fill="#FFE605"/>
<path d="M34.9317 11.932C34.7159 12.1412 34.6167 12.4437 34.6659 12.7404L35.4067 16.8404C35.4692 17.1879 35.3226 17.5395 35.0317 17.7404C34.7467 17.9487 34.3676 17.9737 34.0567 17.807L30.3659 15.882C30.2376 15.8137 30.0951 15.777 29.9492 15.7729H29.7234C29.6451 15.7845 29.5684 15.8095 29.4984 15.8479L25.8067 17.782C25.6242 17.8737 25.4176 17.9062 25.2151 17.8737C24.7217 17.7804 24.3926 17.3104 24.4734 16.8145L25.2151 12.7145C25.2642 12.4154 25.1651 12.1112 24.9492 11.8987L21.9401 8.98203C21.6884 8.73786 21.6009 8.3712 21.7159 8.04036C21.8276 7.71036 22.1126 7.46953 22.4567 7.41536L26.5984 6.81453C26.9134 6.78203 27.1901 6.59036 27.3317 6.30703L29.1567 2.56536C29.2001 2.48203 29.2559 2.40536 29.3234 2.34036L29.3984 2.28203C29.4376 2.2387 29.4826 2.20286 29.5326 2.1737L29.6234 2.14036L29.7651 2.08203H30.1159C30.4292 2.11453 30.7051 2.30203 30.8492 2.58203L32.6984 6.30703C32.8317 6.57953 33.0909 6.7687 33.3901 6.81453L37.5317 7.41536C37.8817 7.46536 38.1742 7.70703 38.2901 8.04036C38.3992 8.37453 38.3051 8.7412 38.0484 8.98203L34.9317 11.932Z" fill="#FFE605"/>
<path d="M54.9317 11.932C54.7159 12.1412 54.6167 12.4437 54.6659 12.7404L55.4067 16.8404C55.4692 17.1879 55.3226 17.5395 55.0317 17.7404C54.7467 17.9487 54.3676 17.9737 54.0567 17.807L50.3659 15.882C50.2376 15.8137 50.0951 15.777 49.9492 15.7729H49.7234C49.6451 15.7845 49.5684 15.8095 49.4984 15.8479L45.8067 17.782C45.6242 17.8737 45.4176 17.9062 45.2151 17.8737C44.7217 17.7804 44.3926 17.3104 44.4734 16.8145L45.2151 12.7145C45.2642 12.4154 45.1651 12.1112 44.9492 11.8987L41.9401 8.98203C41.6884 8.73786 41.6009 8.3712 41.7159 8.04036C41.8276 7.71036 42.1126 7.46953 42.4567 7.41536L46.5984 6.81453C46.9134 6.78203 47.1901 6.59036 47.3317 6.30703L49.1567 2.56536C49.2001 2.48203 49.2559 2.40536 49.3234 2.34036L49.3984 2.28203C49.4376 2.2387 49.4826 2.20286 49.5326 2.1737L49.6234 2.14036L49.7651 2.08203H50.1159C50.4292 2.11453 50.7051 2.30203 50.8492 2.58203L52.6984 6.30703C52.8317 6.57953 53.0909 6.7687 53.3901 6.81453L57.5317 7.41536C57.8817 7.46536 58.1742 7.70703 58.2901 8.04036C58.3992 8.37453 58.3051 8.7412 58.0484 8.98203L54.9317 11.932Z" fill="#FFE605"/>
<path d="M74.9317 11.932C74.7159 12.1412 74.6167 12.4437 74.6659 12.7404L75.4067 16.8404C75.4692 17.1879 75.3226 17.5395 75.0317 17.7404C74.7467 17.9487 74.3676 17.9737 74.0567 17.807L70.3659 15.882C70.2376 15.8137 70.0951 15.777 69.9492 15.7729H69.7234C69.6451 15.7845 69.5684 15.8095 69.4984 15.8479L65.8067 17.782C65.6242 17.8737 65.4176 17.9062 65.2151 17.8737C64.7217 17.7804 64.3926 17.3104 64.4734 16.8145L65.2151 12.7145C65.2642 12.4154 65.1651 12.1112 64.9492 11.8987L61.9401 8.98203C61.6884 8.73786 61.6009 8.3712 61.7159 8.04036C61.8276 7.71036 62.1126 7.46953 62.4567 7.41536L66.5984 6.81453C66.9134 6.78203 67.1901 6.59036 67.3317 6.30703L69.1567 2.56536C69.2001 2.48203 69.2559 2.40536 69.3234 2.34036L69.3984 2.28203C69.4376 2.2387 69.4826 2.20286 69.5326 2.1737L69.6234 2.14036L69.7651 2.08203H70.1159C70.4292 2.11453 70.7051 2.30203 70.8492 2.58203L72.6984 6.30703C72.8317 6.57953 73.0909 6.7687 73.3901 6.81453L77.5317 7.41536C77.8817 7.46536 78.1742 7.70703 78.2901 8.04036C78.3992 8.37453 78.3051 8.7412 78.0484 8.98203L74.9317 11.932Z" fill="#FFE605"/>
<path d="M94.9317 11.932C94.7159 12.1412 94.6167 12.4437 94.6659 12.7404L95.4067 16.8404C95.4692 17.1879 95.3226 17.5395 95.0317 17.7404C94.7467 17.9487 94.3676 17.9737 94.0567 17.807L90.3659 15.882C90.2376 15.8137 90.0951 15.777 89.9492 15.7729H89.7234C89.6451 15.7845 89.5684 15.8095 89.4984 15.8479L85.8067 17.782C85.6242 17.8737 85.4176 17.9062 85.2151 17.8737C84.7217 17.7804 84.3926 17.3104 84.4734 16.8145L85.2151 12.7145C85.2642 12.4154 85.1651 12.1112 84.9492 11.8987L81.9401 8.98203C81.6884 8.73786 81.6009 8.3712 81.7159 8.04036C81.8276 7.71036 82.1126 7.46953 82.4567 7.41536L86.5984 6.81453C86.9134 6.78203 87.1901 6.59036 87.3317 6.30703L89.1567 2.56536C89.2001 2.48203 89.2559 2.40536 89.3234 2.34036L89.3984 2.28203C89.4376 2.2387 89.4826 2.20286 89.5326 2.1737L89.6234 2.14036L89.7651 2.08203H90.1159C90.4292 2.11453 90.7051 2.30203 90.8492 2.58203L92.6984 6.30703C92.8317 6.57953 93.0909 6.7687 93.3901 6.81453L97.5317 7.41536C97.8817 7.46536 98.1742 7.70703 98.2901 8.04036C98.3992 8.37453 98.3051 8.7412 98.0484 8.98203L94.9317 11.932Z" fill="#FFE605"/>
</svg>
