<svg width="24" height="24" viewBox="0 0 24 24" fill="none" xmlns="http://www.w3.org/2000/svg">
<g clip-path="url(#clip0_1145_50155)">
<path d="M15.7807 9.50834C17.3719 8.05761 19.5238 6.09556 19.7199 1.4082H21.1406V0.00195312H2.85938V1.4082H4.28011C4.47623 6.09556 6.62808 8.05761 8.2193 9.50834C9.28669 10.4815 9.89062 11.0772 9.89062 12.002C9.89062 12.9268 9.28669 13.5224 8.2193 14.4956C6.62808 15.9463 4.47623 17.9083 4.28011 22.5957H2.85938V24.002H21.1406V22.5957H19.7199C19.5238 17.9083 17.3719 15.9463 15.7807 14.4956C14.7133 13.5224 14.1094 12.9268 14.1094 12.002C14.1094 11.0772 14.7133 10.4815 15.7807 9.50834ZM11.2969 17.2725C11.0775 17.3177 10.8628 17.3835 10.6558 17.4691L6.34903 19.2513C7.05234 17.463 8.18513 16.4297 9.16673 15.5348C10.2622 14.536 11.2969 13.5927 11.2969 12.002V17.2725ZM14.8333 15.5348C15.8149 16.4297 16.9476 17.463 17.651 19.2512L13.3442 17.4691C13.1372 17.3835 12.9225 17.3176 12.7031 17.2724V12.002C12.7031 13.5927 13.7378 14.536 14.8333 15.5348ZM6.32433 4.68945C5.98434 3.80356 5.74955 2.73392 5.68809 1.4082H18.3119C18.2504 2.73392 18.0157 3.80356 17.6756 4.68945H6.32433Z" fill="#1B1B1B"/>
</g>
<defs>
<clipPath id="clip0_1145_50155">
<rect width="24" height="24" fill="white" transform="translate(0 0.00195312)"/>
</clipPath>
</defs>
</svg>
