<svg width="24" height="24" viewBox="0 0 24 24" fill="none" xmlns="http://www.w3.org/2000/svg">
<g clip-path="url(#clip0_1145_50149)">
<path d="M10.2088 7.57784L11.9999 6.63617L13.7911 7.57784C13.884 7.62668 13.9887 7.64856 14.0934 7.641C14.1981 7.63344 14.2986 7.59674 14.3835 7.53505C14.4684 7.47337 14.5344 7.38915 14.5739 7.29193C14.6135 7.19471 14.6251 7.08836 14.6073 6.98492L14.2651 4.99034L15.7143 3.57781C15.7895 3.50455 15.8426 3.41172 15.8678 3.30982C15.8929 3.20793 15.8891 3.10103 15.8567 3.00121C15.8242 2.90139 15.7645 2.81263 15.6843 2.74498C15.604 2.67732 15.5065 2.63347 15.4026 2.61837L13.4 2.32737L12.5044 0.512791C12.4579 0.418667 12.3861 0.339416 12.2969 0.284001C12.2078 0.228587 12.1049 0.199219 11.9999 0.199219C11.895 0.199219 11.7921 0.228587 11.703 0.284001C11.6138 0.339416 11.542 0.418667 11.4955 0.512791L10.5999 2.32737L8.59729 2.61837C8.49343 2.63347 8.39586 2.67732 8.31562 2.74498C8.23538 2.81263 8.17567 2.90139 8.14324 3.00121C8.11081 3.10103 8.10695 3.20793 8.13211 3.30982C8.15726 3.41172 8.21042 3.50455 8.28557 3.57781L9.73467 4.99034L9.39248 6.98492C9.37474 7.08836 9.38631 7.19471 9.42586 7.29193C9.46541 7.38915 9.53137 7.47337 9.61629 7.53505C9.7012 7.59674 9.80169 7.63344 9.90637 7.641C10.0111 7.64856 10.1158 7.62668 10.2087 7.57784H10.2088ZM23.5797 8.55148L21.9607 7.33742L22.0429 5.31537C22.0472 5.21047 22.022 5.10647 21.9703 5.01513C21.9185 4.92379 21.8422 4.84876 21.7501 4.79852C21.6579 4.74829 21.5535 4.72485 21.4487 4.73086C21.3438 4.73688 21.2428 4.7721 21.157 4.83256L19.5022 5.99717L17.6046 5.29404C17.5061 5.25759 17.3995 5.24939 17.2967 5.27038C17.1938 5.29138 17.0989 5.34072 17.0227 5.41283C16.9464 5.48494 16.8919 5.57695 16.8652 5.67845C16.8385 5.77994 16.8407 5.88689 16.8716 5.98718L17.4678 7.92106L16.2128 9.50857C16.1477 9.59091 16.1069 9.68981 16.0951 9.7941C16.0833 9.8984 16.1009 10.0039 16.1459 10.0987C16.1909 10.1935 16.2616 10.2739 16.3499 10.3306C16.4382 10.3874 16.5406 10.4183 16.6455 10.4199L18.6689 10.4504L19.7909 12.1346C19.8423 12.2117 19.9119 12.2749 19.9935 12.3186C20.0752 12.3623 20.1663 12.3852 20.2589 12.3852C20.2832 12.3852 20.3074 12.3837 20.3315 12.3806C20.4356 12.367 20.5338 12.3247 20.6151 12.2582C20.6964 12.1918 20.7574 12.1039 20.7914 12.0046L21.4457 10.0896L23.3941 9.54303C23.4952 9.51467 23.5863 9.45861 23.6571 9.38119C23.728 9.30376 23.7758 9.20805 23.7951 9.10489C23.8144 9.00173 23.8044 8.89522 23.7664 8.79741C23.7283 8.69961 23.6636 8.61445 23.5797 8.55148ZM7.35435 10.4199C7.4593 10.4183 7.56171 10.3874 7.65 10.3307C7.7383 10.2739 7.80895 10.1936 7.85397 10.0988C7.899 10.004 7.91659 9.89844 7.90478 9.79415C7.89296 9.68986 7.8522 9.59095 7.7871 9.50862L6.53207 7.9211L7.12828 5.98723C7.1592 5.88693 7.16144 5.77998 7.13475 5.67848C7.10806 5.57697 7.05351 5.48495 6.97725 5.41284C6.901 5.34072 6.80609 5.29137 6.70325 5.27038C6.60042 5.24938 6.49376 5.25758 6.39534 5.29404L4.4977 5.99717L2.84301 4.83256C2.75718 4.7721 2.65614 4.73688 2.55133 4.73086C2.44652 4.72485 2.34212 4.74829 2.24993 4.79852C2.15775 4.84876 2.08147 4.92379 2.02971 5.01513C1.97796 5.10647 1.95279 5.21047 1.95707 5.31537L2.03934 7.33742L0.420323 8.55148C0.336359 8.61445 0.271686 8.69965 0.233618 8.79746C0.19555 8.89527 0.185605 9.00177 0.204907 9.10494C0.22421 9.2081 0.27199 9.30381 0.342845 9.38123C0.413699 9.45866 0.504803 9.51472 0.605855 9.54307L2.55431 10.0897L3.20854 12.0047C3.24248 12.104 3.30353 12.1918 3.38479 12.2583C3.46604 12.3247 3.56426 12.3671 3.66835 12.3806C3.77243 12.3941 3.87822 12.3782 3.97375 12.3348C4.06929 12.2913 4.15076 12.222 4.20895 12.1347L5.33095 10.4504L7.35435 10.4199ZM18.9374 16.3144C19.1869 16.3143 19.4292 16.2315 19.6265 16.0787C19.8237 15.926 19.9646 15.7121 20.027 15.4706C19.9646 15.2291 19.8237 15.0152 19.6265 14.8625C19.4292 14.7098 19.1869 14.6269 18.9374 14.6269H14.8124V12.0487C14.8124 11.3474 14.8124 9.94915 12.9725 9.7706C12.9205 9.76572 12.8681 9.77175 12.8185 9.78832C12.769 9.80488 12.7235 9.83161 12.6849 9.86679C12.6463 9.90197 12.6154 9.94482 12.5943 9.99261C12.5733 10.0404 12.5624 10.0921 12.5624 10.1443V12.6926C12.5624 12.762 12.5432 12.83 12.5068 12.8891L11.4374 14.6269H11.4843L9.93745 15.6371V22.8632C10.1653 22.9952 10.4241 23.0647 10.6874 23.0644H18.1874C18.4369 23.0643 18.6792 22.9815 18.8765 22.8287C19.0737 22.676 19.2146 22.4621 19.277 22.2206C19.2146 21.9791 19.0737 21.7652 18.8765 21.6125C18.6792 21.4598 18.4369 21.3769 18.1874 21.3769H17.0624V20.8144H18.5624C18.8119 20.8143 19.0542 20.7315 19.2515 20.5787C19.4487 20.426 19.5896 20.2121 19.652 19.9706C19.5896 19.7291 19.4487 19.5152 19.2515 19.3625C19.0542 19.2098 18.8119 19.1269 18.5624 19.1269H17.0624V18.5644H18.9374C19.1869 18.5643 19.4292 18.4815 19.6265 18.3287C19.8237 18.176 19.9646 17.9621 20.027 17.7206C19.9646 17.4791 19.8237 17.2652 19.6265 17.1125C19.4292 16.9598 19.1869 16.8769 18.9374 16.8769H17.0624V16.3144H18.9374ZM8.81245 14.6269H5.06245C4.91326 14.6269 4.77019 14.6861 4.6647 14.7916C4.55921 14.8971 4.49995 15.0402 4.49995 15.1894V23.0644C4.49995 23.2135 4.55921 23.3566 4.6647 23.4621C4.77019 23.5676 4.91326 23.6269 5.06245 23.6269H8.81245C8.96163 23.6269 9.10471 23.5676 9.2102 23.4621C9.31568 23.3566 9.37495 23.2135 9.37495 23.0644V15.1894C9.37495 15.0402 9.31568 14.8971 9.2102 14.7916C9.10471 14.6861 8.96163 14.6269 8.81245 14.6269ZM6.93745 22.7362C6.8262 22.7362 6.71744 22.7032 6.62494 22.6414C6.53244 22.5796 6.46034 22.4918 6.41777 22.389C6.37519 22.2862 6.36405 22.1731 6.38576 22.064C6.40746 21.9549 6.46103 21.8546 6.5397 21.776C6.61837 21.6973 6.7186 21.6437 6.82771 21.622C6.93682 21.6003 7.04992 21.6115 7.15271 21.654C7.25549 21.6966 7.34334 21.7687 7.40515 21.8612C7.46696 21.9537 7.49995 22.0625 7.49995 22.1737C7.49995 22.3229 7.44068 22.466 7.3352 22.5715C7.22971 22.677 7.08663 22.7362 6.93745 22.7362Z" fill="#1B1B1B"/>
</g>
<defs>
<clipPath id="clip0_1145_50149">
<rect width="24" height="24" fill="white" transform="translate(0 0.00195312)"/>
</clipPath>
</defs>
</svg>
