<svg width="24" height="24" viewBox="0 0 24 24" fill="none" xmlns="http://www.w3.org/2000/svg">
<path d="M23.9917 4.60548C23.9917 8.25172 22.4021 10.9007 22.3352 11.0112C22.2868 11.091 22.223 11.1605 22.1477 11.2156C22.0723 11.2708 21.9869 11.3105 21.8961 11.3326C21.8054 11.3547 21.7112 11.3587 21.619 11.3443C21.5267 11.3299 21.4382 11.2975 21.3585 11.2489C21.197 11.1511 21.0809 10.9932 21.0358 10.8099C20.9907 10.6265 21.0203 10.4328 21.118 10.2712C21.1328 10.2471 22.5674 7.83575 22.5674 4.60548C22.5674 2.76333 21.3696 1.42628 19.7187 1.42628C18.9633 1.42702 18.239 1.72751 17.7049 2.26177C17.1708 2.79604 16.8706 3.52042 16.8701 4.27586C16.8701 4.94531 17.1941 6.64634 17.3185 7.24522C17.348 7.42645 17.3065 7.61208 17.2026 7.76345C17.0987 7.91483 16.9404 8.02028 16.7606 8.05786C16.5809 8.09543 16.3936 8.06223 16.2377 7.96516C16.0819 7.86809 15.9695 7.71465 15.9239 7.53677C15.8747 7.30186 15.4439 5.21365 15.4439 4.27586C15.4454 3.14264 15.8962 2.05627 16.6976 1.25505C17.499 0.453832 18.5855 0.00318152 19.7187 0.00195312C22.1542 0.00195312 23.9917 1.9806 23.9917 4.60548ZM19.8394 5.72619C20.1226 8.09295 20.533 12.7048 20.0613 13.1747L9.71221 23.5247C9.5608 23.6762 9.381 23.7964 9.18308 23.8784C8.98517 23.9604 8.77304 24.0026 8.55882 24.0025C8.3446 24.0024 8.1325 23.9601 7.93465 23.8779C7.73681 23.7958 7.5571 23.6754 7.40581 23.5238L0.485659 16.6046C0.334168 16.4531 0.213995 16.2734 0.132004 16.0755C0.0500134 15.8776 0.0078125 15.6655 0.0078125 15.4514C0.0078125 15.2372 0.0500134 15.0251 0.132004 14.8272C0.213995 14.6293 0.334168 14.4496 0.485659 14.2981L10.8357 3.94903C11.0001 3.78468 12.7902 3.77726 14.8032 3.88218C14.7921 4.01495 14.7633 4.1403 14.7633 4.27586C14.7633 4.79211 14.8775 5.59248 14.9973 6.29629C14.8263 6.54998 14.7171 6.84022 14.6786 7.14372C14.6401 7.44722 14.6732 7.75552 14.7754 8.04389C14.8775 8.33227 15.0459 8.59267 15.2669 8.80422C15.4879 9.01576 15.7554 9.17255 16.048 9.26201C16.3406 9.35146 16.65 9.37109 16.9515 9.31931C17.2531 9.26754 17.5383 9.1458 17.7842 8.96387C18.0302 8.78194 18.2301 8.54489 18.3679 8.27174C18.5056 7.99858 18.5775 7.69693 18.5776 7.391C18.5776 6.72526 18.2442 6.13844 17.7364 5.78561C17.6324 5.1663 17.5488 4.56834 17.5488 4.27586C17.5488 4.21272 17.5618 4.15423 17.5674 4.09202C17.8153 4.11802 18.0595 4.14494 18.2907 4.17373C19.6584 4.34179 19.6723 4.339 19.8394 5.72619ZM14.3232 13.4718C14.1625 13.0252 13.8951 12.4894 13.3148 11.8729L14.1003 11.0864L13.2257 10.2127L12.378 11.0614C11.2433 10.2842 10.0734 10.3474 9.27953 11.1412C8.41416 12.0066 8.61843 13.105 9.25353 14.3817C9.68993 15.2656 9.76978 15.7745 9.43088 16.1134C9.08269 16.4616 8.52094 16.3102 8.01119 15.8014C7.43181 15.222 7.09197 14.5061 6.92299 13.9258L5.61008 14.7039C5.76235 15.2294 6.17275 15.9787 6.75214 16.5953L5.89606 17.4523L6.76978 18.3269L7.68993 17.4077C8.90349 18.2638 10.1273 18.1487 10.9211 17.3548C11.7336 16.5405 11.8051 15.6306 11.1087 14.1849C10.6259 13.1487 10.5098 12.6398 10.7958 12.3548C11.0465 12.1041 11.4922 12.0326 12.0725 12.6129C12.7159 13.2564 12.9295 13.8812 13.0455 14.2118L14.3232 13.4718Z" fill="#1B1B1B"/>
</svg>
