<svg width="24" height="24" viewBox="0 0 24 24" fill="none" xmlns="http://www.w3.org/2000/svg">
<g clip-path="url(#clip0_1145_50170)">
<path d="M9.49159 10.0791H8.70208C8.70292 10.3761 8.70362 10.6873 8.70362 10.8379C8.70362 11.0136 8.70489 11.3153 8.70634 11.5993C8.99725 11.5979 9.30869 11.5967 9.49159 11.5967C9.94769 11.5967 10.333 11.2492 10.333 10.8379C10.333 10.4266 9.94773 10.0791 9.49159 10.0791ZM7.30286 5.87502H8.26403L7.78567 4.60742L7.30286 5.87502Z" fill="#1B1B1B"/>
<path d="M21.4219 0.00195312H2.57812C1.15425 0.00195312 0 1.1562 0 2.58008V16.6426C0 18.0665 1.15425 19.2207 2.57812 19.2207H13.5797V19.2193L18.0604 23.7897C18.5013 24.2394 19.2656 23.9272 19.2656 23.2974V19.2207H21.4219C22.8458 19.2207 24 18.0665 24 16.6426V2.58008C24 1.1562 22.8458 0.00195312 21.4219 0.00195312ZM13.511 6.2863C13.5801 6.22369 13.6712 6.1911 13.7644 6.19568C13.8575 6.20026 13.945 6.24164 14.0076 6.31072C14.2181 6.54298 14.5481 6.68164 14.8905 6.68164C15.2384 6.68164 15.4845 6.46742 15.5214 6.26028C15.5576 6.05787 15.3871 5.87126 15.0538 5.74831C14.7246 5.62602 14.399 5.49401 14.0776 5.35245C14.0607 5.34491 14.0444 5.33604 14.0289 5.32592C13.7022 5.11297 13.5339 4.73937 13.5897 4.35097C13.6493 3.93547 13.954 3.59675 14.385 3.46695C15.2513 3.20591 15.9657 3.79503 15.9957 3.8202C16.0672 3.87999 16.1121 3.96576 16.1204 4.05863C16.1287 4.1515 16.0998 4.24387 16.04 4.31541C15.9802 4.38696 15.8944 4.43182 15.8016 4.44014C15.7087 4.44845 15.6163 4.41953 15.5448 4.35973C15.5342 4.3512 15.0822 3.99125 14.5877 4.14017C14.3448 4.21334 14.2956 4.38181 14.2857 4.45086C14.2701 4.55923 14.3103 4.6595 14.3939 4.72348C14.5014 4.77064 14.8847 4.93653 15.2972 5.08869C16.0912 5.38156 16.2912 5.94978 16.2137 6.38394C16.1101 6.96392 15.5537 7.38486 14.8906 7.38486C14.353 7.38486 13.8282 7.15986 13.4866 6.78298C13.424 6.71388 13.3914 6.62274 13.396 6.52959C13.4005 6.43645 13.4419 6.34893 13.511 6.2863ZM2.50781 7.0332V3.75195C2.50781 3.5578 2.66517 3.40039 2.85938 3.40039C3.05358 3.40039 3.21094 3.5578 3.21094 3.75195V4.98472H4.77844V3.75195C4.77844 3.5578 4.9358 3.40039 5.13 3.40039C5.3242 3.40039 5.48156 3.5578 5.48156 3.75195V7.0332C5.48156 7.22736 5.3242 7.38477 5.13 7.38477C4.9358 7.38477 4.77844 7.22736 4.77844 7.0332V5.68784H3.21094V7.0332C3.21094 7.22736 3.05358 7.38477 2.85938 7.38477C2.66517 7.38477 2.50781 7.22736 2.50781 7.0332ZM5.52056 11.433C5.90887 11.433 6.22369 11.7478 6.22369 12.1362C6.22369 12.5245 5.90887 12.8393 5.52056 12.8393H4.125V15.002C4.125 15.3903 3.81019 15.7051 3.42188 15.7051C3.03356 15.7051 2.71875 15.3903 2.71875 15.002V9.37695C2.71875 8.98864 3.03356 8.67383 3.42188 8.67383H5.70173C6.09005 8.67383 6.40486 8.98864 6.40486 9.37695C6.40486 9.76526 6.09005 10.0801 5.70173 10.0801H4.125V11.433H5.52056ZM6.8145 7.15831C6.78913 7.22492 6.74412 7.28225 6.68545 7.3227C6.62677 7.36316 6.55718 7.38483 6.48591 7.38486C6.42894 7.38486 6.37283 7.37101 6.3224 7.34452C6.27198 7.31802 6.22874 7.27967 6.19642 7.23276C6.1641 7.18586 6.14366 7.1318 6.13687 7.07524C6.13007 7.01868 6.13712 6.96132 6.15741 6.90809L7.38947 3.67306C7.42023 3.59274 7.47467 3.52366 7.54557 3.47498C7.61647 3.42629 7.70049 3.4003 7.7865 3.40044H7.78683C7.87305 3.40023 7.95728 3.4263 8.02832 3.47516C8.09935 3.52402 8.15382 3.59336 8.18447 3.67395L9.40537 6.90912C9.42227 6.95244 9.4304 6.99868 9.42931 7.04516C9.42821 7.09164 9.41791 7.13744 9.39899 7.17991C9.38008 7.22238 9.35292 7.26068 9.3191 7.29259C9.28529 7.32449 9.24547 7.34937 9.20198 7.36579C9.15848 7.38221 9.11215 7.38983 9.06569 7.38822C9.01922 7.38662 8.97354 7.37581 8.93128 7.35643C8.88902 7.33704 8.85102 7.30947 8.81949 7.2753C8.78796 7.24113 8.76351 7.20105 8.74758 7.15737L8.52938 6.57912H7.03509L6.8145 7.15831ZM11.564 14.5374C11.8206 14.8289 11.7922 15.2732 11.5007 15.5298C11.3726 15.6429 11.2074 15.7053 11.0365 15.7051C10.9365 15.7052 10.8377 15.684 10.7466 15.6429C10.6556 15.6017 10.5743 15.5416 10.5084 15.4665L8.69812 13.4097V15.002C8.69812 15.3903 8.38331 15.7051 7.995 15.7051C7.60669 15.7051 7.29187 15.3903 7.29187 15.002V9.37695C7.29187 8.98864 7.60669 8.67383 7.995 8.67383L7.99589 8.67387L7.99683 8.67383H9.49162C10.731 8.67383 11.7393 9.64503 11.7393 10.8388C11.7393 11.8175 11.0615 12.6461 10.1344 12.9132L11.564 14.5374ZM11.4218 7.38477C10.8842 7.38477 10.3594 7.15977 10.0178 6.78289C9.95688 6.71354 9.92564 6.623 9.93088 6.53082C9.93611 6.43863 9.97739 6.35221 10.0458 6.29021C10.1142 6.2282 10.2043 6.1956 10.2965 6.19944C10.3888 6.20328 10.4758 6.24325 10.5389 6.31072C10.7493 6.54298 11.0794 6.68164 11.4218 6.68164C11.7696 6.68164 12.0157 6.46742 12.0527 6.26028C12.0888 6.05787 11.9184 5.87126 11.585 5.74831C11.2558 5.62602 10.9303 5.49401 10.6089 5.35245C10.592 5.34491 10.5757 5.33604 10.5601 5.32592C10.2335 5.11297 10.0651 4.73937 10.1209 4.35097C10.1805 3.93547 10.4852 3.59675 10.9162 3.46695C11.7826 3.20591 12.497 3.79503 12.5269 3.8202C12.5985 3.87999 12.6433 3.96576 12.6516 4.05863C12.66 4.1515 12.631 4.24387 12.5712 4.31541C12.5114 4.38696 12.4257 4.43182 12.3328 4.44014C12.2399 4.44845 12.1476 4.41953 12.076 4.35973C12.0654 4.3512 11.6135 3.99125 11.119 4.14017C10.8761 4.21334 10.8268 4.38181 10.8169 4.45086C10.8014 4.55923 10.8416 4.6595 10.9252 4.72348C11.0327 4.77064 11.416 4.93653 11.8284 5.08869C12.6224 5.38156 12.8224 5.94978 12.7449 6.38394C12.6413 6.96383 12.0849 7.38477 11.4218 7.38477ZM15.6353 11.4863C16.0237 11.4863 16.3385 11.8011 16.3385 12.1895C16.3385 12.5778 16.0237 12.8926 15.6353 12.8926H14.1431V14.2988H15.81C16.1984 14.2988 16.5132 14.6136 16.5132 15.002C16.5132 15.3903 16.1984 15.7051 15.81 15.7051H13.44C13.0516 15.7051 12.7368 15.3903 12.7368 15.002V9.37695C12.7368 8.98864 13.0516 8.67383 13.44 8.67383H15.81C16.1984 8.67383 16.5132 8.98864 16.5132 9.37695C16.5132 9.76526 16.1984 10.0801 15.81 10.0801H14.1431V11.4863H15.6353ZM16.9333 7.03044V3.75195C16.9333 3.5578 17.0907 3.40039 17.2849 3.40039C17.4791 3.40039 17.6364 3.5578 17.6364 3.75195V6.68164C17.8567 6.68155 18.1548 6.68042 18.4319 6.67887H18.4339C18.5272 6.67862 18.6167 6.71541 18.6828 6.78117C18.7489 6.84692 18.7862 6.93624 18.7864 7.02948C18.7867 7.12272 18.7499 7.21224 18.6842 7.27835C18.6184 7.34446 18.5291 7.38174 18.4358 7.382C18.0628 7.38406 17.8083 7.38495 17.6334 7.38495C17.2721 7.38495 17.2505 7.38125 17.2254 7.37694C17.1437 7.36291 17.0695 7.32043 17.0161 7.25703C16.9626 7.19362 16.9333 7.11336 16.9333 7.03044ZM20.4033 11.4863C20.7916 11.4863 21.1065 11.8011 21.1065 12.1895C21.1065 12.5778 20.7916 12.8926 20.4033 12.8926H18.9111V14.2988H20.5781C20.9664 14.2988 21.2812 14.6136 21.2812 15.002C21.2812 15.3903 20.9664 15.7051 20.5781 15.7051H18.208C17.8197 15.7051 17.5049 15.3903 17.5049 15.002V9.37695C17.5049 8.98864 17.8197 8.67383 18.208 8.67383H20.5781C20.9664 8.67383 21.2812 8.98864 21.2812 9.37695C21.2812 9.76526 20.9664 10.0801 20.5781 10.0801H18.9111V11.4863H20.4033ZM21.0387 5.04102C21.2329 5.04102 21.3902 5.19842 21.3902 5.39258C21.3902 5.58673 21.2329 5.74414 21.0387 5.74414H20.1096V6.68164H21.1406C21.3348 6.68164 21.4922 6.83905 21.4922 7.0332C21.4922 7.22736 21.3348 7.38477 21.1406 7.38477H19.758C19.6648 7.38477 19.5754 7.34773 19.5095 7.28179C19.4435 7.21586 19.4065 7.12644 19.4065 7.0332V3.75195C19.4065 3.65871 19.4435 3.56929 19.5095 3.50336C19.5754 3.43743 19.6648 3.40039 19.758 3.40039H21.1406C21.3348 3.40039 21.4922 3.5578 21.4922 3.75195C21.4922 3.94611 21.3348 4.10352 21.1406 4.10352H20.1096V5.04102H21.0387Z" fill="#1B1B1B"/>
</g>
<defs>
<clipPath id="clip0_1145_50170">
<rect width="24" height="24" fill="white" transform="translate(0 0.00195312)"/>
</clipPath>
</defs>
</svg>
