<svg width="122" height="122" viewBox="0 0 122 122" fill="none" xmlns="http://www.w3.org/2000/svg">
<circle cx="60.7633" cy="61.2094" r="59.4221" fill="#FEFEFF" stroke="url(#paint0_linear_1145_56999)" stroke-width="2.42539" stroke-linejoin="round" stroke-dasharray="3.23 3.23"/>
<circle cx="60.7629" cy="61.2115" r="49.7206" fill="white" stroke="url(#paint1_linear_1145_56999)" stroke-width="8.89311"/>
<g clip-path="url(#clip0_1145_56999)">
<path d="M51.8961 70.8888C45.5263 68.972 40.9999 62.9776 40.9999 56.3125C40.9999 47.9125 47.9124 41 56.3124 41C62.9775 41 68.9718 45.5264 70.8887 51.8962C71.1603 52.7983 70.3052 53.6306 69.4204 53.353C68.2246 52.9845 66.968 52.7969 65.6874 52.7969C58.5795 52.7969 52.7968 58.5796 52.7968 65.6875C52.7968 66.9681 52.9844 68.2247 53.3529 69.4205C53.6294 70.3118 52.7968 71.1581 51.8961 70.8888Z" fill="url(#paint2_linear_1145_56999)"/>
<path d="M65.6874 80.9993C59.0223 80.9993 53.0279 76.4729 51.111 70.103C50.9863 69.6887 51.1007 69.239 51.4086 68.9334C51.713 68.6279 52.1639 68.5169 52.5793 68.6462C53.7752 69.0147 55.0318 69.2024 56.3124 69.2024C63.4203 69.2024 69.203 63.4197 69.203 56.3118C69.203 55.0312 69.0153 53.7746 68.6468 52.5787C68.5186 52.1656 68.6296 51.7147 68.9341 51.408C69.2396 51.1013 69.6928 50.9892 70.1037 51.1105C76.4735 53.0273 80.9999 59.0218 80.9999 65.6868C80.9999 74.0868 74.0874 80.9993 65.6874 80.9993Z" fill="#C6E2E7"/>
<path d="M71.5468 56.3125C71.5468 54.5824 71.2746 52.9128 70.6962 51.3037C69.0871 50.7252 67.4175 50.4531 65.6874 50.4531C64.5625 50.4531 63.4608 50.5703 62.406 50.8048L62.8568 52.6327L59.8984 51.6016C59.1249 51.9062 58.3984 52.3047 57.6953 52.7265L58.6946 55.3508L55.7968 54.1328C55.1875 54.6251 54.625 55.1875 54.1562 55.797L55.4226 58.8102L52.7264 57.6954C52.3045 58.375 51.9296 59.1251 51.6014 59.8751L52.6729 62.9399L50.8046 62.4062C50.5702 63.4609 50.453 64.5626 50.453 65.6875C50.453 67.4176 50.7251 69.0872 51.3035 70.6963C52.9127 71.2748 54.5823 71.5469 56.3124 71.5469C57.4373 71.5469 58.5389 71.4297 59.5937 71.1952L58.9079 69.0655L62.1249 70.3984C62.8749 70.0703 63.6249 69.6953 64.3046 69.2735L63.0611 66.4048L66.2029 67.8438C66.8123 67.375 67.3748 66.8125 67.8671 66.2031L66.3826 62.9723L69.2734 64.3047C69.6953 63.6016 70.0936 62.875 70.3983 62.1016L69.0471 58.8337L71.1951 59.5938C71.4296 58.5391 71.5468 57.4374 71.5468 56.3125Z" fill="#7ED8F6"/>
<path d="M56.3124 71.5479C57.4373 71.5479 58.539 71.4307 59.5937 71.1963L58.908 69.0665L62.1249 70.3995C62.8749 70.0713 63.6249 69.6963 64.3046 69.2745L63.0612 66.4058L66.203 67.8448C66.8123 67.376 67.3748 66.8135 67.8671 66.2041L66.3827 62.9734L69.2734 64.3057C69.6953 63.6026 70.0937 62.876 70.3984 62.1026L69.0471 58.8347L71.1952 59.5948C71.4296 58.5401 71.5468 57.4384 71.5468 56.3135C71.5468 54.5834 71.2747 52.9138 70.6962 51.3047L51.3036 70.6973C52.9127 71.2758 54.5823 71.5479 56.3124 71.5479Z" fill="#6AA9FF"/>
<path d="M62.1248 70.3984C61.3046 70.7266 60.4608 71.0078 59.5936 71.1952L50.8046 62.4062C50.992 61.539 51.2732 60.6953 51.6014 59.875L62.1248 70.3984Z" fill="url(#paint3_linear_1145_56999)"/>
<path d="M66.2029 67.8437C65.6169 68.3828 64.9842 68.8515 64.3044 69.2734L52.7263 57.6953C53.1483 57.0155 53.6169 56.3828 54.1561 55.7969L66.2029 67.8437Z" fill="url(#paint4_linear_1145_56999)"/>
<path d="M69.2734 64.3047C68.8514 64.9845 68.3828 65.6172 67.8671 66.2031L55.7969 54.1329C56.3828 53.6172 57.0155 53.1486 57.6953 52.7266L69.2734 64.3047Z" fill="url(#paint5_linear_1145_56999)"/>
<path d="M71.1952 59.5938C71.0077 60.4609 70.7265 61.3046 70.3984 62.1014L59.8984 51.6015C60.6952 51.2734 61.539 50.9921 62.4061 50.8047L71.1952 59.5938Z" fill="url(#paint6_linear_1145_56999)"/>
<path d="M59.5938 71.1952C60.4609 71.0078 61.3046 70.7266 62.1249 70.3984L56.8632 65.1367L55.1992 66.8007L59.5938 71.1952Z" fill="url(#paint7_linear_1145_56999)"/>
<path d="M64.3045 69.2735C64.9843 68.8515 65.617 68.3829 66.2029 67.8438L60.1796 61.8203L58.5155 63.4844L64.3045 69.2735Z" fill="url(#paint8_linear_1145_56999)"/>
<path d="M67.8671 66.2032C68.3828 65.6173 68.8514 64.9845 69.2734 64.3048L63.4845 58.5156L61.832 60.168L67.8671 66.2032Z" fill="url(#paint9_linear_1145_56999)"/>
<path d="M65.1484 56.8514L70.3984 62.1014C70.7266 61.3046 71.0078 60.4609 71.1952 59.5938L66.8007 55.1992L65.1484 56.8514Z" fill="url(#paint10_linear_1145_56999)"/>
</g>
<defs>
<linearGradient id="paint0_linear_1145_56999" x1="125.255" y1="-76.3217" x2="-14.6264" y2="-47.3621" gradientUnits="userSpaceOnUse">
<stop stop-color="#FEC12D"/>
<stop offset="1" stop-color="#FF552C"/>
</linearGradient>
<linearGradient id="paint1_linear_1145_56999" x1="110.923" y1="-45.7571" x2="2.12648" y2="-23.233" gradientUnits="userSpaceOnUse">
<stop stop-color="#FEC12D"/>
<stop offset="1" stop-color="#FF552C"/>
</linearGradient>
<linearGradient id="paint2_linear_1145_56999" x1="72.5556" y1="20.6007" x2="36.5816" y2="28.0485" gradientUnits="userSpaceOnUse">
<stop stop-color="#FEC12D"/>
<stop offset="1" stop-color="#FF552C"/>
</linearGradient>
<linearGradient id="paint3_linear_1145_56999" x1="62.7357" y1="52.162" x2="49.134" y2="54.9779" gradientUnits="userSpaceOnUse">
<stop stop-color="#FEC12D"/>
<stop offset="1" stop-color="#FF552C"/>
</linearGradient>
<linearGradient id="paint4_linear_1145_56999" x1="66.9301" y1="46.6147" x2="50.7375" y2="49.967" gradientUnits="userSpaceOnUse">
<stop stop-color="#FEC12D"/>
<stop offset="1" stop-color="#FF552C"/>
</linearGradient>
<linearGradient id="paint5_linear_1145_56999" x1="70.0007" y1="43.5443" x2="53.8081" y2="46.8967" gradientUnits="userSpaceOnUse">
<stop stop-color="#FEC12D"/>
<stop offset="1" stop-color="#FF552C"/>
</linearGradient>
<linearGradient id="paint6_linear_1145_56999" x1="71.8048" y1="43.1077" x2="58.2314" y2="45.9178" gradientUnits="userSpaceOnUse">
<stop stop-color="#FEC12D"/>
<stop offset="1" stop-color="#FF552C"/>
</linearGradient>
<linearGradient id="paint7_linear_1145_56999" x1="62.4987" y1="61.0088" x2="54.2808" y2="62.9536" gradientUnits="userSpaceOnUse">
<stop stop-color="#FEC12D"/>
<stop offset="1" stop-color="#FF552C"/>
</linearGradient>
<linearGradient id="paint8_linear_1145_56999" x1="66.6178" y1="56.7421" x2="57.4052" y2="58.7093" gradientUnits="userSpaceOnUse">
<stop stop-color="#FEC12D"/>
<stop offset="1" stop-color="#FF552C"/>
</linearGradient>
<linearGradient id="paint9_linear_1145_56999" x1="69.675" y1="53.2777" x2="60.7107" y2="55.0742" gradientUnits="userSpaceOnUse">
<stop stop-color="#FEC12D"/>
<stop offset="1" stop-color="#FF552C"/>
</linearGradient>
<linearGradient id="paint10_linear_1145_56999" x1="71.5215" y1="50.4964" x2="64.186" y2="51.8269" gradientUnits="userSpaceOnUse">
<stop stop-color="#FEC12D"/>
<stop offset="1" stop-color="#FF552C"/>
</linearGradient>
<clipPath id="clip0_1145_56999">
<rect width="40" height="40" fill="white" transform="translate(40.9999 41)"/>
</clipPath>
</defs>
</svg>
