<svg width="60" height="60" viewBox="0 0 60 60" fill="none" xmlns="http://www.w3.org/2000/svg">
<path d="M10.8629 23.0946L11.3791 23.393V26.6692L9.02683 27.2571L14.4824 30.4398L14.443 32.3526L14.3592 32.6456L17.5858 31.9273V31.161C17.5858 29.7705 18.1475 28.4972 19.0673 27.5561L15.5178 26.6692L15.5139 23.3956L16.0312 23.0965C17.6282 22.1717 18.6203 20.4564 18.6203 18.6203V16.812C18.6203 13.9011 16.3716 11.4649 13.607 11.382C12.2064 11.3276 10.8589 11.8569 9.84612 12.8388C8.83338 13.8213 8.27568 15.1406 8.27568 16.5514V18.6203C8.27568 20.4564 9.26669 22.1717 10.8629 23.0946ZM18.5718 11.5428C21.0028 7.62914 25.3236 5.1723 29.9993 5.1723C34.6417 5.1723 38.9504 7.60638 41.3885 11.4816C41.4299 11.4402 41.4663 11.3947 41.5087 11.3533C42.1532 10.7275 42.8936 10.2452 43.6924 9.90159L44.8657 7.15433L41.5647 3.85246L38.6558 5.74552L38.0993 5.40415C36.7046 4.54943 35.1974 3.92358 33.6199 3.54639L32.9825 3.39277L32.2638 0H27.7339L27.0162 3.39277L26.3798 3.54484C24.8022 3.92267 23.295 4.54852 21.9006 5.40311L21.3439 5.74449L18.4349 3.85142L15.13 7.15639L16.2907 9.92332C17.1473 10.3093 17.9212 10.8618 18.5718 11.5428ZM0 23.7926V42.7012L4.4399 44.1818L8.19383 29.1665L0 23.7926Z" fill="#259F46"/>
<path d="M42.4129 24.5567C40.4849 23.2101 39.3095 20.9891 39.3095 18.6212V16.5523C39.3095 15.4124 39.5772 14.3188 40.0697 13.3313C38.1124 9.61821 34.2191 7.24219 29.9994 7.24219C25.7393 7.24219 21.8292 9.65054 19.8866 13.4146C20.3962 14.44 20.6892 15.5957 20.6892 16.813V18.6212C20.6892 20.9893 19.5128 23.2122 17.5848 24.5578V25.0533L21.7237 26.0893L25.8615 25.0533V24.5567C23.9336 23.2101 22.7582 20.9891 22.7582 18.6212V16.5523C22.7582 14.5764 23.5392 12.7313 24.9574 11.3553C26.3746 9.97937 28.2416 9.25757 30.2215 9.31408C34.0918 9.43136 37.2406 12.7944 37.2406 16.813V18.6212C37.2406 20.9893 36.0642 23.2122 34.1362 24.5578V25.0533L38.2751 26.0893L42.4129 25.0533V24.5567ZM12.4136 31.6288L10.0542 30.253L6.40735 44.8389L8.44342 45.5172H8.53032L12.4136 31.9243V31.6288Z" fill="#259F46"/>
<path d="M22.0051 28.1503C21.3334 28.3179 20.7371 28.7055 20.3112 29.2512C19.8853 29.797 19.6542 30.4696 19.6548 31.1619V31.4679L20.2478 31.3366C22.4323 30.8527 24.7423 30.9547 26.8764 31.6386L31.5591 33.1352C32.0774 33.1549 32.5936 33.212 33.0937 33.355L39.4544 35.1723H40.0882L40.3439 35.0379V31.1617C40.3439 29.7355 39.3767 28.4968 37.9936 28.1503L32.0692 26.6698L32.0652 23.3963L32.5825 23.0972C34.1797 22.1724 35.1717 20.4571 35.1717 18.621V16.8127C35.1717 13.9018 32.923 11.4656 30.1585 11.3827C28.7624 11.3283 27.4103 11.8575 26.3975 12.8395C25.3847 13.822 24.8271 15.1413 24.8271 16.5521V18.621C24.8271 20.4571 25.8181 22.1724 27.4143 23.0953L27.9305 23.3937V26.6698L22.0051 28.1503ZM41.3785 16.5521V18.621C41.3785 20.4571 42.3695 22.1724 43.9657 23.0953L44.4818 23.3937V26.6698L40.9315 27.5569C41.8502 28.4979 42.4129 29.7703 42.4129 31.1617V33.9484L53.789 27.9609L48.6206 26.6698L48.6167 23.3963L49.1339 23.0972C50.731 22.1724 51.7231 20.4571 51.7231 18.621V16.8127C51.7231 13.9018 49.4744 11.4656 46.7098 11.3827C45.3062 11.3283 43.9625 11.8575 42.9489 12.8395C41.936 13.822 41.3785 15.1413 41.3785 16.5521ZM32.2688 40.8836C31.6006 40.2826 30.5622 40.18 29.7882 40.6446L25.9358 42.9546C25.398 43.2778 24.7823 43.4483 24.1548 43.448C22.2439 43.448 20.6893 41.8933 20.6893 39.9826V39.7779C20.6893 38.4576 21.4227 37.2701 22.6051 36.6785L27.7714 34.0955L26.2474 33.608C24.4599 33.0362 22.5284 32.9473 20.6973 33.357L13.7138 34.9097L10.9281 44.6592L14.1062 46.566C14.1971 46.4438 14.287 46.3206 14.3956 46.212L16.2141 44.3936C16.813 43.7925 17.645 43.448 18.495 43.448C20.2362 43.448 21.6514 44.836 21.7122 46.563C23.3997 46.6225 24.7559 47.9789 24.8156 49.6664C26.5031 49.7259 27.8592 51.0823 27.919 52.7698C29.1427 52.8132 30.1878 53.538 30.6965 54.5775L33.0053 56.502C33.3107 56.7561 33.6954 56.8955 34.0928 56.896C34.6878 56.896 35.1717 56.4121 35.1717 55.8171C35.1719 55.6589 35.1373 55.5026 35.0702 55.3593C35.0032 55.2161 34.9054 55.0894 34.7838 54.9882L29.3362 50.4494L30.6616 48.8593L36.2804 53.5411C36.4737 53.7034 36.718 53.7924 36.9704 53.7926H37.1961C37.7912 53.7926 38.2751 53.3087 38.2751 52.7137C38.2753 52.5555 38.2406 52.3992 38.1736 52.256C38.1065 52.1127 38.0087 51.986 37.8872 51.8848L32.4396 47.346L33.765 45.7559L39.3747 50.4306C39.5744 50.5974 39.8262 50.689 40.0864 50.6892H40.2653C40.88 50.6892 41.3785 50.1908 41.3785 49.5769C41.3783 49.421 41.3455 49.2667 41.282 49.1242C41.2186 48.9817 41.126 48.8541 41.0102 48.7496L32.2688 40.8836Z" fill="#259F46"/>
<path d="M40.5998 37.2415L39.0264 37.2021L32.5256 35.3452C31.4614 35.0393 30.2889 35.1509 29.3015 35.6443L23.5312 38.5295C23.0543 38.7685 22.7583 39.2463 22.7583 39.7781V39.9827C22.7583 40.7525 23.3842 41.3793 24.1548 41.3793C24.4075 41.3793 24.6545 41.3112 24.8707 41.1819L28.724 38.871C29.3711 38.4816 30.1122 38.2758 30.8674 38.276C31.8969 38.2751 32.8901 38.6563 33.6547 39.3457L42.3935 47.2118C42.4556 47.2674 42.5147 47.3245 42.5713 47.3845L59.9989 38.671V27.0312L40.5998 37.2415ZM30.7401 57.3089C30.581 57.6639 30.3657 57.9929 30.0884 58.2701L29.3116 59.047L30.0854 59.7294C30.2819 59.9036 30.5355 59.9997 30.7981 59.9996H30.9895C31.5846 59.9996 32.0685 59.5158 32.0685 58.9207C32.0687 58.7625 32.034 58.6062 31.967 58.463C31.8999 58.3197 31.8021 58.193 31.6805 58.0918L30.7401 57.3089ZM27.8053 54.8273C27.4978 54.828 27.2031 54.95 26.985 55.1667L25.1667 56.9852C24.95 57.2032 24.828 57.4979 24.8272 57.8053C24.8272 58.4448 25.3474 58.965 25.987 58.965C26.2945 58.9643 26.5892 58.8423 26.8073 58.6256L28.6256 56.8071C28.8423 56.5892 28.9642 56.2945 28.9651 55.9872C28.9651 55.3477 28.4449 54.8274 27.8053 54.8274V54.8273ZM22.7583 49.7803C22.7583 49.1408 22.2381 48.6206 21.5986 48.6206C21.2911 48.6213 20.9963 48.7433 20.7782 48.96L18.9599 50.7784C18.7432 50.9965 18.6213 51.2911 18.6205 51.5985C18.6205 52.2381 19.1407 52.7583 19.7802 52.7583C20.0877 52.7575 20.3825 52.6356 20.6006 52.4188L22.4189 50.6004C22.6355 50.3824 22.7575 50.0878 22.7583 49.7804V49.7803ZM25.8617 52.8837C25.8617 52.2441 25.3415 51.7239 24.7019 51.7239C24.3945 51.7247 24.0997 51.8466 23.8816 52.0634L22.0633 53.8818C21.8466 54.0998 21.7246 54.3945 21.7239 54.7019C21.7239 55.3414 22.2441 55.8616 22.8836 55.8616C23.1911 55.8609 23.4858 55.739 23.7039 55.5222L25.5223 53.7038C25.7389 53.4858 25.8609 53.1912 25.8617 52.8838V52.8837ZM19.6549 46.6769C19.6549 46.0374 19.1347 45.5172 18.4952 45.5172C18.1877 45.5179 17.8929 45.6399 17.6748 45.8566L15.8565 47.6751C15.6398 47.8931 15.5179 48.1878 15.5171 48.4951C15.5171 49.1347 16.0373 49.6549 16.6768 49.6549C16.9843 49.6542 17.2791 49.5322 17.4972 49.3155L19.3155 47.497C19.5321 47.279 19.6541 46.9844 19.6549 46.6771V46.6769Z" fill="#259F46"/>
</svg>
