<svg width="60" height="60" viewBox="0 0 60 60" fill="none" xmlns="http://www.w3.org/2000/svg">
<path d="M17.8125 24.6094H0V54.7266C0 57.6343 2.36566 60 5.27344 60H19.5751C18.4691 58.53 17.8125 56.7036 17.8125 54.7266V24.6094ZM10.5469 39.2578C10.5469 40.2286 9.75984 41.0156 8.78906 41.0156C7.81828 41.0156 7.03125 40.2286 7.03125 39.2578V29.8828C7.03125 28.912 7.81828 28.125 8.78906 28.125C9.75984 28.125 10.5469 28.912 10.5469 29.8828V39.2578ZM36.3281 8.4375V5.27344C36.3281 2.36566 33.9625 0 31.0547 0H5.27344C2.36566 0 0 2.36566 0 5.27344V21.0938H17.8125V17.2266C17.8125 12.3803 21.7553 8.4375 26.6016 8.4375H36.3281ZM10.5469 15.8203C10.5469 16.7911 9.75984 17.5781 8.78906 17.5781C7.81828 17.5781 7.03125 16.7911 7.03125 15.8203V11.1328C7.03125 10.162 7.81828 9.375 8.78906 9.375C9.75984 9.375 10.5469 10.162 10.5469 11.1328V15.8203Z" fill="#7A02FD"/>
<path d="M54.7266 11.9531H26.6016C23.6938 11.9531 21.3281 14.3188 21.3281 17.2266V23.6719H60V17.2266C60 14.3188 57.6343 11.9531 54.7266 11.9531ZM44.1797 19.5703C43.2089 19.5703 42.4219 18.7833 42.4219 17.8125C42.4219 16.8417 43.2089 16.0547 44.1797 16.0547C45.1505 16.0547 45.9375 16.8417 45.9375 17.8125C45.9375 18.7833 45.1505 19.5703 44.1797 19.5703ZM51.2109 19.5703C50.2402 19.5703 49.4531 18.7833 49.4531 17.8125C49.4531 16.8417 50.2402 16.0547 51.2109 16.0547C52.1817 16.0547 52.9688 16.8417 52.9688 17.8125C52.9688 18.7833 52.1817 19.5703 51.2109 19.5703Z" fill="#7A02FD"/>
<path d="M40.6641 49.4531C44.8709 49.4531 48.2812 46.0428 48.2812 41.8359C48.2812 37.6291 44.8709 34.2188 40.6641 34.2188C36.4572 34.2188 33.0469 37.6291 33.0469 41.8359C33.0469 46.0428 36.4572 49.4531 40.6641 49.4531Z" fill="#7A02FD"/>
<path d="M21.3281 54.7266C21.3281 57.6343 23.6938 60 26.6016 60H54.7266C57.6343 60 60 57.6343 60 54.7266V27.1875H21.3281V54.7266ZM40.6641 30.7031C46.8027 30.7031 51.7969 35.6973 51.7969 41.8359C51.7969 47.9746 46.8027 52.9688 40.6641 52.9688C34.5254 52.9688 29.5312 47.9746 29.5312 41.8359C29.5312 35.6973 34.5254 30.7031 40.6641 30.7031Z" fill="#7A02FD"/>
</svg>
