<svg width="60" height="60" viewBox="0 0 60 60" fill="none" xmlns="http://www.w3.org/2000/svg">
<g clip-path="url(#clip0_1145_40833)">
<path d="M58.965 31.913C50.5037 28.0939 50.9751 28.2418 50.4533 28.2418H44.1393V20.7157L51.1766 17.5393C51.5218 17.3836 51.8075 17.1204 51.991 16.7891L55.8852 9.75782C56.3552 8.90868 56.048 7.83887 55.1989 7.36825C54.3498 6.89809 53.28 7.20536 52.8094 8.05438L49.1981 14.5753L44.1393 16.8586V15.9371C44.1393 14.9672 43.353 14.1793 42.3815 14.1793H31.7578V49.2262C36.1936 48.6773 39.9979 46.0759 42.1778 42.4109L49.2064 45.4386L52.8094 51.9448C53.28 52.794 54.3498 53.1011 55.1989 52.6305C56.048 52.1605 56.3552 51.0907 55.8852 50.2415L51.991 43.2103C51.8025 42.8697 51.5062 42.6015 51.1487 42.4476L43.5819 39.1878C44.2639 36.8505 44.1393 35.4085 44.1393 31.7574H50.0748L57.5185 35.1174C58.4028 35.5166 59.4443 35.1233 59.8439 34.2385C60.243 33.3538 59.8497 32.3122 58.965 31.913ZM23.0437 6.2293C21.6796 7.41219 20.621 8.93422 20.0043 10.6641H39.9958C39.3792 8.93422 38.32 7.41219 36.9562 6.2293L40.0837 3.12207C40.7722 2.4377 40.7753 1.32442 40.0914 0.635942C39.4071 -0.0525347 38.2938 -0.0561676 37.6053 0.62809L33.854 4.35618C31.3753 3.39141 28.6249 3.39141 26.1461 4.35618L22.3947 0.62809C21.7057 -0.0562848 20.593 -0.0525347 19.9086 0.635942C19.2247 1.32442 19.2278 2.4377 19.9163 3.12207L23.0437 6.2293ZM15.8601 15.9371V16.8586L10.8014 14.5753L7.19 8.05438C6.71949 7.20524 5.65015 6.89809 4.80054 7.36825C3.9514 7.83887 3.64426 8.90868 4.11476 9.7577L8.00855 16.7889C8.19205 17.1204 8.47789 17.3837 8.82336 17.5393L15.8601 20.7157V28.2418C8.94875 28.2418 9.29293 28.1856 8.82336 28.3974L1.03496 31.913C0.150194 32.3122 -0.243556 33.3536 0.156053 34.2385C0.555194 35.1229 1.5957 35.5166 2.48152 35.1174L9.92469 31.7574H15.8606C15.8606 35.4022 15.7365 36.8527 16.4182 39.1878L8.85137 42.4476C8.49382 42.6015 8.19753 42.8697 8.00902 43.2103L4.11488 50.2415C3.64426 51.0907 3.9514 52.1605 4.80043 52.6305C5.65156 53.1016 6.72043 52.7922 7.19 51.9448L10.7935 45.4386L17.8216 42.4109C20.002 46.0763 23.806 48.6773 28.2421 49.2262V14.1793H17.6184C16.6466 14.1793 15.8601 14.9672 15.8601 15.9371Z" fill="#FF5C2C"/>
</g>
<defs>
<clipPath id="clip0_1145_40833">
<rect width="60" height="60" fill="white"/>
</clipPath>
</defs>
</svg>
