<svg width="50" height="50" viewBox="0 0 50 50" fill="none" xmlns="http://www.w3.org/2000/svg">
<path d="M47.5 25.0578C47.5 37.4458 37.432 47.4984 25 47.4984C12.568 47.4984 2.5 37.4458 2.5 25.0578C2.5 12.6698 12.568 2.61719 25 2.61719C37.432 2.61719 47.5 12.6698 47.5 25.0578Z" fill="url(#paint0_linear_1145_61453)" stroke="white" stroke-width="5"/>
<path d="M36.25 33.038C36.25 33.2364 36.171 33.4267 36.0303 33.5671C35.8897 33.7074 35.6989 33.7862 35.5 33.7862H14.5C14.3011 33.7862 14.1103 33.7074 13.9697 33.5671C13.829 33.4267 13.75 33.2364 13.75 33.038C13.75 32.8396 13.829 32.6492 13.9697 32.5089C14.1103 32.3686 14.3011 32.2898 14.5 32.2898H35.5C35.6989 32.2898 35.8897 32.3686 36.0303 32.5089C36.171 32.6492 36.25 32.8396 36.25 33.038ZM14.5281 22.7687C14.4834 22.6119 14.4913 22.4448 14.5505 22.2929C14.6098 22.1409 14.7171 22.0124 14.8562 21.9269L24.6063 15.9412C24.7242 15.8673 24.8607 15.8281 25 15.8281C25.1393 15.8281 25.2758 15.8673 25.3937 15.9412L35.1437 21.9269C35.2823 22.0126 35.3891 22.1409 35.448 22.2925C35.5069 22.4442 35.5147 22.6108 35.4702 22.7672C35.4257 22.9236 35.3313 23.0613 35.2014 23.1595C35.0714 23.2576 34.913 23.3109 34.75 23.3111H32.5V29.2969H34C34.1989 29.2969 34.3897 29.3757 34.5303 29.516C34.671 29.6564 34.75 29.8467 34.75 30.0451C34.75 30.2436 34.671 30.4339 34.5303 30.5742C34.3897 30.7145 34.1989 30.7933 34 30.7933H16C15.8011 30.7933 15.6103 30.7145 15.4697 30.5742C15.329 30.4339 15.25 30.2436 15.25 30.0451C15.25 29.8467 15.329 29.6564 15.4697 29.516C15.6103 29.3757 15.8011 29.2969 16 29.2969H17.5V23.3111H15.25C15.0869 23.3113 14.9282 23.2585 14.798 23.1606C14.6677 23.0627 14.573 22.9251 14.5281 22.7687ZM26.5 28.5487C26.5 28.7471 26.579 28.9374 26.7197 29.0777C26.8603 29.2181 27.0511 29.2969 27.25 29.2969C27.4489 29.2969 27.6397 29.2181 27.7803 29.0777C27.921 28.9374 28 28.7471 28 28.5487V24.0594C28 23.8609 27.921 23.6706 27.7803 23.5303C27.6397 23.39 27.4489 23.3111 27.25 23.3111C27.0511 23.3111 26.8603 23.39 26.7197 23.5303C26.579 23.6706 26.5 23.8609 26.5 24.0594V28.5487ZM22 28.5487C22 28.7471 22.079 28.9374 22.2197 29.0777C22.3603 29.2181 22.5511 29.2969 22.75 29.2969C22.9489 29.2969 23.1397 29.2181 23.2803 29.0777C23.421 28.9374 23.5 28.7471 23.5 28.5487V24.0594C23.5 23.8609 23.421 23.6706 23.2803 23.5303C23.1397 23.39 22.9489 23.3111 22.75 23.3111C22.5511 23.3111 22.3603 23.39 22.2197 23.5303C22.079 23.6706 22 23.8609 22 24.0594V28.5487Z" fill="white"/>
<defs>
<linearGradient id="paint0_linear_1145_61453" x1="52.6981" y1="-33.8693" x2="-7.36686" y2="-21.4044" gradientUnits="userSpaceOnUse">
<stop stop-color="#FEC12D"/>
<stop offset="1" stop-color="#FF552C"/>
</linearGradient>
</defs>
</svg>
