<svg width="60" height="60" viewBox="0 0 60 60" fill="none" xmlns="http://www.w3.org/2000/svg">
<g clip-path="url(#clip0_1145_40825)">
<path d="M57.9257 45.6914C56.0742 47.8359 53.2968 48.8789 50.5898 48.5508L42.4218 57.9844C40.6875 59.9766 37.6757 60.2109 35.6601 58.4649C33.6679 56.7422 33.4453 53.707 35.1797 51.7149L43.3476 42.2813C42.6445 39.6211 43.3007 36.7383 45.1406 34.6172C46.6875 32.8242 48.9257 31.7578 51.2929 31.6992C52.9922 31.6055 54.1289 33.6211 53.0039 35.0742L51.4453 37.3945C51 38.1445 51.1523 39.1641 51.8672 39.7852C52.6054 40.418 53.6601 40.3594 54.3164 39.8203L56.3554 37.9688C57.6093 36.668 59.7304 37.4531 59.9531 39.1875C60.2109 41.5664 59.4961 43.875 57.9257 45.6914ZM45.8554 15.1875H45.0351C44.8007 9.2461 41.1797 4.16016 36.0351 1.82813C36.0234 2.05078 36 2.27344 35.9531 2.49609L34.0429 11.0625C33.8906 11.7539 33.1992 12.1992 32.5078 12.0352C31.8164 11.8828 31.3711 11.1914 31.5351 10.5L33.4453 1.93359C33.6093 1.13672 33.0468 0.363281 32.1914 0.363281H27.2578C26.4375 0.363281 25.8047 1.125 26.0039 1.93359L27.914 10.5C28.0664 11.1914 27.6328 11.8828 26.9414 12.0352C26.2265 12.1758 25.5586 11.7305 25.4062 11.0625L23.4961 2.49609C23.4492 2.27344 23.414 2.05078 23.414 1.82813C18.2695 4.16016 14.6484 9.2461 14.414 15.1875H13.5937C12.8789 15.1875 12.3047 15.7617 12.3047 16.4766C12.3047 17.1797 12.8789 17.7656 13.5937 17.7656H15.6797V24.8438C15.6797 28.6289 18.7148 32.0859 21.8789 34.9336V38.1797C21.8789 39.7148 20.5781 40.8633 19.1015 40.957C19.0664 40.957 19.4531 40.9102 14.8593 41.4023V49.5234H33.6914L40.6054 41.5547C40.582 41.3672 40.5586 41.168 40.5586 40.9805L40.5 40.9688C40.4531 40.957 40.4062 40.957 40.3593 40.957C38.8359 40.957 37.582 39.7148 37.582 38.1797V34.9336C40.7461 32.0859 43.7695 28.6289 43.7695 24.8438V17.7656H45.8672C46.582 17.7656 47.1562 17.1914 47.1562 16.4766C47.1445 15.7617 46.5703 15.1875 45.8554 15.1875ZM38.1211 43.0313C32.4843 46.5234 26.9531 46.5234 21.3281 43.0195C23.1562 42.1758 24.4336 40.3125 24.4336 38.168V37.1484C25.0429 37.6524 25.0781 37.6875 25.3711 37.9336C26.1328 38.5664 27.0937 38.918 28.0781 38.918H31.3359C32.3203 38.918 33.2812 38.5664 34.0429 37.9336C35.3437 36.8555 34.8867 37.2305 34.9922 37.1484V38.1797C35.0039 40.3242 36.2812 42.1758 38.1211 43.0313ZM41.1914 24.832C41.1914 28.9219 35.625 33.2695 32.414 35.9414C32.1211 36.1875 31.7343 36.3281 31.3476 36.3281H28.0898C27.7031 36.3281 27.3281 36.1875 27.0234 35.9414C23.7773 33.2461 18.2461 28.8984 18.2461 24.832V17.7539H41.1914V24.832ZM58.1484 59.6367H53.6132L51.5976 53.8594C51.3984 53.2852 51.1171 52.7578 50.7773 52.2891L51.7382 51.1875C53.6132 51.1641 55.4414 50.6484 57.0351 49.7227C57.3047 50.332 57.5156 50.9649 57.6914 51.6211L59.3906 58.0195C59.6132 58.8047 59.0039 59.6367 58.1484 59.6367ZM33.2109 59.6367H8.61325L10.2656 54.7266C10.8281 53.1797 12.2929 52.0899 14.2617 52.0899H31.9804C31.5586 53.1211 31.3828 54.2344 31.4648 55.3828C31.582 56.9649 32.1914 58.4414 33.2109 59.6367ZM50.8828 59.6367H44.4023L48.9961 54.3281C49.2422 54.8672 49.0312 54.3867 50.8828 59.6367ZM12.2812 49.7344V41.6953C7.18356 42.7266 3.082 46.5469 1.74606 51.5977L0.0351246 58.0078C-0.175813 58.8633 0.445281 59.6367 1.27731 59.6367H5.87106L7.82809 53.8594C8.56637 51.8086 10.2539 50.2969 12.2812 49.7344Z" fill="#FFAE1B"/>
</g>
<defs>
<clipPath id="clip0_1145_40825">
<rect width="60" height="60" fill="white"/>
</clipPath>
</defs>
</svg>
