<svg width="54" height="32" viewBox="0 0 54 32" fill="none" xmlns="http://www.w3.org/2000/svg">
<path d="M49.9688 0.738281H4.03125C2.22188 0.738281 0.75 2.21016 0.75 4.01953V17.2383C0.75 19.057 2.22188 20.5289 4.03125 20.5289H8.30625L9.00938 16.957C9.25313 15.7008 10.1156 14.857 11.1375 14.857H42.8625C43.8937 14.857 44.7469 15.7008 44.9906 16.957L45.6844 20.5289H49.9688C51.7781 20.5289 53.25 19.057 53.25 17.2383V4.01953C53.25 2.21016 51.7781 0.738281 49.9688 0.738281ZM10.1062 7.30078H6.6C6.08437 7.30078 5.6625 6.8789 5.6625 6.36328C5.6625 5.83828 6.08437 5.42578 6.6 5.42578H10.1062C11.3391 5.43797 11.3419 7.28203 10.1062 7.30078Z" fill="#0099F0"/>
<path d="M43.1531 17.323C43.0781 16.9293 42.9 16.7512 42.8438 16.7324H11.1375C11.1 16.7512 10.9219 16.9293 10.8469 17.323C10.6781 18.0871 10.3819 19.753 10.2188 20.5293H43.7813C43.5994 19.7484 43.3275 18.0918 43.1531 17.323ZM16.215 22.9949C15.6984 22.978 15.2494 23.3493 15.2137 23.8668C15.2119 23.8949 14.9887 26.9043 13.7475 29.3943C13.4278 29.9962 13.9106 30.7659 14.5856 30.7499C14.9297 30.7499 15.2606 30.5596 15.4256 30.2315C16.8319 27.4096 17.0756 24.1349 17.085 23.9971C17.0937 23.8742 17.078 23.7508 17.039 23.634C17 23.5172 16.9383 23.4092 16.8575 23.3162C16.7767 23.2232 16.6784 23.147 16.5681 23.0921C16.4579 23.0371 16.3379 23.0035 16.215 22.9949ZM21.6834 23.5171C21.4364 23.5447 21.2104 23.6692 21.055 23.8632C20.8996 24.0572 20.8276 24.305 20.8547 24.5521C21.0159 26.0043 19.9875 28.9612 19.5778 29.9784C19.1372 31.1221 20.8303 31.8196 21.3169 30.6796C21.1987 30.8887 24.3544 23.3746 21.6825 23.5171H21.6834ZM38.7853 23.8659C38.6766 22.6321 36.8522 22.769 36.915 23.9971C36.9244 24.1349 37.1681 27.4096 38.5744 30.2315C39.1322 31.3274 40.7944 30.4912 40.2525 29.3943C39.0159 26.9155 38.7881 23.8959 38.7853 23.8659ZM33.1462 24.5521C33.2616 23.3277 31.4447 23.1262 31.2816 24.3459C31.0397 26.5274 32.5153 30.2615 32.6831 30.6796C33.1697 31.8177 34.8637 31.1249 34.4231 29.9784C34.0125 28.9621 32.9841 26.008 33.1462 24.5521ZM27.0506 23.5105C26.802 23.5105 26.5635 23.6093 26.3877 23.7851C26.2119 23.961 26.1131 24.1994 26.1131 24.448V30.329C26.1131 30.5776 26.2119 30.8161 26.3877 30.9919C26.5635 31.1677 26.802 31.2665 27.0506 31.2665C27.2993 31.2665 27.5377 31.1677 27.7135 30.9919C27.8894 30.8161 27.9881 30.5776 27.9881 30.329V24.449C27.9881 24.2003 27.8894 23.9619 27.7135 23.7861C27.5377 23.6103 27.2993 23.5115 27.0506 23.5115V23.5105Z" fill="#0099F0"/>
</svg>
