<svg width="14" height="14" viewBox="0 0 14 14" fill="none" xmlns="http://www.w3.org/2000/svg">
<path d="M11.9855 9.83287H11.7815C11.6066 9.83287 11.4648 9.6911 11.4648 9.5162C11.4648 9.34131 11.6066 9.19954 11.7815 9.19954H11.9855C12.2946 9.19954 12.546 8.94884 12.546 8.64063V8.54806C12.546 8.35743 12.4504 8.18212 12.2901 8.07911C12.1431 7.98455 12.1004 7.78863 12.195 7.64149C12.2896 7.49443 12.4857 7.45189 12.6326 7.54638C12.975 7.76643 13.1794 8.14089 13.1794 8.54806V8.64063C13.1794 9.29801 12.6438 9.83287 11.9855 9.83287Z" fill="url(#paint0_linear_1145_58678)"/>
<path d="M11.463 11.3554H11.3108C11.1359 11.3554 10.9941 11.2137 10.9941 11.0388C10.9941 10.8639 11.1359 10.7221 11.3108 10.7221H11.463C11.6132 10.7221 11.7525 10.6645 11.8551 10.5597C11.9639 10.452 12.0219 10.3118 12.0219 10.1616C12.0219 10.0084 11.9589 9.86172 11.849 9.75933C11.721 9.64009 11.7139 9.4397 11.8331 9.31174C11.9524 9.18379 12.1527 9.17671 12.2807 9.29587C12.5187 9.5177 12.6553 9.8332 12.6553 10.1616C12.6553 10.4823 12.5305 10.7823 12.304 11.0065C12.0847 11.2303 11.7848 11.3554 11.463 11.3554Z" fill="url(#paint1_linear_1145_58678)"/>
<path d="M3.22168 12.869H1.27687C0.76586 12.869 0.350098 12.4532 0.350098 11.9421V6.45412C0.350098 5.94311 0.76586 5.52734 1.27687 5.52734H3.22168C3.73269 5.52734 4.14845 5.94311 4.14845 6.45412V11.9421C4.14845 12.4532 3.73269 12.869 3.22168 12.869ZM1.27687 6.16068C1.1151 6.16068 0.983431 6.29235 0.983431 6.45412V11.9421C0.983431 12.104 1.1151 12.2356 1.27687 12.2356H3.22168C3.38345 12.2356 3.51512 12.104 3.51512 11.9421V6.45412C3.51512 6.29235 3.38345 6.16068 3.22168 6.16068H1.27687Z" fill="url(#paint2_linear_1145_58678)"/>
<path d="M12.4568 8.12125H12.1824C12.0075 8.12125 11.8657 7.97948 11.8657 7.80458C11.8657 7.62969 12.0075 7.48792 12.1824 7.48792H12.4568C12.7657 7.48792 13.017 7.23722 13.017 6.92915V6.71941C13.017 6.41133 12.7657 6.16071 12.4568 6.16071L9.3956 6.15926C9.29046 6.1592 9.19225 6.10704 9.13336 6.0199C9.07453 5.93283 9.06271 5.82219 9.10188 5.72467C9.31925 5.18301 9.52727 4.48488 9.68746 3.75898C9.71989 3.61253 9.73632 3.46079 9.73632 3.30789C9.73632 2.96587 9.65268 2.62728 9.49456 2.32882C9.25211 1.86818 8.71883 1.65357 8.22638 1.81809L8.11732 1.853C7.99781 1.89285 7.91514 2.00748 7.91514 2.13695V3.04751C7.91514 3.35895 7.80807 3.66455 7.61373 3.90796L5.93597 6.03852C5.91261 6.06821 5.88416 6.09343 5.85186 6.11308L5.14678 6.54238C5.09716 6.57255 5.04019 6.58856 4.98213 6.58856H3.9153C3.7404 6.58856 3.59863 6.44679 3.59863 6.2719C3.59863 6.097 3.7404 5.95523 3.9153 5.95523H4.89334L5.47376 5.6018L7.1175 3.51447C7.22394 3.38115 7.28181 3.21594 7.28181 3.04751V2.13695C7.28181 1.73445 7.53848 1.37841 7.9205 1.25107L8.02963 1.21609C8.81463 0.954469 9.66773 1.29746 10.0546 2.03311C10.2605 2.42173 10.3697 2.86285 10.3697 3.30789C10.3697 3.50677 10.3482 3.70455 10.3059 3.89566C10.1783 4.47374 10.0208 5.03719 9.85136 5.52614L12.457 5.52737C13.1149 5.52737 13.6503 6.06209 13.6503 6.71941V6.92915C13.6503 7.58646 13.1149 8.12125 12.4568 8.12125Z" fill="url(#paint3_linear_1145_58678)"/>
<path d="M11.0832 12.8667H5.71256C5.65628 12.8667 5.60103 12.8518 5.55251 12.8233L4.89622 12.4389H3.9153C3.7404 12.4389 3.59863 12.2971 3.59863 12.1222C3.59863 11.9473 3.7404 11.8056 3.9153 11.8056H4.98213C5.03841 11.8056 5.09366 11.8205 5.14218 11.849L5.79846 12.2334H11.0832C11.2243 12.2334 11.364 12.1757 11.4666 12.0749C11.5646 11.975 11.6209 11.8394 11.6209 11.6972C11.6209 11.5312 11.5486 11.3794 11.4227 11.2807C11.285 11.1728 11.2609 10.9738 11.3689 10.8361C11.4769 10.6985 11.676 10.6744 11.8134 10.7823C12.0935 11.0019 12.2542 11.3354 12.2542 11.6972C12.2542 12.0064 12.1335 12.2995 11.9144 12.5228C11.6902 12.7429 11.3887 12.8667 11.0832 12.8667Z" fill="url(#paint4_linear_1145_58678)"/>
<path d="M11.6194 11.3517C11.5364 11.3517 11.4547 11.318 11.3956 11.2589C11.3365 11.1997 11.3027 11.1195 11.3027 11.0351C11.3027 10.952 11.3365 10.8704 11.3956 10.8113C11.5138 10.6931 11.7263 10.6931 11.8432 10.8113C11.9023 10.8704 11.9361 10.952 11.9361 11.0351C11.9361 11.1195 11.9023 11.2012 11.8432 11.2589C11.7855 11.318 11.7039 11.3517 11.6194 11.3517Z" fill="url(#paint5_linear_1145_58678)"/>
<defs>
<linearGradient id="paint0_linear_1145_58678" x1="13.2719" y1="5.90394" x2="11.172" y2="6.22291" gradientUnits="userSpaceOnUse">
<stop stop-color="#FEC12D"/>
<stop offset="1" stop-color="#FF552C"/>
</linearGradient>
<linearGradient id="paint1_linear_1145_58678" x1="12.7449" y1="7.74979" x2="10.7156" y2="8.07521" gradientUnits="userSpaceOnUse">
<stop stop-color="#FEC12D"/>
<stop offset="1" stop-color="#FF552C"/>
</linearGradient>
<linearGradient id="paint2_linear_1145_58678" x1="4.35342" y1="0.525159" x2="-0.352062" y2="1.02917" gradientUnits="userSpaceOnUse">
<stop stop-color="#FEC12D"/>
<stop offset="1" stop-color="#FF552C"/>
</linearGradient>
<linearGradient id="paint3_linear_1145_58678" x1="14.1927" y1="-3.63531" x2="2.62243" y2="-0.19186" gradientUnits="userSpaceOnUse">
<stop stop-color="#FEC12D"/>
<stop offset="1" stop-color="#FF552C"/>
</linearGradient>
<linearGradient id="paint4_linear_1145_58678" x1="12.7213" y1="9.24865" x2="6.31672" y2="14.5819" gradientUnits="userSpaceOnUse">
<stop stop-color="#FEC12D"/>
<stop offset="1" stop-color="#FF552C"/>
</linearGradient>
<linearGradient id="paint5_linear_1145_58678" x1="11.9702" y1="10.294" x2="11.2097" y2="10.4526" gradientUnits="userSpaceOnUse">
<stop stop-color="#FEC12D"/>
<stop offset="1" stop-color="#FF552C"/>
</linearGradient>
</defs>
</svg>
