<svg width="30" height="30" viewBox="0 0 30 30" fill="none" xmlns="http://www.w3.org/2000/svg">
<g clip-path="url(#clip0_1164_8620)">
<path fill-rule="evenodd" clip-rule="evenodd" d="M22.5 22.4859H19.3922V17.6222C19.3922 16.4625 19.3716 14.9709 17.7769 14.9709C16.1597 14.9709 15.9131 16.2347 15.9131 17.5397V22.4859H12.8081V12.4847H15.7875V13.8525H15.8306C16.245 13.0659 17.2594 12.2362 18.7716 12.2362C21.9188 12.2362 22.5 14.3072 22.5 17.0006V22.4859ZM9.30375 11.1187C9.06706 11.1189 8.83266 11.0724 8.61393 10.982C8.3952 10.8916 8.19643 10.7589 8.02896 10.5917C7.86149 10.4244 7.7286 10.2258 7.63788 10.0072C7.54716 9.7886 7.50039 9.55427 7.50023 9.31758C7.50008 9.08089 7.54655 8.84649 7.63698 8.62776C7.72742 8.40903 7.86005 8.21026 8.0273 8.04279C8.19455 7.87531 8.39316 7.74242 8.61177 7.65171C8.83038 7.56099 9.06472 7.51422 9.30141 7.51406C9.77942 7.51375 10.238 7.70334 10.5762 8.04113C10.9144 8.37891 11.1046 8.83722 11.1049 9.31523C11.1052 9.79325 10.9156 10.2518 10.5779 10.59C10.2401 10.9283 9.78176 11.1184 9.30375 11.1187ZM10.8581 22.4859H7.74656V12.4847H10.8581V22.4859ZM15 0C6.71531 0 0 6.71531 0 15C0 23.2838 6.71531 30 15 30C23.2847 30 30 23.2838 30 15C30 6.71531 23.2847 0 15 0Z" fill="#2E78B6"/>
</g>
<defs>
<clipPath id="clip0_1164_8620">
<rect width="30" height="30" fill="white"/>
</clipPath>
</defs>
</svg>
