<svg width="44" height="44" viewBox="0 0 44 44" fill="none" xmlns="http://www.w3.org/2000/svg">
<g clip-path="url(#clip0_1153_14692)">
<path d="M22 44C34.1503 44 44 34.1503 44 22C44 9.84974 34.1503 0 22 0C9.84974 0 0 9.84974 0 22C0 34.1503 9.84974 44 22 44Z" fill="#007AB9"/>
<path d="M35.1447 23.7703V32.8404H29.8861V24.3782C29.8861 22.2534 29.1269 20.8024 27.2229 20.8024C25.7699 20.8024 24.9067 21.7793 24.5255 22.7252C24.3871 23.0632 24.3514 23.5327 24.3514 24.0068V32.84H19.0924C19.0924 32.84 19.163 18.5078 19.0924 17.0242H24.3518V19.2654C24.3412 19.2831 24.3263 19.3004 24.3169 19.3172H24.3518V19.2654C25.0507 18.1901 26.297 16.6528 29.0912 16.6528C32.5509 16.6528 35.1447 18.9133 35.1447 23.7703ZM13.591 9.40039C11.7921 9.40039 10.6152 10.5812 10.6152 12.1326C10.6152 13.6511 11.758 14.8661 13.522 14.8661H13.5561C15.3903 14.8661 16.5307 13.6511 16.5307 12.1326C16.4958 10.5812 15.3903 9.40039 13.591 9.40039ZM10.9278 32.8404H16.1848V17.0242H10.9278V32.8404Z" fill="#F1F2F2"/>
</g>
<defs>
<clipPath id="clip0_1153_14692">
<rect width="44" height="44" fill="white"/>
</clipPath>
</defs>
</svg>
