<svg width="16" height="16" viewBox="0 0 16 16" fill="none" xmlns="http://www.w3.org/2000/svg">
<g clip-path="url(#clip0_1145_45464)">
<path d="M10.3142 5.31127C10.8271 5.52821 11.3015 5.81317 11.7317 6.16063V3.70447C11.7317 1.66196 10.0697 0 8.0272 0H7.97021C5.92953 0 4.26758 1.66196 4.26758 3.70447V6.16063C4.69777 5.81319 5.17209 5.52823 5.68502 5.31127C5.8229 5.25244 5.96446 5.19913 6.10602 5.15133V3.70447C6.10602 2.67494 6.94252 1.83845 7.97205 1.83845H8.02904C9.05857 1.83845 9.89506 2.67494 9.89506 3.70447V5.15317C10.0348 5.19913 10.1763 5.25244 10.3142 5.31127Z" fill="#010101"/>
<path d="M2.78906 10.7901C2.78906 13.6673 5.12205 16.0003 7.99922 16.0003C10.8764 16.0003 13.2094 13.6691 13.2094 10.7901C13.2094 9.37636 12.645 8.09312 11.7313 7.15366C11.2165 6.62604 10.5914 6.20686 9.89284 5.93295C9.30637 5.70314 8.66658 5.57812 7.99924 5.57812C7.33188 5.57812 6.6921 5.70314 6.10564 5.93295C5.40703 6.20504 4.78196 6.6242 4.26719 7.15366C3.35163 8.09312 2.78906 9.37636 2.78906 10.7901ZM6.65714 9.73853C6.67552 9.02705 7.25463 8.44794 7.96611 8.43138C8.72169 8.41299 9.34127 9.02154 9.34127 9.77344C9.34127 9.85251 9.33391 9.92971 9.32104 10.0032C9.25482 10.3838 9.02873 10.7111 8.71248 10.9096C8.58195 10.9924 8.51579 11.1468 8.5489 11.2957L8.94786 13.1875C8.97178 13.3014 8.88535 13.4099 8.76767 13.4099H7.23075C7.11309 13.4099 7.02666 13.3033 7.05058 13.1875L7.44951 11.2957C7.48076 11.1449 7.41641 10.9905 7.2859 10.9078C6.96969 10.7092 6.74356 10.3838 6.67736 10.0014C6.66265 9.91686 6.65532 9.82861 6.65714 9.73853Z" fill="#010101"/>
</g>
<defs>
<clipPath id="clip0_1145_45464">
<rect width="16" height="16" fill="white"/>
</clipPath>
</defs>
</svg>
