<svg width="40" height="26" viewBox="0 0 40 26" fill="none" xmlns="http://www.w3.org/2000/svg">
<path fill-rule="evenodd" clip-rule="evenodd" d="M37 0.458984H2C1 0.458984 0 1.45948 0 2.4599V22.4692C0 24.4701 1 25.4707 3 25.4707H37C39 25.4707 40 24.4701 40 22.4692V3.4604C40 1.45948 39 0.458984 37 0.458984Z" fill="#F4F4F4"/>
<path fill-rule="evenodd" clip-rule="evenodd" d="M6.41297 14.7547C6.38597 14.737 6.57122 14.0235 7.01272 12.4439C7.36413 11.1871 7.69455 10.0114 7.74705 9.83141L7.84255 9.50391L9.22297 9.52907C10.8368 9.55857 11.0853 9.57991 11.3449 9.71124C11.8051 9.94407 11.9318 10.3024 11.7732 10.9225C11.6381 11.4507 11.38 11.8102 10.881 12.1652C10.7865 12.2325 10.7037 12.3147 10.6974 12.3481C10.6902 12.385 10.7492 12.4664 10.8487 12.5569C10.9385 12.6386 11.0337 12.7477 11.0605 12.7997C11.1328 12.9392 11.1202 13.219 11.02 13.7038C10.9709 13.9415 10.9215 14.2812 10.9103 14.4587L10.8898 14.7814H10.2216C9.74838 14.7814 9.54113 14.7692 9.51155 14.7395C9.4463 14.6743 9.46105 14.508 9.5743 14.0313C9.70038 13.5008 9.70797 13.2926 9.60613 13.1632C9.47155 12.9921 9.34955 12.9551 8.86647 12.939C8.47672 12.9259 8.41172 12.9317 8.35263 12.9852C8.26072 13.0684 8.18613 13.2832 7.96813 14.0923L7.78247 14.7814L7.11721 14.7808C6.7513 14.7806 6.43438 14.7687 6.41297 14.7547ZM9.92522 11.7947C10.2425 11.7005 10.376 11.4936 10.3765 11.0959C10.3767 10.9762 10.3564 10.8921 10.3157 10.8429C10.2194 10.7266 9.9293 10.6871 9.38522 10.7162L8.9123 10.7416L8.84347 10.9735C8.73705 11.3317 8.66247 11.6779 8.67413 11.7595C8.6818 11.8128 8.71863 11.8401 8.8068 11.8573C8.99997 11.8952 9.72305 11.8547 9.92522 11.7947ZM12.1628 14.857C11.9515 14.7814 11.7854 14.6403 11.7156 14.4772C11.5829 14.1672 11.7049 13.4778 12.1893 11.801C12.3053 11.3995 12.4001 11.067 12.4001 11.0622C12.4001 11.0573 12.4249 11.0287 12.455 10.9986C12.4998 10.9538 12.6019 10.9437 13.0109 10.9437C13.2865 10.9437 13.551 10.9586 13.5988 10.9767L13.6855 11.0097L13.599 11.3169C13.3868 12.0702 13.1668 12.9839 13.1287 13.2696C13.0942 13.5291 13.0955 13.5981 13.1367 13.684C13.2304 13.8795 13.5705 13.9208 13.86 13.7719C14.1995 13.5972 14.2633 13.4477 14.8091 11.5439C14.8891 11.2647 14.9502 11.1197 15.0183 11.0467L15.1145 10.9437H15.6598C16.0815 10.9437 16.2091 10.9543 16.223 10.9902C16.2365 11.0257 15.5436 13.6058 15.2515 14.6069L15.2057 14.7639L14.6227 14.7814C14.3021 14.791 14.0398 14.789 14.0399 14.7771C14.0399 14.7651 14.0637 14.6879 14.0927 14.6055C14.2106 14.2713 14.0636 14.2505 13.6343 14.5402C13.2101 14.8264 13.0322 14.8942 12.6649 14.9097C12.4165 14.9202 12.3078 14.9089 12.1628 14.857ZM16.0387 14.7536C16.0077 14.7338 16.1872 14.0415 16.7191 12.1288L17.4416 9.53082L18.6626 9.54107C20.1857 9.55382 20.4971 9.58082 20.7915 9.72582C21.0337 9.84499 21.1491 9.95166 21.2568 10.1559C21.4378 10.4992 21.4348 10.8975 21.247 11.4439C20.9583 12.2837 20.4195 12.836 19.7091 13.0199C19.594 13.0497 19.2329 13.0901 18.9066 13.1096C17.8291 13.1739 17.8939 13.1618 17.8361 13.3097C17.8085 13.3804 17.7009 13.7405 17.597 14.1098L17.4078 14.7814L16.7443 14.7808C16.3794 14.7806 16.0618 14.7683 16.0387 14.7536ZM19.1805 11.9573C19.5356 11.9115 19.7221 11.802 19.8406 11.5697C19.968 11.3201 20.0016 11.0483 19.9205 10.9245C19.8099 10.7557 19.6585 10.7188 19.088 10.7217C18.8038 10.7232 18.5574 10.7384 18.5403 10.7556C18.5012 10.7948 18.2613 11.7434 18.2613 11.8586C18.2613 11.9055 18.2717 11.9544 18.2845 11.9672C18.3176 12.0002 18.8971 11.9938 19.1805 11.9573ZM21.1744 14.8714C20.7636 14.6993 20.6571 14.4149 20.791 13.8471C20.9781 13.0532 21.3904 12.7878 22.8057 12.5497C23.6602 12.4061 23.8736 12.301 23.9351 11.9937C23.9805 11.7664 23.7857 11.6421 23.3833 11.6417C23.1321 11.6414 23.0378 11.6781 22.82 11.8607L22.6443 12.0078L22.1918 12.0195C21.6674 12.0328 21.5058 12.012 21.5058 11.9308C21.5058 11.8362 21.7115 11.5472 21.9038 11.3716C22.1103 11.183 22.3836 11.0385 22.6796 10.9614C23.3011 10.7995 24.3708 10.8183 24.7385 10.9976C24.9353 11.0936 25.1101 11.2529 25.1935 11.4122C25.2724 11.563 25.2441 11.7193 24.8726 13.1925C24.6902 13.9155 24.541 14.5688 24.541 14.6442V14.7814H24.1098C23.8726 14.7814 23.6061 14.7913 23.5175 14.8035L23.3563 14.8256L23.2855 14.6602C23.2021 14.466 23.1925 14.4661 22.7538 14.6633C22.2773 14.8777 22.1027 14.9254 21.7325 14.9427C21.4175 14.9575 21.3634 14.9506 21.1744 14.8714ZM23.0495 14.0562C23.2901 13.9498 23.5618 13.5142 23.5634 13.2326L23.5642 13.0967L23.3426 13.1174C23.0973 13.1403 22.5786 13.3076 22.3885 13.4251C22.228 13.5242 22.134 13.6841 22.1345 13.8568C22.1349 14.0226 22.1593 14.0679 22.2743 14.1168C22.4056 14.1728 22.8676 14.1367 23.0495 14.0562ZM24.9709 16.434C24.8311 16.4025 24.8259 16.3503 24.923 15.9676C25.0532 15.4546 25.0446 15.4652 25.3661 15.4152C25.7129 15.3613 25.8678 15.2851 25.9452 15.1302C26.0309 14.9587 26.0247 14.2852 25.921 12.4788C25.8632 11.4736 25.8489 11.0177 25.874 10.9874C25.9005 10.9555 26.0771 10.9437 26.5317 10.9437H27.1533L27.1641 12.1108C27.1716 12.907 27.1873 13.2902 27.2138 13.3166C27.2773 13.38 27.5107 12.9852 28.4673 11.1967L28.6026 10.9437H29.1514C29.4532 10.9437 29.7076 10.9558 29.7167 10.9704C29.7342 10.9987 28.9025 12.4811 28.0681 13.9092C26.8821 15.9389 26.6591 16.2187 26.1027 16.3737C25.9211 16.4242 25.1177 16.4672 24.9709 16.434Z" fill="black"/>
<path fill-rule="evenodd" clip-rule="evenodd" d="M30.1127 15.9686L31.7437 9.99414L33.2962 13.0816L30.1127 15.9686Z" fill="#479951"/>
<path fill-rule="evenodd" clip-rule="evenodd" d="M29.1034 15.99L30.7344 10.0156L32.2869 13.1031L29.1034 15.99Z" fill="#D97B16"/>
<path fill-rule="evenodd" clip-rule="evenodd" d="M33.5975 9.88246V9.47521H33.4427V9.4043H33.8334V9.47521H33.6773V9.88246H33.5975ZM33.8869 9.88246V9.4043H34.0042L34.125 9.78621L34.2418 9.4043H34.3568V9.88246H34.284V9.48113L34.1609 9.88246H34.0887L33.9602 9.47521V9.88246H33.8869Z" fill="black"/>
</svg>
