<svg width="26" height="16" viewBox="0 0 26 16" fill="none" xmlns="http://www.w3.org/2000/svg">
<g clip-path="url(#clip0_1145_45428)">
<path opacity="0.07" d="M23.6712 0H2.33476C1.20126 0 0.334473 0.866667 0.334473 2V14C0.334473 15.1333 1.26794 16 2.33476 16H23.6712C24.8047 16 25.6715 15.1333 25.6715 14V2C25.6715 0.866667 24.738 0 23.6712 0Z" fill="#24292A"/>
<path d="M23.6729 0.666016C24.4063 0.666016 25.0064 1.26602 25.0064 1.99935V13.9993C25.0064 14.7327 24.4063 15.3327 23.6729 15.3327H2.33646C1.60302 15.3327 1.00293 14.7327 1.00293 13.9993V1.99935C1.00293 1.26602 1.60302 0.666016 2.33646 0.666016H23.6729Z" fill="white"/>
<path d="M16.2675 5.53398C16.4008 4.86732 16.2675 4.40065 15.8675 4.00065C15.4675 3.53398 14.7341 3.33398 13.8008 3.33398H11.0675C10.8675 3.33398 10.7341 3.46732 10.6675 3.66732L9.66748 10.4007C9.66748 10.534 9.73415 10.6673 9.86748 10.6673H11.6675L11.9341 8.40065L13.1341 6.93398L16.2675 5.53398Z" fill="#003087"/>
<path d="M16.271 5.5332L16.1376 5.66654C15.8043 7.5332 14.671 8.19987 13.071 8.19987H12.3376C12.1376 8.19987 12.0043 8.3332 11.9376 8.5332L11.5376 11.1332L11.4043 11.7999C11.4043 11.9332 11.471 12.0665 11.6043 12.0665H13.0043C13.2043 12.0665 13.3376 11.9332 13.3376 11.7999V11.7332L13.6043 10.1332V10.0665C13.6043 9.9332 13.8043 9.79987 13.9376 9.79987H14.1376C15.5376 9.79987 16.6043 9.26654 16.871 7.66654C17.0043 6.99987 16.9376 6.46654 16.6043 6.06654C16.5376 5.7332 16.4043 5.59987 16.271 5.5332Z" fill="#3086C8"/>
<path d="M15.8684 5.39922C15.8017 5.33255 15.7351 5.33255 15.6684 5.33255C15.6017 5.33255 15.5351 5.33255 15.4684 5.26589C15.2684 5.19922 15.0017 5.19922 14.7351 5.19922H12.7351C12.6684 5.19922 12.6017 5.19922 12.6017 5.26589C12.4684 5.33255 12.4017 5.39922 12.4017 5.53255L11.9351 8.46588V8.53255C11.9351 8.33255 12.1351 8.19922 12.3351 8.19922H13.2017C14.8684 8.19922 15.9351 7.53255 16.2684 5.66589V5.53255C16.2017 5.46589 16.0684 5.39922 15.9351 5.39922H15.8684Z" fill="#012169"/>
</g>
<defs>
<clipPath id="clip0_1145_45428">
<rect width="25.337" height="16" fill="white" transform="translate(0.334473)"/>
</clipPath>
</defs>
</svg>
