<svg width="22" height="22" viewBox="0 0 22 22" fill="none" xmlns="http://www.w3.org/2000/svg">
<path d="M5.5 0C4.74375 0 4.125 0.61875 4.125 1.375V20.625C4.125 21.3813 4.74375 22 5.5 22H19.25C20.0063 22 20.625 21.3813 20.625 20.625V5.5L15.125 0H5.5Z" fill="#E2E5E7"/>
<path d="M16.5 5.5H20.625L15.125 0V4.125C15.125 4.88125 15.7437 5.5 16.5 5.5Z" fill="#B0B7BD"/>
<path d="M20.625 9.625L16.5 5.5H20.625V9.625Z" fill="#CAD1D8"/>
<path d="M17.875 17.875C17.875 18.2531 17.5656 18.5625 17.1875 18.5625H2.0625C1.68437 18.5625 1.375 18.2531 1.375 17.875V11C1.375 10.6219 1.68437 10.3125 2.0625 10.3125H17.1875C17.5656 10.3125 17.875 10.6219 17.875 11V17.875Z" fill="#F15642"/>
<path d="M4.37158 13.0279C4.37158 12.8464 4.51458 12.6484 4.74489 12.6484H6.01471C6.72971 12.6484 7.37321 13.1269 7.37321 14.0441C7.37321 14.9131 6.72971 15.3971 6.01471 15.3971H5.09689V16.1231C5.09689 16.3651 4.94289 16.5019 4.74489 16.5019C4.56339 16.5019 4.37158 16.3651 4.37158 16.1231V13.0279ZM5.09689 13.3408V14.7102H6.01471C6.38321 14.7102 6.67471 14.3851 6.67471 14.0441C6.67471 13.6597 6.38321 13.3408 6.01471 13.3408H5.09689ZM8.44983 16.5019C8.26833 16.5019 8.07033 16.4029 8.07033 16.1616V13.0389C8.07033 12.8416 8.26833 12.6979 8.44983 12.6979H9.70864C12.2208 12.6979 12.1658 16.5019 9.75814 16.5019H8.44983ZM8.79633 13.3689V15.8316H9.70864C11.193 15.8316 11.259 13.3689 9.70864 13.3689H8.79633ZM13.0568 13.4129V14.2867H14.4586C14.6566 14.2867 14.8546 14.4847 14.8546 14.6766C14.8546 14.8581 14.6566 15.0066 14.4586 15.0066H13.0568V16.1609C13.0568 16.3534 12.92 16.5012 12.7275 16.5012C12.4855 16.5012 12.3376 16.3534 12.3376 16.1609V13.0382C12.3376 12.8409 12.4861 12.6972 12.7275 12.6972H14.6573C14.8993 12.6972 15.0423 12.8409 15.0423 13.0382C15.0423 13.2142 14.8993 13.4123 14.6573 13.4123H13.0568V13.4129Z" fill="white"/>
<path d="M17.1875 18.5625H4.125V19.25H17.1875C17.5656 19.25 17.875 18.9406 17.875 18.5625V17.875C17.875 18.2531 17.5656 18.5625 17.1875 18.5625Z" fill="#CAD1D8"/>
</svg>
