<svg width="20" height="20" viewBox="0 0 20 20" fill="none" xmlns="http://www.w3.org/2000/svg">
<g clip-path="url(#clip0_1145_59393)">
<path d="M10 20C15.5228 20 20 15.5228 20 10C20 4.47715 15.5228 0 10 0C4.47715 0 0 4.47715 0 10C0 15.5228 4.47715 20 10 20Z" fill="url(#paint0_linear_1145_59393)"/>
<path d="M13.4826 9.2793L13.4771 9.27383L10.7209 6.51562C10.7209 6.51562 7.36148 9.875 5.74273 11.5273C5.54116 11.7328 5.38843 12.0188 5.29781 12.2953C5.03218 13.1074 4.81226 13.9359 4.56773 14.7563C4.5021 14.9762 4.51538 15.1699 4.68765 15.334C4.85015 15.4902 5.03296 15.4957 5.2439 15.4324C6.02515 15.198 6.81148 14.975 7.59624 14.7504C7.99979 14.6334 8.36561 14.4127 8.65718 14.1102C10.1994 12.5586 13.4826 9.2793 13.4826 9.2793Z" fill="white"/>
<path d="M15.092 5.85101L14.1494 4.90844C13.9077 4.66692 13.58 4.53125 13.2383 4.53125C12.8966 4.53125 12.5689 4.66692 12.3271 4.90844L11.2588 5.97562L14.024 8.74164L15.0924 7.67328C15.3339 7.43151 15.4694 7.10376 15.4694 6.76207C15.4693 6.42037 15.3336 6.09268 15.092 5.85101Z" fill="white"/>
</g>
<defs>
<linearGradient id="paint0_linear_1145_59393" x1="21.0793" y1="-13.6269" x2="-2.95145" y2="-8.65188" gradientUnits="userSpaceOnUse">
<stop stop-color="#FEC12D"/>
<stop offset="1" stop-color="#FF552C"/>
</linearGradient>
<clipPath id="clip0_1145_59393">
<rect width="20" height="20" fill="white"/>
</clipPath>
</defs>
</svg>
