<svg width="80" height="80" viewBox="0 0 80 80" fill="none" xmlns="http://www.w3.org/2000/svg">
<path d="M68.75 63.8883C68.5722 62.2183 67.8814 60.6443 66.7725 59.3831C65.6635 58.1218 64.191 57.2352 62.5575 56.8452L47.4506 53.237L46.8518 46.1914C45.8706 46.9115 44.8334 47.5519 43.75 48.1064C42.5895 48.6986 41.3053 49.0074 40.0025 49.0074C38.6996 49.0074 37.4154 48.6986 36.255 48.1064C35.1714 47.5523 34.1341 46.9122 33.1531 46.192L32.555 53.237L17.4412 56.8452C15.8079 57.2354 14.3356 58.1221 13.2269 59.3834C12.1183 60.6446 11.4276 62.2184 11.25 63.8883L9.95496 76.057H70.0462L68.75 63.8883Z" fill="#FFE17D"/>
<path d="M47.4506 76.0583V53.2383C47.4506 55.2143 46.6656 57.1094 45.2683 58.5067C43.8711 59.9039 41.976 60.6889 39.9999 60.6889C38.0239 60.6889 36.1288 59.9039 34.7316 58.5067C33.3343 57.1094 32.5493 55.2143 32.5493 53.2383V76.0583H47.4506Z" fill="#E6646E"/>
<path d="M27.4369 54.4595L24.5256 68.5039L32.5494 65.6902V53.2383L27.4369 54.4595Z" fill="#FFD164"/>
<path d="M52.5631 54.4595L55.4743 68.5039L47.4506 65.6902V53.2383L52.5631 54.4595Z" fill="#FFD164"/>
<path d="M24.5256 27.9945L27.0568 25.4414C28.2353 24.2529 28.9903 22.7099 29.2056 21.0502L29.7256 17.0395C33.0964 17.8014 36.5443 18.1687 40 18.1339C43.4556 18.1687 46.9036 17.8014 50.2743 17.0395L50.7943 21.0502C51.0092 22.7101 51.7643 24.2532 52.9431 25.4414L55.4743 27.9945C56.2096 27.6657 57.0124 27.5158 57.8168 27.557V20.4139C57.8168 3.94141 42.2987 3.94141 42.2987 3.94141H23.8437C23.8437 8.19141 27.6937 10.232 27.6937 10.232C26.0815 10.8054 24.6864 11.8638 23.6998 13.2618C22.7133 14.6599 22.1836 16.3291 22.1837 18.0402V27.5577C22.9879 27.5163 23.7904 27.666 24.5256 27.9945Z" fill="#CD916E"/>
<path d="M24.5256 27.9947C24.5256 27.9947 21.0306 26.3185 19.855 29.4097C18.9475 31.7972 20.5343 36.366 25.5468 35.406H54.4531C59.465 36.366 61.0525 31.7972 60.145 29.4097C58.9693 26.3185 55.4743 27.9947 55.4743 27.9947H24.5256Z" fill="#FEB983"/>
<path d="M24.5256 27.9941L27.0569 25.4409C28.2353 24.2524 28.9903 22.7095 29.2056 21.0497L29.7256 17.0391C33.0964 17.801 36.5444 18.1682 40 18.1334C43.4556 18.1682 46.9036 17.801 50.2744 17.0391L50.7944 21.0497C51.0093 22.7096 51.7643 24.2527 52.9431 25.4409L55.4744 27.9941C55.4744 40.1641 48.3275 45.7666 43.7475 48.1066C42.5871 48.6988 41.3028 49.0075 40 49.0075C38.6972 49.0075 37.4129 48.6988 36.2525 48.1066C31.6725 45.7666 24.5256 40.1641 24.5256 27.9941Z" fill="#FCD0A3"/>
<path d="M46.8499 46.1914C45.8693 46.9114 44.8327 47.5518 43.7499 48.1064C42.5895 48.6986 41.3052 49.0074 40.0024 49.0074C38.6996 49.0074 37.4154 48.6986 36.2549 48.1064C35.1714 47.5523 34.1341 46.9122 33.1531 46.192L32.5549 53.237C32.5549 55.2131 33.3399 57.1082 34.7372 58.5054C36.1344 59.9027 38.0295 60.6877 40.0056 60.6877C41.9816 60.6877 43.8767 59.9027 45.2739 58.5054C46.6712 57.1082 47.4562 55.2131 47.4562 53.237L46.8574 46.1914H46.8499Z" fill="#FEB983"/>
<path d="M39.9999 41.3087C38.4176 41.3473 36.8492 41.0059 35.4261 40.3131C35.1736 40.1702 34.9882 39.9328 34.9106 39.6532C34.8331 39.3736 34.8698 39.0747 35.0127 38.8221C35.1556 38.5696 35.3929 38.3842 35.6725 38.3066C35.9521 38.2291 36.2511 38.2658 36.5036 38.4087C37.5998 38.9087 38.7955 39.1524 39.9999 39.1212C41.206 39.1522 42.4031 38.907 43.4999 38.4043C43.6252 38.3338 43.7632 38.2887 43.906 38.2715C44.0487 38.2543 44.1935 38.2655 44.332 38.3042C44.4705 38.343 44.5999 38.4087 44.713 38.4975C44.8261 38.5863 44.9206 38.6965 44.9911 38.8218C45.0616 38.9471 45.1068 39.0851 45.1239 39.2279C45.1411 39.3707 45.13 39.5154 45.0912 39.6539C45.0525 39.7924 44.9868 39.9219 44.898 40.035C44.8092 40.1481 44.699 40.2426 44.5736 40.3131C43.1505 41.0058 41.5821 41.3472 39.9999 41.3087Z" fill="#CD916E"/>
<path d="M36.3843 27.4709C36.1192 27.4709 35.8632 27.3748 35.6637 27.2003C35.1333 26.8714 34.5217 26.6972 33.8977 26.6972C33.2737 26.6972 32.6621 26.8714 32.1318 27.2003C31.9114 27.3849 31.6277 27.4762 31.3411 27.4549C31.0544 27.4335 30.7874 27.3011 30.5968 27.086C30.408 26.8727 30.3107 26.5937 30.3259 26.3093C30.3411 26.0249 30.4676 25.7579 30.678 25.5659C31.5916 24.8416 32.7335 24.4668 33.8987 24.5091C35.0638 24.4668 36.2057 24.8416 37.1193 25.5659C37.2828 25.7144 37.3976 25.9088 37.4486 26.1237C37.4995 26.3386 37.4842 26.5639 37.4047 26.7699C37.3251 26.9759 37.1851 27.153 37.0029 27.2779C36.8208 27.4029 36.6051 27.4697 36.3843 27.4697V27.4709Z" fill="#CD916E"/>
<path d="M35.408 30.1285C35.408 30.427 35.3195 30.7189 35.1537 30.9671C34.9878 31.2153 34.7521 31.4088 34.4763 31.523C34.2005 31.6372 33.897 31.6671 33.6042 31.6089C33.3114 31.5506 33.0425 31.4069 32.8314 31.1958C32.6203 30.9847 32.4765 30.7158 32.4183 30.423C32.36 30.1302 32.3899 29.8267 32.5042 29.5509C32.6184 29.2751 32.8119 29.0394 33.0601 28.8735C33.3083 28.7077 33.6001 28.6191 33.8987 28.6191C34.0969 28.6191 34.2932 28.658 34.4764 28.7339C34.6595 28.8097 34.826 28.9209 34.9661 29.061C35.1063 29.2012 35.2175 29.3676 35.2933 29.5508C35.3691 29.734 35.4081 29.9303 35.408 30.1285Z" fill="#CD916E"/>
<path d="M48.5856 27.4709C48.3207 27.4709 48.0649 27.3747 47.8656 27.2003C47.3354 26.8714 46.7238 26.6971 46.0999 26.6971C45.476 26.6971 44.8645 26.8714 44.3343 27.2003C44.1137 27.3844 43.8302 27.4755 43.5436 27.4541C43.2571 27.4328 42.9901 27.3007 42.7993 27.0859C42.6104 26.8728 42.513 26.5937 42.5282 26.3093C42.5434 26.0248 42.67 25.7578 42.8806 25.5659C43.8141 24.8798 44.9423 24.5098 46.1009 24.5098C47.2594 24.5098 48.3877 24.8798 49.3212 25.5659C49.4848 25.7144 49.5996 25.9089 49.6505 26.1238C49.7014 26.3388 49.6861 26.5641 49.6064 26.7702C49.5268 26.9762 49.3867 27.1533 49.2044 27.2782C49.0222 27.4031 48.8065 27.4698 48.5856 27.4697V27.4709Z" fill="#CD916E"/>
<path d="M47.6099 30.1285C47.6099 30.4271 47.5214 30.7189 47.3555 30.9671C47.1896 31.2154 46.9539 31.4088 46.678 31.5231C46.4022 31.6373 46.0987 31.6671 45.8059 31.6088C45.5131 31.5506 45.2441 31.4067 45.0331 31.1956C44.822 30.9844 44.6783 30.7154 44.6201 30.4226C44.5619 30.1298 44.5919 29.8263 44.7063 29.5505C44.8206 29.2747 45.0142 29.039 45.2625 28.8732C45.5108 28.7074 45.8026 28.619 46.1012 28.6191C46.2994 28.6191 46.4956 28.6582 46.6787 28.734C46.8618 28.8099 47.0281 28.9211 47.1683 29.0613C47.3084 29.2014 47.4195 29.3678 47.4953 29.5509C47.5711 29.7341 47.61 29.9303 47.6099 30.1285Z" fill="#CD916E"/>
</svg>
