<svg width="24" height="18" viewBox="0 0 24 18" fill="none" xmlns="http://www.w3.org/2000/svg">
<path d="M21.05 14.0129H1.45003C1.06341 14.0129 0.75 13.6995 0.75 13.3129V1.41292C0.75 1.0263 1.06341 0.712891 1.45003 0.712891H21.0501C21.4367 0.712891 21.7501 1.0263 21.7501 1.41292V13.3129C21.75 13.6995 21.4366 14.0129 21.05 14.0129Z" fill="#F8834B"/>
<path d="M6.281 5.29121L7.01732 6.78305C7.10872 6.9683 7.28544 7.09665 7.48982 7.12637L9.13616 7.36562C9.65085 7.44043 9.85644 8.07296 9.48397 8.43596L8.29251 9.59724C8.14457 9.74143 8.07707 9.94909 8.11204 10.1527L8.39329 11.7924C8.48122 12.305 7.9431 12.696 7.48279 12.4539L6.01025 11.6797C5.82744 11.5836 5.609 11.5836 5.42619 11.6797L3.95366 12.4539C3.49325 12.696 2.95522 12.305 3.04316 11.7924L3.32441 10.1527C3.35929 9.94918 3.29188 9.74143 3.14394 9.59724L1.95266 8.43596C1.58019 8.07287 1.78569 7.44034 2.30047 7.36562L3.94682 7.12637C4.15119 7.09665 4.32791 6.9683 4.41932 6.78305L5.15563 5.29121C5.38569 4.8248 6.05076 4.8248 6.281 5.29121Z" fill="#FFEA92"/>
<path d="M19.8813 4.17241H2.2312C1.97236 4.17241 1.76245 3.9625 1.76245 3.70366V2.40625C1.76245 2.14741 1.97236 1.9375 2.2312 1.9375H19.8813C20.1402 1.9375 20.3501 2.14741 20.3501 2.40625V3.70366C20.3501 3.9625 20.1402 4.17241 19.8813 4.17241Z" fill="#E0EBFC"/>
<path d="M19.6938 7.67578H11.2031C10.8407 7.67578 10.5469 7.38197 10.5469 7.01953C10.5469 6.65709 10.8407 6.36328 11.2031 6.36328H19.6938C20.0562 6.36328 20.35 6.65709 20.35 7.01953C20.35 7.38197 20.0562 7.67578 19.6938 7.67578Z" fill="#E0EBFC"/>
<path d="M19.6938 10.125H11.2031C10.8407 10.125 10.5469 9.83119 10.5469 9.46875C10.5469 9.10631 10.8407 8.8125 11.2031 8.8125H19.6938C20.0562 8.8125 20.35 9.10631 20.35 9.46875C20.35 9.83119 20.0562 10.125 19.6938 10.125Z" fill="#E0EBFC"/>
<path d="M21.05 14.2003H1.45003C0.960656 14.2003 0.5625 13.8022 0.5625 13.3128V1.41292C0.5625 0.923547 0.960656 0.525391 1.45003 0.525391H21.05C21.5393 0.525391 21.9375 0.923547 21.9375 1.41292V13.3129C21.9375 13.8023 21.5393 14.2003 21.05 14.2003ZM1.45003 0.900391C1.16747 0.900391 0.9375 1.13036 0.9375 1.41292V13.3129C0.9375 13.5955 1.16747 13.8254 1.45003 13.8254H21.05C21.3325 13.8254 21.5625 13.5955 21.5625 13.3129V1.41292C21.5625 1.13036 21.3325 0.900391 21.05 0.900391H1.45003Z" fill="#3762CC"/>
<path d="M19.939 17.288C21.7676 17.288 23.25 15.8056 23.25 13.977C23.25 12.1484 21.7676 10.666 19.939 10.666C18.1104 10.666 16.6281 12.1484 16.6281 13.977C16.6281 15.8056 18.1104 17.288 19.939 17.288Z" fill="#EAA97D"/>
<path d="M19.939 16.3783C21.2646 16.3783 22.3391 15.3038 22.3391 13.9782C22.3391 12.6527 21.2646 11.5781 19.939 11.5781C18.6135 11.5781 17.5389 12.6527 17.5389 13.9782C17.5389 15.3038 18.6135 16.3783 19.939 16.3783Z" fill="#FFEA92"/>
<path d="M20.0679 11.9109V12.1382C20.218 12.1537 20.3468 12.1845 20.4541 12.2308C20.5616 12.2772 20.6552 12.3473 20.7352 12.4413C20.7983 12.5128 20.847 12.5865 20.8815 12.6623C20.9158 12.738 20.9331 12.8075 20.9331 12.8707C20.9331 12.9409 20.9075 13.0016 20.8563 13.0528C20.805 13.104 20.743 13.1296 20.67 13.1296C20.5325 13.1296 20.4434 13.0553 20.4026 12.9065C20.3563 12.7311 20.2448 12.6147 20.068 12.5571V13.4327C20.242 13.4804 20.3805 13.5239 20.4836 13.5632C20.5868 13.6025 20.679 13.6593 20.7605 13.7338C20.8474 13.8109 20.9144 13.9032 20.9615 14.0105C21.0085 14.1178 21.032 14.2354 21.032 14.3631C21.032 14.523 20.9945 14.6728 20.9194 14.8124C20.8443 14.9521 20.7339 15.066 20.5879 15.1544C20.4419 15.2428 20.2687 15.2954 20.0681 15.3123V15.8364C20.0681 15.9192 20.0599 15.9795 20.0439 16.0174C20.0277 16.0553 19.9922 16.0742 19.9376 16.0742C19.887 16.0742 19.8516 16.0588 19.8312 16.0279C19.8109 15.9971 19.8008 15.9493 19.8008 15.8848V15.3164C19.6366 15.2982 19.4931 15.2596 19.3704 15.2007C19.2476 15.1417 19.1452 15.0684 19.0631 14.9807C18.981 14.8931 18.9203 14.8018 18.881 14.7071C18.8417 14.6124 18.822 14.5194 18.822 14.4282C18.822 14.3608 18.8484 14.3001 18.901 14.2461C18.9536 14.1921 19.0191 14.1651 19.0977 14.1651C19.1609 14.1651 19.2142 14.1798 19.2577 14.2093C19.3012 14.2387 19.3314 14.2801 19.3482 14.3335C19.3861 14.4486 19.4191 14.5366 19.4471 14.5977C19.4752 14.6587 19.5177 14.7145 19.5745 14.765C19.6313 14.8155 19.7066 14.8542 19.8008 14.8808V13.902C19.6128 13.8501 19.4556 13.7923 19.3293 13.7284C19.203 13.6646 19.1006 13.5737 19.0221 13.4559C18.9435 13.338 18.9042 13.1864 18.9042 13.0012C18.9042 12.7599 18.981 12.562 19.1347 12.4077C19.2883 12.2533 19.5104 12.1635 19.8009 12.1382V11.9151C19.8009 11.7973 19.8451 11.7383 19.9334 11.7383C20.023 11.7383 20.0679 11.7958 20.0679 11.9109ZM19.8006 13.3547V12.5486C19.6827 12.5836 19.5909 12.6299 19.5249 12.6875C19.4589 12.7451 19.426 12.8321 19.426 12.9485C19.426 13.0594 19.4568 13.1432 19.5186 13.2C19.5803 13.2568 19.6743 13.3084 19.8006 13.3547ZM20.0679 13.9798V14.9018C20.2096 14.8738 20.319 14.8169 20.3962 14.7313C20.4733 14.6457 20.512 14.546 20.512 14.4324C20.512 14.3103 20.4745 14.2159 20.3994 14.1493C20.3244 14.0827 20.2138 14.0262 20.0679 13.9798Z" fill="#EAA97D"/>
<path d="M19.939 17.4754C18.01 17.4754 16.4407 15.906 16.4407 13.977C16.4407 12.0479 18.01 10.4785 19.939 10.4785C21.8681 10.4785 23.4375 12.0479 23.4375 13.977C23.4375 15.906 21.8681 17.4754 19.939 17.4754ZM19.939 10.8535C18.2168 10.8535 16.8157 12.2547 16.8157 13.977C16.8157 15.6993 18.2169 17.1004 19.939 17.1004C21.6613 17.1004 23.0625 15.6992 23.0625 13.977C23.0625 12.2547 21.6613 10.8535 19.939 10.8535Z" fill="#3762CC"/>
</svg>
