<svg width="75" height="14" viewBox="0 0 75 14" fill="none" xmlns="http://www.w3.org/2000/svg">
<path d="M1.31874 11V1.29744H5.31065C6.17002 1.29744 6.90465 1.43605 7.51452 1.71326C8.13364 1.99048 8.60952 2.38782 8.94218 2.90529C9.27484 3.42276 9.44117 4.03726 9.44117 4.74878C9.44117 5.4603 9.27484 6.0748 8.94218 6.59227C8.60952 7.10049 8.13364 7.49322 7.51452 7.77043C6.90465 8.03841 6.17002 8.1724 5.31065 8.1724H2.31672L3.12065 7.35461V11H1.31874ZM7.66699 11L5.21363 7.47936H7.14028L9.6075 11H7.66699ZM3.12065 7.54866L2.31672 6.68929H5.22749C6.02217 6.68929 6.61819 6.51834 7.01553 6.17644C7.42212 5.83454 7.62541 5.35865 7.62541 4.74878C7.62541 4.12966 7.42212 3.65378 7.01553 3.32112C6.61819 2.98846 6.02217 2.82213 5.22749 2.82213H2.31672L3.12065 1.93504V7.54866ZM14.5389 11.097C13.7165 11.097 12.9957 10.9353 12.3766 10.6119C11.7667 10.2792 11.2908 9.82645 10.9489 9.25354C10.6163 8.68063 10.4499 8.02917 10.4499 7.29917C10.4499 6.55992 10.6117 5.90847 10.9351 5.34479C11.2677 4.77188 11.7205 4.32371 12.2934 4.0003C12.8756 3.67688 13.5363 3.51517 14.2755 3.51517C14.9963 3.51517 15.6385 3.67226 16.2022 3.98643C16.7658 4.30061 17.2094 4.74416 17.5328 5.31707C17.8562 5.88998 18.0179 6.56454 18.0179 7.34075C18.0179 7.41467 18.0133 7.49784 18.0041 7.59024C18.0041 7.68265 17.9995 7.77043 17.9902 7.8536H11.8222V6.70315H17.0754L16.3962 7.06353C16.4055 6.63847 16.3177 6.26423 16.1329 5.94081C15.9481 5.61739 15.6939 5.36327 15.3705 5.17846C15.0563 4.99365 14.6913 4.90125 14.2755 4.90125C13.8505 4.90125 13.4762 4.99365 13.1528 5.17846C12.8386 5.36327 12.5891 5.62201 12.4043 5.95467C12.2287 6.27809 12.141 6.66157 12.141 7.10511V7.38233C12.141 7.82588 12.2426 8.2186 12.4459 8.5605C12.6492 8.9024 12.9356 9.16575 13.3053 9.35056C13.6749 9.53538 14.1 9.62778 14.5805 9.62778C14.9963 9.62778 15.3705 9.5631 15.7032 9.43373C16.0358 9.30436 16.3315 9.10107 16.5903 8.82385L17.519 9.89114C17.1863 10.2792 16.7658 10.5796 16.2576 10.7921C15.7586 10.9954 15.1857 11.097 14.5389 11.097ZM23.8084 11V9.50303L23.7113 9.18423V6.56454C23.7113 6.05631 23.5589 5.66359 23.2539 5.38638C22.949 5.09992 22.487 4.95669 21.8678 4.95669C21.452 4.95669 21.0408 5.02137 20.6342 5.15074C20.2369 5.28011 19.8996 5.4603 19.6224 5.69131L18.9432 4.42998C19.3406 4.12504 19.8118 3.89865 20.357 3.7508C20.9115 3.59371 21.4844 3.51517 22.0758 3.51517C23.1477 3.51517 23.9747 3.7739 24.5568 4.29137C25.1482 4.7996 25.4439 5.58967 25.4439 6.66157V11H23.8084ZM21.4797 11.097C20.9253 11.097 20.4402 11.0046 20.0244 10.8198C19.6085 10.6258 19.2851 10.3624 19.0541 10.0297C18.8323 9.68784 18.7214 9.30436 18.7214 8.8793C18.7214 8.46347 18.8185 8.08923 19.0125 7.75657C19.2158 7.42391 19.5439 7.16056 19.9966 6.96651C20.4494 6.77246 21.0501 6.67543 21.7985 6.67543H23.947V7.82588H21.9233C21.3319 7.82588 20.9346 7.9229 20.7313 8.11695C20.528 8.30176 20.4263 8.53278 20.4263 8.80999C20.4263 9.12417 20.5511 9.37367 20.8006 9.55848C21.0501 9.74329 21.3966 9.83569 21.8401 9.83569C22.2652 9.83569 22.6441 9.73867 22.9767 9.54462C23.3186 9.35056 23.5635 9.06411 23.7113 8.68525L24.0024 9.72481C23.8361 10.1591 23.5358 10.4964 23.1015 10.7366C22.6764 10.9769 22.1358 11.097 21.4797 11.097ZM30.5826 11.097C29.8711 11.097 29.2288 10.9399 28.6559 10.6258C28.0923 10.3023 27.6487 9.85879 27.3253 9.29512C27.0019 8.73145 26.8402 8.06613 26.8402 7.29917C26.8402 6.5322 27.0019 5.86688 27.3253 5.30321C27.6487 4.73954 28.0923 4.30061 28.6559 3.98643C29.2288 3.67226 29.8711 3.51517 30.5826 3.51517C31.2017 3.51517 31.7561 3.65378 32.2459 3.93099C32.7356 4.19897 33.1237 4.61017 33.4102 5.1646C33.6966 5.71903 33.8399 6.43056 33.8399 7.29917C33.8399 8.15854 33.7013 8.87006 33.424 9.43373C33.1468 9.98816 32.7633 10.404 32.2736 10.6812C31.7838 10.9584 31.2202 11.097 30.5826 11.097ZM30.7905 9.61392C31.2063 9.61392 31.5759 9.52151 31.8994 9.3367C32.232 9.15189 32.4954 8.88392 32.6894 8.53278C32.8927 8.18164 32.9944 7.77043 32.9944 7.29917C32.9944 6.81866 32.8927 6.40745 32.6894 6.06555C32.4954 5.71441 32.232 5.44644 31.8994 5.26163C31.5759 5.07682 31.2063 4.98441 30.7905 4.98441C30.3747 4.98441 30.0004 5.07682 29.6678 5.26163C29.3443 5.44644 29.081 5.71441 28.8777 6.06555C28.6836 6.40745 28.5866 6.81866 28.5866 7.29917C28.5866 7.77043 28.6836 8.18164 28.8777 8.53278C29.081 8.88392 29.3443 9.15189 29.6678 9.3367C30.0004 9.52151 30.3747 9.61392 30.7905 9.61392ZM33.0359 11V9.25354L33.1052 7.28531L32.9666 5.31707V0.715285H34.6854V11H33.0359ZM40.5008 11V1.29744H41.9839L46.2253 8.38031H45.4491L49.6212 1.29744H51.1043L51.1181 11H49.4133L49.3994 3.97257H49.7598L46.2114 9.89114H45.4075L41.8037 3.97257H42.2195V11H40.5008ZM56.6682 11.097C55.9104 11.097 55.2359 10.9353 54.6445 10.6119C54.0531 10.2792 53.5865 9.82645 53.2446 9.25354C52.9027 8.68063 52.7317 8.02917 52.7317 7.29917C52.7317 6.55992 52.9027 5.90847 53.2446 5.34479C53.5865 4.77188 54.0531 4.32371 54.6445 4.0003C55.2359 3.67688 55.9104 3.51517 56.6682 3.51517C57.4351 3.51517 58.1143 3.67688 58.7057 4.0003C59.3063 4.32371 59.773 4.76726 60.1056 5.33093C60.4475 5.8946 60.6185 6.55068 60.6185 7.29917C60.6185 8.02917 60.4475 8.68063 60.1056 9.25354C59.773 9.82645 59.3063 10.2792 58.7057 10.6119C58.1143 10.9353 57.4351 11.097 56.6682 11.097ZM56.6682 9.61392C57.0932 9.61392 57.4721 9.52151 57.8048 9.3367C58.1374 9.15189 58.3961 8.88392 58.581 8.53278C58.775 8.18164 58.872 7.77043 58.872 7.29917C58.872 6.81866 58.775 6.40745 58.581 6.06555C58.3961 5.71441 58.1374 5.44644 57.8048 5.26163C57.4721 5.07682 57.0979 4.98441 56.682 4.98441C56.257 4.98441 55.8781 5.07682 55.5454 5.26163C55.222 5.44644 54.9633 5.71441 54.7692 6.06555C54.5752 6.40745 54.4782 6.81866 54.4782 7.29917C54.4782 7.77043 54.5752 8.18164 54.7692 8.53278C54.9633 8.88392 55.222 9.15189 55.5454 9.3367C55.8781 9.52151 56.2523 9.61392 56.6682 9.61392ZM62.0443 11V3.59833H63.6937V5.63587L63.4997 5.03986C63.7214 4.54087 64.068 4.162 64.5392 3.90327C65.0197 3.64453 65.6157 3.51517 66.3273 3.51517V5.1646C66.2533 5.14612 66.184 5.13688 66.1194 5.13688C66.0547 5.12764 65.99 5.12302 65.9253 5.12302C65.2692 5.12302 64.7471 5.31707 64.359 5.70517C63.9709 6.08404 63.7769 6.65233 63.7769 7.41005V11H62.0443ZM70.9774 11.097C70.155 11.097 69.4342 10.9353 68.8151 10.6119C68.2053 10.2792 67.7294 9.82645 67.3875 9.25354C67.0548 8.68063 66.8885 8.02917 66.8885 7.29917C66.8885 6.55992 67.0502 5.90847 67.3736 5.34479C67.7063 4.77188 68.1591 4.32371 68.732 4.0003C69.3141 3.67688 69.9748 3.51517 70.7141 3.51517C71.4348 3.51517 72.077 3.67226 72.6407 3.98643C73.2044 4.30061 73.6479 4.74416 73.9714 5.31707C74.2948 5.88998 74.4565 6.56454 74.4565 7.34075C74.4565 7.41467 74.4519 7.49784 74.4426 7.59024C74.4426 7.68265 74.438 7.77043 74.4288 7.8536H68.2607V6.70315H73.5139L72.8348 7.06353C72.844 6.63847 72.7562 6.26423 72.5714 5.94081C72.3866 5.61739 72.1325 5.36327 71.8091 5.17846C71.4949 4.99365 71.1299 4.90125 70.7141 4.90125C70.289 4.90125 69.9148 4.99365 69.5913 5.17846C69.2772 5.36327 69.0277 5.62201 68.8429 5.95467C68.6673 6.27809 68.5795 6.66157 68.5795 7.10511V7.38233C68.5795 7.82588 68.6811 8.2186 68.8844 8.5605C69.0877 8.9024 69.3742 9.16575 69.7438 9.35056C70.1134 9.53538 70.5385 9.62778 71.019 9.62778C71.4348 9.62778 71.8091 9.5631 72.1417 9.43373C72.4744 9.30436 72.7701 9.10107 73.0288 8.82385L73.9575 9.89114C73.6248 10.2792 73.2044 10.5796 72.6962 10.7921C72.1972 10.9954 71.6243 11.097 70.9774 11.097Z" fill="url(#paint0_linear_1145_58629)"/>
<path d="M0.0158272 12.7326H74.9832V13.4256H0.0158272V12.7326Z" fill="url(#paint1_linear_1145_58629)"/>
<defs>
<linearGradient id="paint0_linear_1145_58629" x1="79.0472" y1="-5.81347" x2="51.4954" y2="36.9668" gradientUnits="userSpaceOnUse">
<stop stop-color="#FEC12D"/>
<stop offset="1" stop-color="#FF552C"/>
</linearGradient>
<linearGradient id="paint1_linear_1145_58629" x1="79.0472" y1="-5.81347" x2="51.4954" y2="36.9668" gradientUnits="userSpaceOnUse">
<stop stop-color="#FEC12D"/>
<stop offset="1" stop-color="#FF552C"/>
</linearGradient>
</defs>
</svg>
