<svg width="32" height="32" viewBox="0 0 32 32" fill="none" xmlns="http://www.w3.org/2000/svg">
<path d="M8.94966 13.686L11.8716 10.1707C11.9109 10.1234 11.9406 10.0687 11.9588 10.0099C11.9771 9.95115 11.9835 9.88934 11.9779 9.82804C11.9722 9.76674 11.9546 9.70715 11.9259 9.65268C11.8972 9.59822 11.8581 9.54993 11.8107 9.51058C11.7151 9.43113 11.5918 9.39291 11.4681 9.40433C11.3443 9.41574 11.2301 9.47586 11.1506 9.57146L8.64597 12.5846L8.09854 11.6954C8.03337 11.5895 7.92881 11.5139 7.80787 11.4851C7.68692 11.4563 7.5595 11.4768 7.45363 11.5419C7.34776 11.6071 7.27211 11.7117 7.24333 11.8326C7.21455 11.9535 7.23499 12.081 7.30016 12.1868L8.18991 13.632C8.35816 13.9051 8.74479 13.9325 8.94966 13.686ZM7.30029 18.3743L8.19004 19.8195C8.35816 20.0926 8.74479 20.12 8.94966 19.8734L11.8716 16.3581C11.9109 16.3108 11.9406 16.2562 11.9588 16.1974C11.9771 16.1386 11.9835 16.0768 11.9779 16.0155C11.9722 15.9542 11.9546 15.8946 11.9259 15.8401C11.8972 15.7857 11.8581 15.7374 11.8107 15.698C11.7634 15.6587 11.7088 15.629 11.65 15.6108C11.5912 15.5926 11.5294 15.5861 11.4681 15.5917C11.4068 15.5974 11.3472 15.6151 11.2927 15.6437C11.2382 15.6724 11.1899 15.7116 11.1506 15.7589L8.64597 18.7721L8.09854 17.8828C8.06626 17.8304 8.02398 17.7849 7.97411 17.7488C7.92424 17.7127 7.86775 17.6868 7.80786 17.6726C7.74798 17.6583 7.68588 17.656 7.62511 17.6658C7.56433 17.6756 7.50608 17.6972 7.45366 17.7295C7.40125 17.7617 7.3557 17.804 7.31963 17.8539C7.28355 17.9038 7.25766 17.9602 7.24342 18.0201C7.22917 18.08 7.22687 18.1421 7.23662 18.2029C7.24638 18.2637 7.26801 18.3219 7.30029 18.3743ZM7.30029 24.6035L8.19004 26.0487C8.35816 26.3218 8.74479 26.3491 8.94966 26.1026L11.8716 22.5873C11.9511 22.4917 11.9893 22.3685 11.9779 22.2447C11.9665 22.1209 11.9063 22.0067 11.8107 21.9272C11.7634 21.8879 11.7088 21.8582 11.65 21.84C11.5912 21.8218 11.5294 21.8153 11.4681 21.8209C11.3443 21.8323 11.2301 21.8925 11.1506 21.9881L8.64597 25.0013L8.09854 24.112C8.06666 24.0588 8.02453 24.0124 7.9746 23.9756C7.92466 23.9388 7.86792 23.9123 7.80765 23.8975C7.74739 23.8828 7.6848 23.8802 7.62351 23.8899C7.56223 23.8995 7.50347 23.9212 7.45064 23.9537C7.39782 23.9863 7.35197 24.029 7.31576 24.0793C7.27956 24.1297 7.25371 24.1868 7.23973 24.2472C7.22574 24.3077 7.22389 24.3703 7.23429 24.4314C7.24468 24.4926 7.26712 24.5511 7.30029 24.6035Z" fill="url(#paint0_linear_1154_15073)"/>
<path d="M28.0312 26.4628C27.9069 26.4628 27.7877 26.5122 27.6998 26.6001C27.6119 26.688 27.5625 26.8072 27.5625 26.9316V30.3438C27.5625 30.7401 27.2401 31.0625 26.8438 31.0625H5.15625C4.75994 31.0625 4.4375 30.7401 4.4375 30.3438V9.80056C4.4375 9.54163 4.22763 9.33181 3.96875 9.33181C3.70987 9.33181 3.5 9.54163 3.5 9.80056V30.3438C3.5 31.257 4.243 32 5.15625 32H26.8438C27.757 32 28.5 31.257 28.5 30.3438V26.9316C28.5 26.8072 28.4506 26.688 28.3627 26.6001C28.2748 26.5122 28.1556 26.4628 28.0312 26.4628ZM26.8438 3.61194H24.5508V1.675C24.5508 0.751437 23.7994 0 22.8757 0C21.9521 0 21.2008 0.751375 21.2008 1.675V3.61194H17.675V1.675C17.675 0.751375 16.9236 0 16 0C15.0764 0 14.325 0.751375 14.325 1.675V3.61194H10.7992V1.675C10.7992 0.751437 10.0478 0 9.12419 0C8.20062 0 7.44919 0.751375 7.44919 1.675V3.61194H5.15625C4.243 3.61194 3.5 4.35494 3.5 5.26819V7.61306C3.5 7.872 3.70987 8.08181 3.96875 8.08181C4.22763 8.08181 4.4375 7.872 4.4375 7.61306V5.26819C4.4375 4.87187 4.75994 4.54944 5.15625 4.54944H7.44919V5.29375C7.44919 6.21731 8.20056 6.96875 9.12419 6.96875C10.0478 6.96875 10.7992 6.21737 10.7992 5.29375V4.54944H14.325V5.29375C14.325 6.21731 15.0764 6.96875 16 6.96875C16.9236 6.96875 17.675 6.21737 17.675 5.29375V4.54944H21.2008V5.29375C21.2008 6.21731 21.9522 6.96875 22.8758 6.96875C23.7994 6.96875 24.5508 6.21737 24.5508 5.29375V4.54944H26.8438C27.2401 4.54944 27.5625 4.87187 27.5625 5.26819V24.7441C27.5625 25.003 27.7724 25.2128 28.0312 25.2128C28.2901 25.2128 28.5 25.003 28.5 24.7441V5.26819C28.5 4.35494 27.757 3.61194 26.8438 3.61194ZM9.86175 5.29375C9.86175 5.70044 9.53094 6.03125 9.12425 6.03125C8.71763 6.03125 8.38675 5.70044 8.38675 5.29375V1.675C8.38675 1.26831 8.71756 0.9375 9.12425 0.9375C9.53094 0.9375 9.86175 1.26831 9.86175 1.675V5.29375ZM16.7375 5.29375C16.7375 5.70044 16.4067 6.03125 16 6.03125C15.5933 6.03125 15.2625 5.70044 15.2625 5.29375V1.675C15.2625 1.26831 15.5933 0.9375 16 0.9375C16.4067 0.9375 16.7375 1.26831 16.7375 1.675V5.29375ZM23.6133 5.29375C23.6133 5.70044 23.2825 6.03125 22.8758 6.03125C22.4691 6.03125 22.1383 5.70044 22.1383 5.29375V1.675C22.1383 1.26831 22.4691 0.9375 22.8758 0.9375C23.2824 0.9375 23.6133 1.26831 23.6133 1.675V5.29375Z" fill="url(#paint1_linear_1154_15073)"/>
<path d="M13.8586 14.0742H23.7336C24.5435 14.0742 25.2024 13.4153 25.2024 12.6055C25.2024 11.7956 24.5435 11.1367 23.7336 11.1367H13.8586C13.0488 11.1367 12.3899 11.7956 12.3899 12.6055C12.3899 13.4153 13.0488 14.0742 13.8586 14.0742ZM13.8586 12.0742H23.7336C24.0266 12.0742 24.2649 12.3125 24.2649 12.6055C24.2649 12.8984 24.0266 13.1367 23.7336 13.1367H13.8586C13.5657 13.1367 13.3274 12.8984 13.3274 12.6055C13.3274 12.3125 13.5657 12.0742 13.8586 12.0742ZM13.8586 20.275H23.7336C24.5435 20.275 25.2024 19.6162 25.2024 18.8063C25.2024 17.9964 24.5435 17.3375 23.7336 17.3375H13.8586C13.0488 17.3375 12.3899 17.9964 12.3899 18.8063C12.3899 19.6162 13.0488 20.275 13.8586 20.275ZM13.8586 18.275H23.7336C24.0266 18.275 24.2649 18.5133 24.2649 18.8063C24.2649 19.0992 24.0266 19.3375 23.7336 19.3375H13.8586C13.5657 19.3375 13.3274 19.0992 13.3274 18.8063C13.3274 18.5133 13.5657 18.275 13.8586 18.275ZM13.8586 26.4758H23.7336C24.5435 26.4758 25.2024 25.8169 25.2024 25.007C25.2024 24.1972 24.5435 23.5383 23.7336 23.5383H13.8586C13.0488 23.5383 12.3899 24.1972 12.3899 25.007C12.3899 25.8169 13.0488 26.4758 13.8586 26.4758ZM13.8586 24.4758H23.7336C24.0266 24.4758 24.2649 24.7141 24.2649 25.007C24.2649 25.3 24.0266 25.5383 23.7336 25.5383H13.8586C13.5657 25.5383 13.3274 25.3 13.3274 25.007C13.3274 24.7141 13.5657 24.4758 13.8586 24.4758Z" fill="url(#paint2_linear_1154_15073)"/>
<defs>
<linearGradient id="paint0_linear_1154_15073" x1="12.2363" y1="-2.09156" x2="6.30182" y2="-1.74545" gradientUnits="userSpaceOnUse">
<stop stop-color="#FEC12D"/>
<stop offset="1" stop-color="#FF552C"/>
</linearGradient>
<linearGradient id="paint1_linear_1154_15073" x1="29.8491" y1="-21.8031" x2="-0.678192" y2="-16.8656" gradientUnits="userSpaceOnUse">
<stop stop-color="#FEC12D"/>
<stop offset="1" stop-color="#FF552C"/>
</linearGradient>
<linearGradient id="paint2_linear_1154_15073" x1="25.8938" y1="0.685491" x2="10.3054" y2="3.38116" gradientUnits="userSpaceOnUse">
<stop stop-color="#FEC12D"/>
<stop offset="1" stop-color="#FF552C"/>
</linearGradient>
</defs>
</svg>
