<svg width="32" height="32" viewBox="0 0 32 32" fill="none" xmlns="http://www.w3.org/2000/svg">
<path fill-rule="evenodd" clip-rule="evenodd" d="M13.8745 29.8711C6.22266 29.8711 0.00244141 23.6508 0.00244141 15.999C0.00244141 8.34725 6.22266 2.12695 13.8745 2.12695C17.7264 2.12695 21.3181 3.66254 23.9728 6.47335C24.107 6.62468 24.0922 6.79417 24.0064 6.91737L24.8206 7.98155C24.9757 7.90249 25.1775 7.9188 25.3003 8.11295C26.9139 10.4293 27.7468 13.1621 27.7468 15.999C27.7466 23.6508 21.5263 29.8711 13.8745 29.8711ZM13.8745 27.0083C7.81029 27.0083 2.86529 22.0632 2.86529 15.999C2.86529 9.93488 7.81029 4.98981 13.8745 4.98981C16.7634 4.98981 19.4962 6.1089 21.5523 8.11302C21.7176 8.27616 21.6918 8.47082 21.5843 8.60178L22.615 9.88099C22.7722 9.78901 22.9896 9.79787 23.1138 9.98692C27.7928 17.1071 22.715 27.0083 13.8745 27.0083Z" fill="#545454"/>
<path fill-rule="evenodd" clip-rule="evenodd" d="M14.2387 23.1301C14.0826 23.1301 13.9524 23.026 13.9004 22.8958C13.8744 22.8438 11.6361 17.0659 8.17455 14.8797C7.49785 14.4632 6.97743 14.0208 7.1856 13.0317C7.39377 12.0688 8.04448 11.5222 9.21562 11.2619C11.2977 10.8195 13.536 14.0468 14.3689 15.3742C17.2838 11.1319 23.1137 4.46903 31.5983 3.68824C32.0076 3.64026 32.159 4.24698 31.7805 4.41698C31.6504 4.46903 19.522 10.0128 14.603 22.9219C14.525 23.052 14.3948 23.1301 14.2387 23.1301Z" fill="#00B42C"/>
</svg>
