<svg width="80" height="80" viewBox="0 0 80 80" fill="none" xmlns="http://www.w3.org/2000/svg">
<path d="M67.0625 26.25C66.9863 26.5008 66.8858 26.7437 66.7625 26.975L69.725 29.9375L69.6625 30H50.3375L50.275 29.9375L53.2375 26.975C53.1142 26.7437 53.0137 26.5008 52.9375 26.25H48.75V21.25H52.9375C53.0137 20.9992 53.1142 20.7563 53.2375 20.525L50.275 17.5625L53.8125 14.025L56.775 16.9875C57.0063 16.8642 57.2492 16.7637 57.5 16.6875V12.5H62.5V16.6875C62.7508 16.7637 62.9937 16.8642 63.225 16.9875L66.1875 14.025L69.725 17.5625L66.7625 20.525C66.8858 20.7563 66.9863 20.9992 67.0625 21.25H71.25V26.25H67.0625Z" fill="#ED1C24"/>
<path d="M60 27.5C62.0711 27.5 63.75 25.8211 63.75 23.75C63.75 21.6789 62.0711 20 60 20C57.9289 20 56.25 21.6789 56.25 23.75C56.25 25.8211 57.9289 27.5 60 27.5Z" fill="#E6E7E8"/>
<path d="M28.75 28.75H50V62.5H28.75V28.75Z" fill="#C49A6C"/>
<path d="M50 28.75H71.25V62.5H50V28.75Z" fill="#A97C50"/>
<path d="M50 60V63.75L71.25 62.5V38.75C71.25 44.3859 69.0112 49.7909 65.026 53.776C61.0409 57.7612 55.6359 60 50 60Z" fill="#8B5E3C"/>
<path d="M75.35 56.7502C75.1047 56.3241 74.7778 55.9505 74.3881 55.6508C73.9984 55.3511 73.5534 55.1311 73.0786 55.0034C72.6039 54.8757 72.1086 54.8428 71.6211 54.9066C71.1336 54.9704 70.6634 55.1296 70.2375 55.3752L56.9 63.0752H56.8937C56.716 62.4569 56.3817 61.8951 55.9231 61.444C55.4646 60.9928 54.8973 60.6678 54.2763 60.5002L35.6262 55.5002C34.3959 55.1707 33.1019 55.1599 31.8663 55.4689L23.75 57.5002V72.5002L27.1662 74.2089C28.2077 74.7291 29.3559 75 30.52 75.0002H49.2413C50.5574 75.0021 51.8508 74.6571 52.9913 74.0002L73.9912 61.8752C74.8509 61.3756 75.4769 60.555 75.7317 59.594C75.9865 58.6329 75.8492 57.61 75.35 56.7502Z" fill="#FFBCAB"/>
<path d="M56.8938 63.0742C56.8713 63.0004 56.855 62.9242 56.8288 62.8517C56.8025 62.9292 56.7738 63.0054 56.7425 63.0792C56.394 63.9123 55.7556 64.5911 54.9454 64.9901C54.1351 65.389 53.2079 65.481 52.335 65.2492L45.6888 63.4692L39.2375 61.7342C39.0801 61.6922 38.9158 61.6825 38.7545 61.7056C38.5932 61.7287 38.4382 61.7842 38.2989 61.8688C38.1597 61.9533 38.0389 62.0651 37.9439 62.1975C37.8489 62.3299 37.7817 62.4801 37.7463 62.6392C37.6793 62.9429 37.7319 63.2607 37.8933 63.5265C38.0546 63.7924 38.3122 63.9859 38.6125 64.0667L52.13 67.6917C52.9902 67.941 53.91 67.8876 54.7356 67.5404C55.5612 67.1932 56.2427 66.5733 56.6663 65.7842C57.0848 64.9429 57.1662 63.9735 56.8938 63.0742Z" fill="#FF9478"/>
<path d="M39.9999 4.47461V13.7496L36.2499 16.2496L32.4999 13.7496V4.47461C30.9237 5.1124 29.5362 6.14158 28.4684 7.46488C27.4006 8.78817 26.6879 10.3619 26.3977 12.0373C26.1074 13.7127 26.2491 15.4344 26.8094 17.0398C27.3697 18.6452 28.3302 20.0812 29.5999 21.2121C30.1219 21.6763 30.5391 22.2464 30.8236 22.8843C31.1081 23.5223 31.2534 24.2136 31.2499 24.9121V28.7496H41.2499V24.9121C41.2465 24.2136 41.3918 23.5223 41.6763 22.8843C41.9608 22.2464 42.378 21.6763 42.8999 21.2121C44.1697 20.0812 45.1301 18.6452 45.6905 17.0398C46.2508 15.4344 46.3925 13.7127 46.1022 12.0373C45.8119 10.3619 45.0992 8.78817 44.0315 7.46488C42.9637 6.14158 41.5762 5.1124 39.9999 4.47461Z" fill="#FF9811"/>
<path d="M13.75 53.75V56.25V73.75V76.25H23.75V72.5V57.5V53.75H13.75Z" fill="#006DF0"/>
<path d="M3.75 56.25H13.75V73.75H3.75V56.25Z" fill="#005ECE"/>
<path d="M36.25 28.75H31.25H28.75L23.75 38.75H28.75H45L50 28.75H41.25H36.25Z" fill="#A97C50"/>
<path d="M69.6625 28.75H50.3375H50L55 38.75H71.25H76.25L71.25 28.75H69.6625Z" fill="#8B5E3C"/>
<path d="M11.25 56.25H13.75V73.75H11.25V56.25Z" fill="#004FAC"/>
</svg>
