<svg width="100" height="100" viewBox="0 0 100 100" fill="none" xmlns="http://www.w3.org/2000/svg">
<path d="M0 20C0 8.9543 8.95431 0 20 0H100V100H20C8.9543 100 0 91.0457 0 80V20Z" fill="url(#paint0_linear_1145_62821)"/>
<g clip-path="url(#clip0_1145_62821)">
<path d="M73.2709 63.0742C71.7279 64.8613 69.4135 65.7305 67.1576 65.457L60.351 73.3184C58.9057 74.9785 56.3959 75.1738 54.7162 73.7187C53.056 72.2832 52.8705 69.7539 54.3158 68.0937L61.1225 60.2324C60.5365 58.0156 61.0834 55.6133 62.6166 53.8457C63.9057 52.3516 65.7709 51.4629 67.7435 51.4141C69.1596 51.3359 70.1068 53.0156 69.1693 54.2266L67.8705 56.1602C67.4994 56.7852 67.6264 57.6348 68.2221 58.1523C68.8373 58.6797 69.7162 58.6309 70.2631 58.1816L71.9623 56.6387C73.0072 55.5547 74.7748 56.209 74.9603 57.6543C75.1752 59.6367 74.5795 61.5605 73.2709 63.0742ZM63.2123 37.6543H62.5287C62.3334 32.7031 59.3158 28.4648 55.0287 26.5215C55.0189 26.707 54.9994 26.8926 54.9603 27.0781L53.3685 34.2168C53.2416 34.793 52.6654 35.1641 52.0892 35.0273C51.5131 34.9004 51.142 34.3242 51.2787 33.748L52.8705 26.6094C53.0072 25.9453 52.5385 25.3008 51.8256 25.3008H47.7142C47.0307 25.3008 46.5033 25.9355 46.6693 26.6094L48.2611 33.748C48.3881 34.3242 48.0267 34.9004 47.4506 35.0273C46.8549 35.1445 46.2982 34.7734 46.1713 34.2168L44.5795 27.0781C44.5404 26.8926 44.5111 26.707 44.5111 26.5215C40.224 28.4648 37.2064 32.7031 37.0111 37.6543H36.3275C35.7318 37.6543 35.2533 38.1328 35.2533 38.7285C35.2533 39.3145 35.7318 39.8027 36.3275 39.8027H38.0658V45.7012C38.0658 48.8555 40.5951 51.7363 43.2318 54.1094V56.8144C43.2318 58.0937 42.1478 59.0508 40.9174 59.1289C40.8881 59.1289 41.2103 59.0898 37.3822 59.5V66.2676H53.0756L58.8373 59.6269C58.8178 59.4707 58.7982 59.3047 58.7982 59.1484L58.7494 59.1387C58.7103 59.1289 58.6713 59.1289 58.6322 59.1289C57.3627 59.1289 56.3178 58.0937 56.3178 56.8144V54.1094C58.9545 51.7363 61.474 48.8555 61.474 45.7012V39.8027H63.2221C63.8178 39.8027 64.2963 39.3242 64.2963 38.7285C64.2865 38.1328 63.808 37.6543 63.2123 37.6543ZM56.767 60.8574C52.0697 63.7676 47.4603 63.7676 42.7728 60.8477C44.2963 60.1445 45.3607 58.5918 45.3607 56.8047V55.9551C45.8685 56.375 45.8978 56.4043 46.142 56.6094C46.7767 57.1367 47.5775 57.4297 48.3978 57.4297H51.1127C51.933 57.4297 52.7338 57.1367 53.3685 56.6094C54.4525 55.7109 54.0717 56.0234 54.1596 55.9551V56.8144C54.1693 58.6016 55.2338 60.1445 56.767 60.8574ZM59.3256 45.6914C59.3256 49.0996 54.6869 52.7227 52.0111 54.9492C51.767 55.1543 51.4447 55.2715 51.1224 55.2715H48.4076C48.0853 55.2715 47.7728 55.1543 47.5189 54.9492C44.8139 52.7031 40.2045 49.0801 40.2045 45.6914V39.793H59.3256V45.6914ZM73.4564 74.6953H69.6771L67.9974 69.8809C67.8314 69.4023 67.5971 68.9629 67.3139 68.5723L68.1146 67.6543C69.6771 67.6348 71.2006 67.2051 72.5287 66.4336C72.7533 66.9414 72.9291 67.4687 73.0756 68.0156L74.4916 73.3477C74.6771 74.0019 74.1693 74.6953 73.4564 74.6953ZM52.6752 74.6953H32.1771L33.5541 70.6035C34.0228 69.3144 35.2435 68.4062 36.8842 68.4062H51.6498C51.2982 69.2656 51.1517 70.1934 51.2201 71.1504C51.3178 72.4687 51.8256 73.6992 52.6752 74.6953ZM67.4017 74.6953H62.0014L65.8295 70.2715C66.0346 70.7207 65.8588 70.3203 67.4017 74.6953ZM35.2338 66.4434V59.7441C30.9857 60.6035 27.5678 63.7871 26.4545 67.9961L25.0287 73.3379C24.8529 74.0508 25.3705 74.6953 26.0639 74.6953H29.892L31.5228 69.8809C32.1381 68.1719 33.5443 66.9121 35.2338 66.4434Z" fill="white"/>
</g>
<defs>
<linearGradient id="paint0_linear_1145_62821" x1="105.396" y1="-68.1347" x2="-14.7573" y2="-43.2594" gradientUnits="userSpaceOnUse">
<stop stop-color="#FEC12D"/>
<stop offset="1" stop-color="#FF552C"/>
</linearGradient>
<clipPath id="clip0_1145_62821">
<rect width="50" height="50" fill="white" transform="translate(25 25)"/>
</clipPath>
</defs>
</svg>
