<svg width="186" height="17" viewBox="0 0 186 17" fill="none" xmlns="http://www.w3.org/2000/svg">
<path d="M7.02 16L0.9 2H3.72L9.18 14.66H7.56L13.08 2H15.68L9.58 16H7.02ZM20.8366 16.14C19.6499 16.14 18.6099 15.9067 17.7166 15.44C16.8366 14.96 16.1499 14.3067 15.6566 13.48C15.1766 12.6533 14.9366 11.7133 14.9366 10.66C14.9366 9.59333 15.1699 8.65333 15.6366 7.84C16.1166 7.01333 16.7699 6.36667 17.5966 5.9C18.4366 5.43333 19.3899 5.2 20.4566 5.2C21.4966 5.2 22.4232 5.42667 23.2366 5.88C24.0499 6.33333 24.6899 6.97333 25.1566 7.8C25.6232 8.62667 25.8566 9.6 25.8566 10.72C25.8566 10.8267 25.8499 10.9467 25.8366 11.08C25.8366 11.2133 25.8299 11.34 25.8166 11.46H16.9166V9.8H24.4966L23.5166 10.32C23.5299 9.70667 23.4032 9.16667 23.1366 8.7C22.8699 8.23333 22.5032 7.86667 22.0366 7.6C21.5832 7.33333 21.0566 7.2 20.4566 7.2C19.8432 7.2 19.3032 7.33333 18.8366 7.6C18.3832 7.86667 18.0232 8.24 17.7566 8.72C17.5032 9.18667 17.3766 9.74 17.3766 10.38V10.78C17.3766 11.42 17.5232 11.9867 17.8166 12.48C18.1099 12.9733 18.5232 13.3533 19.0566 13.62C19.5899 13.8867 20.2032 14.02 20.8966 14.02C21.4966 14.02 22.0366 13.9267 22.5166 13.74C22.9966 13.5533 23.4232 13.26 23.7966 12.86L25.1366 14.4C24.6566 14.96 24.0499 15.3933 23.3166 15.7C22.5966 15.9933 21.7699 16.14 20.8366 16.14ZM30.1227 16L26.2027 5.32H28.5627L31.9227 14.74H30.8027L34.3227 5.32H36.4227L39.8427 14.74H38.7427L42.2027 5.32H44.4227L40.4827 16H38.0827L34.9627 7.66H35.7027L32.5227 16H30.1227ZM49.3289 16L55.6289 2H58.1889L64.5089 16H61.7889L56.3689 3.38H57.4089L52.0089 16H49.3289ZM52.2289 12.76L52.9289 10.72H60.4889L61.1889 12.76H52.2289ZM65.7494 16V1.16H68.2494V16H65.7494ZM71.2306 16V1.16H73.7306V16H71.2306ZM82.1792 16V2H87.9392C89.1792 2 90.2392 2.2 91.1192 2.6C92.0126 3 92.6992 3.57333 93.1792 4.32C93.6592 5.06667 93.8992 5.95333 93.8992 6.98C93.8992 8.00667 93.6592 8.89333 93.1792 9.64C92.6992 10.3733 92.0126 10.94 91.1192 11.34C90.2392 11.7267 89.1792 11.92 87.9392 11.92H83.6192L84.7792 10.74V16H82.1792ZM91.3392 16L87.7992 10.92H90.5792L94.1392 16H91.3392ZM84.7792 11.02L83.6192 9.78H87.8192C88.9659 9.78 89.8259 9.53333 90.3992 9.04C90.9859 8.54667 91.2792 7.86 91.2792 6.98C91.2792 6.08667 90.9859 5.4 90.3992 4.92C89.8259 4.44 88.9659 4.2 87.8192 4.2H83.6192L84.7792 2.92V11.02ZM101.288 16.14C100.101 16.14 99.0615 15.9067 98.1681 15.44C97.2881 14.96 96.6015 14.3067 96.1081 13.48C95.6281 12.6533 95.3881 11.7133 95.3881 10.66C95.3881 9.59333 95.6215 8.65333 96.0881 7.84C96.5681 7.01333 97.2215 6.36667 98.0481 5.9C98.8881 5.43333 99.8415 5.2 100.908 5.2C101.948 5.2 102.875 5.42667 103.688 5.88C104.501 6.33333 105.141 6.97333 105.608 7.8C106.075 8.62667 106.308 9.6 106.308 10.72C106.308 10.8267 106.301 10.9467 106.288 11.08C106.288 11.2133 106.281 11.34 106.268 11.46H97.3681V9.8H104.948L103.968 10.32C103.981 9.70667 103.855 9.16667 103.588 8.7C103.321 8.23333 102.955 7.86667 102.488 7.6C102.035 7.33333 101.508 7.2 100.908 7.2C100.295 7.2 99.7548 7.33333 99.2881 7.6C98.8348 7.86667 98.4748 8.24 98.2081 8.72C97.9548 9.18667 97.8281 9.74 97.8281 10.38V10.78C97.8281 11.42 97.9748 11.9867 98.2681 12.48C98.5615 12.9733 98.9748 13.3533 99.5081 13.62C100.041 13.8867 100.655 14.02 101.348 14.02C101.948 14.02 102.488 13.9267 102.968 13.74C103.448 13.5533 103.875 13.26 104.248 12.86L105.588 14.4C105.108 14.96 104.501 15.3933 103.768 15.7C103.048 15.9933 102.221 16.14 101.288 16.14ZM111.054 16L106.474 5.32H109.074L113.014 14.74H111.734L115.814 5.32H118.214L113.634 16H111.054ZM119.477 16V5.32H121.977V16H119.477ZM120.737 3.56C120.27 3.56 119.883 3.41333 119.577 3.12C119.283 2.82667 119.137 2.47333 119.137 2.06C119.137 1.63333 119.283 1.28 119.577 0.999999C119.883 0.706666 120.27 0.56 120.737 0.56C121.203 0.56 121.583 0.699999 121.877 0.979999C122.183 1.24667 122.337 1.58667 122.337 2C122.337 2.44 122.19 2.81333 121.897 3.12C121.603 3.41333 121.217 3.56 120.737 3.56ZM129.978 16.14C128.791 16.14 127.751 15.9067 126.858 15.44C125.978 14.96 125.291 14.3067 124.798 13.48C124.318 12.6533 124.078 11.7133 124.078 10.66C124.078 9.59333 124.311 8.65333 124.778 7.84C125.258 7.01333 125.911 6.36667 126.738 5.9C127.578 5.43333 128.531 5.2 129.598 5.2C130.638 5.2 131.565 5.42667 132.378 5.88C133.191 6.33333 133.831 6.97333 134.298 7.8C134.765 8.62667 134.998 9.6 134.998 10.72C134.998 10.8267 134.991 10.9467 134.978 11.08C134.978 11.2133 134.971 11.34 134.958 11.46H126.058V9.8H133.638L132.658 10.32C132.671 9.70667 132.545 9.16667 132.278 8.7C132.011 8.23333 131.645 7.86667 131.178 7.6C130.725 7.33333 130.198 7.2 129.598 7.2C128.985 7.2 128.445 7.33333 127.978 7.6C127.525 7.86667 127.165 8.24 126.898 8.72C126.645 9.18667 126.518 9.74 126.518 10.38V10.78C126.518 11.42 126.665 11.9867 126.958 12.48C127.251 12.9733 127.665 13.3533 128.198 13.62C128.731 13.8867 129.345 14.02 130.038 14.02C130.638 14.02 131.178 13.9267 131.658 13.74C132.138 13.5533 132.565 13.26 132.938 12.86L134.278 14.4C133.798 14.96 133.191 15.3933 132.458 15.7C131.738 15.9933 130.911 16.14 129.978 16.14ZM139.264 16L135.344 5.32H137.704L141.064 14.74H139.944L143.464 5.32H145.564L148.984 14.74H147.884L151.344 5.32H153.564L149.624 16H147.224L144.104 7.66H144.844L141.664 16H139.264ZM158.146 16.14C157.253 16.14 156.393 16.0267 155.566 15.8C154.753 15.56 154.106 15.2733 153.626 14.94L154.586 13.04C155.066 13.3467 155.64 13.6 156.306 13.8C156.973 14 157.64 14.1 158.306 14.1C159.093 14.1 159.66 13.9933 160.006 13.78C160.366 13.5667 160.546 13.28 160.546 12.92C160.546 12.6267 160.426 12.4067 160.186 12.26C159.946 12.1 159.633 11.98 159.246 11.9C158.86 11.82 158.426 11.7467 157.946 11.68C157.48 11.6133 157.006 11.5267 156.526 11.42C156.06 11.3 155.633 11.1333 155.246 10.92C154.86 10.6933 154.546 10.3933 154.306 10.02C154.066 9.64667 153.946 9.15333 153.946 8.54C153.946 7.86 154.14 7.27333 154.526 6.78C154.913 6.27333 155.453 5.88667 156.146 5.62C156.853 5.34 157.686 5.2 158.646 5.2C159.366 5.2 160.093 5.28 160.826 5.44C161.56 5.6 162.166 5.82667 162.646 6.12L161.686 8.02C161.18 7.71333 160.666 7.50667 160.146 7.4C159.64 7.28 159.133 7.22 158.626 7.22C157.866 7.22 157.3 7.33333 156.926 7.56C156.566 7.78667 156.386 8.07333 156.386 8.42C156.386 8.74 156.506 8.98 156.746 9.14C156.986 9.3 157.3 9.42667 157.686 9.52C158.073 9.61333 158.5 9.69333 158.966 9.76C159.446 9.81333 159.92 9.9 160.386 10.02C160.853 10.14 161.28 10.3067 161.666 10.52C162.066 10.72 162.386 11.0067 162.626 11.38C162.866 11.7533 162.986 12.24 162.986 12.84C162.986 13.5067 162.786 14.0867 162.386 14.58C162 15.0733 161.446 15.46 160.726 15.74C160.006 16.0067 159.146 16.14 158.146 16.14ZM164.499 13.66V11.58L172.939 8.42V9.58L164.499 6.42V4.34L173.719 7.92V10.08L164.499 13.66ZM175.996 13.66V11.58L184.436 8.42V9.58L175.996 6.42V4.34L185.216 7.92V10.08L175.996 13.66Z" fill="url(#paint0_linear_1145_42975)"/>
<defs>
<linearGradient id="paint0_linear_1145_42975" x1="197.037" y1="-26.4404" x2="109.008" y2="86.5522" gradientUnits="userSpaceOnUse">
<stop stop-color="#FEC12D"/>
<stop offset="1" stop-color="#FF552C"/>
</linearGradient>
</defs>
</svg>
