<svg width="26" height="16" viewBox="0 0 26 16" fill="none" xmlns="http://www.w3.org/2000/svg">
<g clip-path="url(#clip0_1145_45423)">
<path opacity="0.07" d="M23.3616 0H2.02519C0.891694 0 0.0249023 0.866667 0.0249023 2V14C0.0249023 15.1333 0.95837 16 2.02519 16H23.3616C24.4951 16 25.3619 15.1333 25.3619 14V2C25.3619 0.866667 24.4284 0 23.3616 0Z" fill="#24292A"/>
<path d="M23.3633 0.666016C24.0967 0.666016 24.6968 1.26602 24.6968 1.99935V13.9993C24.6968 14.7327 24.0967 15.3327 23.3633 15.3327H2.02689C1.29345 15.3327 0.693359 14.7327 0.693359 13.9993V1.99935C0.693359 1.26602 1.29345 0.666016 2.02689 0.666016H23.3633Z" fill="white"/>
<path d="M18.8964 6.73398H18.6964C18.4297 7.40065 18.2297 7.73398 18.0296 8.73398H19.2965C19.0964 7.73398 19.0964 7.26732 18.8964 6.73398ZM20.83 10.6673H19.6965C19.6299 10.6673 19.6299 10.6673 19.5632 10.6007L19.4298 10.0007L19.3631 9.86732H17.7629C17.6962 9.86732 17.6296 9.86732 17.6296 10.0007L17.4295 10.6007C17.4295 10.6673 17.3629 10.6673 17.3629 10.6673H15.9627L16.096 10.334L18.0296 5.80065C18.0296 5.46732 18.2297 5.33398 18.563 5.33398H19.5632C19.6299 5.33398 19.6965 5.33398 19.6965 5.46732L20.63 9.80065C20.6967 10.0673 20.7634 10.2673 20.7634 10.534C20.83 10.6007 20.83 10.6007 20.83 10.6673ZM11.8954 10.4673L12.1621 9.26732C12.2288 9.26732 12.2955 9.33398 12.2955 9.33398C12.7622 9.53398 13.2289 9.66732 13.6957 9.60065C13.829 9.60065 14.029 9.53398 14.1624 9.46732C14.4958 9.33398 14.4958 9.00065 14.2291 8.73398C14.0957 8.60065 13.8957 8.53398 13.6957 8.40065C13.429 8.26732 13.1623 8.13398 12.9622 7.93398C12.1621 7.26732 12.4288 6.33398 12.8955 5.86732C13.2956 5.60065 13.4956 5.33398 14.029 5.33398C14.8292 5.33398 15.696 5.33398 16.096 5.46732H16.1627C16.096 5.86732 16.0293 6.20065 15.896 6.60065C15.5626 6.46732 15.2292 6.33398 14.8958 6.33398C14.6958 6.33398 14.4958 6.33398 14.2958 6.40065C14.1624 6.40065 14.0957 6.46732 14.029 6.53398C13.8957 6.66732 13.8957 6.86732 14.029 7.00065L14.3624 7.26732C14.6291 7.40065 14.8958 7.53398 15.0959 7.66732C15.4292 7.86732 15.7626 8.20065 15.8293 8.60065C15.9627 9.20065 15.7626 9.73398 15.2292 10.134C14.8958 10.4007 14.7625 10.534 14.2958 10.534C13.3623 10.534 12.6288 10.6007 12.0288 10.4007C11.9621 10.534 11.9621 10.534 11.8954 10.4673ZM9.56173 10.6673C9.62841 10.2007 9.62841 10.2007 9.69509 10.0007C10.0285 8.53398 10.3618 7.00065 10.6286 5.53398C10.6952 5.40065 10.6952 5.33398 10.8286 5.33398H12.0288C11.8954 6.13398 11.7621 6.73398 11.562 7.46732C11.362 8.46732 11.162 9.46732 10.8953 10.4673C10.8953 10.6007 10.8286 10.6007 10.6952 10.6007M3.36084 5.46732C3.36084 5.40065 3.49419 5.33398 3.56087 5.33398H5.82786C6.16124 5.33398 6.42795 5.53398 6.49463 5.86732L7.09471 8.80065C7.09471 8.86732 7.09471 8.86732 7.16139 8.93398C7.16139 8.86732 7.22806 8.86732 7.22806 8.86732L8.62827 5.46732C8.56159 5.40065 8.62827 5.33398 8.69494 5.33398H10.0951C10.0951 5.40065 10.0951 5.40065 10.0285 5.46732L7.9615 10.334C7.89483 10.4673 7.89483 10.534 7.82815 10.6007C7.76147 10.6673 7.62812 10.6007 7.49477 10.6007H6.49463C6.42795 10.6007 6.36127 10.6007 6.36127 10.4673L5.29445 6.33398C5.1611 6.20065 4.96107 6.00065 4.69437 5.93398C4.29431 5.73398 3.56087 5.60065 3.42752 5.60065L3.36084 5.46732Z" fill="#142688"/>
</g>
<defs>
<clipPath id="clip0_1145_45423">
<rect width="25.337" height="16" fill="white" transform="translate(0.0249023)"/>
</clipPath>
</defs>
</svg>
