<svg width="40" height="40" viewBox="0 0 40 40" fill="none" xmlns="http://www.w3.org/2000/svg">
<g clip-path="url(#clip0_1153_14729)">
<path d="M20 40.0003C31.0452 40.0003 39.9991 31.0463 39.9991 20.0011C39.9991 8.95588 31.0452 0.00195312 20 0.00195312C8.95472 0.00195312 0.000793457 8.95588 0.000793457 20.0011C0.000793457 31.0463 8.95472 40.0003 20 40.0003Z" fill="#F3F2F2"/>
<path d="M14.81 23.8365L16.3403 14.8H18.8179L17.2877 23.8365H14.81ZM26.1079 15.0336C25.6169 14.8504 24.8476 14.6543 23.887 14.6543C21.4383 14.6543 19.7135 15.8802 19.6987 17.6366C19.6851 18.9347 20.9299 19.6589 21.8703 20.0915C22.8347 20.5335 23.1591 20.8172 23.1543 21.2122C23.1483 21.8179 22.3838 22.0948 21.6714 22.0948C20.6799 22.0945 20.1528 21.9578 19.339 21.6205L19.0197 21.4766L18.6718 23.4995C19.2506 23.7519 20.3211 23.9707 21.4323 23.9817C24.0366 23.9812 25.728 22.7704 25.747 20.8943C25.7564 19.8665 25.0961 19.0842 23.6665 18.4391C22.8003 18.0216 22.2698 17.7427 22.2755 17.319C22.2755 16.9435 22.7248 16.5419 23.6946 16.5419C24.5049 16.5292 25.092 16.7048 25.5496 16.888L25.7713 16.9922L26.1079 15.0336ZM30.3322 14.8C29.7385 14.8 29.3096 14.9812 29.0488 15.5696L25.3768 23.8368H28.0001L28.5101 22.4521H31.6442L31.9354 23.8368H34.2675L32.2272 14.8002H30.3322L30.3322 14.8ZM29.2061 20.6439C29.4107 20.1235 30.1929 18.1182 30.1929 18.1182C30.1787 18.1419 30.3965 17.5953 30.5216 17.2561L30.6893 18.0348C30.6893 18.0348 31.1633 20.192 31.2628 20.6442H29.2061V20.6439ZM10.2917 20.9944L10.0735 19.7556C9.6213 18.3115 8.21789 16.749 6.64526 15.9661L8.83431 23.8365H11.4582L15.3932 14.8H12.7699L10.2917 20.9944Z" fill="#293688"/>
<path d="M3.95168 14.8008V14.9467C7.06063 15.6944 9.21904 17.5848 10.0735 19.7565L9.17516 15.572C9.02518 15.0001 8.57072 14.8207 8.03295 14.8009L3.95168 14.8008ZM19.9987 40C27.7178 40 34.4109 35.6244 37.7447 29.2206H2.25305C5.58709 35.6244 12.2799 40 19.9987 40Z" fill="#F7981D"/>
<path d="M19.9986 0C12.402 0 5.79482 4.23529 2.4093 10.4737H37.5886C34.2027 4.23563 27.5952 0 19.9986 0Z" fill="#293688"/>
</g>
<defs>
<clipPath id="clip0_1153_14729">
<rect width="40" height="40" fill="white"/>
</clipPath>
</defs>
</svg>
